<svg xmlns="http://www.w3.org/2000/svg" width="512" height="512"><g xmlns="http://www.w3.org/2000/svg"><path d="M485.871 16.987H26.101C11.709 16.987 0 28.696 0 43.088v324.711c0 14.408 11.709 26.13 26.101 26.13h135.018v39.103h-50.207c-17.08 0-30.976 13.896-30.976 30.977v21.005c0 5.522 4.478 10 10 10h332.129c5.522 0 10-4.478 10-10v-21.005c0-17.08-13.908-30.977-31.004-30.977h-50.179v-39.103h134.989c14.407 0 26.129-11.722 26.129-26.13V43.088c0-14.392-11.722-26.101-26.129-26.101zm-73.807 447.021v11.005H99.936v-11.005c0-6.053 4.924-10.977 10.976-10.977h290.149c6.067 0 11.003 4.924 11.003 10.977zm-81.182-30.977H181.118v-39.103h149.764zm154.989-59.102H26.101c-3.307 0-6.101-2.808-6.101-6.13v-20.104h191.086c5.522 0 10-4.478 10-10s-4.478-10-10-10H20V43.088c0-3.307 2.794-6.101 6.101-6.101h459.771c3.322 0 6.129 2.794 6.129 6.101v284.607H300.886c-5.522 0-10 4.478-10 10s4.478 10 10 10H492v20.104c0 3.322-2.807 6.13-6.129 6.13z" fill="#fff" data-original="#000000"/><path d="M448.058 220.46H312.536c-5.522 0-10 4.478-10 10v62.249c0 5.522 4.478 10 10 10h135.521c5.522 0 10-4.478 10-10V230.46c.001-5.522-4.477-10-9.999-10zm-10 62.249H322.536V240.46h115.521v42.249zM262.647 151.436h-1.421a104.118 104.118 0 00-7.541-18.143l.979-.984c3.554-3.523 5.51-8.229 5.51-13.251s-1.956-9.729-5.479-13.223L237.49 88.63c-3.523-3.553-8.229-5.51-13.25-5.51h-.002c-5.021 0-9.728 1.956-13.223 5.479l-1.004 1.004a104.684 104.684 0 00-18.15-7.527v-1.4c0-10.328-8.39-18.73-18.702-18.73h-24.378c-10.312 0-18.702 8.402-18.702 18.73v1.4a104.73 104.73 0 00-18.15 7.527l-1.004-1.004a18.588 18.588 0 00-13.232-5.479h-.038c-5.001.01-9.689 1.966-13.169 5.475l-17.269 17.24c-3.52 3.521-5.459 8.216-5.459 13.223 0 5.006 1.939 9.701 5.459 13.221l1.022 1.023a103.373 103.373 0 00-7.528 18.134h-1.417c-10.312 0-18.702 8.39-18.702 18.702v24.378c0 10.328 8.39 18.731 18.702 18.731h1.417a103.447 103.447 0 007.52 18.118l-1.043 1.039c-7.222 7.282-7.222 19.131.035 26.449l17.257 17.229c7.262 7.26 19.111 7.273 26.445 0l1.003-1.004a104.057 104.057 0 0018.151 7.516v1.413c0 10.312 8.39 18.702 18.702 18.702h24.378c10.312 0 18.702-8.39 18.702-18.702v-1.413a103.948 103.948 0 0018.151-7.516l1.003 1.004c3.521 3.521 8.217 5.459 13.223 5.459 5.007 0 9.703-1.939 13.223-5.459l17.234-17.234c3.533-3.534 5.479-8.235 5.479-13.237s-1.946-9.702-5.479-13.236l-1.001-1.001a104.037 104.037 0 007.532-18.126h1.421c10.312 0 18.702-8.403 18.702-18.731v-24.378c.001-10.314-8.389-18.703-18.702-18.703zm-1.297 41.811h-7.802a10 10 0 00-9.757 7.807c-2.112 9.397-5.832 18.352-11.055 26.614a10 10 0 001.382 12.414l5.529 5.528-15.409 15.409-5.515-5.515a10.003 10.003 0 00-12.415-1.381 84.21 84.21 0 01-26.636 11.025 10 10 0 00-7.812 9.758v7.802h-21.782v-7.802a10 10 0 00-7.812-9.758 84.21 84.21 0 01-26.636-11.025 10.003 10.003 0 00-12.415 1.381l-5.516 5.516-15.434-15.408 5.539-5.515a10 10 0 001.386-12.448 83.717 83.717 0 01-11.043-26.596 10 10 0 00-9.757-7.807h-7.801v-21.812h7.801a10 10 0 009.757-7.807 83.702 83.702 0 0111.043-26.595 10.002 10.002 0 00-1.37-12.433l-5.542-5.544 15.421-15.396 5.516 5.516a10 10 0 0012.414 1.382 84.944 84.944 0 0126.661-11.06 10 10 0 007.787-9.752v-7.802h21.782v7.802a10 10 0 007.787 9.752 84.92 84.92 0 0126.661 11.06 10.004 10.004 0 0012.414-1.382l5.515-5.515 15.396 15.397-5.532 5.558a9.999 9.999 0 00-1.366 12.397c5.223 8.263 8.942 17.217 11.055 26.614a10 10 0 009.757 7.807h7.802v21.814z" fill="#fff" data-original="#000000"/><path d="M219.192 152.709c-.363-3.027-2.143-5.803-4.758-7.378l-48.301-29.112a10.002 10.002 0 00-10.322-.002l-48.33 29.112c-2.96 1.783-4.84 5.11-4.84 8.566v56.892a10 10 0 004.84 8.566l48.33 29.112c3.132 1.887 7.188 1.886 10.322-.002l48.301-29.112a10 10 0 004.838-8.564v-56.892a10.241 10.241 0 00-.08-1.186zm-58.223-16.251l28.931 17.437-28.931 17.437-28.947-17.437zm-38.328 35.135l28.33 17.065v33.544l-28.33-17.065zm76.63 33.546l-28.301 17.058v-33.541l28.301-17.057zM357.436 102.752h90.622c5.522 0 10-4.478 10-10s-4.478-10-10-10h-90.622c-5.522 0-10 4.478-10 10s4.477 10 10 10zM312.536 102.752h.057c5.522 0 9.972-4.478 9.972-10s-4.506-10-10.028-10-10 4.478-10 10 4.477 10 9.999 10zM357.407 146.065h90.594c5.522 0 10-4.478 10-10s-4.478-10-10-10h-90.594c-5.522 0-10 4.478-10 10s4.478 10 10 10zM312.508 146.065h.028c5.522 0 9.986-4.478 9.986-10s-4.492-10-10.015-10-10 4.478-10 10 4.478 10 10.001 10zM357.351 189.379h90.622c5.522 0 10-4.478 10-10s-4.478-10-10-10h-90.622c-5.522 0-10 4.478-10 10s4.477 10 10 10zM312.451 189.379h.057c5.522 0 9.972-4.478 9.972-10s-4.506-10-10.028-10-10 4.478-10 10 4.477 10 9.999 10zM255.985 327.695c-5.522 0-10 4.478-10 10s4.478 10 10 10h.058c5.522 0 9.972-4.478 9.972-10s-4.507-10-10.03-10z" fill="#fff" data-original="#000000"/></g></svg>