<svg xmlns="http://www.w3.org/2000/svg" width="512" height="512" viewBox="0 0 64 64"><g xmlns="http://www.w3.org/2000/svg"><path d="M32 38c2.206 0 4-1.794 4-4v-2h-8v2c0 2.206 1.794 4 4 4zm2-4c0 1.103-.897 2-2 2s-2-.897-2-2zM22 13.302l5.418-4.515A4.389 4.389 0 0029 5.408a4.376 4.376 0 00-1.293-3.115A4.384 4.384 0 0024.586 1h-.172c-.87 0-1.702.25-2.414.717A4.383 4.383 0 0019.586 1h-.172a4.392 4.392 0 00-3.127 1.298A4.373 4.373 0 0015 5.408c0 1.31.577 2.541 1.582 3.379zm-4.293-9.594A2.396 2.396 0 0119.414 3h.172c.645 0 1.251.251 1.707.708l.707.706.707-.706A2.396 2.396 0 0124.414 3h.172c.645 0 1.251.251 1.711.711.453.454.703 1.057.703 1.697 0 .714-.314 1.386-.863 1.843L22 10.698l-4.137-3.447A2.391 2.391 0 0117 5.408c0-.64.25-1.243.707-1.7zM8 23.302l5.418-4.515A4.389 4.389 0 0015 15.408a4.376 4.376 0 00-1.293-3.115A4.384 4.384 0 0010.586 11h-.172c-.87 0-1.702.25-2.414.717A4.383 4.383 0 005.586 11h-.172a4.392 4.392 0 00-3.127 1.298A4.373 4.373 0 001 15.408c0 1.31.577 2.541 1.582 3.379zm-4.293-9.594A2.396 2.396 0 015.414 13h.172c.645 0 1.251.251 1.707.708l.707.706.707-.706A2.396 2.396 0 0110.414 13h.172c.645 0 1.251.251 1.711.711.453.454.703 1.057.703 1.697 0 .714-.314 1.386-.863 1.843L8 20.698l-4.137-3.447A2.391 2.391 0 013 15.408c0-.64.25-1.243.707-1.7zM42 13.302l5.418-4.515A4.389 4.389 0 0049 5.408a4.376 4.376 0 00-1.293-3.115A4.384 4.384 0 0044.586 1h-.172c-.87 0-1.702.25-2.414.717A4.383 4.383 0 0039.586 1h-.172a4.392 4.392 0 00-3.127 1.298A4.373 4.373 0 0035 5.408c0 1.31.577 2.541 1.582 3.379zm-4.293-9.594A2.396 2.396 0 0139.414 3h.172c.645 0 1.251.251 1.707.708l.707.706.707-.706A2.396 2.396 0 0144.414 3h.172c.645 0 1.251.251 1.711.711.453.454.703 1.057.703 1.697 0 .714-.314 1.386-.863 1.843L42 10.698l-4.137-3.447A2.391 2.391 0 0137 5.408c0-.64.25-1.243.707-1.7zM50.582 18.787L56 23.302l5.418-4.515A4.389 4.389 0 0063 15.408a4.376 4.376 0 00-1.293-3.115A4.384 4.384 0 0058.586 11h-.172c-.87 0-1.702.25-2.414.717A4.383 4.383 0 0053.586 11h-.172a4.392 4.392 0 00-3.127 1.298A4.373 4.373 0 0049 15.408c0 1.309.577 2.541 1.582 3.379zm1.125-5.079A2.396 2.396 0 0153.414 13h.172c.645 0 1.251.251 1.707.708l.707.706.707-.706A2.396 2.396 0 0158.414 13h.172c.645 0 1.251.251 1.711.711.453.454.703 1.057.703 1.697 0 .714-.314 1.386-.863 1.843L56 20.698l-4.137-3.447A2.391 2.391 0 0151 15.408c0-.64.25-1.243.707-1.7z" fill="#01a479" data-original="#000000"/><path d="M59.802 28h-1.388l-.933-.933A3.62 3.62 0 0054.905 26a3.639 3.639 0 00-3.456 2.491l-.317.951-13.836 12.914-.82-1.641a8.57 8.57 0 003.651-4.714H41c2.206 0 4-1.794 4-4 0-.925-.329-1.767-.858-2.446l.537-2.143c.213-.858.321-1.738.321-2.618C45 18.842 40.158 14 34.206 14h-4.412C23.842 14 19 18.842 19 24.794c0 .879.108 1.76.322 2.618l.536 2.141A3.97 3.97 0 0019 32c0 2.206 1.794 4 4 4h.874a8.563 8.563 0 003.651 4.714l-.82 1.641-13.837-12.913-.317-.952A3.64 3.64 0 009.095 26a3.62 3.62 0 00-2.576 1.067L5.586 28H4.198A3.202 3.202 0 001 31.198a3.207 3.207 0 002.57 3.136l2.918.583L20 49.394V63h24V49.394l13.512-14.477 2.918-.583A3.207 3.207 0 0063 31.198 3.202 3.202 0 0059.802 28zM28 46.081l1.575 1.26a7.726 7.726 0 00-1.575.655zM41 34h-.498l.286-4H41c1.103 0 2 .897 2 2s-.897 2-2 2zm-20-2c0-1.103.897-2 2-2h.212l.285 4H23c-1.103 0-2-.897-2-2zm2-5.395v.236c0 .131.005.261.015.388l.055.771H23c-.495 0-.964.102-1.403.267l-.335-1.339A8.843 8.843 0 0121 24.794C21 19.945 24.945 16 29.794 16h4.412C39.055 16 43 19.945 43 24.794c0 .716-.088 1.435-.262 2.133l-.335 1.34A3.968 3.968 0 0041 28h-.069l.04-.561A4.353 4.353 0 0042 24.623V24h-2v.623A2.38 2.38 0 0137.623 27a2.36 2.36 0 01-1.855-.893l-1.185-1.48A6.968 6.968 0 0029.116 22H29a7.59 7.59 0 00-4.219 1.277A3.993 3.993 0 0023 26.605zm2.498 7.341l-.489-6.862a3.288 3.288 0 01-.009-.243v-.236c0-.67.333-1.292.891-1.664A5.592 5.592 0 0129 24h.116c1.527 0 2.95.684 3.904 1.877l1.185 1.48A4.356 4.356 0 0037.623 29c.432 0 .85-.063 1.244-.18l-.365 5.126C38.259 37.341 35.403 40 32 40s-6.259-2.659-6.502-6.054zM32 42c.928 0 1.822-.159 2.663-.439l1.081 2.163L32 46.719l-3.744-2.995 1.081-2.163c.841.28 1.735.439 2.663.439zm4 4.081v1.915a7.726 7.726 0 00-1.575-.655zM3 31.198A1.2 1.2 0 014.198 30h2.216l1.519-1.519a1.645 1.645 0 012.722.642l.177.531-4.092 3.274-2.776-.555A1.202 1.202 0 013 31.198zm39 17.408V61H22V48.606L8.468 34.107l3.482-2.786L26 44.435v7.98l1.707-1.708A5.789 5.789 0 0131.828 49h.344c1.557 0 3.021.606 4.121 1.707L38 52.415v-7.98l14.05-13.114 3.482 2.786zm18.037-16.233l-2.776.555-4.092-3.274.177-.53a1.642 1.642 0 012.721-.643L57.586 30h2.216a1.2 1.2 0 01.235 2.373z" fill="#01a479" data-original="#000000"/></g></svg>