<svg xmlns="http://www.w3.org/2000/svg" viewBox="0 0 400 300"><g data-name="#519_analytics_process_outline"><path fill="#01a479" d="M79.69 86.12h67.7v88.16h-67.7z"/><path d="M147.39 175.28h-67.7a1 1 0 01-1-1V86.12a1 1 0 011-1h67.7a1 1 0 011 1v88.16a1 1 0 01-1 1zm-66.7-2h65.7V87.12h-65.7z" fill="#093f68"/><path fill="#fff" d="M87.87 93.62h67.7v88.16h-67.7z"/><path d="M155.57 182.77h-67.7a1 1 0 01-1-1V93.62a1 1 0 011-1h67.7a1 1 0 011 1v88.15a1 1 0 01-1 1zm-66.7-2h65.7V94.62h-65.7z" fill="#093f68"/><path fill="#093f68" d="M98.63 109.26h4.61v4.61h-4.61zM108.94 109.26h4.61v4.61h-4.61zM119.24 109.26h4.61v4.61h-4.61zM137 128.37H98.63a1 1 0 010-2H137a1 1 0 010 2zM146.72 137.58H98.63a1 1 0 010-2h48.09a1 1 0 010 2zM142.19 146.79H98.63a1 1 0 010-2h43.56a1 1 0 010 2zM119.24 156H98.63a1 1 0 010-2h20.61a1 1 0 110 2zM281.29 202.78H239a1 1 0 010-2h41.34v-11a1 1 0 012 0v12a1 1 0 01-1.05 1zM157.44 202.78h-41.75a1 1 0 01-1-1v-15a1 1 0 012 0v14h40.75a1 1 0 010 2z"/><path d="M204.13 200.71a2.19 2.19 0 00-1.68-2c-.81-.17-1.63-.3-2.45-.43a.53.53 0 01-.49-.4c-.24-.66-.52-1.3-.8-1.94a.42.42 0 010-.49c.5-.68 1-1.35 1.46-2.06a2.15 2.15 0 00-.19-2.62c-.75-.83-1.56-1.6-2.34-2.39a2.31 2.31 0 00-3.14-.29c-.61.43-1.23.86-1.83 1.31a.44.44 0 01-.49 0q-1-.46-2.1-.87a.42.42 0 01-.32-.38c-.12-.75-.24-1.5-.37-2.25a2.27 2.27 0 00-2.17-1.94h-3.46a2.19 2.19 0 00-2.1 1.72c-.19.84-.32 1.69-.46 2.54a.44.44 0 01-.31.38c-.68.26-1.35.55-2 .85a.41.41 0 01-.47 0c-.66-.49-1.33-1-2-1.45a2.19 2.19 0 00-2.66.17c-.88.81-1.73 1.65-2.54 2.52a2.23 2.23 0 00-.15 3c.45.64.92 1.28 1.36 1.93a.43.43 0 010 .35c-.28.72-.57 1.45-.87 2.16a.46.46 0 01-.28.23l-2.24.38a2.24 2.24 0 00-2 2.1v3.62a2.17 2.17 0 001.66 2c.86.19 1.73.32 2.6.47a.4.4 0 01.36.3c.27.69.56 1.36.86 2a.35.35 0 010 .43c-.45.62-.91 1.24-1.34 1.88a2.27 2.27 0 00.26 3q1.08 1.11 2.19 2.19a2.27 2.27 0 003.12.24c.63-.44 1.26-.88 1.88-1.34a.35.35 0 01.41 0c.64.27 1.28.55 1.93.79a.49.49 0 01.36.45c.11.75.24 1.48.37 2.22a2.22 2.22 0 002.07 1.94h3.64a2.17 2.17 0 002-1.69c.18-.82.3-1.65.44-2.48a.48.48 0 01.34-.43c.68-.26 1.36-.54 2-.84a.39.39 0 01.44 0l1.88 1.34a2.34 2.34 0 001.51.46 1.93 1.93 0 001.35-.55c.79-.75 1.56-1.53 2.33-2.3a2.31 2.31 0 00.29-3.19l-1.31-1.83a.37.37 0 010-.44c.29-.67.58-1.35.85-2a.42.42 0 01.39-.31c.75-.11 1.49-.24 2.24-.37a2.25 2.25 0 002-2.15c0-1.17-.01-2.36-.03-3.54zm-18.54 9.79a8 8 0 118-8 8 8 0 01-8 8z" fill="#ffbc0e" stroke="#093f68" stroke-linecap="round" stroke-linejoin="round" stroke-width="2"/><path d="M235.15 190.37a1.61 1.61 0 00-1.24-1.5c-.6-.13-1.21-.23-1.82-.32a.42.42 0 01-.36-.3c-.18-.49-.38-1-.59-1.43a.33.33 0 010-.37c.37-.5.74-1 1.08-1.52a1.62 1.62 0 00-.14-2c-.56-.61-1.16-1.18-1.74-1.76a1.71 1.71 0 00-2.32-.22c-.45.32-.91.64-1.35 1a.33.33 0 01-.37 0c-.51-.23-1-.44-1.56-.64a.33.33 0 01-.23-.29c-.09-.55-.18-1.11-.28-1.66a1.67 1.67 0 00-1.6-1.44h-2.57a1.62 1.62 0 00-1.55 1.27c-.14.62-.23 1.25-.34 1.88a.3.3 0 01-.23.28c-.5.2-1 .41-1.49.63a.29.29 0 01-.34 0c-.5-.37-1-.74-1.5-1.08a1.62 1.62 0 00-2 .13c-.65.6-1.28 1.22-1.88 1.87a1.64 1.64 0 00-.11 2.18l1 1.44a.31.31 0 010 .25c-.2.54-.42 1.08-.64 1.61a.34.34 0 01-.21.16l-1.66.28a1.69 1.69 0 00-1.49 1.57v2.67a1.6 1.6 0 001.24 1.49c.63.14 1.28.24 1.92.35a.31.31 0 01.27.22c.2.51.41 1 .64 1.51a.29.29 0 010 .32c-.34.46-.68.92-1 1.39a1.68 1.68 0 00.19 2.25c.54.55 1.08 1.09 1.63 1.63a1.67 1.67 0 002.3.17c.47-.32.94-.65 1.4-1a.25.25 0 01.3 0c.47.2 1 .41 1.43.58a.38.38 0 01.27.34c.08.55.17 1.1.27 1.64a1.66 1.66 0 001.53 1.44h2.7a1.62 1.62 0 001.5-1.26c.13-.6.22-1.22.32-1.83a.35.35 0 01.26-.32c.5-.19 1-.4 1.49-.62a.27.27 0 01.32 0l1.39 1a1.82 1.82 0 001.12.34 1.42 1.42 0 001-.41c.59-.55 1.16-1.13 1.73-1.7a1.71 1.71 0 00.21-2.36c-.31-.46-.64-.91-1-1.36a.29.29 0 010-.32c.22-.5.43-1 .63-1.52a.35.35 0 01.29-.23c.56-.08 1.11-.17 1.67-.27a1.67 1.67 0 001.45-1.59c.08-.82.08-1.69.06-2.57zm-13.73 7.25a5.92 5.92 0 115.94-5.91 5.92 5.92 0 01-5.94 5.91z" fill="#f56132" stroke="#093f68" stroke-linecap="round" stroke-linejoin="round" stroke-width="2" data-name="ahcQ9Z"/><path d="M152.43 208.35a1 1 0 01-.63-1.78l5.84-4.73-5.78-4a1 1 0 111.14-1.64l6.87 4.76a1 1 0 01.06 1.6l-6.87 5.57a1 1 0 01-.63.22zM253.25 208.35a1 1 0 01-.78-.37 1 1 0 01.15-1.41l5.84-4.73-5.78-4a1 1 0 111.14-1.64l6.87 4.76a1 1 0 01.43.79 1 1 0 01-.37.81l-6.87 5.57a1 1 0 01-.63.22z" fill="#093f68"/><path d="M320.31 150.25v22c0 6.21-17.47 11.25-39 11.25s-39-5-39-11.25v-22z" fill="#01a479"/><path d="M281.29 184.5c-26 0-40-6.31-40-12.25v-22a1 1 0 011-1h78a1 1 0 011 1v22c.02 5.94-14.01 12.25-40 12.25zm-38-33.25v21c0 4.85 15.62 10.25 38 10.25s38-5.4 38-10.25v-21z" fill="#093f68"/><ellipse cx="281.29" cy="150.25" rx="39.02" ry="11.24" fill="#093f68"/><path d="M281.29 162.5c-26 0-40-6.31-40-12.25s14-12.24 40-12.24 40 6.31 40 12.24-14.01 12.25-40 12.25zm0-22.49c-22.4 0-38 5.4-38 10.24s15.62 10.25 38 10.25 38-5.4 38-10.25-15.6-10.25-38-10.25zM314.48 172.14a1 1 0 01-1-1v-8.61a1 1 0 112 0v8.61a1 1 0 01-1 1z" fill="#093f68"/><path d="M320.31 120.22v22c0 6.21-17.47 11.24-39 11.24s-39-5-39-11.24v-22z" fill="#01a479"/><path d="M281.29 154.46c-26 0-40-6.31-40-12.24v-22a1 1 0 011-1h78a1 1 0 011 1v22c.02 5.93-14.01 12.24-40 12.24zm-38-33.24v21c0 4.84 15.62 10.24 38 10.24s38-5.4 38-10.24v-21z" fill="#093f68"/><ellipse cx="281.29" cy="120.22" rx="39.02" ry="11.24" fill="#093f68"/><path d="M281.29 132.46c-26 0-40-6.31-40-12.24s14-12.25 40-12.25 40 6.31 40 12.25-14.01 12.24-40 12.24zm0-22.49c-22.4 0-38 5.4-38 10.25s15.62 10.24 38 10.24 38-5.4 38-10.24-15.6-10.22-38-10.22zM314.48 142.1a1 1 0 01-1-1v-8.6a1 1 0 012 0v8.6a1 1 0 01-1 1zM309.81 144.31a1 1 0 01-1-1v-8.6a1 1 0 112 0v8.6a1 1 0 01-1 1zM309.81 174.32a1 1 0 01-1-1v-8.6a1 1 0 112 0v8.6a1 1 0 01-1 1zM305.07 175.21a1 1 0 01-1-1v-8.61a1 1 0 112 0v8.61a1 1 0 01-1 1z" fill="#093f68"/><path d="M320.31 90.18v22c0 6.21-17.47 11.24-39 11.24s-39-5-39-11.24v-22z" fill="#01a479"/><path d="M281.29 124.42c-26 0-40-6.3-40-12.24v-22a1 1 0 011-1h78a1 1 0 011 1v22c.02 5.94-14.01 12.24-40 12.24zm-38-33.24v21c0 4.85 15.62 10.24 38 10.24s38-5.39 38-10.24v-21z" fill="#093f68"/><ellipse cx="281.29" cy="90.18" rx="39.02" ry="11.24" fill="#01a479"/><path d="M281.29 102.42c-26 0-40-6.3-40-12.24s14-12.24 40-12.24 40 6.31 40 12.24-14.01 12.24-40 12.24zm0-22.48c-22.4 0-38 5.4-38 10.24s15.62 10.24 38 10.24 38-5.39 38-10.24-15.6-10.24-38-10.24zM314.48 112.06a1 1 0 01-1-1v-8.6a1 1 0 112 0v8.6a1 1 0 01-1 1z" fill="#093f68"/><path d="M159.716 175.442a2.29 2.29 0 01-3.06 1.061l-22.08-10.708 1.998-4.12 22.08 10.707a2.29 2.29 0 011.062 3.06z" fill="#01a479"/><path d="M157.66 177.74a3.32 3.32 0 01-1.43-.33l-22.1-10.71a1 1 0 01-.51-.58 1 1 0 010-.76l2-4.12a1 1 0 011.33-.46l22.1 10.71a3.29 3.29 0 01-1.44 6.25zm-21.76-12.41l21.2 10.28a1.29 1.29 0 001.78-1.58 1.24 1.24 0 00-.66-.74L137 163z" fill="#093f68"/><circle cx="135.57" cy="163.74" r="11.14" fill="#01a479"/><path d="M135.55 175.87a12.12 12.12 0 01-5.28-1.21 12.15 12.15 0 01-5.62-16.22A12.14 12.14 0 01146.49 169a12.16 12.16 0 01-10.94 6.87zm-4.41-3a10.14 10.14 0 008.86-18.26 10.15 10.15 0 00-13.54 4.7 10.16 10.16 0 004.69 13.55z" fill="#093f68"/><circle cx="135.57" cy="163.74" r="7.08" fill="#fff"/><path d="M135.55 171.82a8.08 8.08 0 117.29-4.56 8.1 8.1 0 01-7.29 4.56zm0-14.16a6.07 6.07 0 102.64.6 6.09 6.09 0 00-2.61-.6z" fill="#093f68"/><path d="M213.38 103.85h-24.71a1 1 0 010-2h24.71a1 1 0 010 2zM213.38 114.14h-32.75a1 1 0 010-2h32.75a1 1 0 010 2zM213.38 124.42h-32.75a1 1 0 010-2h32.75a1 1 0 010 2zM213.38 149.51h-32.75a1 1 0 010-2h32.75a1 1 0 010 2zM202.48 159.79h-21.85a1 1 0 010-2h21.85a1 1 0 010 2z" fill="#dfeaef"/></g></svg>