<svg data-name="Layer 1" xmlns="http://www.w3.org/2000/svg" viewBox="0 0 400 300"><path d="M136.12 46.41c-45.78 10.1-82 42-92.58 83.08-7.89 30.55-1 62 52.15 73.5 114.83 24.77 238.86 16.6 253.72-32.94S336.7 35.55 271 30.29c-37.35-2.99-93.47 6.98-134.88 16.12z" fill="#e6e6e6" opacity=".3"/><path fill="#e6e6e6" opacity=".43" d="M151.62 65.42h103.15v85.63H151.62z"/><path d="M166.21 178.48s-7.57 3.83-4.68 8.26 9.19-4.13 9.19-4.13z" fill="#f4a28c"/><path d="M148.92 102.7a4.51 4.51 0 015.54-5.52 66 66 0 0135.75 24.6c1.57 2.13 3.07 4.21 4.49 6.22a31.36 31.36 0 01-6.9 43.14l-16.29 12.19-6.44-5.89L178.14 165a17.11 17.11 0 00-.06-24.79l-25.66-24.31z" fill="#01a479"/><path d="M148.92 102.7a4.51 4.51 0 015.54-5.52 66 66 0 0135.75 24.6c1.57 2.13 3.07 4.21 4.49 6.22a31.36 31.36 0 01-6.9 43.14l-16.29 12.19-6.44-5.89L178.14 165a17.11 17.11 0 00-.06-24.79l-25.66-24.31z" fill="#fff" opacity=".46"/><ellipse cx="215.77" cy="257.92" rx="152.02" ry="13.24" fill="#e6e6e6" opacity=".45"/><path d="M105.45 105.23a70.65 70.65 0 0116.83-5.91c9.12-1.84 25.32-4.78 33.43-1.79s28.35 34 13 45.44l-7.87 20.12h-36.02s-27.51-29.16-19.37-57.86z" fill="#01a479"/><path d="M117.73 110.53a36 36 0 015 15.13 59.88 59.88 0 006.91 22.91l7.91 14.52h-12.73s-10.32-10.7-14.26-22.09-1.8-25.14 7.17-30.47z" opacity=".08"/><path d="M133.82 80.65a31.69 31.69 0 012.85 8 2.57 2.57 0 01-2.19 2.9 5.64 5.64 0 01-5.72-2.25l-3.1-3.54a4.57 4.57 0 010-5.29c1.87-3.03 6.87-2.65 8.16.18z" fill="#f4a28c"/><path fill="#f4a28c" d="M127.22 84.43l-.74 16.7 9.23-.25-3.17-12.05-5.32-4.4zM135.15 83.58l2.07 1.28a.81.81 0 010 1.38l-1.66 1.08z"/><path d="M133.29 91.59a6.06 6.06 0 01-3.17-1.43s.48 3 4.16 5.64z" fill="#ce8172" opacity=".31"/><path d="M119.12 116c0-10.17-12.66-14.86-19.46-7.3a42.1 42.1 0 00-10.82 23.23c-2.71 22.33.27 71.08.27 71.08h8.08s5.46-48.72 17.38-71.08c3.32-6.25 4.53-11.55 4.55-15.93z" fill="#01a479"/><path d="M119.12 116c0-10.17-12.66-14.86-19.46-7.3a42.1 42.1 0 00-10.82 23.23c-2.71 22.33.27 71.08.27 71.08h8.08s5.46-48.72 17.38-71.08c3.32-6.25 4.53-11.55 4.55-15.93z" fill="#fff" opacity=".46"/><path d="M86.23 217.07v-3.45A4.72 4.72 0 0191 208.9h4.43a4.72 4.72 0 014.72 4.72v3.7" fill="none" stroke="#24285b" stroke-miterlimit="10" stroke-width="2"/><path fill="#ffd200" d="M76.85 215.7h33.71v21.96H76.85z"/><path d="M76.85 226s12.63 10.85 33.71 7.66v4H76.85z" opacity=".08"/><path d="M90.51 203s-2.42 8 .77 8 7 1.54 4.59-8z" fill="#f4a28c"/><path d="M108.51 85.38l-9.05-7.7a28.35 28.35 0 10-2.28 4.26z" fill="#24285b"/><path d="M74.38 49.92c.88 0 1.15.31 1.15 1.2V53c3.56.5 5.6 2.28 7.11 5.36.46.93.27 1.43-.78 1.9l-1.86.86c-.88.42-1.31.23-1.81-.7a4.84 4.84 0 00-4.94-3c-3.28 0-4.79 1-4.79 3.16 0 1.43 1.31 2.32 2.67 2.59a21.3 21.3 0 002.77.42 18.18 18.18 0 015.14 1 7.18 7.18 0 012.28 1.23 7.48 7.48 0 012 5.41c0 4.2-2.82 7.06-7.8 7.79v2c0 .89-.27 1.2-1.15 1.2h-2.12c-.88 0-1.19-.31-1.19-1.2v-2c-3.86-.5-6.45-2.47-7.72-5.94a1.26 1.26 0 01.88-1.78l1.9-.69c1-.35 1.39-.12 1.81.85q1.27 3.24 5.21 3.24c3.55 0 5.33-1.12 5.33-3.4a2.36 2.36 0 00-1.66-2.3 13.2 13.2 0 00-3.81-.74 17.56 17.56 0 01-5.18-1.12 7.27 7.27 0 01-2.23-1.28 7 7 0 01-2.09-5.25c0-4.17 2.63-6.94 7.57-7.6v-1.89c0-.89.31-1.2 1.19-1.2z" fill="#fff"/><path fill="#c1c1c1" d="M204.04 183.24h134.13v72.05H204.04z"/><path fill="#e6e6e6" d="M182.6 183.24h134.13v72.05H182.6z"/><path d="M267.36 183.33s-3.4-30.46 12.26-34.23 38.47-1.65 28.93 34.23zM254.26 172.23h-35.24l-3.06 11.01h35.23l3.07-11.01z" fill="#c1c1c1"/><path fill="#a5a5a5" d="M254.26 172.23l4.25 11.1-7.32-.09 3.07-11.01z"/><path d="M127 88.85s-2.76.36-4.81-3.87 1.5-5.26 1.5-5.26.16-4.72 4.44-5.42 9.42 6.24 2.94 8c-4.9 1.28 1.78 2.78-4.07 6.55z" fill="#24285b"/><path d="M130.47 86.76s-.78-1.81-2.09-1.1-.19 3.31 1.77 2.79z" fill="#f4a28c"/><circle cx="118.48" cy="83.14" r="4.18" fill="#24285b"/><path d="M122.4 85.36s-1.66 0-1.81-2.45 1.81-2.38 1.81-2.38-1.27 1.75 0 4.83z" fill="#ffd200"/><path d="M124.82 163.09l-6.34 88.34 24.66-1 1.63-50.83a1 1 0 011.91-.06l4.94 50.13 22.7-.51-13.45-86z" fill="#24285b"/><path d="M129.15 251a10.2 10.2 0 01-6.49 5.55c-5 1.53-.28 6.9 5.16 3.83a19.66 19.66 0 016-2.31 2.59 2.59 0 002.1-3l-.74-4.33zM166.27 249.28a10.2 10.2 0 006.49 5.55c5 1.53.27 6.89-5.16 3.83a19.76 19.76 0 00-6-2.31 2.6 2.6 0 01-2.11-3l.74-4.34z" fill="#01a479"/><path d="M119.6 99.77s13.4-3.12 24.8-3.52c0 0 16.34 28.88 7.32 39.43S123.69 116 119.6 99.77z" fill="#fff"/><circle cx="148.84" cy="151.05" r="2.78" fill="#fff" opacity=".46"/></svg>