<svg xmlns="http://www.w3.org/2000/svg" viewBox="0 0 400 300"><g data-name="#495_business_conference_flatline"><path fill="#fff" d="M73.12 45.06h253.35v83.74H73.12z"/><path d="M326.47 129.31H73.12a.5.5 0 01-.5-.5V45.06a.5.5 0 01.5-.5h253.35a.5.5 0 01.5.5v83.75a.5.5 0 01-.5.5zm-252.85-1H326V45.56H73.62z" fill="#d1d3d4"/><path d="M171.8 116.06H163a.48.48 0 01-.47-.48V73.73a.47.47 0 01.47-.47h8.78a.48.48 0 01.48.47v41.85a.49.49 0 01-.46.48zm-8.3-1h7.82V74.21h-7.82zM188 116.06h-8.77a.48.48 0 01-.48-.48V91a.48.48 0 01.48-.48H188a.48.48 0 01.48.48v24.54a.48.48 0 01-.48.52zm-8.3-1h7.82V91.52h-7.82zM204.18 116.06h-8.77a.48.48 0 01-.48-.48V79.77a.47.47 0 01.48-.48h8.77a.47.47 0 01.48.48v35.81a.48.48 0 01-.48.48zm-8.3-1h7.83V80.24h-7.83zM220.38 116.06h-8.78a.49.49 0 01-.48-.48v-15.36a.48.48 0 01.48-.48h8.78a.47.47 0 01.47.48v15.36a.48.48 0 01-.47.48zm-8.3-1h7.82v-14.37h-7.82zM236.57 116.06h-8.78a.49.49 0 01-.48-.48V79.77a.48.48 0 01.48-.48h8.78a.48.48 0 01.48.48v35.81a.49.49 0 01-.48.48zm-8.3-1h7.82V80.24h-7.82zM236.36 59.59h-14.85a.48.48 0 110-1h14.85a.48.48 0 110 1zM236.36 62.87h-14.85a.48.48 0 110-.95h14.85a.48.48 0 110 .95zM231.2 66.15h-9.69a.48.48 0 01-.48-.48.49.49 0 01.48-.48h9.69a.48.48 0 01.47.48.47.47 0 01-.47.48zM178.62 52.25h-14.85a.48.48 0 01-.48-.48.47.47 0 01.48-.48h14.85a.47.47 0 01.47.48.48.48 0 01-.47.48zM173.45 55.52h-9.68a.48.48 0 110-1h9.68a.48.48 0 110 1z" fill="#d1d3d4"/><path d="M217.08 85.55c-4.68 0-8.76-5.21-12-9.42-2.17-2.77-4.26-5.38-5.57-5.35-1.54 0-3.65 1.27-5.88 2.56-3 1.75-6.48 3.73-9.69 3.56-6-.33-17.34-13.63-17.82-14.2a.47.47 0 010-.67.49.49 0 01.68 0c.11.14 11.53 13.56 17.14 13.86 3 .16 6.25-1.74 9.16-3.43 2.34-1.35 4.55-2.63 6.33-2.68h.06c1.82 0 3.8 2.52 6.29 5.71 3.22 4.13 7.26 9.27 11.54 9 3.75-.18 5.54-3.44 7.44-6.89s3.68-6.72 7.44-7.43a.48.48 0 01.55.38.47.47 0 01-.38.55c-3.31.63-5 3.7-6.77 7-1.94 3.53-4 7.18-8.23 7.39zM244.08 116.06h-88.15a.49.49 0 01-.48-.48.48.48 0 01.48-.48h88.15a.47.47 0 01.47.48.48.48 0 01-.47.48z" fill="#d1d3d4"/><path d="M166.66 64.29a1.95 1.95 0 111.94-2 2 2 0 01-1.94 2zm0-2.94a1 1 0 101 1 1 1 0 00-1-1zM232.29 72.68a1.95 1.95 0 112-2 1.94 1.94 0 01-2 2zm0-2.93a1 1 0 101 1 1 1 0 00-1-1z" fill="#d1d3d4"/><path d="M94 141.84h37.44a20.85 20.85 0 0120.85 20.85v81.59H73.12V162.7A20.85 20.85 0 0194 141.84z" fill="#fff"/><path d="M152.27 244.79H73.12a.5.5 0 01-.5-.5V162.7A21.38 21.38 0 0194 141.34h37.44a21.38 21.38 0 0121.36 21.36v81.59a.51.51 0 01-.53.5zm-78.65-1h78.15V162.7a20.39 20.39 0 00-20.36-20.36H94a20.38 20.38 0 00-20.38 20.36z" fill="#231f20"/><path d="M70 173.28a9.62 9.62 0 019.62 9.62v61.39H60.36v-61.4a9.62 9.62 0 019.64-9.61z" fill="#fff"/><path d="M79.59 244.79H60.36a.5.5 0 01-.5-.5v-61.4a10.12 10.12 0 0120.23 0v61.4a.5.5 0 01-.5.5zm-18.73-1h18.23v-60.9a9.12 9.12 0 00-18.23 0z" fill="#231f20"/><path d="M155.41 173.28a9.62 9.62 0 019.62 9.62v61.39h-19.24v-61.4a9.62 9.62 0 019.62-9.61z" fill="#fff"/><path d="M165 244.79h-19.21a.51.51 0 01-.5-.5v-61.4a10.12 10.12 0 0120.24 0v61.4a.51.51 0 01-.53.5zm-18.74-1h18.24v-60.9a9.12 9.12 0 00-18.24 0z" fill="#231f20"/><path fill="#fff" d="M79.59 197.62h66.2v17.82h-66.2z"/><path d="M145.79 215.94h-66.2a.5.5 0 01-.5-.5v-17.82a.5.5 0 01.5-.5h66.2a.5.5 0 01.5.5v17.82a.5.5 0 01-.5.5zm-65.7-1h65.2v-16.82h-65.2z" fill="#231f20"/><path fill="#fff" d="M79.59 215.44h66.2v28.85h-66.2z"/><path d="M145.79 244.79h-66.2a.51.51 0 01-.5-.5v-28.85a.5.5 0 01.5-.5h66.2a.5.5 0 01.5.5v28.85a.5.5 0 01-.5.5zm-65.7-1h65.2v-27.85h-65.2z" fill="#231f20"/><path d="M262.25 141.84h37.44a20.85 20.85 0 0120.85 20.85v81.59H241.4V162.7a20.85 20.85 0 0120.85-20.86z" fill="#fff"/><path d="M320.54 244.79H241.4a.5.5 0 01-.5-.5V162.7a21.38 21.38 0 0121.35-21.36h37.44A21.38 21.38 0 01321 162.7v81.59a.5.5 0 01-.46.5zm-78.64-1H320V162.7a20.38 20.38 0 00-20.35-20.36h-37.4a20.38 20.38 0 00-20.35 20.36z" fill="#231f20"/><path d="M238.25 173.28a9.62 9.62 0 019.62 9.62v61.39h-19.23v-61.4a9.62 9.62 0 019.61-9.61z" fill="#fff"/><path d="M247.87 244.79h-19.23a.5.5 0 01-.5-.5v-61.4a10.12 10.12 0 0120.23 0v61.4a.5.5 0 01-.5.5zm-18.73-1h18.23v-60.9a9.12 9.12 0 00-18.23 0z" fill="#231f20"/><path d="M323.69 173.28a9.62 9.62 0 019.62 9.62v61.39h-19.24v-61.4a9.62 9.62 0 019.62-9.61z" fill="#fff"/><path d="M333.3 244.79h-19.23a.5.5 0 01-.5-.5v-61.4a10.12 10.12 0 0120.23 0v61.4a.5.5 0 01-.5.5zm-18.73-1h18.23v-60.9a9.12 9.12 0 00-18.23 0z" fill="#231f20"/><path fill="#fff" d="M247.87 197.62h66.2v17.82h-66.2z"/><path d="M314.07 215.94h-66.2a.5.5 0 01-.5-.5v-17.82a.5.5 0 01.5-.5h66.2a.5.5 0 01.5.5v17.82a.5.5 0 01-.5.5zm-65.7-1h65.2v-16.82h-65.2z" fill="#231f20"/><path fill="#fff" d="M247.87 215.44h66.2v28.85h-66.2z"/><path d="M314.07 244.79h-66.2a.5.5 0 01-.5-.5v-28.85a.5.5 0 01.5-.5h66.2a.5.5 0 01.5.5v28.85a.5.5 0 01-.5.5zm-65.7-1h65.2v-27.85h-65.2z" fill="#231f20"/><path fill="#fff" d="M174.14 178.46h43.77v65.83h-43.77z"/><path d="M217.91 244.79h-43.77a.51.51 0 01-.5-.5v-65.83a.5.5 0 01.5-.5h43.77a.5.5 0 01.5.5v65.83a.51.51 0 01-.5.5zm-43.27-1h42.77V179h-42.77z" fill="#231f20"/><path fill="#231f20" d="M200.83 174.57h12.94v3.88h-12.94z"/><path d="M213.77 179h-12.94a.5.5 0 01-.5-.5v-3.89a.5.5 0 01.5-.5h12.94a.5.5 0 01.5.5v3.89a.5.5 0 01-.5.5zm-12.44-1h11.94v-2.89h-11.94z" fill="#231f20"/><path d="M206.19 175.54a.51.51 0 01-.5-.5v-19.19c0-5 13.57-10.45 15.11-11a.5.5 0 11.37.93c-4 1.58-14.48 6.48-14.48 10.12V175a.5.5 0 01-.5.54z" fill="#231f20"/><ellipse cx="221.72" cy="145.26" rx="3.37" ry="1.07" transform="rotate(-17.05 221.738 145.275)" fill="#231f20"/><path d="M219.69 147.18c-.81 0-1.49-.2-1.67-.78-.36-1.18 1.87-2.21 3.24-2.63s3.8-.83 4.17.36c.36 1.18-1.87 2.21-3.25 2.63a8.89 8.89 0 01-2.49.42zm-.68-1.09a5.31 5.31 0 002.88-.28 5.24 5.24 0 002.54-1.38 5.32 5.32 0 00-2.87.29 5.48 5.48 0 00-2.56 1.37zm5.49-1.62zM180.06 174.57H193v3.88h-12.94z" fill="#231f20"/><path d="M193 179h-12.94a.5.5 0 01-.5-.5v-3.89a.5.5 0 01.5-.5H193a.5.5 0 01.5.5v3.89a.5.5 0 01-.5.5zm-12.44-1h11.94v-2.89h-11.94z" fill="#231f20"/><path d="M187.61 175.54a.5.5 0 01-.5-.5v-19.19c0-4.51-6.14-10.16-6.21-10.22a.5.5 0 01.68-.74c.26.25 6.53 6 6.53 11V175a.51.51 0 01-.5.54z" fill="#231f20"/><ellipse cx="180.06" cy="145.9" rx="1.07" ry="3.37" transform="rotate(-61.53 180.056 145.898)" fill="#231f20"/><path d="M182.37 148.26a7.53 7.53 0 01-3.06-1c-1.26-.69-3.25-2.14-2.66-3.23.52-1 2.46-.45 4.16.47a9 9 0 012.07 1.5c.8.84.76 1.4.58 1.73a1.14 1.14 0 01-1.09.53zm-4.8-3.71a7.34 7.34 0 005 2.7 5.27 5.27 0 00-2.22-1.85 5.2 5.2 0 00-2.78-.85zM132.24 178.82s5 18.61 2.29 18.61H95.45V181z" fill="#231f20"/><path d="M134.53 197.93H95.45a.51.51 0 01-.5-.5V181a.5.5 0 01.47-.5l36.79-2.18a.52.52 0 01.51.37c.74 2.76 4.32 16.63 2.63 18.82a1 1 0 01-.82.42zm-38.58-1h38.58c.93-.54-.29-8.55-2.67-17.58L96 181.47z" fill="#231f20"/><path d="M102.74 109.46c-.47-2.13-1.66-3.88-2.15-6a13.7 13.7 0 01.29-7.13 5.69 5.69 0 011.44-2.51 2.63 2.63 0 012.71-.59 18.1 18.1 0 015.48-6.23 2 2 0 011.27-.49 1.42 1.42 0 011.14 1.44 4.11 4.11 0 01-.59 1.91 12.46 12.46 0 015.56-3 3.49 3.49 0 011.92-.06 1.46 1.46 0 011.07 1.45c-.09.77-.95 1.25-1.14 2a7.4 7.4 0 013.39-.7 3.52 3.52 0 012.87 1.67c.87 1.68-.18 3.74-1.53 5.06.82-.12 1.51.78 1.48 1.62a4.15 4.15 0 01-1.06 2.22c-1 1.36-1.25 2.88-1.86 4.44a13.47 13.47 0 01-2.47 4.22 10.78 10.78 0 01-6 3.08 18.91 18.91 0 01-6.79-.18 9.4 9.4 0 01-3.39-1.15c-.97-.63-1.38.1-1.64-1.07z" fill="#fff"/><path d="M111.89 112.61a22.84 22.84 0 01-4.18-.42 10.19 10.19 0 01-3.56-1.22 1.54 1.54 0 00-.74-.24c-.61-.07-1-.27-1.17-1.16a16.4 16.4 0 00-1-2.92 17.37 17.37 0 01-1.11-3.09 14.1 14.1 0 01.3-7.41 6.15 6.15 0 011.57-2.73 3.23 3.23 0 012.8-.83 18.75 18.75 0 015.43-6 2.42 2.42 0 011.62-.59 1.94 1.94 0 011.61 2 2.23 2.23 0 010 .37 13.29 13.29 0 014.35-2 4 4 0 012.2 0 2 2 0 011.42 2 2 2 0 01-.41 1 6.3 6.3 0 012.19-.23 4 4 0 013.28 2c.89 1.71.11 3.63-1 5a2 2 0 01.29.22 2.23 2.23 0 01.73 1.72 4.46 4.46 0 01-1.16 2.51 8.92 8.92 0 00-1.3 2.86c-.15.48-.3 1-.49 1.46a13.84 13.84 0 01-2.57 4.38 11.32 11.32 0 01-6.25 3.24 15.78 15.78 0 01-2.85.08zm-8.51-2.92h.14a2.48 2.48 0 011.18.4 9.55 9.55 0 003.2 1.08 18.35 18.35 0 006.6.17 10.1 10.1 0 005.68-2.93 12.54 12.54 0 002.36-4c.19-.47.34-.93.48-1.39a9.87 9.87 0 011.46-3.18 3.67 3.67 0 001-1.92A1.21 1.21 0 00125 97a.6.6 0 00-.5-.18.51.51 0 01-.53-.28.52.52 0 01.1-.6c1.24-1.21 2.16-3 1.43-4.45a3 3 0 00-2.42-1.49 6.66 6.66 0 00-3.14.65.51.51 0 01-.7-.6 3.2 3.2 0 01.66-1.14 1.74 1.74 0 00.47-.8c0-.39-.34-.77-.72-.9a3.06 3.06 0 00-1.64.07 12 12 0 00-5.33 2.89.52.52 0 01-.81-.61 3.82 3.82 0 00.54-1.67c0-.41-.29-.91-.67-.94a1.57 1.57 0 00-.93.4 17.55 17.55 0 00-5.32 6.07.52.52 0 01-.67.23 2.13 2.13 0 00-2.15.5 5 5 0 00-1.3 2.29 13.07 13.07 0 00-.27 6.86 16.3 16.3 0 001 2.91 17.58 17.58 0 011.11 3.11c.06.28.11.34.12.34z" fill="#231f20"/><path d="M133.49 181c-2.84-13.22-8.08-56-9.33-56.58-3-1.39-19.11-3-22.75 3.23-1.13 1.94-1.87 44.12-.41 55.37z" fill="#fff"/><path d="M101 183.53a.53.53 0 01-.52-.45c-1.45-11.24-.75-53.58.49-55.69 3.91-6.67 20.5-4.77 23.41-3.44.78.36 1.49 4.3 4.72 26.38 1.75 12 3.57 24.4 4.89 30.56a.52.52 0 01-.09.42.51.51 0 01-.38.2l-32.49 2zm13.86-59.85c-5.27 0-11.11 1-13 4.23-1 2-1.87 42.1-.41 54.56l31.41-1.95c-1.32-6.37-3.08-18.4-4.78-30-1.67-11.37-3.55-24.24-4.24-25.64a28.91 28.91 0 00-8.98-1.2z" fill="#231f20"/><path fill="#231f20" d="M118.05 130.51l-2.04 4.83 4.95 28.7-3.52 5.97-5.71-4.19 2-30.72-5.08-6.29 9.4 1.7z"/><path d="M117.44 170.51a.5.5 0 01-.29-.09l-5.71-4.19a.52.52 0 01-.21-.44l2-30.52-5-6.15a.48.48 0 010-.56.5.5 0 01.52-.24l9.4 1.7a.53.53 0 01.36.26.5.5 0 010 .43l-2 4.69 4.95 28.6a.57.57 0 01-.07.34l-3.52 6a.49.49 0 01-.33.23zm-5.19-4.93l5 3.7 3.15-5.34-4.93-28.52a.55.55 0 010-.28l1.8-4.25-7.46-1.35 4.23 5.25a.49.49 0 01.11.35z" fill="#231f20"/><path d="M110.85 182.4l-5.25-57 15.48-.54 1.46 56.82 16 3c-2.27-20-4.08-57-6-59.07-7.12-7.75-25.4-5.16-25.4-5.16s-13.16.64-17.32 8.34c-1 1.93-1.44 49.67-1.3 58z" fill="#01a479"/><path d="M119.87 120.25l.83 5.4s-.85 7.87-6.79 6.49a12.82 12.82 0 01-8.31-6.74l-.76-14.28s4.38-2.38 3-11.92a29.41 29.41 0 0015.43 2s2.11 9.82 1.44 14.42a5.07 5.07 0 01-4.84 4.63z" fill="#fff"/><path d="M115.25 132.82a6.33 6.33 0 01-1.46-.18 13.22 13.22 0 01-8.66-7 .61.61 0 010-.18l-.75-14.28a.51.51 0 01.27-.48s4-2.39 2.73-11.4a.5.5 0 01.2-.48.49.49 0 01.53-.05 29.19 29.19 0 0015.14 2 .51.51 0 01.57.4c.09.41 2.13 10 1.45 14.6a5.56 5.56 0 01-4.76 5l.75 4.87a.66.66 0 010 .14c0 .18-.5 4.35-3.14 6.22a4.78 4.78 0 01-2.87.82zm-9.14-7.55a12.37 12.37 0 007.91 6.37 4.12 4.12 0 003.46-.55c2.1-1.49 2.63-4.92 2.7-5.43l-.82-5.33a.53.53 0 01.5-.6 4.53 4.53 0 004.34-4.19c.57-3.89-.94-11.77-1.34-13.77a30.5 30.5 0 01-14.4-1.74c.88 7.78-2.12 10.65-3.09 11.36z" fill="#231f20"/><path d="M116.82 107s2.82 5.18 2 6-3 0-3 0" fill="#fff"/><path d="M117.6 113.75a6.34 6.34 0 01-2-.36.5.5 0 11.34-.94c.6.21 2 .51 2.47.08.2-.42-.76-2.93-2.07-5.34a.5.5 0 01.88-.48c1.37 2.52 2.81 5.7 1.87 6.56a2.21 2.21 0 01-1.49.48z" fill="#231f20"/><ellipse cx="114.02" cy="106.01" rx=".58" ry="1.34" transform="rotate(-2.41 114.064 105.847)" fill="#231f20"/><ellipse cx="121.66" cy="106.01" rx=".58" ry="1.34" transform="rotate(-2.41 121.67 106.007)" fill="#231f20"/><path d="M108.65 108.67a8 8 0 00-2-2.32 2.72 2.72 0 00-1.52-.67 2.46 2.46 0 00-1.31.38 4.83 4.83 0 00-2.28 3.21 3.78 3.78 0 00.07 1.86 4.21 4.21 0 001.85 2.23 13 13 0 002.7 1.17" fill="#fff"/><path d="M106.12 115a.44.44 0 01-.16 0 13 13 0 01-2.82-1.23 4.75 4.75 0 01-2.07-2.5 4.31 4.31 0 01-.08-2.12 5.35 5.35 0 012.54-3.55 2.85 2.85 0 011.58-.46 3.32 3.32 0 011.82.78 8.7 8.7 0 012.17 2.47.52.52 0 01-.18.7.51.51 0 01-.71-.18 7.64 7.64 0 00-1.91-2.17 2.36 2.36 0 00-1.23-.57 1.92 1.92 0 00-1 .32 4.34 4.34 0 00-2 2.86 3.33 3.33 0 00.06 1.61 3.74 3.74 0 001.63 1.94 12.52 12.52 0 002.6 1.12.51.51 0 01.32.65.5.5 0 01-.56.33zM119.87 120.25a16.25 16.25 0 01-10-1.64s5.08 7.81 10.75 6.71z" fill="#231f20"/><path d="M119.53 125.93c-5.4 0-9.85-6.74-10-7.05a.51.51 0 010-.61.49.49 0 01.59-.11 16 16 0 009.64 1.6.49.49 0 01.39.08.48.48 0 01.21.33l.79 5.07a.5.5 0 01-.4.57 6.38 6.38 0 01-1.22.12zm-8.08-6.1c1.68 2 5 5.43 8.63 5.07l-.63-4.07a16.91 16.91 0 01-8-1zM112.33 110.89a4.88 4.88 0 114.88-4.88 4.89 4.89 0 01-4.88 4.88zm0-8.73a3.85 3.85 0 103.85 3.85 3.86 3.86 0 00-3.85-3.85z" fill="#231f20"/><path d="M121.75 110.89a4.88 4.88 0 114.88-4.88 4.88 4.88 0 01-4.88 4.88zm0-8.73a3.85 3.85 0 103.84 3.85 3.85 3.85 0 00-3.84-3.85z" fill="#231f20"/><path d="M168 129.91c-.31-.59 2-3.67 2.24-4.38q1.48-3.87 3-7.74a3.5 3.5 0 011.4-2 .7.7 0 01.44-.1c.45.06.53.68.49 1.13a38.5 38.5 0 01-.83 5.34c1.84-2.85 3.78-5.65 5.79-8.39.31-.43.73-.9 1.26-.84a1.26 1.26 0 01.81.59 6.16 6.16 0 01.86 4.14c-.36 4.51-2.67 8.54-5.17 12.21-1.21 1.77-2.12 3.6-3.24 5.43-.23.37-2.46 3.35-2.28 3.71z" fill="#fff"/><path d="M172.7 139.51a.49.49 0 01-.45-.28c0-.07-1-1.94-2.07-4-1.25-2.39-2.6-5-2.67-5.11-.3-.6.22-1.55 1.49-3.57.32-.51.65-1 .73-1.23l2-5.31.93-2.44a4.06 4.06 0 011.64-2.28 1.2 1.2 0 01.76-.15c.65.1 1 .74.93 1.68s-.2 1.9-.35 2.84c1.41-2.11 2.88-4.2 4.37-6.24.23-.31.84-1.15 1.74-1a1.74 1.74 0 011.17.8 6.53 6.53 0 011 4.48c-.37 4.73-2.86 9-5.25 12.46-.72 1.06-1.32 2.12-2 3.24-.41.72-.82 1.45-1.27 2.17 0 .09-.2.3-.41.59a21.85 21.85 0 00-1.79 2.8v.04a.52.52 0 01-.39.5zm.45-.74l.06.15a.41.41 0 00-.05-.16zm-4.69-9l2.63 5.06 1.57 3c.31-.52.79-1.23 1.51-2.25.19-.26.32-.45.37-.53.44-.71.85-1.43 1.25-2.14.62-1.09 1.26-2.22 2-3.31 2.31-3.4 4.72-7.47 5.07-12a5.61 5.61 0 00-.75-3.8c-.17-.23-.33-.36-.46-.37-.32 0-.66.46-.78.62-2 2.72-3.95 5.54-5.78 8.37a.52.52 0 01-.94-.4 37.61 37.61 0 00.83-5.26 1.08 1.08 0 00-.07-.59h-.11a3.08 3.08 0 00-1.15 1.74l-.94 2.44q-1 2.66-2 5.31a9.74 9.74 0 01-.82 1.41 13.5 13.5 0 00-1.43 2.66z" fill="#231f20"/><path d="M132.61 125.63s15.65 12.22 18.87 13.82 14.9-13.82 14.9-13.82l10.62 9.08s-15.57 24.21-25.51 23.83S129.11 141 129.11 141" fill="#01a479"/><path d="M175.89 128.2h-.1a.51.51 0 01-.41-.6c.68-3.67-.95-5-1-5a.51.51 0 01-.1-.72.52.52 0 01.71-.11c.09.07 2.24 1.7 1.42 6a.5.5 0 01-.52.43zM117 116.71a6.6 6.6 0 01-5.64-3.18.5.5 0 01.14-.69.49.49 0 01.69.13 5.7 5.7 0 007.07 2.33.5.5 0 01.66.25.51.51 0 01-.25.66 7.26 7.26 0 01-2.67.5zM134.43 163.6h-.05a.52.52 0 01-.46-.57l2.57-26.43a.53.53 0 01.57-.46.51.51 0 01.46.56L135 163.13a.52.52 0 01-.57.47z" fill="#231f20"/><path fill="#fff" d="M105.03 174.15l6.74-28.56 28.29 2.16-7.82 31.07-27.21-4.67z"/><path d="M132.24 179.34h-.09L105 174.66a.51.51 0 01-.35-.22.57.57 0 01-.07-.4l6.74-28.57a.51.51 0 01.54-.4l28.28 2.17a.49.49 0 01.38.21.55.55 0 01.09.43L132.74 179a.52.52 0 01-.5.34zm-26.58-5.6l26.2 4.49 7.55-30-27.24-2.09z" fill="#231f20"/><path d="M99.27 162s6.75-4.54 9.2-5.43c3.3-1.21 6.37-1.57 6.8.15s-.81 6-2.14 7-4.2 1.86-5.82 3.43-8 3.57-8 3.57z" fill="#fff"/><path d="M99.27 171.19a.5.5 0 01-.31-.1.53.53 0 01-.21-.42V162a.5.5 0 01.23-.42c.28-.19 6.83-4.59 9.31-5.5 1.73-.63 4.89-1.57 6.52-.7a1.82 1.82 0 011 1.21c.47 1.83-.76 6.34-2.32 7.54a13.79 13.79 0 01-2.3 1.27 13.89 13.89 0 00-3.48 2.12c-1.68 1.64-8 3.61-8.25 3.7zm.51-9V170c2.09-.69 6.06-2.15 7.17-3.24a14.41 14.41 0 013.75-2.31 13.73 13.73 0 002.12-1.16c1.12-.86 2.35-4.91 2-6.47a.81.81 0 00-.44-.55c-.93-.49-3-.2-5.68.76-2.17.75-7.7 4.41-8.92 5.2z" fill="#231f20"/><path d="M91 126.65s-32.5 26.63-32.5 41.12 41.75 4.57 41.75 4.57l.75-13.53-21.25 2.63 20.5-15.86z" fill="#01a479"/><path fill="#fff" d="M96.73 231.55l2.44 9.12h9.67l-.85-14.15-11.26 5.03z"/><path d="M108.84 241.19h-9.67a.51.51 0 01-.5-.39l-2.44-9.11a.53.53 0 01.29-.61l11.26-5a.52.52 0 01.72.44l.86 14.15a.49.49 0 01-.14.38.5.5 0 01-.38.14zm-9.28-1h8.74l-.78-12.86-10.18 4.55z" fill="#231f20"/><path d="M107.64 186.83c-1.53-9.26-15.49-11.41-17.78-2.29-4.22 16.83 4.58 51.27 4.58 51.27l14.79-.76s-.06-38.96-1.59-48.22z" fill="#231f20"/><path d="M94.44 236.31a.5.5 0 01-.49-.37c-.36-1.41-8.78-34.76-4.57-51.52 1.2-4.8 5.28-6.35 8.67-6.22 4.34.18 9.19 3.17 10.08 8.55 1.52 9.19 1.6 46.71 1.6 48.3a.49.49 0 01-.47.5l-14.8.76zm3.2-57.12a7.11 7.11 0 00-7.29 5.47c-3.9 15.55 3.52 46.75 4.47 50.63l13.91-.71c0-4.48-.17-39.11-1.58-47.67-.81-4.85-5.21-7.55-9.14-7.71zM99.17 240.67s-13.11 12.16-9.11 14 18.78-7.1 18.78-7.1l-.07-8.15z" fill="#231f20"/><path d="M91.44 255.43a3.8 3.8 0 01-1.59-.29 1.72 1.72 0 01-1-1.33c-.57-3.59 8.92-12.5 10-13.51a.53.53 0 01.27-.13l9.61-1.23a.51.51 0 01.39.11.5.5 0 01.17.38l.07 8.15a.47.47 0 01-.24.43c-1.39.83-12.42 7.42-17.68 7.42zm8-14.29c-4.09 3.82-9.94 10.21-9.58 12.51a.75.75 0 00.46.58c3 1.4 13.84-4.39 18.07-6.93l-.07-7.3z" fill="#231f20"/><path fill="#fff" d="M135.03 231.55l-2.44 9.12h-9.68l.86-14.15 11.26 5.03z"/><path d="M132.59 241.19h-9.68a.48.48 0 01-.37-.17.49.49 0 01-.14-.38l.86-14.15a.51.51 0 01.24-.41.51.51 0 01.48 0l11.26 5a.53.53 0 01.29.61l-2.44 9.11a.52.52 0 01-.5.39zm-9.13-1h8.73l2.23-8.31-10.18-4.55z" fill="#231f20"/><path d="M122.91 188.13c1.45-10 15.07-15.22 17.6-1.3 3.11 17.07-4 46.76-4 46.76l-15-1.45s-.05-34.01 1.4-44.01z" fill="#231f20"/><path d="M136.47 234.09h-.05l-15-1.45a.49.49 0 01-.45-.5c0-.34 0-34.16 1.41-44.09.8-5.54 5.41-10.11 10.28-10.2 2 0 6.82.76 8.3 8.89 3.09 17-4 46.67-4 47a.5.5 0 01-.49.35zm-14.47-2.4l14.07 1.36c.85-3.68 6.79-30.46 3.94-46.13-1-5.2-3.59-8.16-7.3-8.07s-8.49 3.66-9.31 9.35c-1.33 9.23-1.4 39.42-1.4 43.49zM132.59 240.67s11 10.06 7 11.92-16.73-5-16.73-5l.08-8.15z" fill="#231f20"/><path d="M137.9 253.39c-5.2 0-14.76-5.12-15.23-5.37a.5.5 0 01-.26-.44l.08-8.15a.5.5 0 01.17-.38.51.51 0 01.39-.11l9.6 1.23a.53.53 0 01.27.13c.88.8 8.58 7.91 8.07 11.28a1.91 1.91 0 01-1.14 1.46 4.6 4.6 0 01-1.95.35zm-14.48-6.1c3.68 2 13 6.25 16 4.84a.88.88 0 00.57-.7c.36-2.37-5.28-8.12-7.63-10.29l-8.88-1.14zM124.84 139h8.64v2.09h-8.64zM88.74 161a.51.51 0 01-.52-.51v-24.55a.52.52 0 111 0v24.57a.51.51 0 01-.48.49z" fill="#231f20"/><path d="M74.25 162.72a.51.51 0 01-.51-.45.52.52 0 01.44-.58l26.75-3.39a.51.51 0 11.13 1l-26.74 3.4z" fill="#231f20"/><path d="M271.77 94.88l.33-.54c3.9-6 12.17-6.57 17.57-2.11a4.59 4.59 0 001.27.86 8 8 0 001.78.23c2.08.28 3.54 2.13 4.7 3.88 3.37 5.12 4 13.59 4 19.61 0 4.7-1.12 9.54-4 13.26-4.09 5.27-11.05 7.5-17.7 8.06-7.36.62-15.57-.84-20.27-6.54-2-2.39-3.18-5.71-2.13-8.63.92-2.54 3.3-4.21 5.09-6.24 5.23-5.98 5.25-15.02 9.36-21.84z" fill="#fff"/><path d="M276.57 138.85c-7.63 0-13.93-2.43-17.6-6.88-1.87-2.27-3.44-5.88-2.23-9.21a13.36 13.36 0 013.57-4.75c.55-.54 1.12-1.1 1.62-1.68 2.89-3.28 4.14-7.46 5.47-11.89a42.45 42.45 0 013.86-9.86c.12-.19.23-.38.35-.56a11.52 11.52 0 018-5.18A13.22 13.22 0 01290 91.77l.15.12a2.37 2.37 0 001.95.79c.22 0 .44 0 .65.06 2.31.3 3.88 2.26 5.12 4.14 2.71 4.11 4.08 10.81 4.07 19.93 0 3.79-.72 9.22-4.12 13.62-4.64 6-12.41 7.81-18.11 8.29-1.04.09-2.11.13-3.14.13zm-4.3-43.66a41.72 41.72 0 00-3.74 9.59c-1.3 4.35-2.65 8.85-5.71 12.34-.53.6-1.12 1.18-1.69 1.73a12.38 12.38 0 00-3.28 4.31c-1 2.87.37 6 2 8.05 3.91 4.75 11.12 7.06 19.77 6.33 5.47-.46 12.9-2.19 17.27-7.83 3.2-4.14 3.88-9.3 3.88-12.9 0-8.88-1.3-15.37-3.87-19.28-1.1-1.66-2.46-3.38-4.29-3.62a5.48 5.48 0 00-.57 0 3.46 3.46 0 01-2.64-1.06l-.14-.12a12 12 0 00-9.44-2.73 10.38 10.38 0 00-7.22 4.65l-.33.53zM263.25 179.57s-4.81 18.05-2.22 18.05h37.91v-15.94z" fill="#231f20"/><path d="M298.94 198.12H261a1 1 0 01-.81-.42c-1.64-2.13 1.83-15.59 2.54-18.26a.52.52 0 01.52-.37l35.75 2.11a.5.5 0 01.47.5v15.94a.51.51 0 01-.53.5zm-35.31-18c-2.3 8.7-3.48 16.46-2.59 17h37.4v-15z" fill="#231f20"/><path d="M284 183l-11.35-.7-15.56 2.93c2.2-19.42 4-55.31 5.8-57.31 6.91-7.52 24.64-5 24.64-5s12.77.62 16.81 8.09c1 1.87 1.39 48.19 1.25 56.28z" fill="#01a479"/><path d="M276.87 126.92c-1.9 2.39-8.87 56.81-8.87 56.81h19.45l2.83-58.07z" fill="#231f20"/><path d="M287.45 184.23H268a.52.52 0 01-.37-.17.48.48 0 01-.12-.4c.71-5.58 7-54.62 9-57a.53.53 0 01.35-.19l13.4-1.26a.53.53 0 01.4.14.51.51 0 01.15.39L288 183.75a.5.5 0 01-.55.48zm-18.88-1H287l2.77-57-12.58 1.19c-1.46 2.97-5.88 34.5-8.62 55.81z" fill="#231f20"/><path d="M285.07 113.33a7 7 0 011.8-2 2.3 2.3 0 011.34-.59 2.09 2.09 0 011.15.34 4.23 4.23 0 012 2.82 3.37 3.37 0 01-.06 1.64 3.75 3.75 0 01-1.63 2 10.71 10.71 0 01-2.38 1" fill="#fff"/><path d="M287.3 119a.5.5 0 01-.49-.35.51.51 0 01.32-.65 11 11 0 002.27-1 3.26 3.26 0 001.42-1.68 2.89 2.89 0 00.05-1.38 3.79 3.79 0 00-1.77-2.48 1.76 1.76 0 00-.87-.27 2 2 0 00-1.05.48 6.71 6.71 0 00-1.66 1.9.52.52 0 01-.71.18.51.51 0 01-.18-.7 7.6 7.6 0 011.92-2.19 3 3 0 011.64-.7 2.63 2.63 0 011.42.41 4.8 4.8 0 012.27 3.17 3.87 3.87 0 01-.08 1.89 4.24 4.24 0 01-1.84 2.24 11.59 11.59 0 01-2.49 1.08.51.51 0 01-.17.05z" fill="#231f20"/><path fill="#fff" d="M303.14 203.79l-7.81 35.78h-9.38l-1.67-46.24 18.86 10.46z"/><path d="M295.33 240.08H286a.52.52 0 01-.52-.49l-1.67-46.24a.51.51 0 01.25-.46.53.53 0 01.52 0l18.86 10.46a.51.51 0 01.25.56l-7.8 35.78a.52.52 0 01-.56.39zm-8.89-1h8.48l7.63-35-17.72-9.83z" fill="#231f20"/><path d="M295.33 239.57s10.29 12.17 8.84 13.59c-3.05 3-18.22-6.88-18.22-6.88l.07-7.91z" fill="#231f20"/><path d="M302.42 254.2c-5.06 0-15.4-6.63-16.75-7.51a.47.47 0 01-.22-.42l.07-7.91a.48.48 0 01.17-.37.57.57 0 01.39-.12l9.32 1.2a.59.59 0 01.32.17c3.95 4.68 10.35 12.76 8.8 14.28a2.88 2.88 0 01-2.1.68zm-16-8.19c5.76 3.72 15.38 8.75 17.37 6.8.4-1-4.2-7.38-8.74-12.77l-8.57-1.11z" fill="#231f20"/><path d="M251.08 201.94l11.83 37.25h9.39l-4.3-42.61s4.48-9.16-5.06-4.87-11.86 10.23-11.86 10.23z" fill="#fff"/><path d="M272.3 239.71h-9.39a.51.51 0 01-.49-.36l-11.83-37.25a.59.59 0 010-.35c.1-.25 2.5-6.19 12.13-10.51 3.12-1.4 5.14-1.56 6.17-.49 1.53 1.57 0 5.09-.37 5.92l4.28 42.47a.49.49 0 01-.13.4.52.52 0 01-.37.17zm-9-1h8.44l-4.24-42.05a.54.54 0 01.05-.28c.47-.95 1.58-3.9.62-4.89-.66-.69-2.45-.43-5 .72-8.35 3.75-11.07 8.83-11.51 9.79z" fill="#231f20"/><path d="M262.91 239.57l-9.33 11.87c3.88 1.8 18.72-5.16 18.72-5.16l-.07-7.91z" fill="#231f20"/><path d="M255.31 252.23a4.62 4.62 0 01-1.94-.34.49.49 0 01-.18-.76l9.33-11.87a.49.49 0 01.33-.19l9.31-1.2a.54.54 0 01.39.12.53.53 0 01.18.37l.07 7.91a.5.5 0 01-.29.46c-1.34.63-11.89 5.5-17.2 5.5zm-.89-1c3.62.63 13.35-3.36 17.37-5.22l-.06-7-8.55.99zM262 181.68s-9.29-1.93-11 20.63c0 0 10.08 1.67 28.12 4.22 18.83 2.66 24.1 4.84 24.1 4.84s8.22-21.08.82-31.8-42.04 2.11-42.04 2.11z" fill="#231f20"/><path d="M303.3 211.87a.43.43 0 01-.19 0c-.05 0-5.48-2.19-24-4.81-17.84-2.52-28-4.2-28.13-4.22a.5.5 0 01-.41-.53c.93-12.63 4.29-17.68 7-19.69a6.33 6.33 0 014.45-1.42c2.62-1 35.16-12.58 42.55-1.88 3.14 4.56 4 11.39 2.44 20.3a69.66 69.66 0 01-3.21 12 .5.5 0 01-.27.28.48.48 0 01-.23-.03zm-51.68-10c2.15.35 11.93 1.92 27.65 4.14s22.06 4.12 23.73 4.7c1.13-3.13 7.28-21.36.71-30.88-7.09-10.29-41.15 2.17-41.5 2.29a.42.42 0 01-.27 0 5.11 5.11 0 00-3.83 1.24c-2.45 1.92-5.55 6.64-6.49 18.53z" fill="#231f20"/><path d="M277.16 120.77l-.77 8.35s2.54 2.91 5.95 3.18a7.3 7.3 0 007.41-4.59c.41-7.48 1-14.94 1.07-22.41a.66.66 0 00-.1-.46.7.7 0 00-.63-.14l-2.2.27-.21-4.14a12.18 12.18 0 00-1.44 2.19l-6.13-.54-.71-3.71a3.31 3.31 0 00-.56 2c-.08.68-.36 1.46-1 1.64a2 2 0 01-.91 0l-4.61-.91s-.83 12.46-.77 13.51c.21 4.3 5.61 5.76 5.61 5.76z" fill="#fff"/><path d="M283 132.93h-.74a10.56 10.56 0 01-6.35-3.39.63.63 0 01-.14-.44l.72-7.88c-1.4-.49-5.38-2.23-5.59-6.23 0-.12.54-13.61 1-14a.58.58 0 01.5-.13l4.62.91a1.59 1.59 0 00.64 0c.34-.09.53-.65.59-1.14v-.29a3.28 3.28 0 01.68-2 .61.61 0 01.6-.17.58.58 0 01.42.46l.63 3.27 5.29.47a12.84 12.84 0 011.32-2 .59.59 0 01.65-.18.58.58 0 01.4.53l.18 3.5 1.56-.19a1.1 1.1 0 011.41 1.2c-.09 5.73-.44 11.54-.77 17.16-.11 1.75-.21 3.51-.31 5.27a.53.53 0 010 .17 8 8 0 01-7.31 5.1zm-6-4a9.3 9.3 0 005.38 2.8 6.65 6.65 0 006.77-4.13l.3-5.18c.34-5.61.68-11.41.77-17.11h-.07l-2.2.27a.57.57 0 01-.45-.14.59.59 0 01-.21-.42l-.13-2.44c-.14.24-.28.48-.41.73a.55.55 0 01-.57.32l-6.13-.54a.58.58 0 01-.53-.47l-.23-1.19a2 2 0 01-1.33 1.52 2.44 2.44 0 01-1.18 0l-4-.78c-.18 2.53-.76 11.88-.71 12.77.21 3.91 5.15 5.29 5.2 5.3a.59.59 0 01.44.63z" fill="#231f20"/><path d="M287 111.37a4.36 4.36 0 014.8-2.58c2.38.62 2.09 3.35 1.16 5a4.44 4.44 0 01-6.08 1.72" fill="#fff"/><path d="M289.1 116.72a5 5 0 01-2.49-.66.58.58 0 01-.23-.8.6.6 0 01.81-.23 3.88 3.88 0 002.94.36 3.93 3.93 0 002.33-1.84 4.07 4.07 0 00.43-3.21 1.68 1.68 0 00-1.22-1 3.76 3.76 0 00-4.09 2.2.59.59 0 11-1.12-.4 4.92 4.92 0 015.5-3 2.84 2.84 0 012 1.65 5.24 5.24 0 01-.48 4.25 5.08 5.08 0 01-3 2.41 4.85 4.85 0 01-1.38.27z" fill="#231f20"/><path d="M277.89 106.23s-3.5 4-2.91 4.79 2.59.62 2.59.62" fill="#fff"/><path d="M276.94 112.27a3 3 0 01-2.45-.91c-.56-.82.43-2.67 3-5.52a.59.59 0 01.84 0 .6.6 0 010 .84c-1.49 1.68-2.78 3.56-2.82 4.1a3 3 0 002 .32.59.59 0 01.14 1.18c-.13-.04-.39-.01-.71-.01zm-1.43-1.49zM277.16 120.77a10.38 10.38 0 007.13-1.23s-2 5.74-7.55 5.75z" fill="#231f20"/><path d="M276.74 125.88a.6.6 0 01-.59-.65l.42-4.51a.58.58 0 01.75-.52A9.92 9.92 0 00284 119a.57.57 0 01.66.07.58.58 0 01.18.64c0 .06-2.17 6.14-8.11 6.15zm.95-4.41l-.29 3.2a7.42 7.42 0 005.66-3.92 11.14 11.14 0 01-5.37.72z" fill="#231f20"/><ellipse cx="282.23" cy="106.78" rx="1.32" ry=".58" transform="rotate(-89.81 282.215 106.78)" fill="#231f20"/><ellipse cx="274.72" cy="106.22" rx="1.32" ry=".58" transform="rotate(-86.78 274.717 106.224)" fill="#231f20"/><path d="M278.18 114.87a8.91 8.91 0 01-2.8-.51l-.29-.1a.6.6 0 01-.48-.68.59.59 0 01.65-.49 2.85 2.85 0 01.49.14c2 .69 4.58 1.07 6.11-2.08a.6.6 0 01.79-.27.59.59 0 01.27.79 5 5 0 01-4.74 3.2z" fill="#231f20"/><path d="M262.89 128s-25.84 21.24-25.77 36.81 23.53 19.83 23.53 19.83l6.43-10s-13.5-7.58-12.81-9.75c1-3 12.15-13.55 12.15-13.55z" fill="#01a479"/><path d="M285.55 164.8h-.09l-11.93-1.8a.59.59 0 01-.5-.67l1.76-11.94a.61.61 0 01.67-.5l11.94 1.77a.59.59 0 01.5.67l-1.76 11.94a.6.6 0 01-.59.53zm-11.26-2.8l10.76 1.59 1.59-10.77-10.76-1.59z" fill="#fff"/><path d="M286.51 155.78h-.08l-11.58-1.71a.59.59 0 11.17-1.17l11.58 1.71a.58.58 0 01.5.67.59.59 0 01-.59.5zM281 147.91h-.05a.6.6 0 01-.52-.41l-6.25-19.36a.6.6 0 01.39-.75.59.59 0 01.74.38l5.81 18 9.21-18.08a.58.58 0 01.79-.26.59.59 0 01.26.79l-9.85 19.37a.59.59 0 01-.53.32z" fill="#fff"/><path d="M280.46 151.85h-.06a.6.6 0 01-.53-.65l.51-4.69a.59.59 0 01.62-.51.6.6 0 01.53.66l-.51 4.68a.59.59 0 01-.56.51z" fill="#fff"/><path d="M304.34 131.05s26.8 34.68 20.33 43-32.2 9.58-32.2 9.58l-.6-11.28s14.6-.18 15.34-4.25-8.27-21.53-8.27-21.53z" fill="#01a479"/><path d="M293.71 173.87a.58.58 0 01-.57-.45.59.59 0 01.42-.71c5.82-1.48 12.37-3.62 13.05-4.57-.49-1.8-6.07-15.94-8.22-21.35a.59.59 0 011.1-.43c.32.81 7.93 19.92 8.3 21.61.32 1.48-4.37 3.46-13.94 5.88zm12.92-5.64z" fill="#231f20"/><path fill="#fff" d="M277.05 170.03l-16.4 21.71 24.41 5.64 13.49-24.13-21.5-3.22z"/><path d="M285.06 198h-.14l-24.41-5.64a.61.61 0 01-.42-.38.59.59 0 01.08-.56l16.41-21.71a.6.6 0 01.56-.23l21.5 3.22a.61.61 0 01.45.33.59.59 0 010 .55l-13.49 24.13a.6.6 0 01-.54.29zm-23.39-6.6l23.09 5.33 12.86-23-20.31-3z" fill="#231f20"/><path d="M267.08 176.51c.55.47 12.49-1.57 9.48 0s-6.72 3.06-6.72 3.06l-5.84 7.76c.06-.07-3.14-3.54-1.93-5.65s5.01-5.17 5.01-5.17z" fill="#fff"/><path d="M264 187.93a.64.64 0 01-.35-.12c-.12-.09-.21-.16-.23-.28a.47.47 0 00-.09-.12c-.73-1-3-3.92-1.77-6s5-5.2 5.18-5.33a.6.6 0 01.63-.07 35.5 35.5 0 004-.29c5.31-.55 6.08-.52 6.3.23s-.49 1-.77 1.12c-2.66 1.39-5.89 2.72-6.62 3l-5.77 7.64a.51.51 0 01-.22.17.49.49 0 01-.16 0zm3.26-10.77c-.83.68-3.7 3.11-4.68 4.81-.51.9 0 2.37 1.45 4.39.46-.66 1.23-1.67 2.43-3.27l2.94-3.88a.53.53 0 01.25-.19s2.9-1.17 5.6-2.49c-1.12.06-2.63.22-3.79.34a28.4 28.4 0 01-4.23.29zm.23-1.1zM258.76 169.06h-.05a.59.59 0 01-.54-.63l2.4-32.55a.59.59 0 01.64-.54.58.58 0 01.54.63l-2.4 32.54a.59.59 0 01-.59.55z" fill="#231f20"/></g></svg>