<svg xmlns="http://www.w3.org/2000/svg" viewBox="0 0 400 300"><g data-name="#529_campaign_launch_outline"><path d="M304.46 95.51V210a5.39 5.39 0 01-5.39 5.39H100.93a5.39 5.39 0 01-5.39-5.39V95.51z" fill="#fff"/><path d="M299.07 216.38H100.93a6.4 6.4 0 01-6.39-6.38V95.51a1 1 0 011-1h208.92a1 1 0 011 1V210a6.4 6.4 0 01-6.39 6.38zM96.54 96.51V210a4.4 4.4 0 004.39 4.39h198.14a4.4 4.4 0 004.39-4.39V96.51z" fill="#093f68"/><path d="M100.93 80.24h198.15a5.39 5.39 0 015.39 5.39v9.89H95.55v-9.89a5.39 5.39 0 015.38-5.39z" fill="#01a479"/><path d="M304.46 96.51H95.55a1 1 0 01-1-1v-9.88a6.39 6.39 0 016.38-6.39h198.15a6.39 6.39 0 016.38 6.39v9.88a1 1 0 01-1 1zm-207.91-2h206.91v-8.88a4.39 4.39 0 00-4.38-4.39H100.93a4.39 4.39 0 00-4.38 4.39z" fill="#093f68"/><path d="M285.59 215.38H114.42q2-4.12 4.45-8A95.19 95.19 0 01200 162.21c1.27 0 2.54 0 3.8.08a95.53 95.53 0 0181.79 53.09z" fill="#01a479"/><path d="M285.59 216.38H114.42a1 1 0 01-.85-.47 1 1 0 010-1 92.42 92.42 0 014.5-8.1 96.2 96.2 0 0182-45.63c1.43 0 2.69 0 3.84.08a96.51 96.51 0 0182.64 53.64 1 1 0 010 1 1 1 0 01-.96.48zm-169.55-2H284a94.52 94.52 0 00-80.2-51.09c-1.13-.06-2.36-.08-3.76-.08a94.16 94.16 0 00-80.28 44.69c-1.37 2.1-2.6 4.3-3.76 6.48z" fill="#093f68"/><circle cx="107" cy="87.12" r="2.35" fill="#f56132"/><path d="M107 84.78a2.35 2.35 0 11-2.35 2.34 2.34 2.34 0 012.35-2.34m0-2a4.35 4.35 0 104.34 4.34 4.35 4.35 0 00-4.34-4.34z" fill="#093f68"/><circle cx="117.79" cy="87.12" r="2.35" fill="#ffbc0e"/><path d="M117.79 84.78a2.35 2.35 0 11-2.35 2.34 2.35 2.35 0 012.35-2.34m0-2a4.35 4.35 0 104.35 4.34 4.35 4.35 0 00-4.35-4.34z" fill="#093f68"/><circle cx="128.58" cy="87.12" r="2.35" fill="#70cc40"/><path d="M128.58 84.78a2.35 2.35 0 11-2.34 2.34 2.35 2.35 0 012.34-2.34m0-2a4.35 4.35 0 104.35 4.34 4.35 4.35 0 00-4.35-4.34z" fill="#093f68"/><path d="M171 170.83a22.38 22.38 0 01-7.3 16c-3.88 3.49-9.09 5.74-11.63 10.3-3 5.42-1.48 12.83-3.67 18.28h-22.68a31.29 31.29 0 01-6.21-6.91c-.23-.37-.44-.74-.64-1.1a95.66 95.66 0 0151.78-40.57 18.87 18.87 0 01.35 4z" fill="#70cc40"/><path d="M148.39 216.38h-22.67a1 1 0 01-.67-.25 32.55 32.55 0 01-6.4-7.14q-.34-.57-.66-1.14a1 1 0 010-1 96.62 96.62 0 0152.32-41 1 1 0 01.82.09 1 1 0 01.47.67 20 20 0 01.36 4.24 23.51 23.51 0 01-7.63 16.69 48.46 48.46 0 01-4.33 3.36c-2.82 2-5.49 3.88-7 6.68s-1.82 6.27-2.09 9.64a29.26 29.26 0 01-1.53 8.53 1 1 0 01-.99.63zm-22.29-2h21.59a31.42 31.42 0 001.16-7.32c.29-3.58.58-7.29 2.33-10.45s4.76-5.31 7.65-7.34a46 46 0 004.19-3.22 21.48 21.48 0 007-15.24 18.43 18.43 0 00-.14-2.69A94.58 94.58 0 00120 207.39a6.16 6.16 0 00.33.55 29.44 29.44 0 005.77 6.44z" fill="#093f68"/><path d="M285.59 215.38h-19.16a30.68 30.68 0 00-5.33-5.47c-2.18-1.66-4.92-3.18-5.47-5.86-1.08-5.2-.12-6.4-5.49-7.89a22 22 0 00-9.59-.85c-3.93.66-6.72 2.09-10.58-.34a10.71 10.71 0 01-4.87-9.78c.35-4.09 3.06-8.17 1.61-12-.5-1.31-1.48-2.51-1.49-3.92-.07-6.56 13.77 1.21 16.23 2.4a95.86 95.86 0 0144.14 43.72z" fill="#70cc40"/><path d="M285.59 216.38h-19.16a1 1 0 01-.79-.38 29.72 29.72 0 00-5.15-5.3c-.35-.27-.72-.53-1.1-.8-2-1.42-4.21-3-4.74-5.65-.2-1-.34-1.8-.45-2.52-.48-3-.56-3.56-4.33-4.61a20.87 20.87 0 00-9.15-.82c-.77.12-1.48.28-2.17.43-2.92.64-5.67 1.25-9.12-.92a11.74 11.74 0 01-5.33-10.71 23.76 23.76 0 011.05-4.67c.73-2.45 1.42-4.77.62-6.89a11.52 11.52 0 00-.56-1.2 6.76 6.76 0 01-1-3.07 3.26 3.26 0 011.47-3c2.94-1.81 9.35 1 15.23 4l1 .49a96.84 96.84 0 0144.59 44.17 1 1 0 010 1 1 1 0 01-.91.45zm-18.68-2h17A94.9 94.9 0 00241 172.56l-1-.51c-7.23-3.7-11.69-5.09-13.26-4.12-.15.09-.54.33-.53 1.32a5 5 0 00.77 2.18 11.26 11.26 0 01.65 1.4c1 2.75.22 5.51-.57 8.17a22.44 22.44 0 00-1 4.27 9.73 9.73 0 004.41 8.85c2.75 1.73 4.79 1.28 7.62.66.72-.16 1.47-.32 2.26-.46a23 23 0 0110 .87c4.76 1.33 5.2 2.64 5.77 6.22.11.7.23 1.5.43 2.43.38 1.86 2.11 3.11 3.95 4.44.39.28.77.55 1.14.83a30.76 30.76 0 015.27 5.27z" fill="#093f68"/><path d="M175.44 196.06c-.25-7-7.08-1.79-8.84 1-1.36 2.13-6.08 4.9-3.15 7.47a5.43 5.43 0 005.6.65 10.85 10.85 0 004.42-3.87 8.75 8.75 0 001.97-5.25z" fill="#70cc40"/><path d="M166.67 206.65a5.79 5.79 0 01-3.88-1.39 3.33 3.33 0 01-1.28-2.43c-.06-1.77 1.44-3.3 2.77-4.66a11.23 11.23 0 001.47-1.67c1.34-2.09 5.33-5.59 8.19-4.81 1.08.29 2.39 1.28 2.5 4.33a9.53 9.53 0 01-2.16 5.85 11.6 11.6 0 01-4.84 4.21 7.19 7.19 0 01-2.77.57zm6.33-13.08c-1.66 0-4.54 2.35-5.6 4a13.75 13.75 0 01-1.73 2c-1 1-2.23 2.27-2.2 3.18a1.39 1.39 0 00.6 1 4.46 4.46 0 004.56.48 9.82 9.82 0 004-3.53 7.72 7.72 0 001.78-4.62c0-1-.24-2.26-1-2.47a1.58 1.58 0 00-.41-.04z" fill="#093f68"/><path d="M190.27 151.9s-3.86 7.21-4.32 19.1 11.29 43.23 11.29 43.23h5.62s8-20.4 10.47-36.59-3.59-25.74-3.59-25.74z" fill="#f56132"/><path d="M209.73 151.9s6.09 9.43 3.6 25.74-10.47 36.59-10.47 36.59h-5.62S185.5 182.89 186 171s4.32-19.1 4.32-19.1h19.46m0-2h-19.51a2 2 0 00-1.76 1c-.17.31-4.09 7.76-4.56 20s10.93 42.72 11.42 44a2 2 0 001.87 1.29h5.62a2 2 0 001.86-1.27c.33-.84 8.11-20.8 10.59-37 2.57-16.86-3.63-26.71-3.89-27.12a2 2 0 00-1.69-.92z" fill="#093f68"/><path fill="#093f68" d="M190.27 138.62h19.46v13.28h-19.46z"/><path d="M209.74 152.9h-19.47a1 1 0 01-1-1v-13.28a1 1 0 011-1h19.47a1 1 0 011 1v13.28a1 1 0 01-1 1zm-18.47-2h17.47v-11.28h-17.47z" fill="#093f68"/><path fill="#01a479" d="M187.69 119.27l-16.59 15.95 4.82 26.72 8.81-22.12 5.19-2.01-2.23-18.54z"/><path d="M175.92 162.94h-.1a1 1 0 01-.88-.82l-4.82-26.71a1 1 0 01.29-.9l16.58-16a1 1 0 011.69.6l2.24 18.54a1 1 0 01-.64 1.05l-4.79 1.86-8.64 21.71a1 1 0 01-.93.67zm-3.74-27.37l4.11 22.75 7.51-18.87a1 1 0 01.56-.56l4.48-1.74-1.91-15.77z" fill="#093f68"/><path fill="#01a479" d="M212.32 119.27l16.59 15.95-4.83 26.72-8.8-22.12-5.19-2.01 2.23-18.54z"/><path d="M224.08 162.94a1 1 0 01-.92-.63l-8.65-21.71-4.79-1.86a1 1 0 01-.63-1.05l2.24-18.54a1 1 0 011.69-.6l16.58 16a1 1 0 01.29.9l-4.82 26.71a1 1 0 01-.89.82zm-12.91-25.79l4.47 1.74a1 1 0 01.57.56l7.51 18.87 4.11-22.75-14.75-14.19z" fill="#093f68"/><path d="M214.47 144.18c3.12-15.27 5-31.81 5-42.8 0-23.53-19.5-39.56-19.5-39.56s-19.49 16-19.49 39.56c0 11 1.91 27.53 5 42.8z" fill="#01a479"/><path d="M214.47 145.18h-28.93a1 1 0 01-1-.8c-3.11-15.22-5.05-31.69-5.05-43 0-23.73 19.66-40.17 19.86-40.34a1 1 0 011.27 0c.2.17 19.86 16.61 19.86 40.34 0 11.31-1.94 27.79-5.05 43a1 1 0 01-.96.8zm-28.11-2h27.29c2.95-14.66 4.85-31 4.85-41.8 0-20.38-15.17-35.23-18.5-38.23-3.32 3-18.49 17.85-18.49 38.23 0 10.82 1.9 27.14 4.85 41.8z" fill="#093f68"/><circle cx="200" cy="97.55" r="9.73" fill="#fff"/><path d="M200 108.28a10.73 10.73 0 1110.74-10.73A10.75 10.75 0 01200 108.28zm0-19.46a8.73 8.73 0 108.74 8.73 8.74 8.74 0 00-8.74-8.73z" fill="#093f68"/><path d="M197.24 152.18s-3.16 5-3.14 13.71c0 7.89 5.75 31.69 5.75 31.69s6.8-28.83 6.1-35.36-3.23-10-3.23-10z" fill="#ffbc0e"/><path d="M199.85 198.58a1 1 0 01-1-.77c-.23-1-5.76-24-5.78-31.92 0-8.93 3.16-14 3.29-14.25a1 1 0 01.85-.46h5.48a1 1 0 01.81.41c.11.16 2.7 3.8 3.41 10.52s-5.84 34.51-6.11 35.7a1 1 0 01-1 .77zm-2-45.4a28.11 28.11 0 00-2.72 12.71c0 5.68 3.11 20.05 4.74 27.23 1.84-8.22 5.63-26 5.12-30.8a23.07 23.07 0 00-2.79-9.14z" fill="#093f68"/><path d="M155.63 144.21a1 1 0 01-.93-.64l-6.21-16a1 1 0 111.86-.73l6.22 16a1 1 0 01-.57 1.29 1 1 0 01-.37.08zM138.51 153.54a1 1 0 01-.72-.32l-19.21-20.38a1 1 0 010-1.42 1 1 0 011.41 0l19.21 20.39a1 1 0 010 1.41 1 1 0 01-.69.32zM122.29 169.53a1 1 0 01-.45-.11l-13-6.59a1 1 0 11.91-1.79l13 6.6a1 1 0 01-.46 1.89zM244.32 144.21a.92.92 0 01-.36-.07 1 1 0 01-.57-1.29l6.22-16a1 1 0 111.86.73l-6.21 16a1 1 0 01-.94.63zM261.45 153.54a1 1 0 01-.69-.28 1 1 0 010-1.41l19.21-20.39a1 1 0 011.41 0 1 1 0 010 1.42l-19.21 20.38a1 1 0 01-.72.28zM277.67 169.53a1 1 0 01-.89-.55 1 1 0 01.43-1.34l13-6.6a1 1 0 11.91 1.79l-12.95 6.59a1 1 0 01-.5.11z" fill="#dfeaef"/></g></svg>