<svg xmlns="http://www.w3.org/2000/svg" width="512" height="512" viewBox="0 0 64 64"><path xmlns="http://www.w3.org/2000/svg" d="M53.223 15.782C55.486 14.367 57 11.86 57 9c0-4.411-3.589-8-8-8s-8 3.589-8 8c0 2.855 1.508 5.358 3.765 6.774a12.035 12.035 0 00-6.15 5.223 11.958 11.958 0 00-2.392-1.216C38.486 18.367 40 15.86 40 13c0-4.411-3.589-8-8-8s-8 3.589-8 8c0 2.86 1.514 5.367 3.777 6.782-.846.319-1.65.723-2.392 1.216a12.033 12.033 0 00-6.149-5.223C21.492 14.359 23 11.855 23 9c0-4.411-3.589-8-8-8S7 4.589 7 9c0 2.86 1.514 5.367 3.777 6.782C6.24 17.496 3 21.871 3 27v8c0 2.206 1.794 4 4 4h1v16c0 2.206 1.794 4 4 4a3.974 3.974 0 003-1.382A3.974 3.974 0 0018 59c2.206 0 4-1.794 4-4V42.444A3.959 3.959 0 0024 43h1v16c0 2.206 1.794 4 4 4a3.974 3.974 0 003-1.382A3.974 3.974 0 0035 63c2.206 0 4-1.794 4-4V43h1c.732 0 1.409-.212 2-.556V55c0 2.206 1.794 4 4 4a3.974 3.974 0 003-1.382A3.974 3.974 0 0052 59c2.206 0 4-1.794 4-4V39h1c2.206 0 4-1.794 4-4v-8c0-5.129-3.24-9.504-7.777-11.218zm-6.379 1.48A9.913 9.913 0 0149 17c.745 0 1.469.088 2.169.244L49 20.28zm.849 4.63l-1.307 1.307-1.924-5.084c.13-.066.253-.145.386-.206zm2.613 0l2.842-3.979c.133.061.264.124.394.19l-1.93 5.096zM43 9c0-3.309 2.691-6 6-6s6 2.691 6 6-2.691 6-6 6-6-2.691-6-6zM32.978 28.731L32 30.197l-.978-1.466.568-7.711c.137-.005.272-.02.41-.02s.273.015.41.021zM26 13c0-3.309 2.691-6 6-6s6 2.691 6 6-2.691 6-6 6-6-2.691-6-6zm-11 4a9.93 9.93 0 011.823.188C16.509 18.249 15.799 19 15 19c-.802 0-1.515-.757-1.827-1.825A9.997 9.997 0 0115 17zM9 9c0-3.309 2.691-6 6-6s6 2.691 6 6-2.691 6-6 6-6-2.691-6-6zm11 46c0 1.103-.897 2-2 2s-2-.897-2-2V34h-2v21c0 1.103-.897 2-2 2s-2-.897-2-2V23H8v14H7c-1.103 0-2-.897-2-2v-8c0-4.191 2.595-7.782 6.26-9.267C11.823 19.656 13.28 21 15 21c1.715 0 3.167-1.336 3.735-3.25a9.99 9.99 0 015.051 4.526C21.461 24.465 20 27.562 20 31v8zm20-14h-1V27h-2v32c0 1.103-.897 2-2 2s-2-.897-2-2V38h-2v21c0 1.103-.897 2-2 2s-2-.897-2-2V27h-2v14h-1c-1.103 0-2-.897-2-2v-8c0-4.672 3.226-8.595 7.564-9.687l-.586 7.956L32 33.803l3.022-4.534-.586-7.956C38.774 22.405 42 26.328 42 31v8c0 1.103-.897 2-2 2zm19-6c0 1.103-.897 2-2 2h-1V24h-2v31c0 1.103-.897 2-2 2s-2-.897-2-2V34h-2v21c0 1.103-.897 2-2 2s-2-.897-2-2V31c0-3.438-1.461-6.535-3.786-8.724a9.948 9.948 0 012.53-3.049l2.869 7.575L49 23.415l3.387 3.387 2.873-7.588C57.537 21.049 59 23.855 59 27z" fill="#01a479" data-original="#000000"/></svg>