<svg xmlns="http://www.w3.org/2000/svg" viewBox="0 0 400 300"><g data-name="#493_conference_presentation_flatline"><path d="M265.56 72a30.71 30.71 0 00-2.4-10.21c-.2-.49-.67-1.06-1.14-.81.27 1.49.54 3 .82 4.47a26.56 26.56 0 01-7.07-6.87 2 2 0 00-.67-.68.63.63 0 00-.84.23.89.89 0 00.15.76 26.48 26.48 0 002.83 4.11c-1.37-2-4.22-5.45-4.88-4.64s1 3.93 2.46 5.77l-3.43-3.81c-.31-.35-.83-.72-1.2-.43s-.12.86.14 1.24l2.38 3.56c-1.22-1.07-2.9-3.62-3.78-3s1.89 3.9 3.65 5.18 3.75 2.29 5.2 3.92a17.84 17.84 0 012.22 3.43" fill="#fff"/><path d="M260 74.68a.48.48 0 01-.41-.25 16.87 16.87 0 00-2.14-3.37 17.37 17.37 0 00-3.52-2.77c-.54-.35-1.08-.71-1.61-1.08-1.38-1-4-3.81-4-5.2a.84.84 0 01.37-.73 1.11 1.11 0 011.22 0c-.47-.73-.46-1.39 0-1.77s1.19-.22 1.82.47l.4.45c-.38-1-.53-1.89-.13-2.39a.84.84 0 01.67-.28 2.08 2.08 0 011.09.51 1 1 0 01.08-.37.92.92 0 01.54-.5 1.15 1.15 0 01.91 0 2.32 2.32 0 01.85.82 26.08 26.08 0 006.05 6.13c-.21-1.13-.41-2.25-.61-3.38a.45.45 0 01.23-.49.9.9 0 01.77 0 2 2 0 011 1.09A31.36 31.36 0 01266 71.94a.46.46 0 01-.91 0 30.31 30.31 0 00-2.37-10 1.63 1.63 0 00-.11-.23c.21 1.21.44 2.42.66 3.62a.48.48 0 01-.2.47.45.45 0 01-.5 0 26.9 26.9 0 01-7.2-7 1.59 1.59 0 00-.49-.53.29.29 0 00-.23 0s0 .08.14.35c.38.68.78 1.34 1.22 2 .89 1.1 1.58 2.1 1.59 2.13a.46.46 0 01-.1.62.47.47 0 01-.63-.08 29.06 29.06 0 01-1.63-2.16c-1.19-1.45-2.27-2.43-2.63-2.43-.24.34.74 2.82 2.55 5.15a.46.46 0 01-.7.59l-3.43-3.82c-.27-.3-.51-.4-.56-.38s0 .27.22.64l2.38 3.55a.47.47 0 01-.08.6.46.46 0 01-.6 0 15.14 15.14 0 01-1.23-1.27c-.46-.52-1.71-1.89-2-1.71-.11.48 1.79 3.08 3.66 4.43.51.37 1 .71 1.57 1.06a17.62 17.62 0 013.7 2.93 18 18 0 012.3 3.53.45.45 0 01-.19.62.42.42 0 01-.2.06z" fill="#231f20"/><path d="M323.91 62L322 54.29c-2.06-8.29-4.91-16.85-14-19.42-2.69-.76-5.42-.46-7.2 2-1.84-1.54-4.7-.71-6.6.75-4.2 3.22-6.2 8.32-6.26 13.38-.12 5.79-.73 11.84-3.8 16.9-1.25 2-2.87 3.88-4 6s-1.57 4.8-.43 6.92a8.22 8.22 0 002.85 2.83c5.86 3.83 13.3 4.24 20.29 3.76 7.16-.49 14.9-2.13 19.46-7.67a15.53 15.53 0 003.4-8.51c.29-3.42-1-6.04-1.8-9.23z" fill="#fff"/><path d="M298.49 88.09c-5.13 0-11.18-.75-16.14-4a8.81 8.81 0 01-3-3c-1.07-2-.91-4.68.43-7.35a29.41 29.41 0 012.33-3.62c.56-.78 1.14-1.6 1.65-2.43 3.1-5.1 3.62-11.28 3.73-16.67.11-5.71 2.46-10.75 6.45-13.81 1.9-1.46 4.76-2.33 6.79-1 1.71-2 4.32-2.66 7.41-1.78 9.32 2.64 12.27 11.58 14.31 19.75l1.91 7.66c.22.88.48 1.72.73 2.53a17.45 17.45 0 011.12 7 16 16 0 01-3.5 8.76c-3.86 4.69-10.15 7.18-19.78 7.84-1.36.03-2.86.12-4.44.12zm-.1-51.62a6.79 6.79 0 00-3.91 1.53c-3.76 2.89-6 7.66-6.09 13.1s-.65 11.84-3.86 17.13c-.53.86-1.12 1.68-1.69 2.48a27.51 27.51 0 00-2.25 3.51c-.57 1.13-1.76 4-.44 6.5a7.59 7.59 0 002.7 2.65c6.27 4.11 14.43 4.08 20 3.7 9.36-.64 15.44-3 19.13-7.51a15.08 15.08 0 003.3-8.26 16.54 16.54 0 00-1.09-6.61c-.25-.83-.51-1.68-.74-2.57l-1.91-7.67c-2.06-8.29-4.82-16.58-13.67-19.09-2-.58-4.85-.73-6.7 1.8a.46.46 0 01-.32.18.42.42 0 01-.34-.1 3.24 3.24 0 00-2.12-.77z" fill="#231f20"/><path d="M288 71.65c-2.33 2.18-7.55 10.4-12.31 19L265.83 70l-8 2.39s7.24 38.18 14.38 39.76 16.88-15.46 16.88-15.46l10.91-30s-8.52 1.69-12 4.96z" fill="#01a479"/><path d="M316.14 123.53c-1.07-10.49-3.29-35.3-1.25-41.8 2.62-8.31 2.54-10.63 0-11.46s-9.39-5.2-14.09 0c0 0-10.81 6.08-12.9 16.55-1.54 7.67.26 27 1.32 36.71z" fill="#fff"/><path d="M294.78 123.53c.78-11.57 1.8-20.48 2.07-24.15.38-5.27 1.73-20.55 3.19-27.24 1.89-4.16 1.07-5.37 1.07-5.37s-10.64-1.49-13.81 14.39c-.78 3.92-2.57 23.62-4.47 42.37z" fill="#01a479"/><path d="M300 64v8.14s.82 4.57 5.8 3.17a10.27 10.27 0 006.6-5.86l-.6-14.15a25.16 25.16 0 01-.82-7.59c-6-.1-10.8-4.66-10.8-4.66s-2.08 3.12-3 4.11a12.39 12.39 0 00-1.87 2.46 10.9 10.9 0 00-.76 5.28 33.59 33.59 0 00.61 6.16C296 64.91 300 64 300 64z" fill="#fff"/><path d="M304 76a4.36 4.36 0 01-2.37-.64 5.08 5.08 0 01-2.11-3.17v-7.73a4.9 4.9 0 01-3.08-.63 4 4 0 01-1.73-2.71 34.67 34.67 0 01-.63-6.24 11.27 11.27 0 01.82-5.5 12.84 12.84 0 011.94-2.56c.86-1 2.91-4 2.93-4.05a.47.47 0 01.33-.2.45.45 0 01.37.12c0 .05 4.7 4.44 10.49 4.53a.45.45 0 01.32.14.51.51 0 01.13.33 22.94 22.94 0 00.67 6.83 3.45 3.45 0 01.14.73s0 .57.57 14.15a.57.57 0 010 .18 10.66 10.66 0 01-6.91 6.14A6.93 6.93 0 01304 76zm-3.58-3.89a3.76 3.76 0 005.22 2.73 9.88 9.88 0 006.27-5.5c0-1.24-.55-13.91-.56-14.05a4.1 4.1 0 00-.12-.55 23.37 23.37 0 01-.7-6.62 18.21 18.21 0 01-10.25-4.41 44.64 44.64 0 01-2.73 3.73 11.75 11.75 0 00-1.8 2.37 10.38 10.38 0 00-.71 5 32.9 32.9 0 00.6 6.07 3.13 3.13 0 001.36 2.21 4.4 4.4 0 002.94.43.45.45 0 01.39.08.46.46 0 01.17.36v8.18z" fill="#231f20"/><path d="M300.05 68a7.86 7.86 0 005.45-2.07 5.7 5.7 0 001.82-4.44A15.86 15.86 0 01300 64z" fill="#231f20"/><path d="M300.2 68.42h-.2a.45.45 0 01-.42-.44v-4a.43.43 0 01.43-.45 15.66 15.66 0 007.08-2.41.42.42 0 01.42 0 .44.44 0 01.26.34 6.14 6.14 0 01-1.94 4.81 8.17 8.17 0 01-5.63 2.15zm.25-4v3.15a7.21 7.21 0 004.7-1.93 5.68 5.68 0 001.68-3.34 15.82 15.82 0 01-6.38 2.08z" fill="#231f20"/><path d="M302.9 52.22s-2.63 3.92-2 4.61 2.37.23 2.37.23" fill="#fff"/><path d="M302.12 57.65a2.11 2.11 0 01-1.55-.52c-.71-.78.68-3.24 2-5.16a.45.45 0 01.62-.12.45.45 0 01.12.61c-1.2 1.79-2.15 3.71-2 4.11s1.31.21 1.91.06a.44.44 0 01.54.32.44.44 0 01-.32.53 5.13 5.13 0 01-1.32.17z" fill="#231f20"/><ellipse cx="297.53" cy="51.54" rx=".85" ry=".45" transform="rotate(-87.75 297.522 51.541)" fill="#231f20"/><ellipse cx="304.94" cy="50.9" rx=".85" ry=".45" transform="rotate(-87.75 304.938 50.906)" fill="#231f20"/><path d="M301.11 59.13l2.09-.53s.43 3-.75 3.32-1.34-2.79-1.34-2.79z" fill="#fff"/><path d="M302.31 62.38a1 1 0 01-.63-.22c-.85-.63-1-2.61-1-3a.45.45 0 01.33-.46l2.09-.53a.42.42 0 01.36.06.46.46 0 01.19.3c.08.58.41 3.48-1.09 3.82zm-.73-2.91a3.88 3.88 0 00.63 2 .18.18 0 00.14 0c.4-.09.55-1.22.47-2.34z" fill="#231f20"/><path d="M309.07 51.11c.55-1.44 2.37-2 3.76-1.69a2.33 2.33 0 011.9 1.77 4.23 4.23 0 010 1.7 9 9 0 01-1 3 3.22 3.22 0 01-1 1.18 1.6 1.6 0 01-1.82-.12" fill="#fff"/><path d="M311.93 57.73a2.26 2.26 0 01-1.29-.43.44.44 0 01-.11-.63.45.45 0 01.63-.12 1.15 1.15 0 001.32.1 2.81 2.81 0 00.85-1 8.36 8.36 0 001-2.82 4 4 0 000-1.52 1.91 1.91 0 00-1.55-1.44 2.91 2.91 0 00-3.25 1.41.45.45 0 01-.59.26.46.46 0 01-.26-.59c.63-1.64 2.67-2.29 4.28-2a2.81 2.81 0 012.26 2.12 4.64 4.64 0 010 1.87 9.32 9.32 0 01-1.07 3.12 3.67 3.67 0 01-1.15 1.37 1.93 1.93 0 01-1.07.3z" fill="#231f20"/><path d="M326.49 123.53c0-.35-.07-.69-.1-1-.86-9.68 0-42.65-2.06-49.21-1-3.13-11.53-5.43-11.53-5.43s-6.52 34.61-9.09 55.66z" fill="#01a479"/><path d="M324.33 73.3s18.3 38.88 10.87 41.41c-3 1-27.86 1.47-27.86 1.47l-2.89-11.76 20.42-3.16z" fill="#01a479"/><path d="M297.53 56.48a5 5 0 115-5 5 5 0 01-5 5zm0-9a4 4 0 104.05 4.05 4.05 4.05 0 00-4.05-4.06z" fill="#231f20"/><path d="M306.84 55.71a5 5 0 115-5 5 5 0 01-5 5zm0-9a4 4 0 104 4 4.06 4.06 0 00-4-4.01zM304.45 104.88a.46.46 0 01-.07-.91l19.94-3.08-4.81-20.74a.46.46 0 01.34-.55.46.46 0 01.55.35l4.92 21.21a.47.47 0 01-.07.36.46.46 0 01-.31.19l-20.42 3.16zM285.3 101.08h-.05a.46.46 0 01-.4-.51c.91-7.53 2.64-21.86 2.68-22.22h.45l.1-.46c.41.09.41.09-.06 4l-2.26 18.77a.46.46 0 01-.46.42zM279.59 98.23a.45.45 0 01-.41-.25L267 73.51a.45.45 0 01.21-.61.44.44 0 01.61.2L280 97.57a.46.46 0 01-.2.61.54.54 0 01-.21.05z" fill="#231f20"/><path d="M311.34 93.85a.48.48 0 01-.3-.11.47.47 0 01-.05-.65l5.95-6.84-4-4.06a.44.44 0 01-.13-.33.43.43 0 01.14-.32l4-3.73c-1.48-2.22-3.68-5.52-3.91-5.78a.46.46 0 010-.64.44.44 0 01.63 0c.28.27 3.05 4.45 4.23 6.24a.43.43 0 01-.07.58L314 81.89l3.94 4a.47.47 0 010 .62l-6.23 7.16a.43.43 0 01-.37.18zM296.06 92.13a.45.45 0 01-.37-.2l-5.05-7.19a.45.45 0 01.09-.62l4.93-3.93-3-3.09a.48.48 0 010-.66l5.6-5.07a.46.46 0 01.61.68l-5.24 4.76 3 3.11a.46.46 0 010 .68l-5 4 4.8 6.85a.44.44 0 01-.11.63.43.43 0 01-.26.05zM260.76 69a.46.46 0 01-.45-.42c-.19-2.26 2.22-3.52 2.32-3.57a.45.45 0 01.62.2.46.46 0 01-.2.61s-2 1-1.83 2.69a.46.46 0 01-.42.49z" fill="#231f20"/><path fill="#fff" d="M258.07 98.45h82.36v20.6h-82.36z"/><path d="M340.43 119.51h-82.36a.47.47 0 01-.46-.46v-20.6a.46.46 0 01.46-.45h82.36a.46.46 0 01.46.45v20.6a.47.47 0 01-.46.46zm-81.9-.92H340V98.91h-81.47z" fill="#231f20"/><path fill="#fff" d="M261.63 119.05h75.25v104.13h-75.25z"/><path d="M336.89 223.63h-75.26a.45.45 0 01-.45-.45V119.05a.46.46 0 01.45-.46h75.26a.46.46 0 01.45.46v104.13a.45.45 0 01-.45.45zm-74.8-.91h74.34V119.51h-74.34z" fill="#231f20"/><path fill="#231f20" d="M261.63 134.21l75.35-11.03-.1-4.13h-75.25v15.16z"/><path d="M261.63 134.65a.43.43 0 01-.28-.11.42.42 0 01-.16-.33v-15.16a.44.44 0 01.44-.44h75.26a.45.45 0 01.44.43l.09 4.13a.46.46 0 01-.38.45l-75.34 11zm.45-15.16v14.21l74.45-10.9-.07-3.31z" fill="#231f20"/><path fill="#fff" d="M68.83 25.06h165.26v106.77H68.83z"/><path d="M234.09 132.33H68.83a.5.5 0 01-.5-.5V25.06a.5.5 0 01.5-.5h165.26a.5.5 0 01.5.5v106.77a.5.5 0 01-.5.5zm-164.76-1h164.26V25.56H69.33z" fill="#231f20"/><path d="M195.18 99.14a.5.5 0 01-.44-.33l-21.8-60.72L148.81 85a.52.52 0 01-.4.27.49.49 0 01-.41-.27l-23.8-31-15.01 24a.49.49 0 01-.68.17L96 70.64a.5.5 0 01-.17-.68.49.49 0 01.69-.17l12.13 7.3 15.14-24.26a.52.52 0 01.4-.24.49.49 0 01.42.2l23.72 31 24.27-47.2a.49.49 0 01.47-.27.5.5 0 01.44.33l21.78 60.67L206 74.52a.5.5 0 01.91.43l-11.3 23.9a.49.49 0 01-.43.29z" fill="#d1d3d4"/><circle cx="108.77" cy="77.71" r="2.98" fill="#fff"/><path d="M108.77 81.18a3.48 3.48 0 113.47-3.47 3.48 3.48 0 01-3.47 3.47zm0-6a2.48 2.48 0 102.47 2.48 2.48 2.48 0 00-2.47-2.43z" fill="#d1d3d4"/><circle cx="124.16" cy="53.09" r="2.98" fill="#fff"/><path d="M124.16 56.57a3.48 3.48 0 113.48-3.48 3.48 3.48 0 01-3.48 3.48zm0-6a2.48 2.48 0 102.48 2.47 2.48 2.48 0 00-2.48-2.42z" fill="#d1d3d4"/><circle cx="172.99" cy="36.84" r="2.98" fill="#fff"/><path d="M173 40.31a3.48 3.48 0 113.48-3.47 3.48 3.48 0 01-3.48 3.47zm0-6a2.48 2.48 0 102.48 2.48 2.48 2.48 0 00-2.48-2.43z" fill="#d1d3d4"/><circle cx="195.18" cy="98.64" r="2.98" fill="#fff"/><path d="M195.18 102.11a3.48 3.48 0 113.47-3.47 3.47 3.47 0 01-3.47 3.47zm0-6a2.48 2.48 0 102.47 2.48 2.48 2.48 0 00-2.47-2.43z" fill="#d1d3d4"/><circle cx="148.37" cy="84.74" r="2.98" fill="#fff"/><path d="M148.37 88.22a3.48 3.48 0 113.47-3.48 3.48 3.48 0 01-3.47 3.48zm0-6a2.48 2.48 0 102.47 2.47 2.48 2.48 0 00-2.47-2.42zM113.51 39.22H99.72a.5.5 0 010-1h13.79a.5.5 0 110 1zM113.51 42.79H99.72a.5.5 0 01-.5-.5.5.5 0 01.5-.5h13.79a.5.5 0 01.5.5.5.5 0 01-.5.5zM113.51 46.36H99.72a.5.5 0 01-.5-.5.5.5 0 01.5-.5h13.79a.5.5 0 01.5.5.5.5 0 01-.5.5zM108.67 49.92h-9a.5.5 0 01-.5-.5.5.5 0 01.5-.5h9a.51.51 0 01.5.5.5.5 0 01-.5.5zM206.65 53h-13.79a.5.5 0 010-1h13.79a.5.5 0 010 1zM206.65 56.57h-13.79a.5.5 0 01-.5-.5.5.5 0 01.5-.5h13.79a.5.5 0 01.5.5.51.51 0 01-.5.5zM202 60.14h-9.15a.5.5 0 01-.5-.5.5.5 0 01.5-.5H202a.5.5 0 01.5.5.51.51 0 01-.5.5zM210.47 110H92.39a.5.5 0 01-.5-.5.51.51 0 01.5-.5h118.08a.51.51 0 01.5.5.5.5 0 01-.5.5zM210.47 116.86H92.39a.5.5 0 010-1h118.08a.5.5 0 010 1zM191 123.68H92.39a.5.5 0 110-1H191a.5.5 0 010 1z" fill="#d1d3d4"/><path d="M267.18 175.15c1-6.21 11.3-7.74 10.79-.42a10.77 10.77 0 01-2.75 6.87 6.37 6.37 0 01-6.91 1.62" fill="#fff"/><path d="M270.46 184.18a5.74 5.74 0 01-2.36-.49.51.51 0 01-.26-.68.52.52 0 01.68-.26 5.81 5.81 0 006.33-1.51 10.31 10.31 0 002.6-6.54c.18-2.49-1-4.06-3.18-4.31a6.14 6.14 0 00-6.58 4.84.52.52 0 01-.59.43.5.5 0 01-.43-.59 7.11 7.11 0 017.72-5.7c2.15.24 4.35 1.79 4.09 5.4a11.27 11.27 0 01-2.89 7.19 7.29 7.29 0 01-5.13 2.22z" fill="#231f20"/><path d="M241.5 175.15c-1-6.21-11.3-7.74-10.79-.42a10.72 10.72 0 002.75 6.87 6.37 6.37 0 006.91 1.62" fill="#fff"/><path d="M238.22 184.18a7.29 7.29 0 01-5.13-2.22 11.34 11.34 0 01-2.9-7.19c-.25-3.61 1.95-5.16 4.1-5.4a7.1 7.1 0 017.72 5.7.52.52 0 01-.43.59.51.51 0 01-.59-.43 6.14 6.14 0 00-6.59-4.84c-2.19.25-3.35 1.82-3.18 4.31a10.42 10.42 0 002.6 6.54 5.83 5.83 0 006.34 1.51.52.52 0 01.68.26.51.51 0 01-.26.68 5.77 5.77 0 01-2.36.49z" fill="#231f20"/><path d="M271.15 175.61l-1.75-18.25s-4.95-6.09-15.06-6.09-15.06 6.09-15.06 6.09l-.75 16.12c0 8 2 12.72 5.13 15.44l-.79 17.26s2.79 6.07 10.93 6.07a13.12 13.12 0 0011.43-6.07l-.71-15.63c3.15-1.85 5.48-5.94 6.63-14.94z" fill="#fff"/><path d="M254.34 151.27c10.11 0 15.06 6.09 15.06 6.09l1.75 18.25c-1.16 9-3.48 13.09-6.63 14.94l.71 15.63a13.12 13.12 0 01-11.43 6.07c-8.14 0-10.93-6.07-10.93-6.07l.79-17.26c-3.1-2.72-5.13-7.49-5.13-15.44l.75-16.12s4.95-6.09 15.06-6.09m0-1c-10.48 0-15.65 6.21-15.86 6.47a1 1 0 00-.23.61l-.75 16.11c0 7.35 1.71 12.69 5.11 15.92l-.77 16.78a1.14 1.14 0 00.09.48c.13.27 3.17 6.67 11.87 6.67a14.08 14.08 0 0012.34-6.61 1 1 0 00.12-.54l-.68-15c3.49-2.38 5.54-7.16 6.6-15.36a.88.88 0 000-.23l-1.76-18.25a1 1 0 00-.22-.55c-.22-.26-5.38-6.47-15.86-6.47z" fill="#231f20"/><path d="M232.8 178.92a53.84 53.84 0 01-1.8 13.39q19.2.84 38.43.24a4.72 4.72 0 002.2-.44 4.5 4.5 0 001.7-2.52c2.82-7.64 2.41-16.06 2.89-24.11.28-4.71.48-9.75-2-13.78a7.14 7.14 0 00-4.61-3.55 5.09 5.09 0 00-4.94 2.12c.81-1.21-5.31-4.3-6.07-4.53-2.39-.7-5-.45-7.49-.29-5.21.32-10.89 1.07-14.23 5.58-2.69 3.63-3.51 8.31-3.83 12.82-.27 4.99-.11 10.06-.25 15.07z" fill="#fff"/><path d="M253.35 193.32c-7.46 0-14.93-.17-22.35-.49a.55.55 0 01-.39-.21.55.55 0 01-.08-.45 54.16 54.16 0 001.75-13.27c.05-1.88.07-3.78.08-5.67 0-3.09 0-6.29.25-9.42.28-4 1-9.11 3.92-13.09 3.5-4.72 9.38-5.46 14.62-5.79h.61a20.41 20.41 0 017.06.36c.43.12 4.92 2.24 6.17 3.92a5.54 5.54 0 014.78-1.52 7.52 7.52 0 015 3.78c2.62 4.32 2.29 9.73 2 14.08-.1 1.75-.17 3.52-.23 5.29-.22 6.35-.45 12.92-2.68 19a5 5 0 01-1.93 2.79 5.14 5.14 0 01-2.45.5q-8.03.19-16.13.19zm-21.65-1.49c12.52.53 25.22.6 37.74.2a4.16 4.16 0 002-.37 4.11 4.11 0 001.48-2.25c2.17-5.89 2.4-12.38 2.62-18.64.06-1.79.13-3.56.23-5.32.31-5.16.38-9.74-1.88-13.49a6.6 6.6 0 00-4.26-3.3 4.57 4.57 0 00-4.42 1.9.52.52 0 01-.86-.58c-.05-.8-4.75-3.44-5.78-3.74a19.51 19.51 0 00-6.71-.32h-.61c-5 .31-10.62 1-13.85 5.37-2.78 3.77-3.45 8.69-3.72 12.55-.22 3.1-.23 6.28-.25 9.36 0 1.9 0 3.8-.08 5.69a56.36 56.36 0 01-1.65 12.94zM236.1 202s.29-3.67 1.89-4.69 27.22-2.64 30.19 0a9.93 9.93 0 013 6.77s-29.69-2.75-35.08-2.08z" fill="#231f20"/><path d="M271.15 204.49c-.29 0-29.68-2.71-35-2.09a.4.4 0 01-.36-.12.39.39 0 01-.13-.35c0-.16.33-3.9 2.1-5 2-1.26 27.73-2.61 30.71 0a10.24 10.24 0 013.12 7.1.43.43 0 01-.14.32.42.42 0 01-.3.14zm-32.6-3.06c8.16 0 28.52 1.81 32.13 2.13a9.28 9.28 0 00-2.79-5.95c-2.85-2.54-28.54-.66-29.66 0s-1.47 2.64-1.64 3.82c.53.01 1.2 0 1.96 0z" fill="#231f20"/><path d="M291.63 215.23c-10.05-13.88-27.27-15.11-37.58-15.11s-27.53 1.23-37.58 15.11-9.58 39.91-9.58 39.91h94.32s.48-26.03-9.58-39.91z" fill="#01a479"/><path d="M301.21 255.59h-94.32a.45.45 0 01-.45-.44c0-.27-.37-26.35 9.66-40.19 11.08-15.3 31.31-15.3 38-15.3 26.87 0 35.21 11.52 37.95 15.3 10 13.84 9.67 39.92 9.67 40.19a.46.46 0 01-.51.44zm0-.45zm-93.86-.46h93.41c0-3.5-.37-26.58-9.5-39.18-9.68-13.38-25.87-14.93-37.21-14.93s-27.52 1.55-37.21 14.93c-9.13 12.6-9.49 35.68-9.49 39.18z" fill="#231f20"/><path d="M232.68 255.65a.51.51 0 01-.51-.49l-1.91-42.89a.53.53 0 01.49-.54.52.52 0 01.54.5l1.91 42.88a.52.52 0 01-.49.54zM277.38 255.65a.52.52 0 01-.49-.54l1.94-41.63a.5.5 0 01.54-.49.53.53 0 01.49.54l-1.94 41.63a.51.51 0 01-.54.49z" fill="#231f20"/><path d="M219.44 228.95h66.63a15.14 15.14 0 0115.14 15.14v14h-96.92v-14a15.14 15.14 0 0115.15-15.14z" fill="#231f20"/><path d="M301.21 258.58h-96.92a.44.44 0 01-.44-.44v-14a15.6 15.6 0 0115.59-15.58h66.63a15.6 15.6 0 0115.58 15.58v14a.44.44 0 01-.44.44zm-96.48-.88h96v-13.61a14.72 14.72 0 00-14.7-14.7h-66.59a14.73 14.73 0 00-14.71 14.7z" fill="#231f20"/><path d="M219.44 235.27h66.63a15.14 15.14 0 0115.14 15.14v24.52h-96.92v-24.51a15.14 15.14 0 0115.15-15.15z" fill="#d1d3d4"/><path d="M301.21 275.38h-96.92a.44.44 0 01-.44-.44v-24.52a15.6 15.6 0 0115.59-15.59h66.63a15.6 15.6 0 0115.58 15.59v24.52a.43.43 0 01-.44.44zm-96.48-.88h96v-24.08a14.72 14.72 0 00-14.7-14.71h-66.59a14.73 14.73 0 00-14.71 14.71z" fill="#231f20"/><path d="M158.41 169c1-6.21 11.3-7.74 10.79-.42a10.76 10.76 0 01-2.75 6.87 6.37 6.37 0 01-6.91 1.62" fill="#fff"/><path d="M161.69 178.06a5.77 5.77 0 01-2.36-.49.52.52 0 01-.26-.68.51.51 0 01.68-.26 5.83 5.83 0 006.34-1.51 10.42 10.42 0 002.6-6.55c.17-2.48-1-4-3.18-4.3a6.14 6.14 0 00-6.59 4.84.52.52 0 01-.59.43.52.52 0 01-.43-.59 7.14 7.14 0 017.72-5.71c2.15.25 4.35 1.8 4.1 5.41a11.37 11.37 0 01-2.9 7.19 7.31 7.31 0 01-5.13 2.22z" fill="#231f20"/><path d="M132.73 169c-1-6.21-11.3-7.74-10.79-.42a10.82 10.82 0 002.75 6.87 6.37 6.37 0 006.91 1.62" fill="#fff"/><path d="M129.45 178.06a7.33 7.33 0 01-5.13-2.22 11.29 11.29 0 01-2.89-7.19c-.25-3.61 1.95-5.16 4.09-5.41a7.13 7.13 0 017.72 5.71.51.51 0 01-.43.59.52.52 0 01-.59-.43 6.12 6.12 0 00-6.58-4.84c-2.2.25-3.36 1.82-3.18 4.3a10.31 10.31 0 002.6 6.55 5.83 5.83 0 006.33 1.51.51.51 0 01.42.94 5.74 5.74 0 01-2.36.49z" fill="#231f20"/><path d="M162.39 169.49l-1.76-18.25s-4.95-6.09-15.06-6.09-15.06 6.09-15.06 6.09l-.75 16.11c0 8 2 12.72 5.13 15.44l-.79 17.26s2.79 6.08 10.93 6.08a13.12 13.12 0 0011.43-6.08l-.71-15.62c3.15-1.86 5.47-5.94 6.64-14.94z" fill="#fff"/><path d="M145.57 145.15c10.11 0 15.06 6.09 15.06 6.09l1.76 18.25c-1.17 9-3.49 13.08-6.64 14.94l.71 15.62a13.12 13.12 0 01-11.46 6.08c-8.14 0-10.93-6.08-10.93-6.08l.79-17.26c-3.09-2.72-5.13-7.48-5.13-15.44l.75-16.11s5-6.09 15.06-6.09m0-1c-10.48 0-15.64 6.21-15.86 6.47a1 1 0 00-.23.6l-.75 16.12c0 7.34 1.72 12.68 5.11 15.92l-.74 16.74a1.1 1.1 0 00.1.47c.12.28 3.16 6.68 11.86 6.68a14.08 14.08 0 0012.34-6.61 1 1 0 00.12-.54l-.68-15c3.49-2.38 5.54-7.16 6.6-15.36a.89.89 0 000-.23l-1.75-18.25a1 1 0 00-.23-.55c-.21-.26-5.38-6.47-15.86-6.47z" fill="#231f20"/><path d="M182.87 209.1c-10.06-13.87-27.28-15.1-37.59-15.1s-27.53 1.24-37.58 15.11S98.12 249 98.12 249h94.32s.48-26-9.57-39.9z" fill="#01a479"/><path d="M192.44 249.53H98.12a.51.51 0 01-.51-.51c0-.26-.37-26.36 9.67-40.22 11.1-15.32 31.35-15.32 38-15.32 26.9 0 35.26 11.53 38 15.32 10 13.86 9.67 40 9.67 40.22a.53.53 0 01-.51.51zm-93.8-1h93.29c0-3.69-.41-26.57-9.48-39.09-9.68-13.36-25.85-14.9-37.17-14.9s-27.49 1.54-37.16 14.9c-9.07 12.49-9.48 35.37-9.48 39.06z" fill="#231f20"/><path d="M124.87 252.56a.51.51 0 01-.51-.45l-5.54-42.44a.5.5 0 01.44-.57.51.51 0 01.58.44l5.54 42.46a.52.52 0 01-.45.58zM163.82 254.54h-.09a.5.5 0 01-.42-.59l6.65-42a.51.51 0 01.59-.42.5.5 0 01.43.59l-6.65 42a.52.52 0 01-.51.42z" fill="#231f20"/><path d="M127.33 195.84s.29-3.67 1.9-4.68 27.21-2.65 30.18 0a9.89 9.89 0 013 6.76s-29.69-2.72-35.08-2.08z" fill="#01a479"/><path d="M125 197.2a.53.53 0 01-.49-.34.52.52 0 01.31-.66 70.6 70.6 0 0141.55 0 .51.51 0 01.35.64.52.52 0 01-.65.35 69.44 69.44 0 00-40.89 0 .57.57 0 01-.18.01z" fill="#231f20"/><path d="M123 172c-.27 1.06-.54 2.12-.82 3.17-1.61 6.13-3.72 12.4-5.87 18.41q6.72 2.9 13.3 6.1l2.74-5.08.79 8.9a51.61 51.61 0 0022.49 1l.94-4.59c.5 2.17 2.85 3.51 5.08 3.57 3.28.09 5.9-.81 6.47-4a27.42 27.42 0 00-.56-9.8c-1.32-6.64-3.41-13.07-3.43-19.84 0-7.33.31-14.81-1.78-21.93-.95-3.25-2.52-6.52-5.34-8.41s-7.11-1.88-9.23.76c.62-.77-6.3-2.5-6.9-2.5a8.43 8.43 0 00-4.92 1.39c-5 3-7.33 6.59-8.41 12.26Q125.63 161.76 123 172z" fill="#fff"/><path d="M146.68 205.8A51.88 51.88 0 01133 204a.5.5 0 01-.38-.45l-.63-7.19-1.92 3.56a.52.52 0 01-.68.22c-4.37-2.12-8.84-4.17-13.29-6.08a.52.52 0 01-.28-.65c2.68-7.49 4.49-13.15 5.86-18.37.28-1.05.55-2.11.82-3.16 1.72-6.78 3.25-13.7 4.55-20.57 1.13-6 3.63-9.61 8.65-12.6a9 9 0 015.18-1.47c.27 0 5.38 1.09 7 2.18 2.52-2.47 6.75-2.17 9.46-.35 2.51 1.69 4.33 4.53 5.55 8.7 1.84 6.28 1.82 12.88 1.8 19.26v2.81c0 4.84 1.13 9.63 2.2 14.26.42 1.79.85 3.63 1.21 5.48a27.52 27.52 0 01.56 10c-.54 3.06-2.88 4.56-7 4.44a6.29 6.29 0 01-4.87-2.43l-.62 3a.5.5 0 01-.42.4 51.09 51.09 0 01-9.07.81zm-13-2.71a51.19 51.19 0 0021.58 1l.86-4.24a.51.51 0 01.5-.41.5.5 0 01.5.4c.46 2 2.71 3.11 4.59 3.16 3.59.1 5.49-1 6-3.58a26.88 26.88 0 00-.56-9.61c-.36-1.83-.79-3.67-1.2-5.45-1.09-4.69-2.22-9.53-2.23-14.49v-2.81c0-6.31 0-12.83-1.76-19-1.15-3.92-2.83-6.58-5.14-8.13-2.51-1.69-6.54-1.83-8.54.65a.52.52 0 01-.73.08.54.54 0 01-.19-.42 27.23 27.23 0 00-6.39-2 8.14 8.14 0 00-4.64 1.32c-4.73 2.83-7.1 6.28-8.17 11.91-1.3 6.89-2.84 13.83-4.56 20.63-.27 1.06-.54 2.12-.82 3.17-1.35 5.14-3.12 10.71-5.73 18 4.17 1.8 8.35 3.71 12.44 5.7l2.5-4.65a.52.52 0 011 .2zM123 172zm24.37-32.07zM111.26 222.83h66.64A15.14 15.14 0 01193 238v14H96.12v-14a15.14 15.14 0 0115.14-15.17z" fill="#231f20"/><path d="M193 252.46H96.12a.44.44 0 01-.44-.44V238a15.6 15.6 0 0115.58-15.58h66.64A15.6 15.6 0 01193.48 238v14a.44.44 0 01-.48.46zm-96.48-.88h96V238a14.72 14.72 0 00-14.7-14.7h-66.56a14.72 14.72 0 00-14.7 14.7z" fill="#231f20"/><path d="M111.26 229.15h66.64a15.14 15.14 0 0115.1 15.14v30.65H96.12v-30.65a15.14 15.14 0 0115.14-15.14z" fill="#d1d3d4"/><path d="M193 275.38H96.12a.44.44 0 01-.44-.44v-30.65a15.6 15.6 0 0115.58-15.58h66.64a15.6 15.6 0 0115.58 15.58v30.65a.44.44 0 01-.48.44zm-96.48-.88h96v-30.21a14.72 14.72 0 00-14.7-14.7h-66.56a14.72 14.72 0 00-14.7 14.7z" fill="#231f20"/><path d="M218.72 191.31c1-6.21 11.3-7.74 10.79-.42a10.82 10.82 0 01-2.75 6.87 6.37 6.37 0 01-6.91 1.62" fill="#fff"/><path d="M222 200.34a5.74 5.74 0 01-2.36-.49.51.51 0 11.42-.94 5.82 5.82 0 006.33-1.51 10.31 10.31 0 002.6-6.55c.18-2.48-1-4-3.18-4.3a6.14 6.14 0 00-6.58 4.84.52.52 0 01-.59.43.51.51 0 01-.43-.59 7.13 7.13 0 017.72-5.71c2.15.25 4.35 1.8 4.09 5.41a11.31 11.31 0 01-2.89 7.19 7.33 7.33 0 01-5.13 2.22z" fill="#231f20"/><path d="M193 191.31c-1-6.21-11.3-7.74-10.79-.42a10.76 10.76 0 002.75 6.87 6.37 6.37 0 006.91 1.62" fill="#fff"/><path d="M189.76 200.34a7.33 7.33 0 01-5.13-2.22 11.37 11.37 0 01-2.9-7.19c-.25-3.61 2-5.16 4.1-5.41a7.13 7.13 0 017.72 5.71.52.52 0 01-.43.59.52.52 0 01-.59-.43 6.14 6.14 0 00-6.59-4.84c-2.19.25-3.35 1.82-3.18 4.3a10.42 10.42 0 002.6 6.55 5.83 5.83 0 006.34 1.51.51.51 0 01.42.94 5.77 5.77 0 01-2.36.49z" fill="#231f20"/><path d="M222.69 191.77l-1.75-18.25s-4.95-6.09-15.06-6.09-15.06 6.09-15.06 6.09l-.75 16.11c0 8 2 12.72 5.13 15.44l-.79 17.26s2.79 6.08 10.93 6.08a13.12 13.12 0 0011.43-6.08l-.71-15.62c3.15-1.86 5.47-5.94 6.63-14.94z" fill="#fff"/><path d="M205.88 167.43c10.11 0 15.06 6.09 15.06 6.09l1.75 18.25c-1.16 9-3.48 13.08-6.63 14.94l.71 15.62a13.12 13.12 0 01-11.43 6.08c-8.14 0-10.93-6.08-10.93-6.08l.79-17.26c-3.1-2.72-5.13-7.49-5.13-15.44l.75-16.11s5-6.09 15.06-6.09m0-1c-10.48 0-15.65 6.2-15.86 6.47a1 1 0 00-.23.6l-.79 16.09c0 7.34 1.71 12.68 5.11 15.92l-.77 16.77a1.11 1.11 0 00.09.48c.13.27 3.17 6.68 11.87 6.68a14.08 14.08 0 0012.34-6.61 1.06 1.06 0 00.12-.55l-.68-15c3.49-2.38 5.54-7.17 6.6-15.36a.89.89 0 000-.23L222 173.42a1 1 0 00-.22-.55c-.22-.27-5.38-6.47-15.86-6.47z" fill="#231f20"/><path d="M189.09 193.21c.32.87.66 1.72 1 2.57.86 2 3.37 4.35 4.53 6.2 1.4 2.23 1.21 1.76 3.72 2a85.61 85.61 0 0016.48.19 5.31 5.31 0 003.57-1.25 5.2 5.2 0 001-1.76q3.16-8 5.74-16.3c2.11-6.76-3.25-14-.68-20.32.4-1 1-2.06.55-3l-6.38 2a14.51 14.51 0 013.75-4.56 27.81 27.81 0 00-17.77 2.84 30.11 30.11 0 015.15-4.81c-6.38.52-13.39 1.34-17.75 6a39.8 39.8 0 001.15-5.81c-5.62 5.22-9 14.11-7.68 21.79a78.93 78.93 0 003.62 14.22z" fill="#fff"/><path d="M207.61 205a85.14 85.14 0 01-9.31-.5c-.44-.05-.79-.07-1.09-.09-1.6-.11-1.8-.25-3-2.17a22.77 22.77 0 00-1.84-2.39 18 18 0 01-2.72-3.89c-.36-.83-.71-1.7-1-2.59a80.83 80.83 0 01-3.66-14.21c-1.31-7.6 1.91-16.75 7.84-22.26a.51.51 0 01.86.44c-.17 1.39-.41 2.78-.72 4.16 4.37-3.64 10.65-4.45 16.77-5a.5.5 0 01.52.33.52.52 0 01-.18.6 28.72 28.72 0 00-3.25 2.78 28.14 28.14 0 0115.66-1.73.5.5 0 01.41.38.53.53 0 01-.17.53 13.84 13.84 0 00-3 3.25l5.09-1.63a.52.52 0 01.62.26 3.51 3.51 0 01-.35 3l-.18.43c-1.26 3.1-.53 6.43.25 10s1.51 6.9.44 10.33c-1.71 5.49-3.65 11-5.75 16.34a5.55 5.55 0 01-1.06 1.92 5.77 5.77 0 01-3.91 1.42c-2.41.21-4.88.29-7.27.29zm-18-12c.32.87.66 1.73 1 2.55a17.74 17.74 0 002.57 3.63 24.26 24.26 0 011.93 2.5c1 1.61 1 1.61 2.2 1.69l1.14.1a86.2 86.2 0 0016.38.19 5 5 0 003.17-1.06 4.92 4.92 0 00.85-1.6c2.09-5.33 4-10.8 5.73-16.27 1-3.16.25-6.54-.47-9.8-.77-3.52-1.58-7.16-.2-10.56.06-.15.13-.29.19-.44a3.9 3.9 0 00.48-1.7l-5.86 1.87a.52.52 0 01-.55-.16.5.5 0 01-.06-.57 15.05 15.05 0 013-4 27.24 27.24 0 00-16.36 3 .51.51 0 01-.63-.79 30.06 30.06 0 013.85-3.8c-6.18.58-11.91 1.65-15.68 5.71a.5.5 0 01-.63.1.51.51 0 01-.24-.59 37.41 37.41 0 00.91-4.23c-5 5.35-7.62 13.46-6.44 20.26a79.67 79.67 0 003.61 14zM187.64 218.12s.29-3.67 1.89-4.68 27.22-2.65 30.19 0a9.91 9.91 0 013 6.76s-29.72-2.72-35.08-2.08z" fill="#231f20"/><path d="M222.69 220.65c-.29 0-29.67-2.7-35-2.08a.43.43 0 01-.36-.12.42.42 0 01-.13-.35c0-.16.33-3.91 2.1-5 2-1.27 27.73-2.62 30.71 0a10.24 10.24 0 013.12 7.09.44.44 0 01-.14.33.47.47 0 01-.3.13zm-32.6-3.07c8.16 0 28.52 1.81 32.13 2.14a9.28 9.28 0 00-2.79-5.95c-2.85-2.54-28.54-.66-29.66 0s-1.47 2.65-1.64 3.83c.53 0 1.2-.02 1.96-.02z" fill="#231f20"/><path d="M243.17 231.38c-10-13.87-27.27-15.11-37.58-15.11s-27.53 1.24-37.58 15.11-9.58 34.24-9.58 34.24h94.32s.48-20.36-9.58-34.24z" fill="#01a479"/><path d="M252.75 266.07h-94.32a.44.44 0 01-.45-.44c0-.21-.37-20.67 9.66-34.51 11.08-15.3 31.31-15.3 38-15.3 26.87 0 35.21 11.51 37.95 15.3 10 13.84 9.67 34.3 9.67 34.51a.45.45 0 01-.51.44zm-93.86-.91h93.41c0-3.05-.47-21-9.5-33.51-9.69-13.37-25.88-14.92-37.21-14.92s-27.52 1.55-37.21 14.92c-9.03 12.47-9.48 30.46-9.49 33.51z" fill="#231f20"/><path d="M177.06 266.13a.51.51 0 01-.5-.53l.79-34.82a.48.48 0 01.52-.51.53.53 0 01.51.53l-.79 34.83a.52.52 0 01-.53.5zM230.41 265a.52.52 0 01-.49-.54l2-33.66a.51.51 0 01.55-.49.52.52 0 01.48.55l-2 33.66a.51.51 0 01-.54.48z" fill="#231f20"/><path d="M326.17 185.63c1-6.21 11.3-7.74 10.79-.42a10.74 10.74 0 01-2.75 6.87 6.37 6.37 0 01-6.91 1.62" fill="#fff"/><path d="M329.45 194.66a5.77 5.77 0 01-2.36-.49.51.51 0 01.42-.94 5.83 5.83 0 006.34-1.51 10.42 10.42 0 002.6-6.54c.17-2.49-1-4.06-3.18-4.31a6.14 6.14 0 00-6.59 4.84.52.52 0 01-.59.43.52.52 0 01-.43-.59 7.1 7.1 0 017.72-5.7c2.15.24 4.35 1.79 4.1 5.4a11.37 11.37 0 01-2.9 7.19 7.29 7.29 0 01-5.13 2.22z" fill="#231f20"/><path d="M300.49 185.63c-1-6.21-11.3-7.74-10.79-.42a10.79 10.79 0 002.75 6.87 6.37 6.37 0 006.91 1.62" fill="#fff"/><path d="M297.21 194.66a7.29 7.29 0 01-5.13-2.22 11.27 11.27 0 01-2.89-7.19c-.26-3.61 1.94-5.16 4.09-5.4a7.1 7.1 0 017.72 5.7.51.51 0 01-.43.59.52.52 0 01-.59-.43 6.14 6.14 0 00-6.58-4.84c-2.2.25-3.36 1.82-3.19 4.31a10.38 10.38 0 002.61 6.54 5.81 5.81 0 006.33 1.51.51.51 0 11.42.94 5.77 5.77 0 01-2.36.49z" fill="#231f20"/><path d="M330.15 186.09l-1.76-18.25s-4.95-6.09-15.06-6.09-15.06 6.09-15.06 6.09l-.75 16.16c0 7.95 2 12.72 5.13 15.44l-.79 17.25s2.79 6.08 10.93 6.08a13.12 13.12 0 0011.43-6.08l-.71-15.69c3.15-1.83 5.49-5.91 6.64-14.91z" fill="#fff"/><path d="M313.33 161.75c10.11 0 15.06 6.09 15.06 6.09l1.76 18.25c-1.17 9-3.49 13.08-6.64 14.94l.71 15.62a13.12 13.12 0 01-11.43 6.08c-8.14 0-10.93-6.08-10.93-6.08l.79-17.25c-3.1-2.72-5.13-7.49-5.13-15.44l.75-16.12s5-6.09 15.06-6.09m0-1c-10.48 0-15.64 6.21-15.86 6.47a1 1 0 00-.23.6l-.75 16.12c0 7.35 1.72 12.68 5.11 15.92l-.77 16.78a1.07 1.07 0 00.1.47c.12.28 3.16 6.68 11.86 6.68a14.08 14.08 0 0012.34-6.61 1 1 0 00.12-.54l-.68-15c3.49-2.38 5.54-7.16 6.6-15.36a.88.88 0 000-.23l-1.75-18.25a1 1 0 00-.23-.55c-.21-.26-5.38-6.47-15.86-6.47z" fill="#231f20"/><path d="M350.63 225.71c-10.06-13.88-27.28-15.11-37.63-15.11s-27.53 1.23-37.58 15.11-9.58 39.91-9.58 39.91h94.36s.48-26.04-9.57-39.91z" fill="#01a479"/><path d="M360.2 266.13h-94.32a.5.5 0 01-.51-.5c0-.27-.37-26.37 9.67-40.23 11.1-15.32 31.35-15.32 38-15.32 26.9 0 35.26 11.53 38 15.32 10 13.86 9.68 40 9.68 40.23a.52.52 0 01-.52.5zm-93.8-1h93.29c0-3.69-.41-26.57-9.48-39.09-9.68-13.35-25.85-14.9-37.17-14.9s-27.49 1.55-37.16 14.9c-9.07 12.49-9.48 35.37-9.48 39.06z" fill="#231f20"/><path d="M285.64 269.13a.5.5 0 01-.51-.52l.42-39.67a.53.53 0 01.52-.51.51.51 0 01.5.53l-.42 39.66a.52.52 0 01-.51.51z" fill="#231f20"/><path fill="#01a479" d="M333.93 260.35l6.5-30.47"/><path d="M333.93 260.86h-.11a.51.51 0 01-.39-.61l6.5-30.46a.52.52 0 011 .21l-6.5 30.46a.52.52 0 01-.5.4z" fill="#231f20"/><path d="M295.09 212.45s.29-3.68 1.89-4.69 27.22-2.64 30.19 0a9.91 9.91 0 013 6.77s-29.69-2.72-35.08-2.08z" fill="#01a479"/><path d="M333.93 213.8h-.15a69.56 69.56 0 00-40.89 0 .52.52 0 01-.67-.31.52.52 0 01.31-.66 70.6 70.6 0 0141.55 0 .51.51 0 01.34.65.5.5 0 01-.49.32z" fill="#231f20"/><path d="M290.8 188.35c-.27 1.05-.54 2.11-.82 3.16-1.4 5.33-2.94 10.69-3 16.19s1.52 11.29 5.51 15.07c3.62 3.42 8.69 4.79 13.57 5.79 5 1 10.23 1.8 15.31 1s10.07-3.47 12.65-7.92c2.68-4.61 2.39-10.36 1.35-15.59-1.37-6.67-3.37-13.05-3.44-19.87 0-7.33.31-14.81-1.78-21.93-.95-3.25-2.53-6.52-5.34-8.41s-7.11-1.88-9.24.76c.63-.77-6.29-2.5-6.89-2.5a8.48 8.48 0 00-4.92 1.39c-5 3-7.33 6.59-8.41 12.26q-1.96 10.37-4.55 20.6z" fill="#fff"/><path d="M316.83 230.4a54.34 54.34 0 01-10.83-1.34c-5-1-10.16-2.45-13.82-5.92s-5.76-9.12-5.67-15.44c.06-5.14 1.4-10.19 2.69-15.07l.33-1.25c.28-1 .55-2.1.82-3.16 1.72-6.78 3.25-13.7 4.55-20.57 1.13-6 3.63-9.61 8.65-12.6a8.87 8.87 0 015.18-1.47c.27 0 5.38 1.09 7 2.18 2.52-2.47 6.75-2.17 9.46-.35 2.51 1.69 4.33 4.54 5.55 8.7 1.84 6.28 1.82 12.88 1.8 19.27v2.8c0 4.84 1.13 9.63 2.2 14.26.42 1.79.85 3.64 1.21 5.48 1.35 6.78.89 12-1.4 16-2.43 4.19-7.3 7.24-13 8.17a28.55 28.55 0 01-4.72.31zm-25.53-41.93c-.27 1.06-.54 2.12-.82 3.17l-.33 1.25c-1.28 4.82-2.6 9.81-2.66 14.82-.08 6 1.87 11.39 5.35 14.68s8.45 4.67 13.31 5.66 10.05 1.8 15.12 1c5.43-.89 10-3.75 12.29-7.68 2.17-3.73 2.59-8.71 1.29-15.23-.36-1.82-.79-3.66-1.2-5.44-1.09-4.69-2.22-9.54-2.23-14.5v-2.81c0-6.31 0-12.83-1.76-19-1.15-3.92-2.83-6.58-5.14-8.13-2.51-1.69-6.54-1.83-8.54.65a.51.51 0 01-.73.08.51.51 0 01-.19-.42 27.37 27.37 0 00-6.39-2 8 8 0 00-4.64 1.33c-4.74 2.82-7.1 6.27-8.17 11.91a347.93 347.93 0 01-4.56 20.62zM279 239.43h66.63a15.14 15.14 0 0115.14 15.14v14h-96.89v-14A15.14 15.14 0 01279 239.43z" fill="#231f20"/><path d="M360.8 269.06h-96.92a.44.44 0 01-.44-.44v-14.05A15.6 15.6 0 01279 239h66.63a15.6 15.6 0 0115.59 15.58v14.05a.44.44 0 01-.42.43zm-96.48-.88h96v-13.61a14.73 14.73 0 00-14.71-14.7H279a14.72 14.72 0 00-14.7 14.7z" fill="#231f20"/><path d="M279 245.75h66.63a15.14 15.14 0 0115.17 15.15v14h-96.92v-14A15.14 15.14 0 01279 245.75z" fill="#d1d3d4"/><path d="M360.8 275.38h-96.92a.44.44 0 01-.44-.44v-14A15.6 15.6 0 01279 245.31h66.63a15.6 15.6 0 0115.59 15.59v14a.44.44 0 01-.42.48zm-96.48-.88h96v-13.6a14.73 14.73 0 00-14.71-14.71H279a14.73 14.73 0 00-14.7 14.71zM173.06 239.43h66.64a15.14 15.14 0 0115.14 15.14v14h-96.92v-14a15.14 15.14 0 0115.14-15.14z" fill="#231f20"/><path d="M254.84 269.06h-96.92a.44.44 0 01-.44-.44v-14.05A15.6 15.6 0 01173.06 239h66.64a15.6 15.6 0 0115.58 15.58v14.05a.44.44 0 01-.44.43zm-96.48-.88h96v-13.61a14.72 14.72 0 00-14.7-14.7h-66.6a14.72 14.72 0 00-14.7 14.7z" fill="#231f20"/><path d="M173.06 245.75h66.64a15.14 15.14 0 0115.14 15.14v14h-96.92v-14a15.14 15.14 0 0115.14-15.14z" fill="#d1d3d4"/><path d="M254.84 275.38h-96.92a.44.44 0 01-.44-.44v-14a15.6 15.6 0 0115.58-15.59h66.64a15.6 15.6 0 0115.58 15.59v14a.44.44 0 01-.44.44zm-96.48-.88h96v-13.6a14.73 14.73 0 00-14.7-14.71h-66.6a14.73 14.73 0 00-14.7 14.71z" fill="#231f20"/><path d="M102.09 185.63c1-6.21 11.3-7.74 10.79-.42a10.79 10.79 0 01-2.75 6.87 6.38 6.38 0 01-6.91 1.62" fill="#fff"/><path d="M105.37 194.66a5.74 5.74 0 01-2.36-.49.51.51 0 11.42-.94 5.81 5.81 0 006.33-1.51 10.31 10.31 0 002.6-6.54c.18-2.49-1-4.06-3.18-4.31a6.13 6.13 0 00-6.58 4.84.52.52 0 01-.6.43.5.5 0 01-.42-.59 7.12 7.12 0 017.72-5.7c2.14.24 4.34 1.79 4.09 5.4a11.29 11.29 0 01-2.89 7.19 7.29 7.29 0 01-5.13 2.22z" fill="#231f20"/><path d="M76.41 185.63c-1-6.21-11.3-7.74-10.79-.42a10.78 10.78 0 002.74 6.87 6.39 6.39 0 006.92 1.62" fill="#fff"/><path d="M73.13 194.66a7.27 7.27 0 01-5.13-2.22 11.37 11.37 0 01-2.9-7.19c-.25-3.61 2-5.16 4.09-5.4a7.12 7.12 0 017.73 5.7.52.52 0 11-1 .16 6.14 6.14 0 00-6.59-4.84c-2.19.25-3.35 1.82-3.18 4.31a10.36 10.36 0 002.6 6.54 5.81 5.81 0 006.33 1.51.52.52 0 11.43.94 5.77 5.77 0 01-2.38.49z" fill="#231f20"/><path d="M106.06 186.09l-1.75-18.25s-5-6.09-15.06-6.09-15.06 6.09-15.06 6.09L73.43 184c0 7.95 2 12.72 5.14 15.44l-.79 17.25s2.79 6.08 10.92 6.08a13.12 13.12 0 0011.44-6.08L99.43 201c3.14-1.83 5.47-5.91 6.63-14.91z" fill="#fff"/><path d="M89.25 161.75c10.11 0 15.06 6.09 15.06 6.09l1.75 18.25c-1.16 9-3.49 13.08-6.63 14.94l.71 15.62a13.12 13.12 0 01-11.44 6.08c-8.13 0-10.92-6.08-10.92-6.08l.79-17.25c-3.1-2.72-5.14-7.49-5.14-15.44l.76-16.12s5-6.09 15.06-6.09m0-1c-10.48 0-15.65 6.21-15.86 6.47a1 1 0 00-.23.6l-.76 16.12c0 7.35 1.72 12.68 5.11 15.92l-.76 16.78a.94.94 0 00.09.47c.13.28 3.17 6.68 11.86 6.68a14 14 0 0012.3-6.64 1 1 0 00.13-.54l-.69-15c3.5-2.38 5.54-7.16 6.61-15.36a.88.88 0 000-.23l-1.76-18.25a1.11 1.11 0 00-.22-.55c-.22-.26-5.38-6.47-15.86-6.47z" fill="#231f20"/><path d="M71.27 189.5c2.27 1.73 4.74 3 5.73 6.22a3.75 3.75 0 00.59 1.39 2.51 2.51 0 001 .68 8.1 8.1 0 003.46.68 4.73 4.73 0 011.41.07 4.92 4.92 0 011.3.73 7.34 7.34 0 006.92.56 4.31 4.31 0 011.75-.58 7 7 0 011.7.47c2.59.69 4.79-1.38 6.49-3 .89-.86 1.38-1 1.86-2.16s-.14-2.44.77-3.46a6.2 6.2 0 011.21-.87c1.71-1.18 2.33-3.37 2.82-5.39a31 31 0 001.16-6.81 5.23 5.23 0 01.45-2.67 9.57 9.57 0 01.93-1.09 3.91 3.91 0 00.69-3.64c-.34-1-1.1-1.9-1.18-3 0-.59.12-1.19.09-1.78-.09-1.93-2.08-3.13-3.81-4 .39-3.67-4.39-4.06-6.72-5.33A9.42 9.42 0 0095 155c-1 .05-2 .43-3.08.54-2.46.24-5.13-1-7.3.12a10.21 10.21 0 01-1.91 1.11 5.35 5.35 0 01-2.18-.08 9.18 9.18 0 00-6.53 1.86 37.41 37.41 0 00-3.61 4.25 5.07 5.07 0 00-4.33 6.2 2.72 2.72 0 01.1 2.06 5 5 0 001.47 4.49 4.48 4.48 0 00.19 6.79 5.91 5.91 0 001.4 5.25 13.29 13.29 0 002.05 1.91z" fill="#fff"/><path d="M88.77 201a7.79 7.79 0 01-4.28-1.26l-.26-.17a3.24 3.24 0 00-.9-.5 3.18 3.18 0 00-1-.05h-.26a8.79 8.79 0 01-3.68-.72 3.25 3.25 0 01-1.21-.83 3.6 3.6 0 01-.63-1.37v-.2c-.77-2.53-2.52-3.78-4.37-5.09-.39-.29-.79-.57-1.18-.87a13.32 13.32 0 01-2.17-1.94 6.52 6.52 0 01-1.59-5.39 4.81 4.81 0 01-1.58-3.61 4.89 4.89 0 011.24-3.47 5.63 5.63 0 01-1.25-4.53l.06-.27a3.05 3.05 0 00.09-.7 2.63 2.63 0 00-.16-.61l-.07-.24a5.35 5.35 0 01.83-4.55 5.42 5.42 0 013.76-2.34 35.68 35.68 0 013.57-4.17 9.55 9.55 0 016.89-1.91l.41.06a4 4 0 001.57 0 3.76 3.76 0 001.06-.59c.24-.16.49-.33.75-.47 1.48-.8 3.12-.57 4.71-.36a12 12 0 002.78.17 9.92 9.92 0 001.35-.25 12.29 12.29 0 011.75-.29 10 10 0 015.15 1.6 14.15 14.15 0 002.06.84c2.25.8 5 1.79 4.94 4.64 1.78.9 3.7 2.18 3.79 4.25a4.81 4.81 0 010 .94 4.75 4.75 0 000 .83 4.65 4.65 0 00.6 1.62 8.1 8.1 0 01.56 1.23 4.45 4.45 0 01-.78 4.13l-.38.42a3.51 3.51 0 00-.51.61 4.12 4.12 0 00-.37 2.1v.31a30.81 30.81 0 01-1.17 6.93c-.54 2.19-1.22 4.44-3 5.68l-.4.26a3.44 3.44 0 00-.72.53 2.42 2.42 0 00-.42 1.68 4.34 4.34 0 01-.25 1.64 3.94 3.94 0 01-1.37 1.79c-.18.15-.39.32-.62.54-1.72 1.64-4.09 3.89-7 3.13-.21-.06-.42-.14-.63-.22a2.9 2.9 0 00-.94-.24 2.82 2.82 0 00-1.21.39l-.32.15a7.68 7.68 0 01-3.24.74zm-6-3a3.42 3.42 0 01.88.11 4.06 4.06 0 011.2.64l.24.16a6.8 6.8 0 006.41.52l.31-.14a3.8 3.8 0 011.64-.49 3.7 3.7 0 011.29.31l.54.18c2.33.62 4.37-1.32 6-2.88.25-.23.47-.42.67-.58a3 3 0 001.08-1.39 3.46 3.46 0 00.16-1.27 3.32 3.32 0 01.69-2.34 3.83 3.83 0 01.95-.73l.36-.23c1.51-1 2.1-3 2.61-5.08a30.5 30.5 0 001.14-6.7v-.3a5 5 0 01.52-2.64 4.94 4.94 0 01.64-.77c.11-.12.23-.24.33-.37a3.37 3.37 0 00.6-3.15 7.77 7.77 0 00-.49-1.07 5.32 5.32 0 01-.72-2 5.08 5.08 0 01.05-1 4.06 4.06 0 000-.77c-.07-1.65-1.92-2.75-3.52-3.52a.53.53 0 01-.29-.52c.23-2.16-1.61-3-4.23-3.92a16 16 0 01-2.21-.91 9 9 0 00-4.6-1.48 10 10 0 00-1.58.27 11.72 11.72 0 01-1.48.27 13.26 13.26 0 01-3-.17c-1.49-.21-2.9-.4-4.09.24-.22.12-.43.27-.64.41a3.67 3.67 0 01-3.37.73l-.39-.05a8.47 8.47 0 00-6.16 1.63 44.16 44.16 0 00-3.42 4 .5.5 0 01-.45.33 4.57 4.57 0 00-3.89 5.58l.07.22a3.49 3.49 0 01.21.86 3.9 3.9 0 01-.11 1v.24a4.53 4.53 0 001.31 4 .48.48 0 01.16.39.47.47 0 01-.19.38 4 4 0 00.17 6 .5.5 0 01.19.55 5.38 5.38 0 001.3 4.77 12.23 12.23 0 002 1.8c.38.29.77.57 1.16.85 1.91 1.36 3.89 2.76 4.75 5.63l.07.21a2.7 2.7 0 00.42 1 2.29 2.29 0 00.83.54 7.81 7.81 0 003.24.64h.25zM71 212.45s.3-3.68 1.9-4.69 27.22-2.64 30.19 0a9.93 9.93 0 013 6.77S76.4 211.81 71 212.45z" fill="#231f20"/><path d="M106.06 215c-.29 0-29.68-2.71-35-2.09a.41.41 0 01-.35-.12.43.43 0 01-.14-.35c0-.16.34-3.9 2.11-5 2-1.27 27.73-2.61 30.71 0a10.24 10.24 0 013.12 7.1.43.43 0 01-.14.32.42.42 0 01-.31.14zm-32.6-3.06c8.16 0 28.52 1.8 32.13 2.13a9.33 9.33 0 00-2.79-5.95c-2.85-2.53-28.54-.66-29.66 0s-1.47 2.64-1.64 3.82c.5-.02 1.19-.03 1.96-.03z" fill="#231f20"/><path d="M126.54 225.71C116.49 211.83 99.26 210.6 89 210.6s-27.53 1.23-37.58 15.11-9.58 39.91-9.58 39.91h94.32s.44-26.04-9.62-39.91z" fill="#01a479"/><path d="M136.12 266.13H41.8a.52.52 0 01-.52-.5c0-.27-.36-26.37 9.68-40.23 11.1-15.32 31.35-15.32 38-15.32 26.9 0 35.25 11.53 38 15.32 10 13.86 9.68 40 9.67 40.23a.5.5 0 01-.51.5zm-93.81-1h93.29c0-3.69-.41-26.57-9.48-39.09-9.67-13.35-25.84-14.9-37.16-14.9S61.47 212.66 51.79 226c-9.07 12.53-9.47 35.41-9.48 39.1z" fill="#231f20"/><path d="M61.76 266.13a.5.5 0 01-.51-.47l-2.41-31.85a.52.52 0 01.47-.56.53.53 0 01.56.48l2.41 31.85a.52.52 0 01-.48.55zM118.11 266.13a.51.51 0 01-.48-.55l2.37-30.92a.51.51 0 011 .08l-2.44 30.92a.51.51 0 01-.45.47z" fill="#231f20"/><path d="M54.35 239.43H121a15.14 15.14 0 0115.14 15.14v14H39.2v-14a15.14 15.14 0 0115.15-15.14z" fill="#231f20"/><path d="M136.12 269.06H39.2a.44.44 0 01-.44-.44v-14.05A15.6 15.6 0 0154.35 239H121a15.6 15.6 0 0115.58 15.58v14.05a.44.44 0 01-.46.43zm-96.48-.88h96v-13.61a14.72 14.72 0 00-14.7-14.7H54.35a14.73 14.73 0 00-14.71 14.7z" fill="#231f20"/><path d="M54.35 245.75H121a15.14 15.14 0 0115.14 15.14v14H39.2v-14a15.14 15.14 0 0115.15-15.14z" fill="#d1d3d4"/><path d="M136.12 275.38H39.2a.44.44 0 01-.44-.44v-14a15.6 15.6 0 0115.59-15.59H121a15.6 15.6 0 0115.58 15.59v14a.43.43 0 01-.46.44zm-96.48-.88h96v-13.6A14.73 14.73 0 00121 246.19H54.35a14.73 14.73 0 00-14.71 14.71z" fill="#231f20"/></g></svg>