<svg data-name="Layer 1" xmlns="http://www.w3.org/2000/svg" viewBox="0 0 400 300"><path fill="#e6e6e6" d="M323.16 129h-76.58V32.16h76.58z"/><path d="M249.84 52.45s14-1.33 14.32 10.69c0 0-1 21.76 8.13 31.89s32-12.57 38.37 34h-22.58l-31-24.13-8.88-33.37z" fill="#a5a5a5" opacity=".2"/><circle cx="298.16" cy="72.18" r="14.59" fill="#fff"/><path fill="none" stroke="#a5a5a5" stroke-linecap="round" stroke-linejoin="round" stroke-width="4" d="M291.74 70.75l3.98 6.15 7.64-9.45"/><path fill="#a5a5a5" opacity=".4" d="M311.3 48.46h-29.15v-7.14h29.15z"/><path fill="#e6e6e6" d="M82.99 32.17h76.58v96.84H82.99z"/><path d="M156.3 52.47s-14-1.33-14.31 10.68c0 0 1 21.77-8.13 31.89s-32-12.56-38.37 34h22.58l31-24.12L158 71.54z" fill="#a5a5a5" opacity=".2"/><path d="M174.73 93.67s11.93 14.14 16.93 22.64 22.44 10.62 33.86-10.81c6.78-12.73 8.41-19.5 14.12-15.42s-7.34 21.34-7.34 21.34-5.78 39.75-57.57 27.58c-67.29-15.81 0-45.33 0-45.33z" fill="#d88b7c"/><ellipse cx="198.99" cy="262.16" rx="130.29" ry="18.73" fill="#e6e6e6" opacity=".45"/><path d="M277.66 97c6.11 23 14.27 82.66-68.93 75.57v-8.25s38-5.75 43-22.25c4.24-14-8.34-50.88 10-55.09 7.05-1.6 14.06 3.02 15.93 10.02z" fill="#01a479"/><path d="M277.66 97c6.11 23 14.27 82.66-68.93 75.57v-8.25s38-5.75 43-22.25c4.24-14-8.34-50.88 10-55.09 7.05-1.6 14.06 3.02 15.93 10.02z" opacity=".08"/><path d="M170 58.29s.67 7.69-.62 12.8a3.88 3.88 0 01-4.73 2.79c-2.57-.69-5.84-2.36-6.69-6.44l-2.31-6.74a6.92 6.92 0 013.05-7.4c4.3-3.13 11.12.29 11.3 4.99z" fill="#f4a28c"/><path fill="#f4a28c" d="M156.79 62.48L148 81.86l11.44 8.49 2.28-18.23-4.93-9.64z"/><path d="M168.08 58.61a30.79 30.79 0 01-7.11-.55 6.43 6.43 0 010 7.06 5.24 5.24 0 01-6.33 2.09l.13-9.91a7.84 7.84 0 014-7 29 29 0 013.31-1.62c2.85-1.14 7 .76 9.59-1.17a1.86 1.86 0 012.95 1.22c.44 3-.09 7.76-4.17 9.41a7.28 7.28 0 01-2.37.47z" fill="#24285b"/><path d="M161.79 64.89s0-3-2.28-2.74-2.18 4.52.85 4.92zM170.16 63.15l2.15 3a1.23 1.23 0 01-.77 1.94l-2.95.56z" fill="#f4a28c"/><path d="M161.66 72.64a9.43 9.43 0 01-3.51-3.64s-2.74 4.81 2.86 8.84z" fill="#ce8172" opacity=".31"/><path d="M234.86 60.71s-.67 7.69.62 12.8a3.87 3.87 0 004.73 2.79c2.57-.69 5.83-2.36 6.69-6.44l2.31-6.73a6.94 6.94 0 00-3.05-7.4c-4.35-3.13-11.16.27-11.3 4.98z" fill="#f4a28c"/><path fill="#f4a28c" d="M248.06 64.9l8.79 19.38-11.44 8.49-2.29-18.23 4.94-9.64z"/><path d="M243.05 67.32s.06-3 2.29-2.75 2.18 4.53-.86 4.93zM234.68 65.58l-2.14 3a1.23 1.23 0 00.77 1.94l2.95.55z" fill="#f4a28c"/><path d="M243.19 75.06a9.51 9.51 0 003.51-3.62s2.74 4.81-2.86 8.84z" fill="#ce8172" opacity=".31"/><path d="M190.93 115.11L183 140.58 166.85 138l7.21-45.23s11.94 12.94 16.87 22.34z" fill="#01a479"/><path d="M190.93 115.11L183 140.58 166.85 138l7.21-45.23s11.94 12.94 16.87 22.34z" opacity=".08"/><path fill="#24285b" d="M291.76 173.53l-8.54 82.78h-8.83l-6.79-64.9-15.58-11.84 39.74-6.04z"/><path fill="#24285b" d="M252.02 179.57v76.8h10.36l9.51-67.65-19.87-9.15z"/><path d="M169.39 87.81A30.71 30.71 0 00151 81.37c-10.79 0-28.87 8.09-32.64 35.17s.11 57 .11 57l39.74 6S202 116.3 169.39 87.81z" fill="#01a479"/><path d="M161.79 173.69l-3.6 5.88-39.74-6s-8-58.37 9.13-77.62l13.6 20.76z" opacity=".08"/><path d="M239.64 90.08a30.69 30.69 0 0118.36-6.7c10.8-.11 29 7.67 33.16 34.68s.72 57 .72 57l-39.66 6.62s-44.75-62.68-12.58-91.6z" fill="#01a479"/><path d="M125.83 103.24c-4.33 23.37-7.88 83.51 74.52 70.06l-.63-8.23s-38.33-2.81-44.58-18.88c-5.3-13.61 4.41-51.38-14.14-54.19-7.2-1-13.84 4.1-15.17 11.24z" fill="#f4a28c"/><path d="M123.9 103.47a57.5 57.5 0 00.34 25.54l29-.25S158 99 145.4 91.36c0 0-3-2.6-9-1.08a17.35 17.35 0 00-12.5 13.19z" fill="#01a479"/><path d="M123.9 103.47a57.5 57.5 0 00.34 25.54l29-.25S158 99 145.4 91.36c0 0-3-2.6-9-1.08a17.35 17.35 0 00-12.5 13.19z" fill="#fff" opacity=".2"/><path d="M154.94 256.38s.87 4.07 4.34 4.84 3.92 4.32.65 4.79-10.86-4.68-10.86-4.68l.91-5zM106.74 256.38s-.88 4.07-4.34 4.84-3.93 4.32-.65 4.79 10.86-4.68 10.86-4.68l-.91-5z" fill="#01a479"/><path d="M254 107.86s-4.49 16.06 10.21 28.31 12.09 33.87-16.11 39.19l4.12 6.31 42.4-7.24 2-29.67-15.2-30.59z" opacity=".08"/><path fill="#ffd200" d="M195.542 162.896l5.315-.409.869 11.297-5.314.409zM230.85 55.67s-1.94 5.41 5.41 5.45 4.27 6.83 10.05 7.19 6.79-2 6.54-6.32.35-12.57-5.95-14.07-17.05-3-16.05 7.75z"/><path d="M252.7 103.26c-.58-9.82 9.75-16.65 18.77-12.74 12.79 5.54 33.8 16 37.48 38.08 5.81 34.86-11 47.8-30.11 62.81l-4.27-8.75s23.29-25.17 10-48.3c-10.23-17.7-31.06-17.61-31.87-31.1z" fill="#01a479"/><path d="M252.7 103.26c-.58-9.82 9.75-16.65 18.77-12.74 12.79 5.54 33.8 16 37.48 38.08 5.81 34.86-11 47.8-30.11 62.81l-4.27-8.75s23.29-25.17 10-48.3c-10.23-17.7-31.06-17.61-31.87-31.1z" fill="#fff" opacity=".2"/><path fill="#f4a28c" d="M275.07 183.68l-5.13 2.49 4.45 7.67 4.45-2.43-3.77-7.73z"/><path fill="#24285b" d="M158.19 179.57v76.8h-10.36l-9.51-67.65 19.87-9.15z"/><path d="M216.41 162.81l1 10.36s-8 3.59-12.71.86 1.3-14.43 11.71-11.22z" fill="#d88b7c"/><path d="M254.47 256.38s-.87 4.07-4.34 4.84-3.92 4.32-.65 4.79 10.86-4.68 10.86-4.68l-.9-5zM276.35 256.38s-.88 4.07-4.34 4.84-3.93 4.32-.65 4.79 10.86-4.68 10.86-4.68l-.91-5z" fill="#01a479"/><path fill="#24285b" d="M118.44 173.53l-14.42 82.78 11 .06 23.68-64.96 19.49-11.84-39.75-6.04z"/><path d="M201.05 164.91s3.16-3.62 6.61-2 .8 1.72 3.8 3.4 7.37 9.4-9.73 7.46z" fill="#f4a28c"/><circle cx="107.99" cy="72.19" r="14.59" fill="#fff"/><path fill="none" stroke="#a5a5a5" stroke-linecap="round" stroke-linejoin="round" stroke-width="4" d="M102.79 70.77l3.97 6.15 7.64-9.45"/><path fill="#a5a5a5" opacity=".4" d="M94.85 41.34H124v7.14H94.85z"/></svg>