<svg xmlns="http://www.w3.org/2000/svg" viewBox="0 0 400 300"><g data-name="#516_data_and_settings_outline"><path fill="#093f68" d="M236.28 126.04v-10.55h39.92v92.54H150.74v-81.99h85.54z"/><path d="M276.21 209H150.74a1 1 0 01-1-1v-82a1 1 0 011-1h84.54v-9.55a1 1 0 011-1h39.93a1 1 0 011 1V208a1 1 0 01-1 1zm-124.47-2h123.47v-90.51h-37.93V126a1 1 0 01-1 1h-84.54z" fill="#093f68"/><path fill="#fff" d="M163.89 191.3H276.2V97.03l-21.37-20.01h-90.94V191.3z"/><path d="M276.21 192.3H163.89a1 1 0 01-1-1V77a1 1 0 011-1h90.94a1 1 0 01.68.27l21.38 20a1 1 0 01.32.74v94.29a1 1 0 01-1 1zm-111.32-2h110.32V97.46L254.44 78h-89.55z" fill="#093f68"/><path fill="#01a479" d="M150.74 208.03H276.2l23.45-70.08H174.18l-23.44 70.08z"/><path d="M276.21 209H150.74a1 1 0 01-.81-.41 1 1 0 01-.14-.91l23.45-70.08a1 1 0 01.94-.68h125.47a1 1 0 011 1.31l-23.45 70.09a1 1 0 01-.99.68zm-124.08-2h123.36l22.77-68H174.9z" fill="#093f68"/><path d="M273.73 152.85H246.6a1 1 0 010-2h27.13a1 1 0 010 2z" fill="#093f68"/><path fill="#fff" d="M254.83 77.02l-.04 20.01h21.41l-21.37-20.01z"/><path d="M276.21 98h-21.42a1 1 0 01-.71-.3 1 1 0 01-.29-.71v-20a1 1 0 01.6-.92 1 1 0 011.08.19l21.38 20a1 1 0 01-.68 1.74zm-20.42-2h17.88l-17.84-16.68z" fill="#093f68"/><path d="M191.51 178.19a4.78 4.78 0 00-3.69-4.47c-1.78-.38-3.59-.67-5.4-.95a1.2 1.2 0 01-1.07-.89c-.53-1.43-1.13-2.85-1.76-4.25a.93.93 0 01.1-1.08c1.09-1.49 2.19-3 3.19-4.53a4.73 4.73 0 00-.41-5.78c-1.65-1.81-3.42-3.52-5.15-5.25a5.05 5.05 0 00-6.9-.63c-1.36.94-2.7 1.89-4 2.87a.93.93 0 01-1.08.11c-1.53-.68-3.07-1.31-4.63-1.91a.92.92 0 01-.69-.84c-.26-1.65-.53-3.3-.82-4.94a5 5 0 00-4.78-4.28q-3.81-.09-7.62 0a4.83 4.83 0 00-4.62 3.78c-.41 1.84-.69 3.72-1 5.59a1 1 0 01-.7.83c-1.48.59-3 1.22-4.42 1.88a.86.86 0 01-1-.09c-1.47-1.08-2.94-2.17-4.46-3.18a4.75 4.75 0 00-5.84.38 97.546 97.546 0 00-5.6 5.54 4.89 4.89 0 00-.33 6.5c1 1.43 2 2.83 3 4.26a1 1 0 01.08.76q-.93 2.4-1.93 4.76a1 1 0 01-.6.5c-1.64.3-3.29.57-4.94.83a5 5 0 00-4.43 4.64c-.08 2.65-.08 5.31 0 8a4.76 4.76 0 003.67 4.42c1.89.43 3.81.72 5.72 1a.9.9 0 01.79.66c.6 1.51 1.24 3 1.9 4.48a.81.81 0 01-.09 1c-1 1.37-2 2.73-3 4.13a5 5 0 00.58 6.7c1.59 1.62 3.19 3.23 4.82 4.82a5 5 0 006.86.52c1.38-1 2.77-1.94 4.13-2.95a.8.8 0 01.91-.07c1.41.61 2.82 1.22 4.26 1.75a1.08 1.08 0 01.78 1c.25 1.62.52 3.25.81 4.87a4.94 4.94 0 004.56 4.28c2.67.09 5.35.08 8 0a4.8 4.8 0 004.44-3.73c.39-1.81.67-3.64 1-5.46a1.05 1.05 0 01.76-.95c1.49-.57 3-1.19 4.44-1.84a.85.85 0 011 .1c1.37 1 2.75 2 4.13 3a5.28 5.28 0 003.33 1 4.3 4.3 0 003-1.21c1.75-1.65 3.44-3.37 5.15-5.07a5.08 5.08 0 00.62-7q-1.41-2-2.87-4a.84.84 0 01-.1-1c.66-1.49 1.28-3 1.87-4.5a1 1 0 01.86-.68c1.65-.25 3.3-.53 4.94-.81a5 5 0 004.33-4.73c-.02-2.68-.03-5.29-.1-7.89zm-40.8 21.55a17.6 17.6 0 1117.64-17.57 17.61 17.61 0 01-17.64 17.57z" fill="#f56132" stroke="#093f68" stroke-linecap="round" stroke-linejoin="round" stroke-width="2"/><path d="M153.2 124.81a3.24 3.24 0 00-.76-3.85c-.93-.81-1.92-1.56-2.9-2.31a.8.8 0 01-.35-.88c.15-1 .25-2.06.33-3.1a.62.62 0 01.4-.61c1.14-.54 2.28-1.06 3.37-1.66a3.22 3.22 0 001.63-3.58c-.4-1.61-.9-3.19-1.37-4.79a3.43 3.43 0 00-3.9-2.61c-1.11.12-2.22.26-3.33.41a.65.65 0 01-.68-.28q-1-1.35-2.13-2.64a.63.63 0 01-.15-.72c.38-1.07.76-2.14 1.12-3.21a3.39 3.39 0 00-1.48-4.09c-1.49-.86-3-1.68-4.54-2.47a3.28 3.28 0 00-4 .76c-.84 1-1.61 2-2.4 3a.65.65 0 01-.69.27c-1.07-.13-2.16-.23-3.24-.31a.61.61 0 01-.58-.38c-.52-1.13-1-2.25-1.62-3.34a3.24 3.24 0 00-3.6-1.67c-1.72.43-3.44.92-5.13 1.49A3.31 3.31 0 00115 92c.12 1.17.28 2.34.4 3.51a.64.64 0 01-.19.48c-.88.75-1.78 1.49-2.69 2.21a.74.74 0 01-.52.1c-1.07-.35-2.14-.73-3.21-1.11a3.39 3.39 0 00-4.14 1.34c-.9 1.54-1.76 3.13-2.57 4.73a3.22 3.22 0 00.75 3.82c1 .86 2 1.66 3.07 2.47a.6.6 0 01.26.64 61 61 0 00-.32 3.29.56.56 0 01-.37.54c-1 .49-2.07 1-3.1 1.5a3.39 3.39 0 00-1.82 4.17c.42 1.48.85 3 1.31 4.43a3.39 3.39 0 003.91 2.53c1.14-.13 2.28-.26 3.42-.41a.52.52 0 01.56.24c.64.82 1.28 1.64 2 2.42a.75.75 0 01.15.85c-.39 1.05-.75 2.11-1.1 3.17a3.31 3.31 0 001.33 4q2.34 1.38 4.77 2.6a3.25 3.25 0 003.85-.78c.82-.95 1.57-1.95 2.34-2.94a.73.73 0 01.76-.32c1.07.15 2.16.26 3.24.35a.56.56 0 01.54.37c.49 1 1 2.06 1.5 3.09a3.57 3.57 0 001.65 1.68 2.92 2.92 0 002.16.24c1.57-.42 3.14-.89 4.7-1.35a3.44 3.44 0 002.64-4c-.12-1.11-.26-2.22-.4-3.33a.56.56 0 01.25-.6c.87-.67 1.73-1.36 2.57-2.07a.63.63 0 01.73-.13l3.2 1.12a3.39 3.39 0 004.11-1.42q1.26-2.25 2.46-4.62zm-31.26-.37a11.92 11.92 0 1116.18-4.75 11.94 11.94 0 01-16.18 4.75z" fill="#ffbc0e" stroke="#093f68" stroke-linecap="round" stroke-linejoin="round" stroke-width="2"/><path d="M246.6 92.66h-66a1 1 0 010-2h66a1 1 0 010 2zM268.49 104.81h-87.93a1 1 0 010-2h87.93a1 1 0 010 2zM268.49 117h-80.71a1 1 0 010-2h80.71a1 1 0 010 2zM249.53 129.11h-69a1 1 0 010-2h69a1 1 0 010 2z" fill="#dfeaef"/></g></svg>