<svg xmlns="http://www.w3.org/2000/svg" width="512" height="512" viewBox="0 0 511.974 511.974"><g xmlns="http://www.w3.org/2000/svg"><path d="M511.872 195.725a8.065 8.065 0 00-.35-1.732 8.533 8.533 0 00-.486-1.468 7.655 7.655 0 00-.853-1.306 8.046 8.046 0 00-1.135-1.323c-.137-.119-.196-.282-.341-.401l-82.065-63.735V59.704c0-14.138-11.462-25.6-25.6-25.6h-92.476L271.539 5.355a25.302 25.302 0 00-31.121 0l-37.035 28.749h-92.476c-14.138 0-25.6 11.461-25.6 25.6v66.057L3.268 189.496c-.145.12-.205.282-.341.401a8.005 8.005 0 00-1.135 1.323 7.616 7.616 0 00-.853 1.306 8.42 8.42 0 00-.486 1.468 8.087 8.087 0 00-.35 1.707c0 .179-.102.333-.102.512V486.37a25.313 25.313 0 005.009 15.061c.051.077.06.171.119.239.06.068.188.145.273.239a25.475 25.475 0 0020.173 10.061h460.8a25.482 25.482 0 0020.241-10.103c.068-.085.171-.111.23-.196.06-.085.068-.162.12-.239a25.317 25.317 0 005.009-15.061V196.237c-.001-.179-.094-.333-.103-.512zM250.854 18.82a8.182 8.182 0 0110.18 0l19.686 15.283h-49.493l19.627-15.283zM27.725 494.904l223.13-173.321a8.193 8.193 0 0110.18 0l223.189 173.321H27.725zM494.908 481.6L271.539 308.117a25.319 25.319 0 00-31.121 0L17.041 481.6V209.233L156.877 317.82a8.536 8.536 0 0011.977-1.515 8.536 8.536 0 00-1.515-11.977L25.276 194.018l60.032-46.652v65.937a8.533 8.533 0 0017.066 0v-153.6a8.533 8.533 0 018.533-8.533H401.04a8.533 8.533 0 018.533 8.533v153.6a8.533 8.533 0 0017.066 0v-65.937l60.032 46.652-142.31 110.507a8.533 8.533 0 1010.462 13.482l140.083-108.774V481.6z" fill="#757b79" data-original="#000000"/><path d="M358.374 204.77v-34.133c0-56.554-45.846-102.4-102.4-102.4-56.554 0-102.4 45.846-102.4 102.4s45.846 102.4 102.4 102.4c4.713 0 8.533-3.82 8.533-8.533s-3.82-8.533-8.533-8.533c-47.128 0-85.333-38.205-85.333-85.333s38.205-85.333 85.333-85.333 85.333 38.205 85.333 85.333v34.133c0 9.426-7.641 17.067-17.067 17.067s-17.067-7.641-17.067-17.067v-34.133c0-4.713-3.82-8.533-8.533-8.533s-8.533 3.82-8.533 8.533c0 18.851-15.282 34.133-34.133 34.133-18.851 0-34.133-15.282-34.133-34.133s15.282-34.133 34.133-34.133c4.713 0 8.533-3.82 8.533-8.533s-3.82-8.533-8.533-8.533c-22.915-.051-43.074 15.13-49.354 37.168-6.28 22.038 2.847 45.565 22.347 57.601 19.5 12.036 44.622 9.65 61.507-5.843 1.858 18.046 17.543 31.464 35.659 30.505 18.117-.96 32.298-15.958 32.241-34.1z" fill="#757b79" data-original="#000000"/></g></svg>