<svg xmlns="http://www.w3.org/2000/svg" width="512" height="512" viewBox="0 0 64 64"><g xmlns="http://www.w3.org/2000/svg" fill="#fff"><path d="M28.2 23.845c.6.562.8.791.8 1.155a1 1 0 001 1h4a1 1 0 001-1c0-.364.208-.593.8-1.155A5.909 5.909 0 0038 19c0-3.283-3.019-5-6-5s-6 1.717-6 5a5.909 5.909 0 002.2 4.845zM32 16c1.927 0 4 .939 4 3a3.986 3.986 0 01-1.568 3.39A4.533 4.533 0 0033.183 24h-2.366a4.533 4.533 0 00-1.249-1.61A3.986 3.986 0 0128 19c0-2.061 2.073-3 4-3zM29 27h6v2h-6z" data-original="#000000"/><path d="M61.16 34.01l-3.96-.66a11.452 11.452 0 00-.58-1.4l2.33-3.27a1 1 0 00-.1-1.29l-4.24-4.24a1 1 0 00-1.29-.1l-3.27 2.33c-.21-.1-.42-.17-.63-.26A21.117 21.117 0 0050 20a18 18 0 00-36 0 21.117 21.117 0 00.58 5.12c-.21.09-.42.16-.63.26l-3.27-2.33a1 1 0 00-1.29.1l-4.24 4.24a1 1 0 00-.1 1.29l2.33 3.27a11.452 11.452 0 00-.58 1.4l-3.96.66A1 1 0 002 35v6a1 1 0 00.84.99l3.96.66a11.452 11.452 0 00.58 1.4l-2.33 3.27a1 1 0 00.1 1.29l4.24 4.24a1 1 0 001.29.1l3.27-2.33a14.226 14.226 0 001.4.58l.66 3.96A1 1 0 0017 56h7v3a3.009 3.009 0 003 3h10a3.009 3.009 0 003-3v-3h7a1 1 0 00.99-.84l.66-3.96a14.226 14.226 0 001.4-.58l3.27 2.33a1 1 0 001.29-.1l4.24-4.24a1 1 0 00.1-1.29l-2.33-3.27a11.452 11.452 0 00.58-1.4l3.96-.66A1 1 0 0062 41v-6a1 1 0 00-.84-.99zM32 4a16.021 16.021 0 0116 16c0 6.43-2.42 9.2-4.55 11.64-1.59 1.83-3.09 3.57-3.39 6.36H33v-6h2v-2h-6v2h2v6h-7.06c-.3-2.79-1.8-4.53-3.39-6.36C18.42 29.2 16 26.43 16 20A16.021 16.021 0 0132 4zM20.18 54h-2.33l-.62-3.72a1.025 1.025 0 00-.7-.8 12.1 12.1 0 01-2.2-.9 1 1 0 00-1.05.07l-3.07 2.18-3.04-3.04 2.18-3.07a.976.976 0 00.07-1.05 11.81 11.81 0 01-.9-2.2 1.025 1.025 0 00-.8-.7L4 40.15v-4.3l3.72-.62a1.025 1.025 0 00.8-.7 11.81 11.81 0 01.9-2.2.976.976 0 00-.07-1.05l-2.18-3.07 3.04-3.04 3.07 2.18a1.018 1.018 0 001.05.08 9.3 9.3 0 01.84-.41 14.9 14.9 0 001.35 2.68A9 9 0 0020 47c.25 0 .49-.03.74-.05.01.01.02.03.04.05a2.974 2.974 0 00-.78 2v4a3 3 0 00.18 1zM20 41v4a6.987 6.987 0 01-2.27-13.6c.44.56.89 1.07 1.32 1.56 1.47 1.69 2.66 3.07 2.9 5.24A3 3 0 0020 41zm18 18a1 1 0 01-1 1H27a1 1 0 01-1-1v-3h12zm4-6a1 1 0 01-1 1H23a1 1 0 01-1-1v-4a1 1 0 011-1h18a1 1 0 011 1zm0-8a1 1 0 01-1 1H23a1 1 0 01-1-1v-4a1 1 0 011-1h18a1 1 0 011 1zm.05-6.8c.24-2.17 1.43-3.55 2.9-5.24.43-.49.88-1 1.32-1.56A6.987 6.987 0 0144 45v-4a3 3 0 00-1.95-2.8zM60 40.15l-3.72.62a1.025 1.025 0 00-.8.7 11.81 11.81 0 01-.9 2.2.976.976 0 00.07 1.05l2.18 3.07-3.04 3.04-3.07-2.18a1 1 0 00-1.05-.07 12.1 12.1 0 01-2.2.9 1.025 1.025 0 00-.7.8L46.15 54h-2.33a3 3 0 00.18-1v-4a2.974 2.974 0 00-.78-2c.02-.02.03-.04.04-.05.25.02.49.05.74.05a9 9 0 003.48-17.3 14.9 14.9 0 001.35-2.68 9.3 9.3 0 01.84.41 1.018 1.018 0 001.05-.08l3.07-2.18 3.04 3.04-2.18 3.07a.976.976 0 00-.07 1.05 11.81 11.81 0 01.9 2.2 1.025 1.025 0 00.8.7l3.72.62z" data-original="#000000"/><path d="M31 10h2v2h-2zM26.133 11.84l1.732-1 1 1.732-1.732 1zM22.841 15.869l1-1.732 1.732 1-1 1.732zM22 19h2v2h-2zM35.136 12.576l1-1.732 1.732 1-1 1.732zM38.427 15.13l1.732-1 1 1.732-1.732 1zM40 19h2v2h-2z" data-original="#000000"/></g></svg>