<svg xmlns="http://www.w3.org/2000/svg" width="512" height="512"><g xmlns="http://www.w3.org/2000/svg" data-name="Out line" fill="#01a479"><path d="M248 64h16v32h-16zM159.805 107.153l11.312-11.312 22.624 22.624-11.312 11.312zM128 184h32v16h-32zM159.788 276.845l22.624-22.624 11.312 11.312-22.624 22.624zM318.173 118.47l22.624-22.624 11.312 11.312-22.624 22.624zM318.163 265.542l11.312-11.312 22.624 22.624-11.312 11.312zM352 184h32v16h-32z" data-original="#000000"/><path d="M440.62 170.943A198.81 198.81 0 01456 248v8c0 88.225-71.776 160-160 160a32.05 32.05 0 01-31.27-25.22A32.05 32.05 0 00288 360v-1.376A23.977 23.977 0 00297.87 320a23.948 23.948 0 00-1.585-33.609 59.825 59.825 0 0117.372-36.734 81.54 81.54 0 10-115.314 0 59.825 59.825 0 0117.372 36.734A23.948 23.948 0 00214.131 320 23.977 23.977 0 00224 358.624V360a32.05 32.05 0 0024.53 31.11A48.073 48.073 0 00296 432c97.047 0 176-78.953 176-176v-8a214.73 214.73 0 00-16.618-83.226zM224 304a8.01 8.01 0 018-8h48a8 8 0 010 16h-48a8.01 8.01 0 01-8-8zm17.758-88h28.484l-12.8 64h-2.883zm-32.101 22.343a65.54 65.54 0 1192.686 0 75.709 75.709 0 00-21.352 41.682c-.329-.013-.658-.025-.991-.025h-6.241l14.086-70.43A8 8 0 00280 200h-48a8 8 0 00-7.845 9.57L238.241 280H232c-.332 0-.662.012-.991.025a75.709 75.709 0 00-21.352-41.682zM232 344a8 8 0 010-16h48a8 8 0 010 16zm8 16h32a16 16 0 01-32 0z" data-original="#000000"/><path d="M78.525 340.303A199.839 199.839 0 01256 48h.035a198.286 198.286 0 0184.576 18.725l6.778-14.495A214.164 214.164 0 00256.039 32H256A216.074 216.074 0 0064.336 347.697zM164.611 443.77a214.417 214.417 0 0066.476 18.807l1.826-15.894a198.467 198.467 0 01-61.524-17.408zM472 16h-88a24.027 24.027 0 00-24 24v76.687l-21.657 21.656A8 8 0 00344 152h128a24.027 24.027 0 0024-24V40a24.027 24.027 0 00-24-24zm8 112a8.01 8.01 0 01-8 8H363.313l10.344-10.343A8 8 0 00376 120V40a8.01 8.01 0 018-8h88a8.01 8.01 0 018 8z" data-original="#000000"/><path d="M408 40h32v16h-32zM456 40h16v16h-16zM392 64h32v16h-32zM440 64h32v16h-32zM392 88h48v16h-48zM456 88h16v16h-16zM392 112h32v16h-32zM175.391 364.938A8 8 0 00168 360H40a24.027 24.027 0 00-24 24v88a24.027 24.027 0 0024 24h88a24.027 24.027 0 0024-24v-76.687l21.657-21.656a8 8 0 001.734-8.719zm-37.048 21.405A8 8 0 00136 392v80a8.01 8.01 0 01-8 8H40a8.01 8.01 0 01-8-8v-88a8.01 8.01 0 018-8h108.687z" data-original="#000000"/><path d="M88 456h16v16H88zM40 456h32v16H40zM104 432h16v16h-16zM40 432h48v16H40zM72 408h48v16H72zM40 408h16v16H40zM56 384h64v16H56z" data-original="#000000"/></g></svg>