<svg data-name="Layer 1" xmlns="http://www.w3.org/2000/svg" viewBox="0 0 400 300"><path d="M214.66 43.78s-11-3-13.35-13.2c0 0 17-3.44 17.48 14.1z" fill="#01a479" opacity=".58"/><path d="M216 42.69s-7.67-12.11-.92-23.44c0 0 12.92 8.21 7.18 23.47z" fill="#01a479" opacity=".73"/><path d="M218 42.7s4-12.79 16.27-15.21c0 0 2.29 8.3-7.93 15.25z" fill="#01a479"/><path fill="#24285b" d="M210.03 42.41l2.22 15.22 14 .06 2.07-15.2-18.29-.08z"/><ellipse cx="214.37" cy="253.87" rx="166.62" ry="19.34" fill="#e6e6e6" opacity=".45"/><path fill="#24285b" d="M145.25 68.91h114.61v189.58H145.25z"/><rect x="154.69" y="78.28" width="95.49" height="30.49" rx="9.29" fill="#fff" opacity=".07"/><path fill="#01a479" d="M172.14 58.02h58.34v10.89h-58.34z"/><circle cx="232.77" cy="93.57" r="8.16" fill="#01a479"/><path fill="#fff" d="M164.47 89.69h48.07v7.75h-48.07z"/><rect x="154.69" y="124.63" width="95.49" height="30.49" rx="9.29" fill="#fff" opacity=".07"/><circle cx="232.77" cy="139.91" r="8.16" fill="#01a479"/><path fill="#fff" d="M164.47 136.03h48.07v7.75h-48.07z"/><rect x="154.69" y="170.97" width="95.49" height="30.49" rx="9.29" fill="#fff" opacity=".07"/><circle cx="232.77" cy="186.25" r="8.16" fill="#01a479"/><path fill="#fff" d="M164.47 182.37h48.07v7.75h-48.07z"/><rect x="154.69" y="217.31" width="95.49" height="30.49" rx="9.29" fill="#fff" opacity=".07"/><circle cx="232.77" cy="232.59" r="8.16" fill="#01a479"/><path fill="#fff" d="M164.47 228.72h48.07v7.75h-48.07z"/><path fill="#01a479" d="M283.01 209.35h8.68v49.13h-8.68zM329.91 209.35h8.68v49.13h-8.68z"/><path opacity=".08" d="M283.01 209.35h8.68v49.13h-8.68zM329.91 209.35h8.68v49.13h-8.68z"/><path fill="#01a479" d="M272.73 186.21h76.17v26.87h-76.17z"/><path fill="#24285b" d="M276.6 186.21l9.09 26.87h12.6l-10.35-26.87H276.6zM299.91 186.21l9.1 26.87h12.59l-10.35-26.87h-11.34zM323.15 186.21l9.1 26.87h12.59l-10.35-26.87h-11.34z"/><path fill="#01a479" d="M272.73 223.26h76.17v12.6h-76.17z"/><path fill="#fff" opacity=".46" d="M272.73 223.26h76.17v12.6h-76.17z"/><path fill="#e6e6e6" d="M59.06 125.23h64.09v72.67H59.06z"/><path fill="#ffd200" d="M91.11 134.18l-22.47 34.41h44.93l-22.46-34.41z"/><path fill="#24285b" d="M89.33 146.98h3.19v10.34h-3.19zM89.33 159.34h3.19v3.19h-3.19z"/><path opacity=".08" d="M68.64 175.9h44.92v12.26H68.64z"/></svg>