<svg xmlns="http://www.w3.org/2000/svg" width="512" height="512" viewBox="0 0 64 64"><g xmlns="http://www.w3.org/2000/svg" fill="#fff"><path d="M53 32a9 9 0 000-18h-2.06a8.977 8.977 0 00-14.18-6.3 14.982 14.982 0 00-26.45 6.34A8.993 8.993 0 0011 32h17v4h-5a5 5 0 00-5 5v13a3.009 3.009 0 01-3 3H9.86a4 4 0 100 2H15a5 5 0 005-5V41a3.009 3.009 0 013-3h5v6c0 1.33 1.21 2.3 3 2.96V60h-3v2h4a1 1 0 001-1V47.52a24.214 24.214 0 004 .46V58a1 1 0 001 1h9.14a4 4 0 100-2H39v-9.02c4.51-.16 9-1.42 9-3.98v-2h3a1 1 0 011 1v8a1 1 0 001 1h5v-2h-4v-7a3.009 3.009 0 00-3-3h-3v-8zM6 60a2 2 0 112-2 2.006 2.006 0 01-2 2zm45-4a2 2 0 11-2 2 2.006 2.006 0 012-2zm-5-12c0 .51-2.75 2-8 2s-8-1.49-8-2v-3.48A18.866 18.866 0 0038 42a18.866 18.866 0 008-1.48zm0-6c0 .51-2.75 2-8 2s-8-1.49-8-2v-3.48A18.866 18.866 0 0038 36a18.866 18.866 0 008-1.48zm0-6c0 .51-2.75 2-8 2s-8-1.49-8-2v-3.48A18.866 18.866 0 0038 30a18.866 18.866 0 008-1.48zm-8-4c-5.25 0-8-1.49-8-2s2.75-2 8-2 8 1.49 8 2-2.75 2-8 2zm1-5.98V20a3.009 3.009 0 00-3-3h-5.14a4 4 0 100 2H36a1 1 0 011 1v2.02c-4.51.16-9 1.42-9 3.98v4H11a7 7 0 010-14h.12A7.042 7.042 0 0118 23h2a9.049 9.049 0 00-7.67-8.89 13 13 0 0125.37.11l1.95-.44a14.9 14.9 0 00-1.77-4.43 7 7 0 019.59 10.03l1.56 1.25A9.093 9.093 0 0050.94 16H53a7 7 0 110 14h-5v-2h3a1 1 0 001-1v-4h1v-2h-2a1 1 0 00-1 1v4h-2c0-2.56-4.49-3.82-9-3.98zM29 18a2 2 0 11-2-2 2.006 2.006 0 012 2zM60 50h2v2h-2z" data-original="#000000"/><path d="M24 60h2v2h-2zM8 23a3 3 0 013-3v-2a5 5 0 000 10h8v-2h-8a3 3 0 01-3-3zM55 21h2v2h-2z" data-original="#000000"/></g></svg>