<svg xmlns="http://www.w3.org/2000/svg" viewBox="0 0 400 300"><g data-name="#527_online_campaign_flatline"><path d="M362 242.19H34.6a.5.5 0 01-.5-.5.5.5 0 01.5-.5H362a.5.5 0 01.5.5.5.5 0 01-.5.5z" fill="#d1d3d4"/><path d="M79.74 85.51h-.07a.5.5 0 01-.42-.56l.88-6.09a.51.51 0 01.5-.42h16.92a.5.5 0 01.5.5.5.5 0 01-.5.5H81.06l-.82 5.65a.51.51 0 01-.5.42zM70 86.94a.51.51 0 01-.43-.24 58.83 58.83 0 00-3.22-4.94c-.73-.1-4.89-.05-8.59 0a.52.52 0 01-.51-.49.49.49 0 01.49-.51c5.64-.15 8.69-.14 9.06 0 .14.07.57.28 3.62 5.32a.48.48 0 01-.17.68.49.49 0 01-.25.18zM77.67 107.31h8.94v24.33h-8.94z" fill="#231f20"/><path d="M86.61 132.07h-8.94a.44.44 0 01-.44-.44v-24.32a.44.44 0 01.44-.44h8.94a.44.44 0 01.44.44v24.32a.44.44 0 01-.44.44zm-8.5-.88h8.06v-23.44h-8.06z" fill="#231f20"/><path d="M54 250.63h-.19a1 1 0 01-.79-1.18l23.72-118a1 1 0 112 .39l-23.72 118a1 1 0 01-1.02.79zM110.32 250.63a1 1 0 01-1-.81l-23.72-118a1 1 0 112-.39l23.72 118a1 1 0 01-.79 1.18zM82.14 250.63a1 1 0 01-1-1v-118a1 1 0 012 0v118a1 1 0 01-1 1zM72.98 105.4h18.31v11.07H72.98z" fill="#231f20"/><path d="M91.3 116.91H73a.44.44 0 01-.44-.44V105.4a.44.44 0 01.44-.4h18.3a.44.44 0 01.44.44v11.07a.44.44 0 01-.44.4zM73.42 116h17.43v-10.16H73.42z" fill="#231f20"/><path fill="#01a479" d="M60.44 84.72h40.38v22.17H60.44z"/><path d="M100.81 107.39H60.44a.5.5 0 01-.5-.5V84.72a.5.5 0 01.5-.5h40.37a.5.5 0 01.5.5v22.17a.5.5 0 01-.5.5zm-39.87-1h39.37V85.22H60.94z" fill="#231f20"/><path fill="#231f20" d="M111.07 102.99h-10.25V88.61h10.25z"/><path d="M111.06 103.44h-10.25a.44.44 0 01-.44-.44V88.62a.45.45 0 01.44-.45h10.25a.45.45 0 01.45.45V103a.45.45 0 01-.45.44zm-9.8-.88h9.36v-13.5h-9.36z" fill="#231f20"/><path fill="#01a479" d="M121.82 107.04L111.06 103V88.61l10.76-4.04v22.47z"/><path d="M121.82 107.54a.51.51 0 01-.17 0l-10.76-4.05a.49.49 0 01-.33-.46V88.62a.5.5 0 01.33-.47l10.76-4.05a.5.5 0 01.67.47V107a.49.49 0 01-.21.41.52.52 0 01-.29.13zm-10.26-4.89l9.76 3.67v-21L111.56 89zM55.14 87.2h5.3V103h-5.3z" fill="#231f20"/><path d="M60.44 103.44h-5.3a.44.44 0 01-.44-.44V87.2a.44.44 0 01.44-.44h5.3a.44.44 0 01.44.44V103a.44.44 0 01-.44.44zm-4.86-.88H60V87.64h-4.42z" fill="#231f20"/><rect x="84.74" y="76.97" width="18.9" height="3.44" rx="1.72" fill="#231f20"/><path d="M101.92 80.85H86.46a2.16 2.16 0 110-4.32h15.46a2.16 2.16 0 110 4.32zm-15.46-3.44a1.28 1.28 0 100 2.56h15.46a1.28 1.28 0 100-2.56z" fill="#231f20"/><path d="M71.76 93.76h22.67v15.89H71.76a6.7 6.7 0 01-6.7-6.7v-2.5a6.7 6.7 0 016.7-6.7z" fill="#01a479"/><path d="M94.43 110.15H71.76a7.21 7.21 0 01-7.2-7.2v-2.5a7.21 7.21 0 017.2-7.19h22.67a.5.5 0 01.5.5v15.89a.51.51 0 01-.5.5zM71.76 94.26a6.2 6.2 0 00-6.2 6.19V103a6.21 6.21 0 006.2 6.2h22.17V94.26zM82.72 89.12H67.43a.5.5 0 01-.5-.5.5.5 0 01.5-.5h15.29a.5.5 0 01.5.5.5.5 0 01-.5.5zM324.45 249.8h-98.72a6.23 6.23 0 01-6.29-6.64l9.91-188.31a7.08 7.08 0 017-6.64h98.72a6.23 6.23 0 016.28 6.64l-9.91 188.31a7.07 7.07 0 01-6.99 6.64z" fill="#231f20"/><path d="M324.45 250.24h-98.72a6.68 6.68 0 01-6.73-7.1l9.91-188.32a7.54 7.54 0 017.43-7h98.72a6.68 6.68 0 016.72 7.1l-9.91 188.32a7.53 7.53 0 01-7.42 7zM236.34 48.65a6.64 6.64 0 00-6.55 6.22l-9.91 188.32a5.86 5.86 0 001.58 4.36 5.79 5.79 0 004.27 1.81h98.72a6.64 6.64 0 006.54-6.22l9.91-188.32a5.8 5.8 0 00-5.84-6.17z" fill="#231f20"/><path d="M317.15 249.46h-98.72a6.22 6.22 0 01-6.28-6.63l9.91-188.32a7.06 7.06 0 017-6.63h98.72a6.23 6.23 0 016.22 6.63l-9.91 188.32a7.06 7.06 0 01-6.94 6.63z" fill="#fff"/><path d="M317.15 250h-98.72a6.71 6.71 0 01-6.78-7.15l9.91-188.32a7.58 7.58 0 017.44-7.15h98.72a6.73 6.73 0 016.78 7.16l-9.91 188.32a7.57 7.57 0 01-7.44 7.14zM229 48.38a6.56 6.56 0 00-6.48 6.16l-9.91 188.32a5.72 5.72 0 005.78 6.1h98.72a6.57 6.57 0 006.48-6.15l9.91-188.32a5.72 5.72 0 00-5.78-6.11z" fill="#231f20"/><path d="M280.22 55.46h-18.55a.51.51 0 01-.5-.5.5.5 0 01.5-.5h18.55a.5.5 0 01.5.5.5.5 0 01-.5.5zM286.22 55.46H283a.51.51 0 01-.5-.5.5.5 0 01.5-.5h3.25a.5.5 0 01.5.5.51.51 0 01-.53.5zM336 93.23a.51.51 0 01-.48-.53l1-19.47a.47.47 0 01.52-.47.51.51 0 01.48.53l-1 19.46a.5.5 0 01-.52.48z" fill="#d1d3d4"/><path fill="#fff" d="M317.8 226.97h-99.38l9.97-166h99.37l-9.96 166z"/><path d="M317.8 227.47h-99.38a.49.49 0 01-.36-.15.53.53 0 01-.14-.38l10-166a.49.49 0 01.5-.47h99.38a.51.51 0 01.36.15.53.53 0 01.13.38l-10 166a.49.49 0 01-.49.47zm-98.85-1h98.38l9.9-165h-98.37z" fill="#231f20"/><path fill="#01a479" d="M324.21 120.17h-99.38l3.56-59.2h99.37l-3.55 59.2z"/><path d="M324.21 120.67h-99.38a.5.5 0 01-.36-.16.57.57 0 01-.14-.37l3.56-59.2a.49.49 0 01.5-.47h99.38a.51.51 0 01.36.15.53.53 0 01.13.38l-3.55 59.2a.5.5 0 01-.5.47zm-98.85-1h98.38l3.49-58.2h-98.37z" fill="#231f20"/><path fill="#fff" d="M266.75 103.26l1.47-24.58 18.81 12.29-20.28 12.29z"/><ellipse cx="235.92" cy="138.04" rx="6.6" ry="6.21" transform="rotate(-44.14 235.926 138.044)" fill="#e6e7e8"/><ellipse cx="231.47" cy="212.18" rx="6.6" ry="6.21" transform="rotate(-44.14 231.481 212.188)" fill="#e6e7e8"/><path d="M302.18 135.46h-51.49a.5.5 0 010-1h51.49a.5.5 0 010 1zM291.71 141.62h-41.39a.5.5 0 01-.5-.5.5.5 0 01.5-.5h41.39a.5.5 0 01.5.5.5.5 0 01-.5.5z" fill="#d1d3d4"/><path fill="#e6e7e8" d="M317.87 135.25h-2.24l.13-2.24H318l-.13 2.24zM317.65 138.94h-2.24l.13-2.24h2.24l-.13 2.24zM317.43 142.62h-2.24l.13-2.24h2.24l-.13 2.24z"/><path fill="#fff" d="M324.01 123.57h-99.38l.2-3.4h99.38l-.2 3.4z"/><path d="M324 124.07h-99.37a.48.48 0 01-.36-.16.47.47 0 01-.14-.37l.2-3.4a.5.5 0 01.5-.47h99.38a.51.51 0 01.37.15.52.52 0 01.13.38l-.2 3.4a.51.51 0 01-.51.47zm-98.85-1h98.38l.14-2.4H225.3z" fill="#231f20"/><path fill="#231f20" d="M261.79 123.57h-37.16l.2-3.4h37.16l-.2 3.4z"/><path d="M261.79 124h-37.16a.43.43 0 01-.32-.14.45.45 0 01-.12-.33l.2-3.4a.45.45 0 01.44-.41H262a.43.43 0 01.32.14.41.41 0 01.12.32l-.2 3.4a.45.45 0 01-.45.42zm-36.69-.88h36.27l.15-2.52h-36.27zM322.37 151.4H223a.5.5 0 01-.5-.5.5.5 0 01.5-.5h99.38a.5.5 0 01.5.5.51.51 0 01-.51.5z" fill="#231f20"/><ellipse cx="234.11" cy="168.26" rx="6.6" ry="6.21" transform="rotate(-44.14 234.111 168.267)" fill="#e6e7e8"/><path d="M315 165.64h-68.22a.5.5 0 01-.5-.5.5.5 0 01.5-.5H315a.51.51 0 01.5.5.5.5 0 01-.5.5zM306.82 171.89H246.4a.51.51 0 01-.5-.5.5.5 0 01.5-.5h60.42a.5.5 0 01.5.5.5.5 0 01-.5.5z" fill="#d1d3d4"/><ellipse cx="232.9" cy="188.43" rx="6.6" ry="6.21" transform="rotate(-44.14 232.902 188.426)" fill="#e6e7e8"/><path d="M306 185.8h-60.43a.5.5 0 01-.5-.5.5.5 0 01.5-.5H306a.51.51 0 01.5.5.5.5 0 01-.5.5zM290.44 192.05h-45.25a.5.5 0 010-1h45.25a.5.5 0 010 1z" fill="#d1d3d4"/><path d="M303 218.58h-53a6 6 0 01-6-6.4 6.89 6.89 0 016.79-6.4h53a6 6 0 016 6.4 6.88 6.88 0 01-6.79 6.4z" fill="#e6e7e8"/><path d="M265.93 244.82a6.82 6.82 0 01-6.88-7.3 7.78 7.78 0 017.67-7.24 6.8 6.8 0 016.87 7.3 7.78 7.78 0 01-7.66 7.24zm.79-13.54a6.76 6.76 0 00-6.67 6.3 5.81 5.81 0 005.88 6.24 6.78 6.78 0 006.67-6.3 5.82 5.82 0 00-5.88-6.24z" fill="#d1d3d4"/><path d="M180.22 65.91a5.35 5.35 0 001.47 4.41 4.3 4.3 0 011.39-3.66 6.3 6.3 0 013.44-1.45 6.93 6.93 0 00-.33 2.3 2.26 2.26 0 001.05 1.89 2.54 2.54 0 001.59.06c2.26-.45 4.49-1.27 6.79-1.18a5.77 5.77 0 015.46 3.84 4.23 4.23 0 012.26 2.5 10.21 10.21 0 01.54 6.18 14.76 14.76 0 01-1.88 4.35 15.94 15.94 0 01-5.19 5.69 5.58 5.58 0 01-3.06.91c-3.86-.19-7.77-4.92-10.58-7.59a17.82 17.82 0 01-5.25-10.66c-.25-2.72.36-5.76 2.3-7.59z" fill="#fff"/><path d="M194 92.26h-.21c-3.37-.16-6.68-3.49-9.33-6.17-.55-.56-1.08-1.09-1.57-1.55a18.39 18.39 0 01-5.41-11c-.31-3.27.61-6.27 2.45-8a.52.52 0 01.57-.08.53.53 0 01.27.51 5 5 0 00.53 2.93 4.92 4.92 0 011.5-2.6 6.66 6.66 0 013.7-1.58.51.51 0 01.44.16.52.52 0 01.11.46 6.79 6.79 0 00-.31 2.13 1.76 1.76 0 00.77 1.48 2.13 2.13 0 001.28 0c.65-.13 1.3-.29 1.95-.45a17.5 17.5 0 014.95-.74 6.31 6.31 0 015.85 4 4.92 4.92 0 012.3 2.69 10.64 10.64 0 01.58 6.48 14.91 14.91 0 01-1.93 4.49 16.31 16.31 0 01-5.36 5.87 6.24 6.24 0 01-3.13.97zm-14.23-25a9.63 9.63 0 00-1.29 6.18 17.28 17.28 0 005.1 10.34c.49.47 1 1 1.59 1.58 2.53 2.55 5.68 5.73 8.67 5.87a5.14 5.14 0 002.78-.84 15.37 15.37 0 005-5.52 14.24 14.24 0 001.81-4.2 9.9 9.9 0 00-.52-5.87 3.94 3.94 0 00-1.95-2.22.51.51 0 01-.33-.34c-.65-2.3-3-3.4-5-3.48a16.35 16.35 0 00-4.67.71c-.66.16-1.33.33-2 .46a3 3 0 01-1.92-.11 2.76 2.76 0 01-1.32-2.3 6 6 0 01.16-1.7 5.34 5.34 0 00-2.46 1.18 3.75 3.75 0 00-1.23 3.22.51.51 0 01-.27.52.52.52 0 01-.58-.09 5.7 5.7 0 01-1.62-3.37zM204.62 149.67s0 13.56.44 24.21-2.85 68.28-2.85 68.28l-10.34.25-7.72-68.68-13.44 69.48-13.18-1.05s6.92-86.42 7.2-95.66z" fill="#231f20"/><path d="M170.71 243.65l-13.21-1.05a.47.47 0 01-.31-.16.46.46 0 01-.1-.32c.07-.86 6.92-86.51 7.2-95.63a.44.44 0 01.48-.43l39.88 3.17a.45.45 0 01.41.44c0 .14 0 13.68.44 24.19s-2.82 67.75-2.85 68.32a.45.45 0 01-.43.42l-10.34.25a.48.48 0 01-.44-.39L184 176.65l-12.9 66.64a.44.44 0 01-.39.36zm-12.71-1.9l12.35 1 13.37-69.09a.45.45 0 01.45-.36.43.43 0 01.42.39l7.68 68.31 9.52-.23c.3-5.18 3.28-57.8 2.83-67.83-.42-9.51-.44-21.48-.45-23.82l-39-3.1c-.46 10.77-6.64 88.15-7.17 94.73z" fill="#231f20"/><path d="M202.21 242.16s10 6.78 8.32 7.48-19.29 0-19.29 0l.63-7.23" fill="#fff"/><path d="M204.57 250.45c-5.3 0-12.19-.26-13.35-.31a.53.53 0 01-.35-.17.46.46 0 01-.12-.37l.63-7.23a.51.51 0 01.54-.46.49.49 0 01.45.54l-.58 6.71c6.54.25 16.59.47 18.36.08-.54-1-4.56-4.17-8.22-6.67a.5.5 0 01-.14-.69.51.51 0 01.7-.14c3.32 2.26 8.86 6.27 8.72 7.72a.76.76 0 01-.48.64 29.34 29.34 0 01-6.16.35zm5.64-1.06z" fill="#231f20"/><path d="M170.71 243.21s-.41 6-1.26 6.1-21.89 1.08-21-.22 9.09-6.93 9.09-6.93" fill="#fff"/><path d="M155.62 250.27c-3.93 0-7.26-.18-7.62-.79a.61.61 0 010-.67c.91-1.34 8.38-6.48 9.23-7.06a.49.49 0 01.69.12.5.5 0 01-.13.7 103.3 103.3 0 00-8.63 6.43c2.89.58 18.1 0 20.11-.18.36-.53.76-3.29.92-5.65a.5.5 0 011 .07c-.44 6.42-1.36 6.53-1.7 6.57-.1.01-7.72.46-13.87.46z" fill="#231f20"/><path d="M171.2 98.53s6.67-5.73 18.78-4c6.25.91 9.78.62 15.64 5.35l-1 49.74s-28.94 4.2-41.55-2.09z" fill="#01a479"/><path d="M184.64 94.73l-1.22 6.8s.32 3.26 5.06 3 6-3.24 6-3.24l1.82-12.76s-1.87-3.76.49-10.87c0 0-8 2.13-14.6 0a107.85 107.85 0 00-1.76 11.85c-.12 3.64 4.21 5.22 4.21 5.22z" fill="#fff"/><path d="M188 105.06c-4.68 0-5.08-3.45-5.08-3.48a.61.61 0 010-.14l1.15-6.4c-1.13-.51-4.26-2.23-4.15-5.52a108 108 0 011.77-11.94.51.51 0 01.24-.33.53.53 0 01.41 0c6.36 2.06 14.24 0 14.32 0a.48.48 0 01.49.14.5.5 0 01.11.5c-2.26 6.79-.54 10.45-.52 10.49a.58.58 0 01.05.29L195 101.38a.5.5 0 010 .13c-.05.13-1.43 3.28-6.43 3.54zm-4.07-3.52c.07.41.63 2.7 4.53 2.51s5.34-2.49 5.54-2.88l1.79-12.55c-.32-.75-1.53-4.24.26-10.25-2.2.47-8.16 1.47-13.47-.05a97.57 97.57 0 00-1.65 11.23c-.11 3.21 3.84 4.69 3.88 4.71a.5.5 0 01.32.56z" fill="#231f20"/><path d="M194.22 87.79a3.06 3.06 0 011.31-1.4 5.45 5.45 0 011.74-.5 2.2 2.2 0 011 0 1.85 1.85 0 01.6.36 2.33 2.33 0 01.87 1.35 2.8 2.8 0 01-.18 1.31 5.59 5.59 0 01-.61 1.31 3.65 3.65 0 01-5.11 1" fill="#fff"/><path d="M195.91 92.35a4.14 4.14 0 01-2.36-.73.5.5 0 01.56-.83 3.25 3.25 0 002.38.51 3.21 3.21 0 002-1.35 4.92 4.92 0 00.55-1.19 2.4 2.4 0 00.17-1.07 1.91 1.91 0 00-.7-1 1.39 1.39 0 00-.43-.26 1.67 1.67 0 00-.77 0 5 5 0 00-1.58.44 2.53 2.53 0 00-1.05 1.13.49.49 0 01-.66.25.49.49 0 01-.25-.66 3.48 3.48 0 011.52-1.59 6 6 0 011.9-.55 2.65 2.65 0 011.22 0 2.41 2.41 0 01.77.46 2.78 2.78 0 011 1.65 3.31 3.31 0 01-.21 1.55 6 6 0 01-.67 1.43 4.15 4.15 0 01-2.67 1.77 3.94 3.94 0 01-.72.04z" fill="#231f20"/><path d="M184.61 83.71s-3.15 3-2.73 3.72 2.08.69 2.08.69" fill="#fff"/><path d="M183.85 88.62c-.5 0-1.91-.08-2.4-.94s.54-2.17 2.82-4.34a.5.5 0 01.69.73c-1.39 1.31-2.61 2.81-2.62 3.2.15.23 1 .37 1.61.35a.5.5 0 010 1z" fill="#231f20"/><path d="M189.88 82.39a1.58 1.58 0 00-2.63-.47" fill="#fff"/><path d="M189.88 82.89a.51.51 0 01-.45-.27 1.48 1.48 0 00-.86-.74 1.17 1.17 0 00-1 .41.5.5 0 01-.71 0 .49.49 0 010-.7 2.13 2.13 0 011.84-.65 2.44 2.44 0 011.56 1.26.5.5 0 01-.44.73z" fill="#231f20"/><path d="M185 81.58s-.4-1.24-2.24-.09" fill="#fff"/><path d="M185 82.08a.49.49 0 01-.47-.34.38.38 0 00-.24-.21c-.16-.06-.53-.08-1.26.38a.5.5 0 01-.69-.15.49.49 0 01.16-.69 2.51 2.51 0 012.15-.48 1.4 1.4 0 01.82.83.49.49 0 01-.32.63.4.4 0 01-.15.03zM184.64 94.73s3.54.55 5.34-.15c0 0-2 3.83-6 4.25z" fill="#231f20"/><path d="M184 99.33a.5.5 0 01-.49-.58l.67-4.1a.49.49 0 01.57-.41s3.43.52 5.08-.13a.51.51 0 01.55.13.5.5 0 01.07.57c-.08.16-2.17 4.07-6.4 4.51zm1.08-4l-.48 2.94a7.71 7.71 0 004.3-2.88 17.23 17.23 0 01-3.85-.1z" fill="#231f20"/><path d="M160.5 97.77l-.51 8.09-6.7.57.93-13.11s7.07-2.47 7.88-2.2-1.6 6.65-1.6 6.65z" fill="#fff"/><path d="M153.29 106.93a.51.51 0 01-.5-.54l.94-13.11a.47.47 0 01.33-.43c2.7-.94 7.35-2.48 8.19-2.2a.66.66 0 01.41.36c.44.93-.84 4.67-1.67 6.86l-.5 8a.5.5 0 01-.46.47l-6.7.56zm1.41-13.25l-.87 12.2 5.69-.48.48-7.66a.4.4 0 010-.15 28.14 28.14 0 001.74-6 53.64 53.64 0 00-7.04 2.09zm5.3 12.18z" fill="#231f20"/><path d="M168.28 90.69s-.89 2-2.17 2.3-4.05-1-4.37-.87-7.66 5.67-8.34 5.83-2-1.57-2.59-3.62c0 0 7.13-4.86 7.59-5.38s1-3.6 1.72-4.72z" fill="#fff"/><path d="M153.31 98.46c-1.1 0-2.45-2-3-4a.48.48 0 01.2-.54c2.71-1.85 7.14-4.93 7.5-5.31a10 10 0 00.63-1.82 13.21 13.21 0 011-2.82.5.5 0 01.34-.23.49.49 0 01.4.1l8.16 6.46a.48.48 0 01.14.59c-.1.23-1 2.2-2.49 2.59a7.23 7.23 0 01-3.45-.59c-.33-.11-.71-.24-.9-.28l-1.61 1.17c-4.68 3.42-6.33 4.55-6.77 4.66zm-1.92-3.92c.56 1.75 1.59 2.9 1.91 2.92.5-.19 4.48-3.09 6.39-4.48 1.34-1 1.69-1.24 1.81-1.3.31-.17.69-.05 1.6.26a7.17 7.17 0 002.89.57c.69-.18 1.33-1.09 1.66-1.68L160.29 85c-.23.57-.46 1.35-.67 2a6.92 6.92 0 01-.84 2.22c-.45.56-5.71 4.17-7.39 5.32z" fill="#231f20"/><path d="M160.48 86.08a2.62 2.62 0 01-.28 1.51 7.48 7.48 0 01-2.2 1.68l-1.23-2.49 2.44-1.78z" fill="#231f20"/><path d="M158 89.77h-.15a.51.51 0 01-.3-.26L156.34 87a.5.5 0 01.15-.63l2.43-1.75a.51.51 0 01.61 0l1.27 1a.5.5 0 01.2.38 3.33 3.33 0 01-.34 1.84 7.33 7.33 0 01-2.38 1.87.5.5 0 01-.28.06zm-.6-2.83l.81 1.63a5.39 5.39 0 001.53-1.22 2.12 2.12 0 00.24-1l-.81-.67z" fill="#231f20"/><path d="M152.72 93s-.65-2 .51-2.19a1 1 0 011.58-.84s.37-1.53 1.57-1.22 2.15 3.18 2 3.9-1.1.28-1.57-.4c0 0 .61 1.13.2 1.43-.59.44-1.21-.34-1.72-.9 0 0 .75 1.32-.35 1.44-.85.1-1.64-1.62-1.64-1.62z" fill="#fff"/><path d="M154.86 94.75c-.78 0-1.4-.81-1.75-1.39l-.11.07a.49.49 0 01-.44.06.51.51 0 01-.32-.32 3.23 3.23 0 010-2.3 1.22 1.22 0 01.53-.45 1.61 1.61 0 01.72-.92 1.35 1.35 0 011-.13 2.1 2.1 0 01.78-.92 1.54 1.54 0 011.21-.16c1.52.39 2.56 3.57 2.36 4.49a.9.9 0 01-.72.74 1.21 1.21 0 01-.5 0 .85.85 0 01-.34.6 1.12 1.12 0 01-1.37 0 .14.14 0 010 .06 1.1 1.1 0 01-.93.58zm-1.57-2.63h.13a.51.51 0 01.33.28c.29.63.85 1.37 1.12 1.32h.15a1.16 1.16 0 00-.18-.65.5.5 0 01.81-.59l.11.12c.27.31.69.72.88.74a2.52 2.52 0 00-.28-.81.5.5 0 01.85-.52c.27.38.65.6.74.55 0-.48-.81-3.05-1.7-3.28a.57.57 0 00-.44 0 1.44 1.44 0 00-.51.81.51.51 0 01-.69.33.73.73 0 00-.59-.06.83.83 0 00-.3.52.49.49 0 01-.43.42.26.26 0 00-.16.09 1.31 1.31 0 00-.07.77.6.6 0 01.23-.04z" fill="#231f20"/><path d="M158 86.88s.68-1.17 1.39-.14 1.57 3 .39 3.18-2.08-2.01-1.78-3.04z" fill="#fff"/><path d="M159.63 90.43a1.73 1.73 0 01-1.28-.65 3.67 3.67 0 01-.81-3 .49.49 0 010-.11 1.62 1.62 0 011.16-.82 1.28 1.28 0 011.07.64c.15.22 1.44 2.13 1 3.28a1.14 1.14 0 01-.9.68zm-1.15-3.35a2.81 2.81 0 00.62 2c.15.16.36.35.6.3s.13 0 .15-.08A3.75 3.75 0 00159 87c-.12-.17-.2-.21-.21-.21a.72.72 0 00-.31.29z" fill="#231f20"/><path d="M160.5 97.77a40.52 40.52 0 001.86-4.41c.12-1.14-.14-2.91-1.14-3.18s-3.27-.55-2.9.45 2.34 1.09 2.34 1.09a3.89 3.89 0 00-1.17 2.76" fill="#fff"/><path d="M160.5 98.27a.59.59 0 01-.22 0 .5.5 0 01-.23-.67 35.42 35.42 0 001.81-4.25c.12-1.11-.18-2.48-.77-2.64a5.18 5.18 0 00-2.28-.17 3 3 0 001.89.73.5.5 0 01.43.32.51.51 0 01-.11.53 3.33 3.33 0 00-1 2.34.51.51 0 01-.42.57.5.5 0 01-.57-.42 3.59 3.59 0 01.74-2.49 2.55 2.55 0 01-1.89-1.26.91.91 0 01.16-1c.78-.85 3.32-.16 3.34-.16 1.35.38 1.64 2.48 1.5 3.72A31.45 31.45 0 01161 98a.5.5 0 01-.5.27z" fill="#231f20"/><path d="M146.88 83.59s8.25-.82 11.62 1.14a20.38 20.38 0 012.42 1.69c1.83 1.43 3.55 3 4.89 3.94 2.65 1.77 5.22 2.15 7-.68 1.5-2.42.62-3.57-1.39-5.72-1-1.07-3.09-2.82-4.9-4.77a15.44 15.44 0 01-2.67-3.67c-1.52-3.21-1.09-8.14-1.09-8.14z" fill="#fff"/><path d="M169.52 92.25a7.37 7.37 0 01-4-1.47 34.91 34.91 0 01-2.75-2.18 66.24 66.24 0 00-2.16-1.79 21.35 21.35 0 00-2.37-1.65c-3.19-1.85-11.24-1.08-11.32-1.07a.52.52 0 01-.5-.29.51.51 0 01.09-.56L162.36 67a.48.48 0 01.56-.11.49.49 0 01.29.5s-.39 4.84 1 7.89a14.8 14.8 0 002.59 3.54C167.88 80 169 81 170 81.91c.72.67 1.34 1.24 1.77 1.7 2.06 2.21 3.14 3.59 1.45 6.33a4.47 4.47 0 01-2.84 2.22 3.86 3.86 0 01-.86.09zm-18.76-9.33c2.67 0 6.05.25 8 1.38a21.37 21.37 0 012.47 1.7c.76.6 1.5 1.22 2.2 1.81a32.16 32.16 0 002.65 2.19c1.59 1.06 3 1.47 4.07 1.23a3.47 3.47 0 002.2-1.76c1.26-2 .71-2.93-1.33-5.12-.41-.44-1-1-1.72-1.66-1-.92-2.12-2-3.18-3.11a15.5 15.5 0 01-2.76-3.79 17.26 17.26 0 01-1.2-7.08l-14 14.29c.69 0 1.59-.08 2.6-.08z" fill="#231f20"/><path d="M160.48 86.08c1.83 1.43 4 3.32 5.33 4.28 2.94 2.2 4.8 2.43 6.72-.28s.86-4-1.15-6.12c-1-1.07-3.09-2.82-4.9-4.77a8.62 8.62 0 01-2.13 4.49 7 7 0 01-3.87 2.4z" fill="#231f20"/><path d="M169.52 92.56c-1.12 0-2.35-.56-4-1.8-.71-.52-1.68-1.32-2.7-2.16s-1.8-1.47-2.64-2.13A.49.49 0 01160 86a.5.5 0 01.4-.38 6.55 6.55 0 003.6-2.26 8.26 8.26 0 002-4.2.52.52 0 01.34-.44.49.49 0 01.53.13C167.88 80 169 81 170 81.91c.72.67 1.34 1.24 1.77 1.7 2.05 2.2 3.39 3.64 1.19 6.75a4.5 4.5 0 01-2.96 2.16 2.92 2.92 0 01-.48.04zm-8-6.28c.62.5 1.27 1 1.89 1.55 1 .83 2 1.62 2.67 2.13 1.65 1.24 2.81 1.73 3.77 1.58a3.67 3.67 0 002.24-1.75c1.73-2.45.91-3.34-1.08-5.47-.43-.46-1-1-1.74-1.68s-1.66-1.54-2.51-2.41a10.64 10.64 0 01-2 3.77 7.6 7.6 0 01-3.21 2.28z" fill="#231f20"/><path d="M144.59 82.89c1.85 1.66 5.92.28 9.93-3.09a30.12 30.12 0 002.88-2.8 29 29 0 002.42-3.1c3-4.37 3.9-8.59 2-10.26-2.3-2.07-8 .57-12.8 5.88s-6.73 11.3-4.43 13.37z" fill="#fff"/><path d="M146.7 84.1a3.52 3.52 0 01-2.44-.84c-1.27-1.14-1.47-3.27-.56-6a24 24 0 015-8.08c5-5.61 11-8.21 13.51-5.93 2 1.81 1.23 6.2-2 10.92a29.44 29.44 0 01-5.4 6c-3 2.56-5.92 3.93-8.11 3.93zm13.06-20.68c-2.63 0-6.8 2.5-10.33 6.44a23.16 23.16 0 00-4.78 7.72c-.77 2.29-.67 4.09.28 4.94 1.59 1.42 5.4.15 9.27-3.1a29.12 29.12 0 002.8-2.75 26.86 26.86 0 002.39-3c2.85-4.22 3.72-8.17 2.12-9.61a2.56 2.56 0 00-1.75-.64z" fill="#231f20"/><path d="M151.23 75.68l3.29 4.12a30.12 30.12 0 002.88-2.8 29 29 0 002.42-3.1l-4.76-2.9z" fill="#231f20"/><path d="M154.52 80.3h-.05a.55.55 0 01-.34-.19L150.84 76a.5.5 0 010-.63l3.83-4.7a.49.49 0 01.65-.11l4.77 2.92a.52.52 0 01.22.32.48.48 0 01-.07.39 29.44 29.44 0 01-5.4 6 .47.47 0 01-.32.11zm-2.65-4.62l2.72 3.4a27.58 27.58 0 002.41-2.41 27.88 27.88 0 002.09-2.62l-3.94-2.42z" fill="#231f20"/><ellipse cx="153.15" cy="73.33" rx="3.03" ry="1.41" transform="rotate(-50.6 153.137 73.332)" fill="#231f20"/><path d="M151.74 76.34a1.26 1.26 0 01-.83-.28c-.84-.69-.51-2.39.77-3.94a5.76 5.76 0 011.85-1.53 1.48 1.48 0 012.24 1.84 6.2 6.2 0 01-3 3.64 2.4 2.4 0 01-1.03.27zm2.82-5a1.49 1.49 0 00-.6.17 4.78 4.78 0 00-1.51 1.26c-1 1.22-1.15 2.33-.9 2.54.1.08.39.08.8-.12a4.78 4.78 0 001.51-1.26 4.83 4.83 0 00.94-1.72c.12-.45.06-.73 0-.81a.28.28 0 00-.24-.08zM155.28 93.3a.5.5 0 01-.43-.25 5.89 5.89 0 00-.95-1.16.49.49 0 01-.06-.7.51.51 0 01.71-.06 6.46 6.46 0 011.16 1.41.51.51 0 01-.18.69.47.47 0 01-.25.07zM156.8 92.77a.5.5 0 01-.49-.4 2.49 2.49 0 00-.9-1.31.5.5 0 01.6-.8 3.52 3.52 0 011.28 1.91.49.49 0 01-.39.59zM153.29 93.12a.51.51 0 01-.41-.21l-.34-.47a.51.51 0 01.12-.7.5.5 0 01.7.12l.34.48a.49.49 0 01-.12.69.52.52 0 01-.29.09z" fill="#231f20"/><ellipse cx="184.48" cy="91.3" rx=".51" ry="1.76" fill="#231f20"/><path d="M171.2 98.53l-8.38 17.07V99.79l-11.59 1.09s-10.5 40.32-2.21 42.23c12.07 2.79 26.57-25.61 26.57-25.61z" fill="#01a479"/><path d="M161.46 125.53a.49.49 0 01-.46-.53l1.36-25.25a.49.49 0 01.52-.47.5.5 0 01.48.53L162 125.06a.5.5 0 01-.54.47zM163.81 143.61h-.08a.51.51 0 01-.41-.58c.13-.82 6.15-37.11 6.15-37.11l1 .16s-6 36.3-6.14 37.12a.5.5 0 01-.52.41z" fill="#231f20"/><path fill="#fff" d="M195.362 147.56l27.94 4.106-2.687 18.284-27.94-4.106z"/><path d="M220.63 170.44h-.07l-27.94-4.1a.48.48 0 01-.33-.2.5.5 0 01-.1-.37l2.69-18.28a.5.5 0 01.57-.42l27.94 4.1a.5.5 0 01.33.2.48.48 0 01.09.37L221.12 170a.5.5 0 01-.49.44zm-27.37-5l27 4 2.54-17.29-26.95-4z" fill="#231f20"/><path d="M208 152.44a49.38 49.38 0 01-1.38 5.28c-.51 1.13-4 5.54-3.78 6.68s2 1.38 2 1.38-2 3.28-.45 3.91 5.42 1.77 6.43 0 3.9-15 3.9-15z" fill="#fff"/><path d="M208.55 171.14a13.31 13.31 0 01-4.39-1 1.33 1.33 0 01-.79-.85c-.32-1 .28-2.39.68-3.19a2.42 2.42 0 01-1.7-1.6c-.2-.9.89-2.58 2.57-5a19.5 19.5 0 001.24-1.94 49 49 0 001.36-5.19.48.48 0 01.24-.33.53.53 0 01.41 0l6.67 2.26a.49.49 0 01.33.58c-.12.54-2.92 13.33-4 15.14a2.84 2.84 0 01-2.62 1.12zm-.18-18a39.3 39.3 0 01-1.29 4.83 18 18 0 01-1.34 2.1c-.81 1.2-2.51 3.7-2.41 4.27.17.77 1.53 1 1.54 1a.48.48 0 01.38.28.52.52 0 010 .47c-.47.78-1.13 2.28-.91 3a.38.38 0 00.22.24c1.56.65 5 1.56 5.8.21S213.23 159 214.1 155z" fill="#231f20"/><path d="M205.62 99.93s12.47 15.25 15.49 24.63-5.8 32.53-5.8 32.53l-9.69-1.26 2.45-25.4c-2-5.34-8.31-14.83-8.31-14.83z" fill="#01a479"/><path fill="#231f20" d="M188.09 104.56l-2.85 1.44 1.47 2.27-6.93 26.39 4.19 5.12 4.04-5.29.38-25.8 1.3-1.47-1.6-2.66z"/><path d="M184 140.28a.49.49 0 01-.38-.18l-4.2-5.13a.5.5 0 01-.1-.44l6.88-26.17-1.35-2.09a.48.48 0 01-.06-.4.5.5 0 01.25-.32l2.86-1.43a.49.49 0 01.65.19l1.6 2.66a.48.48 0 01-.06.58l-1.18 1.34-.37 25.6a.55.55 0 01-.11.3l-4 5.29a.5.5 0 01-.39.2zm-3.65-5.74L184 139l3.55-4.66.38-25.63a.55.55 0 01.12-.33l1.06-1.19-1.17-2-1.94 1 1.16 1.81a.52.52 0 01.07.4zM208.07 130.93a.5.5 0 01-.45-.29c-1.18-2.5-9.06-16.52-9.14-16.66a.5.5 0 11.87-.49c.33.58 8 14.19 9.18 16.73a.5.5 0 01-.24.66.42.42 0 01-.22.05zM348.75 202.36a8.06 8.06 0 00-.93-4.36 32.6 32.6 0 01-1.95-2.75c-.83-1.77-.24-3.85-.44-5.79a7.19 7.19 0 00-2-4.32c-1-1-2.33-1.73-3.3-2.8-1.59-1.75-2-4.22-3-6.41a15.93 15.93 0 00-6.35-7.48c1.73 3.48-2.22 7.92-.43 11.38.57 1.1 1.65 1.89 2.07 3.06 1 2.8-2.34 5.84-1.27 8.62.53 1.39 2 2.2 2.71 3.52.93 1.77.2 3.93.28 5.94.1 2.76 1.79 5.24 3.79 7.15 1.24 1.2 2.63 2.23 4 3.31 1.61 1.29 2.29 2.64 3.7.57a17.79 17.79 0 003.12-9.64zM350.55 203.94c-.52-2.14-.89-4.46 0-6.48 1-2.29 3.45-3.9 3.74-6.38.19-1.62-.64-3.26-.31-4.86s1.63-2.69 2.7-3.86a16.16 16.16 0 004.18-9.9 24.66 24.66 0 014 6.58 8.42 8.42 0 01-.58 7.43 6.68 6.68 0 00-1 1.65c-.49 1.57.86 3 1.56 4.54a5.24 5.24 0 01-.5 5.37c-1.41 1.76-4.14 2.45-4.83 4.6a10.42 10.42 0 00-.25 2.44 7.15 7.15 0 01-5.15 6.14c-1.67.41-1.64-.26-1.94-1.66-.44-1.89-1.17-3.72-1.62-5.61z" fill="#231f20"/><path d="M345.22 188.54c-1.19-4.11-1.67-8.41-2.92-12.5a68.53 68.53 0 00-3.89-9.33l5.1 2.15c1.64.69 3.41 1.51 4.18 3.1 1.34 2.79-1.07 6.36.34 9.11a24.18 24.18 0 002 2.54c1.5 2.11 1.27 5 .45 7.46-.36 1.05-1.9 6.51-3.28 5-.56-.61-.6-2.87-.84-3.7-.36-1.29-.77-2.55-1.14-3.83zM348 243.2c-1-6.73-4.2-30.42-4.24-30.66l1-.14c0 .24 3.21 23.93 4.23 30.65z" fill="#231f20"/><path d="M349.26 249.54h-1c.06-8 3.4-38.52 5.32-40.63l.74.68c-1.46 1.59-4.99 31.08-5.06 39.95z" fill="#231f20"/><path d="M351 248l-1-.05c.76-17.2-2.89-53.35-2.92-53.71l1-.1c.02.38 3.68 36.6 2.92 53.86z" fill="#231f20"/><path d="M339.27 223.92h19l-1.33 21.57c-.23 3.73-3 6.63-6.33 6.63h-3.67c-3.34 0-6.1-2.9-6.33-6.63z" fill="#fff"/><path d="M350.6 252.63h-3.67c-3.6 0-6.6-3.12-6.85-7.11L338.75 224a.51.51 0 01.52-.54h19a.47.47 0 01.37.16.49.49 0 01.14.38l-1.33 21.57c-.25 3.94-3.26 7.06-6.85 7.06zm-10.79-28.19l1.3 21c.21 3.44 2.77 6.14 5.82 6.14h3.67c3 0 5.6-2.7 5.81-6.14l1.3-21z" fill="#231f20"/></g></svg>