<svg xmlns="http://www.w3.org/2000/svg" width="512" height="512" viewBox="0 0 64 64"><g xmlns="http://www.w3.org/2000/svg"><path d="M40 28h5a1 1 0 000-2h-5a1 1 0 000 2z" fill="#01a479" data-original="#000000"/><path d="M61 26a1 1 0 00-1 1v33H9a5 5 0 115-5 1 1 0 002 0V28h3a1 1 0 000-2h-3v-3a7 7 0 00-14 0v32a7.008 7.008 0 007 7h52a1 1 0 001-1V27a1 1 0 00-1-1zM4 23a5 5 0 0110 0v27.1a6.991 6.991 0 00-10 0z" fill="#01a479" data-original="#000000"/><path d="M48.071 38.372l1.6 4 2.4 6a1 1 0 001.858 0l2.4-6 1.6-4a.988.988 0 00.063-.334c0-.013.008-.024.008-.038V21a1 1 0 00-2 0v16h-2V14h2v3a1 1 0 002 0V7a5 5 0 00-10 0v31c0 .014.007.025.008.039a.987.987 0 00.063.333zM52.077 43h1.846L53 45.308zm2.646-2h-3.446l-.8-2h5.046zM52 37h-2V14h2zm-2-25v-2h6v2zm0-5a3 3 0 016 0v1h-6zM24 21.7v.481a2.982 2.982 0 000 5.632V28a6.007 6.007 0 004.138 5.7 8.3 8.3 0 01-3.879 2.2l-1.525.382A4.931 4.931 0 0023.93 46H26a1 1 0 000-2h-2.07a2.931 2.931 0 01-.71-5.774l1.525-.381a10.3 10.3 0 005.779-3.871A6.005 6.005 0 0036 28v-.184a2.982 2.982 0 000-5.632V21.7a8.972 8.972 0 001.747-11.269 1 1 0 00-1.723 1.017 6.972 6.972 0 01-1.65 9.009 1 1 0 00-.374.78V22h-.883l.877-7.89a1 1 0 00-1.31-1.059L30 13.946l-2.684-.895a1 1 0 00-1.31 1.059l.877 7.89H26v-.76a1 1 0 00-.374-.78 6.993 6.993 0 017.923-11.485 1 1 0 101.017-1.723A8.994 8.994 0 0024 21.7zM30 32a4 4 0 01-4-4h8a4 4 0 01-4 4zm-1.833-16.557l1.517.506a1 1 0 00.632 0l1.517-.506L31.105 22H28.9zM28 24h7a1 1 0 010 2H25a1 1 0 010-2z" fill="#01a479" data-original="#000000"/><circle cx="18" cy="15" r="1" fill="#01a479" data-original="#000000"/><circle cx="42" cy="15" r="1" fill="#01a479" data-original="#000000"/><circle cx="30" cy="3" r="1" fill="#01a479" data-original="#000000"/><path d="M19.108 9.866a1 1 0 10-.366-1.366 1 1 0 00.366 1.366zM39.892 21.866a1 1 0 10-.366-1.366 1 1 0 00.366 1.366z" fill="#01a479" data-original="#000000"/><circle cx="36" cy="4.608" r="1" transform="rotate(-15 36.002 4.608)" fill="#01a479" data-original="#000000"/><path d="M40.892 9.866a1 1 0 10-1.366-.366 1 1 0 001.366.366zM20.474 20.5a1 1 0 10-.366 1.366 1 1 0 00.366-1.366zM24.5 5.474a1 1 0 10-1.366-.366 1 1 0 001.366.366zM35 54h4a1 1 0 001-1v-1.681a6.87 6.87 0 00.974-.561l1.454.84a1 1 0 001.366-.366l2-3.464a1 1 0 00-.366-1.366l-1.452-.839a6.66 6.66 0 000-1.126l1.452-.839a1 1 0 00.366-1.366l-2-3.464a1 1 0 00-1.366-.366l-1.454.84a6.87 6.87 0 00-.974-.561V37a1 1 0 00-1-1h-4a1 1 0 00-1 1v1.681a6.87 6.87 0 00-.974.561l-1.454-.84a1 1 0 00-1.366.366l-2 3.464a1 1 0 00.366 1.366l1.452.839a6.66 6.66 0 000 1.126l-1.452.839a1 1 0 101 1.732L31.6 46.96a1 1 0 00.484-1.047 4.78 4.78 0 010-1.826 1 1 0 00-.484-1.047l-1.166-.674 1-1.732 1.166.674a1 1 0 001.15-.106 4.994 4.994 0 011.58-.911 1 1 0 00.67-.942V38h2v1.349a1 1 0 00.666.942 4.994 4.994 0 011.58.911 1 1 0 001.15.106l1.166-.674 1 1.732-1.162.674a1 1 0 00-.484 1.047 4.78 4.78 0 010 1.826 1 1 0 00.484 1.047l1.166.674-1 1.732-1.166-.674a1 1 0 00-1.15.106 4.994 4.994 0 01-1.58.911 1 1 0 00-.666.942V52H36v-1.349a1 1 0 00-.666-.942 4.994 4.994 0 01-1.58-.911 1 1 0 00-1.15-.106l-2.032 1.174a1 1 0 101 1.732l1.454-.84a6.87 6.87 0 00.974.561V53a1 1 0 001 1z" fill="#01a479" data-original="#000000"/><path d="M40 45a3 3 0 10-3 3 3 3 0 003-3zm-4 0a1 1 0 111 1 1 1 0 01-1-1zM38 58h12a4 4 0 004-4v-2a1 1 0 00-2 0v2a2 2 0 01-2 2H38a1 1 0 000 2zM20 54a3 3 0 103-3 3 3 0 00-3 3zm4 0a1 1 0 11-1-1 1 1 0 011 1z" fill="#01a479" data-original="#000000"/></g></svg>