<svg xmlns="http://www.w3.org/2000/svg" width="512" height="512"><path xmlns="http://www.w3.org/2000/svg" d="M120 264h24v16h-24zM176 304h24v16h-24zM120 304h40v16h-40zM56 304h48v16H56zM104 344h96v16h-96zM56 344h32v16H56zM152 384h48v16h-48zM56 384h80v16H56zM104 424h48v16h-48zM56 424h32v16H56z" fill="#fff" data-original="#000000"/><path xmlns="http://www.w3.org/2000/svg" d="M480 240a8 8 0 00-8-8h-48a8 8 0 00-8 8v40h-40a8 8 0 00-8 8v40h-40a8 8 0 00-8 8v40h-40a8 8 0 00-8 8v48h-57.376a24 24 0 100 16H224v24a8.01 8.01 0 01-8 8H40a8.01 8.01 0 01-8-8V288h40a24.027 24.027 0 0024-24v-40h120a8.01 8.01 0 018 8v8h16v-8a24.027 24.027 0 00-24-24H94.627a23.844 23.844 0 00-16.97 7.03l-54.628 54.627A23.843 23.843 0 0016 286.627V472a24.027 24.027 0 0024 24h176a24.027 24.027 0 0024-24v-24h256v-16h-16zm-400-4.686V264a8.01 8.01 0 01-8 8H43.314zM192 448a8 8 0 118-8 8.01 8.01 0 01-8 8zm96-56h32v40h-32zm48-48h32v88h-32zm48-48h32v136h-32zm48 136V248h32v184zM40 216a23.994 23.994 0 0021.655-34.34l24.004-24.005A23.989 23.989 0 00118.624 144h34.752a23.995 23.995 0 0046.29-4.035l45.18-38.725a24 24 0 10-10.883-11.745l-38.274 32.806A23.983 23.983 0 00153.376 128h-34.752a23.997 23.997 0 10-44.279 18.34l-24.004 24.005A23.999 23.999 0 1040 216zM256 72a8 8 0 11-8 8 8.01 8.01 0 018-8zm-80 56a8 8 0 11-8 8 8.01 8.01 0 018-8zm-80 0a8 8 0 11-8 8 8.01 8.01 0 018-8zm-56 56a8 8 0 11-8 8 8.01 8.01 0 018-8z" fill="#fff" data-original="#000000"/><path xmlns="http://www.w3.org/2000/svg" d="M329.565 203.12L276.687 256h-70.063a24 24 0 100 16H224v144h16V272h40a8 8 0 005.657-2.343l57.738-57.738a104.284 104.284 0 10-13.83-8.798zM184 272a8 8 0 118-8 8.01 8.01 0 01-8 8zm272.17-91.85L409.815 128h69.817a87.706 87.706 0 01-23.462 52.15zM479.632 112H400V32.367A88.144 88.144 0 01479.632 112zM384 32.367V120a7.959 7.959 0 002.027 5.31l-.006.005 58.197 65.472A87.983 87.983 0 11384 32.367z" fill="#fff" data-original="#000000"/></svg>