<svg xmlns="http://www.w3.org/2000/svg" viewBox="0 0 400 300"><g data-name="#531_search_engine_flatline"><path d="M347.38 239.81H52.62a.5.5 0 01-.5-.5.5.5 0 01.5-.5h294.76a.5.5 0 01.5.5.5.5 0 01-.5.5z" fill="#d1d3d4"/><path d="M332.11 54.62v148.6a11.26 11.26 0 01-11.26 11.27H79.15a11.26 11.26 0 01-11.26-11.27V54.62a11.27 11.27 0 0111.26-11.27h241.7a11.27 11.27 0 0111.26 11.27z" fill="#fff"/><path d="M320.85 215H79.15a11.77 11.77 0 01-11.76-11.77V54.62a11.77 11.77 0 0111.76-11.77h241.7a11.77 11.77 0 0111.76 11.77v148.6A11.77 11.77 0 01320.85 215zM79.15 43.85a10.78 10.78 0 00-10.76 10.77v148.6A10.78 10.78 0 0079.15 214h241.7a10.78 10.78 0 0010.76-10.77V54.62a10.78 10.78 0 00-10.76-10.77z" fill="#231f20"/><path d="M332.11 54.62v8.05H67.89v-8.05a11.27 11.27 0 0111.26-11.27h241.7a11.27 11.27 0 0111.26 11.27z" fill="#231f20"/><path d="M332.11 63.11H67.89a.44.44 0 01-.44-.44v-8.05a11.72 11.72 0 0111.7-11.71h241.7a11.72 11.72 0 0111.7 11.71v8.05a.44.44 0 01-.44.44zm-263.78-.88h263.34v-7.61a10.84 10.84 0 00-10.82-10.83H79.15a10.84 10.84 0 00-10.82 10.83z" fill="#231f20"/><path fill="#01a479" d="M175.45 62.67l-9.54-15.53h-50.88l-10.68 15.53H67.89v23.68h264.22V62.67H175.45z"/><path d="M332.11 86.85H67.89a.5.5 0 01-.5-.5V62.67a.5.5 0 01.5-.5h36.2l10.53-15.31a.49.49 0 01.41-.22h50.88a.5.5 0 01.43.24l9.39 15.29h156.38a.5.5 0 01.5.5v23.68a.5.5 0 01-.5.5zm-263.72-1h263.22V63.17H175.45a.52.52 0 01-.43-.24l-9.39-15.29h-50.34L104.76 63a.49.49 0 01-.41.22h-36z" fill="#231f20"/><circle cx="80.12" cy="53.01" r="2.7" fill="#01a479"/><circle cx="89.2" cy="53.01" r="2.7" fill="#fff"/><circle cx="98.28" cy="53.01" r="2.7" fill="#fff"/><path fill="#fff" d="M103.08 134.74h200.21v22.11H103.08z"/><path d="M303.29 157.35H103.08a.5.5 0 01-.5-.5v-22.11a.5.5 0 01.5-.5h200.21a.5.5 0 01.5.5v22.11a.5.5 0 01-.5.5zm-199.71-1h199.21v-21.11H103.58z" fill="#231f20"/><text transform="translate(162.56 121.52)" font-size="28.22" font-family="MyriadPro-Regular, Myriad Pro"><tspan letter-spacing=".01em">S</tspan><tspan x="14.08" y="0">ea</tspan><tspan x="41.82" y="0" letter-spacing="-.01em">r</tspan><tspan x="50.77" y="0">ch</tspan></text><path d="M277.13 157.35a.5.5 0 01-.5-.51c.1-8.25.19-20.77 0-21.91a.58.58 0 010-.19.52.52 0 01.86-.35c.19.19.4.41.14 22.47a.49.49 0 01-.5.49z" fill="#231f20"/><rect x="103.08" y="68.24" width="207.23" height="12.85" rx="5.96" fill="#fff"/><path d="M301 77.55a.53.53 0 01-.3-.09.51.51 0 01-.2-.49l.37-2.15-1.56-1.53a.49.49 0 01-.13-.51.51.51 0 01.41-.34l2.16-.31 1-2a.51.51 0 01.45-.28.51.51 0 01.45.28l1 2 2.16.31a.51.51 0 01.41.34.49.49 0 01-.13.51l-1.56 1.53.37 2.15a.51.51 0 01-.2.49.53.53 0 01-.53 0l-1.93-1-1.93 1a.59.59 0 01-.31.09zm-.27-4.27l1 1a.5.5 0 01.14.45l-.24 1.41 1.27-.67a.53.53 0 01.46 0l1.27.67-.24-1.41a.5.5 0 01.14-.45l1-1-1.42-.2a.54.54 0 01-.38-.28l-.63-1.28-.63 1.28a.54.54 0 01-.38.28z" fill="#d1d3d4"/><path d="M325.92 70.89h-7.5a.5.5 0 010-1h7.5a.5.5 0 010 1zM325.92 74.22h-7.5a.5.5 0 01-.5-.5.51.51 0 01.5-.5h7.5a.5.5 0 01.5.5.5.5 0 01-.5.5zM325.92 77.55h-7.5a.5.5 0 01-.5-.5.51.51 0 01.5-.5h7.5a.5.5 0 01.5.5.5.5 0 01-.5.5z" fill="#231f20"/><path d="M183.81 59.13a.5.5 0 01-.5-.5v-7.89a.5.5 0 01.5-.5.5.5 0 01.5.5v7.89a.5.5 0 01-.5.5z" fill="#d1d3d4"/><path d="M187.76 55.19h-7.9a.5.5 0 01-.5-.5.5.5 0 01.5-.5h7.9a.5.5 0 01.5.5.51.51 0 01-.5.5z" fill="#d1d3d4"/><path d="M81.58 75.93h-7.11a.5.5 0 01-.5-.5.5.5 0 01.5-.5h7.11a.51.51 0 01.5.5.5.5 0 01-.5.5z" fill="#231f20"/><path d="M76.38 79.27a.51.51 0 01-.39-.19l-2.7-3.33a.5.5 0 010-.64l2.92-3.41a.5.5 0 01.76.65l-2.65 3.09 2.44 3a.49.49 0 01-.08.7.47.47 0 01-.3.13zM92.57 75.93h-7.11a.5.5 0 01-.5-.5.5.5 0 01.5-.5h7.11a.51.51 0 01.5.5.5.5 0 01-.5.5z" fill="#231f20"/><path d="M90.66 79.27a.51.51 0 01-.32-.12.5.5 0 01-.07-.7l2.44-3-2.65-3.09a.49.49 0 010-.7.51.51 0 01.71 0l2.92 3.41a.51.51 0 010 .64l-2.7 3.33a.52.52 0 01-.33.23zM288.74 148.81a4.85 4.85 0 113.43-1.42 4.83 4.83 0 01-3.43 1.42zm0-8.68a3.83 3.83 0 00-2.71 6.55 3.92 3.92 0 005.43 0 3.84 3.84 0 00-2.72-6.55z" fill="#231f20"/><path d="M296.75 152.47a.51.51 0 01-.36-.15l-4.93-4.93a.5.5 0 010-.71.51.51 0 01.71 0l4.93 4.93a.51.51 0 010 .71.5.5 0 01-.35.15z" fill="#231f20"/><path d="M191.7 146.3h-78.82a.51.51 0 01-.5-.5.5.5 0 01.5-.5h78.82a.5.5 0 01.5.5.5.5 0 01-.5.5z" fill="#d1d3d4"/><path fill="#fff" d="M118.345 141.332l4.936 6.586-9.074 6.8-4.936-6.585z"/><path d="M114.2 155.21a.48.48 0 01-.4-.2l-4.94-6.58a.51.51 0 01.1-.7l9.08-6.8a.5.5 0 01.7.1l4.93 6.58a.5.5 0 01.1.37.48.48 0 01-.2.33l-9.07 6.8a.49.49 0 01-.3.1zm-4.24-7l4.34 5.79 8.27-6.2-4.33-5.8z" fill="#231f20"/><path fill="#231f20" d="M110.102 149.246l3.25 4.337-11.09 8.313-3.25-4.338z"/><path d="M102.27 162.35a.44.44 0 01-.36-.18l-3.25-4.34a.42.42 0 01-.08-.33.44.44 0 01.17-.29l11.09-8.31a.44.44 0 01.62.09l3.25 4.34a.42.42 0 01.08.33.4.4 0 01-.17.29l-11.09 8.31a.43.43 0 01-.26.09zm-2.64-4.7l2.72 3.64 10.39-7.79-2.74-3.63z" fill="#231f20"/><path d="M121.07 144.05a18.17 18.17 0 1125.43 3.64 18.16 18.16 0 01-25.43-3.64zm32.55-24.4a22.52 22.52 0 10-4.51 31.52 22.51 22.51 0 004.51-31.52z" fill="#01a479"/><path d="M135.65 156.18a23.24 23.24 0 01-3.31-.24 22.86 22.86 0 113.31.24zm-.07-45a22 22 0 1017.64 8.8 22 22 0 00-17.64-8.83zm0 40.66a18.64 18.64 0 01-15-7.46 18.69 18.69 0 1115 7.46zm-14.16-8.06A17.66 17.66 0 10125 119a17.69 17.69 0 00-3.54 24.73z" fill="#231f20"/><path d="M69.91 184.85l-2-2.68a2.44 2.44 0 01.48-3.41L98 156.57a2.44 2.44 0 013.41.48l2 2.69a2.43 2.43 0 01-.49 3.41l-29.6 22.19a2.43 2.43 0 01-3.41-.49z" fill="#fff"/><path d="M71.86 186.33h-.42a2.89 2.89 0 01-1.93-1.15l-2-2.68a2.89 2.89 0 01-.56-2.18 2.92 2.92 0 011.14-1.93l29.65-22.19a2.89 2.89 0 012.18-.56 2.92 2.92 0 011.93 1.14l2 2.69a2.93 2.93 0 01-.59 4.11l-29.64 22.16a3 3 0 01-1.76.59zm27.63-29.75a1.89 1.89 0 00-1.16.39l-29.65 22.19a1.91 1.91 0 00-.75 1.27 1.85 1.85 0 00.37 1.44l2 2.68a1.93 1.93 0 001.27.76 2 2 0 001.44-.37l29.64-22.19a1.93 1.93 0 00.39-2.71l-2-2.69a1.91 1.91 0 00-1.27-.75 1.37 1.37 0 00-.28-.02z" fill="#231f20"/><path d="M93 169.43l5.49 5.67s7.78-11.6 7.63-12.95a23.57 23.57 0 01.58-7.29.55.55 0 01.2-.38c.28-.18.58.2.69.52.25.76.27 1.6.5 2.33 1.24-.71 2.44-1.57 3.66-2.34 2-1.27 1.4 3.61 1.23 4.28-.44 1.8-1.28 3.91-2.86 5 0 0-9.37 20.86-11.4 20.63s-10-9.25-10-9.25z" fill="#fff"/><path d="M98.76 185.41h-.06c-2.11-.24-9-7.88-10.35-9.41a.51.51 0 010-.62l4.32-6.23a.52.52 0 01.37-.22.57.57 0 01.4.15l5.06 5.23c3.58-5.38 7.18-11.26 7.2-12.12a24.61 24.61 0 01.59-7.44 1 1 0 01.42-.7.76.76 0 01.69-.07 1.39 1.39 0 01.74.86 7.59 7.59 0 01.29 1.3c0 .14 0 .28.07.42.58-.36 1.16-.75 1.73-1.12s.88-.59 1.33-.87a1.21 1.21 0 011.47-.09c1.29.92.53 4.87.52 4.91a9.35 9.35 0 01-2.94 5.22c-3.61 7.86-9.73 20.8-11.85 20.8zm-9.4-9.78c3.08 3.44 8.15 8.64 9.45 8.78 1.24-.35 6.53-10.62 10.9-20.33a.56.56 0 01.17-.21c1.5-1.06 2.27-3.15 2.66-4.72.22-.9.35-3.52-.13-3.86 0 0-.17 0-.36.12l-1.31.86c-.77.51-1.56 1-2.36 1.5a.54.54 0 01-.43 0 .53.53 0 01-.3-.32 9.52 9.52 0 01-.25-1.18 7.24 7.24 0 00-.23-1.09 23.06 23.06 0 00-.51 6.89c.15 1.42-5.87 10.52-7.71 13.28a.55.55 0 01-.38.22.52.52 0 01-.4-.15l-5.06-5.23z" fill="#231f20"/><path d="M56.86 250.7s-1.86 5.3-1.07 5.75 17.76 0 16.75-1S67 251 67 251" fill="#fff"/><path d="M59.9 257.14a19.33 19.33 0 01-4.36-.26c-.8-.48-.51-2.61.85-6.35a.52.52 0 01.65-.3.49.49 0 01.29.64c-.84 2.31-1.39 4.61-1.24 5.16 1.47.33 13 0 15.66-.63-1.46-1.27-5-3.93-5-4a.51.51 0 01-.1-.7.5.5 0 01.7-.1c.19.14 4.55 3.42 5.58 4.44a.6.6 0 01.06.82c-.7.88-8.13 1.28-13.09 1.28z" fill="#231f20"/><path d="M69 151.83c-.79.11-1.6.11-2.53.2s-2 0-2.18-.89.62-1.48.3-2.15a1.59 1.59 0 00-.39-.46 8 8 0 01-.6-11.06.44.44 0 01-.59-.31 1 1 0 01.15-.74 5 5 0 012.1-1.86 15.21 15.21 0 018.83-1.56c2.33.25 5.29 1.53 5.48 4.25a2.14 2.14 0 01-1.47 2.26c0 2.94-1.12 5.16-2.63 7.57a11.72 11.72 0 01-4.06 4 6.63 6.63 0 01-2.41.75z" fill="#fff"/><path d="M66 152.55c-1.23 0-2.05-.47-2.21-1.31A2.29 2.29 0 0164 150c.14-.36.21-.59.14-.75a1.2 1.2 0 00-.25-.28 8.51 8.51 0 01-1.12-11.21.93.93 0 01-.24-.42 1.45 1.45 0 01.19-1.11 5.53 5.53 0 012.3-2.06 15.84 15.84 0 019.13-1.65c2.8.3 5.72 1.88 5.92 4.71a2.75 2.75 0 01-1.47 2.66 14.42 14.42 0 01-2.7 7.47 12.15 12.15 0 01-4.25 4.16 6.83 6.83 0 01-2.58.85c-.48.07-1 .1-1.46.13-.35 0-.71 0-1.09.08zM63.6 137a.51.51 0 01.39.19.5.5 0 010 .64 7.48 7.48 0 00.56 10.36 2.15 2.15 0 01.5.61 1.91 1.91 0 01-.1 1.53 1.5 1.5 0 00-.16.74c.1.5 1.08.54 1.64.49.4 0 .77-.06 1.13-.08s.93-.06 1.38-.12a5.92 5.92 0 002.23-.73 11.17 11.17 0 003.89-3.82c1.63-2.61 2.57-4.64 2.55-7.3A.5.5 0 0178 139a1.65 1.65 0 001.08-1.74c-.18-2.58-3.24-3.59-5-3.78A14.74 14.74 0 0065.5 135a4.37 4.37 0 00-1.9 1.66.63.63 0 00-.11.33z" fill="#231f20"/><path d="M59.38 168s-6.26 12.68-5.75 16.57S67 186.93 67 186.93l-.67-19.28z" fill="#fff"/><path d="M61.73 187.74c-3.81 0-8.26-.56-8.6-3.11-.52-4 5.54-16.34 5.8-16.86a.49.49 0 01.43-.28l6.93-.34a.47.47 0 01.36.13.48.48 0 01.16.35l.68 19.28a.5.5 0 01-.44.52 49.94 49.94 0 01-5.32.31zm-2-19.27c-.89 1.83-6 12.63-5.58 16 .32 2.4 7.56 2.5 12.36 2l-.65-18.32z" fill="#231f20"/><path d="M84.25 248.22l.33 8.23s15.45.12 14.55-1-7.89-6.09-7.89-6.09l-1.13-6.09z" fill="#fff"/><path d="M86.73 257h-2.15a.5.5 0 01-.5-.48l-.33-8.23a.48.48 0 01.17-.4l5.87-5a.48.48 0 01.49-.09.5.5 0 01.32.38l1.09 5.89c1.23.87 7 5 7.83 6.07a.63.63 0 01.09.67c-.15.28-.61 1.19-12.88 1.19zm-1.67-1c5.65 0 11.66-.17 13.33-.56-1.39-1.31-5.71-4.44-7.39-5.68a.48.48 0 01-.2-.32l-1-5.24-5 4.24z" fill="#231f20"/><path d="M87 190.35l6 60.13-9.5-.62-9.15-41.63L68.14 251l-11.5-.56s1-27.46 2.07-36.56 1.09-21.29 1.09-21.29z" fill="#231f20"/><path d="M79.61 143.49s2.64 3 2.29 3.73-1.92.51-1.92.51" fill="#fff"/><path d="M80.53 148.27a3.91 3.91 0 01-.62-.05.5.5 0 11.15-1c.5.08 1.27 0 1.39-.22a11.64 11.64 0 00-2.21-3.19.5.5 0 01.75-.66c1.3 1.47 2.77 3.41 2.36 4.28a1.93 1.93 0 01-1.82.84z" fill="#231f20"/><path d="M78.54 139.2c1.54.94 1.47 3.39 1.68 4.94q.44 3.29.72 6.59c.12 1.4-3.46 1.93-4.15 1.61l1.33 5.39-8-1.83-.65-6.35a4.58 4.58 0 003.38-3.34c1-3 .33-7.36.33-7.36s3.82-.56 5.36.35z" fill="#fff"/><path d="M78.12 158.23H78l-8-1.83a.51.51 0 01-.39-.44L69 149.6a.52.52 0 01.43-.55 4 4 0 003-3c1-2.87.33-7.08.32-7.12a.48.48 0 01.09-.37.5.5 0 01.33-.2c.41-.06 4-.56 5.63.42s1.69 2.88 1.84 4.46c0 .3.05.58.09.84.29 2.18.53 4.41.72 6.61a1.47 1.47 0 01-.75 1.36 6.46 6.46 0 01-3.23.88l1.16 4.68a.5.5 0 01-.49.62zm-7.49-2.73l6.81 1.56-1.14-4.6a.51.51 0 01.7-.58 5.19 5.19 0 003.14-.66c.22-.16.32-.31.31-.45-.19-2.18-.44-4.39-.72-6.56 0-.27-.07-.56-.1-.87-.13-1.36-.29-3.06-1.35-3.71s-3.24-.48-4.49-.34a18.18 18.18 0 01-.42 7.08 5.27 5.27 0 01-3.31 3.56z" fill="#231f20"/><path d="M94.56 169.92s-8.87-9.37-12.38-12.92c-3.26-3.27-12.74-6.24-17.05-1.56 0 0-7.1 9.9-8.46 15.65l4.15 2.53a188.74 188.74 0 00-1.61 20.56C67 200.4 87 190.35 87 190.35l-1.81-14.1 3.24 3.23z" fill="#01a479"/><path d="M80.66 149.11a1.8 1.8 0 01-2.7-.35" fill="#fff"/><path d="M79.37 150.09h-.27a2.23 2.23 0 01-1.54-1 .51.51 0 01.11-.7.52.52 0 01.7.12 1.3 1.3 0 00.86.61 1.66 1.66 0 001.11-.36.52.52 0 01.71.07.5.5 0 01-.07.7 2.75 2.75 0 01-1.61.56z" fill="#231f20"/><path d="M75.62 145.48a3.09 3.09 0 00-.83-1.41 3.88 3.88 0 00-.93-.88 1.46 1.46 0 00-1.23-.2 1.36 1.36 0 00-.76.8 2.55 2.55 0 00-.12 1.13 4.71 4.71 0 002.75 3.85l-.14-.11" fill="#fff"/><path d="M74.5 149.27a.45.45 0 01-.2 0 5.2 5.2 0 01-3-4.27 3.21 3.21 0 01.15-1.35 1.84 1.84 0 011.06-1.09 2 2 0 011.66.24 4.72 4.72 0 011 1 3.49 3.49 0 01.94 1.67.5.5 0 01-.42.57.52.52 0 01-.57-.42 2.5 2.5 0 00-.71-1.16 3.77 3.77 0 00-.81-.79 1 1 0 00-.8-.15.84.84 0 00-.46.51 2.08 2.08 0 00-.09.9 4.27 4.27 0 002.14 3.29.55.55 0 01.29.11l.14.12a.49.49 0 01-.32.88zM85.48 177.44a.48.48 0 01-.35-.16 87.46 87.46 0 01-6.38-7.34.5.5 0 01.1-.7.51.51 0 01.7.1 88.84 88.84 0 006.29 7.25.49.49 0 010 .7.47.47 0 01-.36.15z" fill="#231f20"/><ellipse cx="78.15" cy="142.15" rx=".79" ry=".31" transform="rotate(-88.41 78.16 142.155)" fill="#231f20"/><path d="M60.73 172.12h-.08a.51.51 0 01-.41-.58c.07-.43 1.73-10.61 3.61-14a.49.49 0 01.68-.19.48.48 0 01.19.67c-1.79 3.27-3.48 13.61-3.49 13.71a.5.5 0 01-.5.39zM323.2 203a7.55 7.55 0 00-.86-4.06c-.55-.91-1.38-1.63-1.83-2.58-.77-1.65-.23-3.6-.41-5.41a6.73 6.73 0 00-1.9-4c-.95-1-2.17-1.62-3.08-2.61-1.49-1.65-1.91-3.95-2.76-6a14.9 14.9 0 00-5.94-7c1.62 3.26-2.07 7.4-.4 10.64.53 1 1.55 1.77 1.94 2.85.93 2.63-2.19 5.47-1.19 8.07.5 1.3 1.89 2 2.54 3.28.87 1.66.18 3.68.25 5.55.1 2.59 1.68 4.9 3.55 6.69 1.16 1.12 2.46 2.08 3.71 3.09 1.51 1.21 2.15 2.47 3.47.54a16.61 16.61 0 002.91-9.05zM324.88 204.47c-.48-2-.83-4.17 0-6.06.92-2.13 3.22-3.64 3.49-5.95.18-1.52-.59-3.05-.29-4.55s1.52-2.51 2.53-3.61a15.17 15.17 0 003.91-9.25 23.49 23.49 0 013.72 6.15 7.93 7.93 0 01-.54 6.94 6.4 6.4 0 00-.95 1.55c-.45 1.47.81 2.85 1.46 4.24a4.87 4.87 0 01-.46 5c-1.32 1.65-3.87 2.29-4.52 4.3a9.59 9.59 0 00-.23 2.28 6.7 6.7 0 01-4.81 5.74c-1.57.38-1.54-.24-1.82-1.56-.37-1.69-1.06-3.45-1.49-5.22z" fill="#231f20"/><path d="M319.9 190.08c-1.11-3.85-1.55-7.86-2.73-11.69a65 65 0 00-3.63-8.72l4.77 2c1.53.64 3.18 1.4 3.9 2.9 1.26 2.6-1 5.93.32 8.5a20.34 20.34 0 001.89 2.38c1.4 2 1.19 4.68.42 7-.33 1-1.78 6.09-3.07 4.67-.52-.56-.56-2.68-.78-3.45-.33-1.21-.74-2.39-1.09-3.59zM322.42 241.17c-.95-6.28-3.93-28.43-4-28.66l1-.13c0 .22 3 22.37 4 28.64z" fill="#231f20"/><path d="M323.72 247.09h-1c0-7.47 3.18-36 5-38l.74.68c-1.39 1.51-4.68 29.06-4.74 37.32z" fill="#231f20"/><path d="M325.33 245.67h-1c.71-16.08-2.7-49.86-2.73-50.2l1-.1c.03.3 3.45 34.15 2.73 50.3z" fill="#231f20"/><path d="M314.34 223.15h17.75l-1.24 20.16c-.22 3.49-2.8 6.2-5.92 6.2h-3.43c-3.12 0-5.7-2.71-5.92-6.2z" fill="#fff"/><path d="M324.93 250h-3.43c-3.38 0-6.2-2.93-6.43-6.68l-1.25-20.16a.53.53 0 01.14-.38.52.52 0 01.38-.17h17.75a.52.52 0 01.38.17.53.53 0 01.14.38l-1.25 20.16c-.23 3.77-3.05 6.68-6.43 6.68zm-10-26.35l1.21 19.61c.19 3.2 2.57 5.71 5.4 5.71h3.43c2.83 0 5.21-2.51 5.4-5.71l1.21-19.61z" fill="#231f20"/><rect x="169.46" y="176.94" width="60.82" height="14.46" rx="5.29" fill="#01a479"/></g></svg>