<svg xmlns="http://www.w3.org/2000/svg" viewBox="0 0 400 300"><g data-name="#286_startup_flatline"><path d="M348.12 252.52H54.17a.52.52 0 110-1h294a.52.52 0 010 1z" fill="#d1d3d4"/><path fill="#fff" d="M71.3 48.26h259.69v151.68H71.3z"/><path d="M331 200.46H71.3a.52.52 0 01-.52-.52V48.26a.52.52 0 01.52-.52H331a.51.51 0 01.51.52v151.68a.52.52 0 01-.51.52zm-259.18-1h258.65V48.78H71.81z" fill="#d1d3d4"/><path fill="#fff" d="M71.3 41.06h259.69v7.2H71.3z"/><path d="M331 48.78H71.3a.52.52 0 01-.52-.52v-7.2a.52.52 0 01.52-.52H331a.51.51 0 01.51.52v7.2a.52.52 0 01-.51.52zm-259.18-1h258.65v-6.21H71.81z" fill="#d1d3d4"/><path fill="#fff" d="M195.5 143.56h14.12v45.32H195.5z"/><path d="M209.62 189.39H195.5a.51.51 0 01-.52-.51v-45.32a.52.52 0 01.52-.52h14.12a.52.52 0 01.52.52v45.32a.51.51 0 01-.52.51zm-13.6-1h13.09v-44.32H196z" fill="#d1d3d4"/><path d="M141.62 199.94s3.09-17.2 14.71-21.92 17.93 5 17.93 5 3-16 21.46-16 22.72 12.58 22.72 12.58 3.79-7.6 12.12-7.08 9.6 11 9.6 11a19 19 0 0115.4 0c8 3.72 11.37 16.47 11.37 16.47z" fill="#fff"/><path d="M266.93 200.46H141.62a.53.53 0 01-.4-.19.57.57 0 01-.11-.42c.13-.72 3.28-17.54 15-22.31a15 15 0 0117.89 4.31c1.09-3.62 5.85-15.36 21.7-15.36 15.57 0 21.32 9 22.79 12 1.35-2.05 5.28-6.91 12.09-6.47 7.38.46 9.49 8.34 10 10.73a19.31 19.31 0 0115.22.28c8.13 3.77 11.5 16.27 11.64 16.8a.5.5 0 01-.09.44.49.49 0 01-.42.19zm-124.68-1h124c-.81-2.61-4.22-12.38-10.89-15.48a18.67 18.67 0 00-15 0 .49.49 0 01-.47 0 .52.52 0 01-.27-.39c0-.1-1.32-10-9.12-10.51s-11.59 6.72-11.62 6.79a.53.53 0 01-.5.28.5.5 0 01-.45-.34c-.05-.13-4.42-12.24-22.24-12.24-7.46 0-13.25 2.61-17.21 7.76a21 21 0 00-3.75 7.81.51.51 0 01-.4.41.52.52 0 01-.54-.22 14 14 0 00-17.3-4.79c-9.96 4.02-13.55 17.81-14.24 20.88z" fill="#d1d3d4"/><path fill="#fff" d="M210.04 150.75h-15.33l-1.84-7.36h19.01l-1.84 7.36z"/><path d="M210 151.27h-15.29a.51.51 0 01-.5-.39l-1.84-7.36a.52.52 0 01.09-.45.53.53 0 01.41-.19h19a.53.53 0 01.41.19.55.55 0 01.09.45l-1.84 7.36a.51.51 0 01-.53.39zm-14.93-1h14.53l1.58-6.33h-17.65z" fill="#d1d3d4"/><path d="M185.19 120.4s-8 5-10.83 13.39 3.58 24.55 3.58 24.55l14.61-15.84z" fill="#fff"/><path d="M177.94 158.86h-.1a.5.5 0 01-.38-.32c-.27-.67-6.4-16.45-3.58-24.9s10.7-13.46 11-13.67a.49.49 0 01.44 0 .51.51 0 01.32.32l7.36 22.04a.52.52 0 01-.11.52l-14.62 15.84a.48.48 0 01-.33.17zm7-37.65c-1.84 1.3-7.79 5.91-10.07 12.75-2.35 7.07 2.07 20.11 3.27 23.42l13.85-15z" fill="#d1d3d4"/><path d="M219.93 120.4s8 5 10.83 13.39-3.58 24.55-3.58 24.55l-14.61-15.84z" fill="#fff"/><path d="M227.19 158.86a.49.49 0 01-.38-.17l-14.62-15.84a.52.52 0 01-.11-.52l7.36-22.09a.51.51 0 01.32-.32.49.49 0 01.44 0c.34.21 8.23 5.22 11.05 13.67s-3.32 24.23-3.58 24.9a.53.53 0 01-.39.32zm-14-16.49l13.85 15c1.2-3.31 5.62-16.36 3.27-23.42-2.28-6.84-8.23-11.45-10.06-12.75z" fill="#d1d3d4"/><path d="M215.51 146.18c4-9.56 6.5-23.42 6.5-38.83C222 84 209.13 71.81 204.23 68a3 3 0 00-3.71 0c-4.9 3.77-17.79 15.94-17.79 39.31 0 15.41 2.52 29.27 6.51 38.83 0 0 4 2 13.13 2s13.14-1.96 13.14-1.96z" fill="#fff"/><path d="M202.37 148.7c-9.16 0-13.19-2-13.36-2.06a.5.5 0 01-.24-.26c-4.17-10-6.55-24.19-6.55-39 0-23.32 12.58-35.55 18-39.72a3.56 3.56 0 014.35 0c5.4 4.17 18 16.39 18 39.72 0 14.85-2.39 29.07-6.55 39a.55.55 0 01-.24.26c-.21.08-4.24 2.06-13.41 2.06zm-12.73-2.91c.84.36 4.86 1.88 12.73 1.88s11.9-1.52 12.74-1.88c4.06-9.82 6.39-23.82 6.39-38.44 0-22.87-12.3-34.83-17.58-38.91a2.57 2.57 0 00-3.09 0c-5.28 4.09-17.58 16-17.58 38.91 0 14.65 2.33 28.65 6.39 38.44zm25.86.39z" fill="#d1d3d4"/><path d="M200.52 68a45.56 45.56 0 00-13.66 18.1h31A45.56 45.56 0 00204.23 68a3 3 0 00-3.71 0z" fill="#fff"/><path d="M217.89 86.66h-31a.51.51 0 01-.43-.23.53.53 0 01-.05-.49 45.91 45.91 0 0113.79-18.31 3.56 3.56 0 014.35 0 45.91 45.91 0 0113.82 18.31.53.53 0 01-.05.49.52.52 0 01-.43.23zm-30.25-1h29.46a44.71 44.71 0 00-13.18-17.19 2.57 2.57 0 00-3.09 0 44.81 44.81 0 00-13.19 17.16z" fill="#d1d3d4"/><circle cx="203.14" cy="103.51" r="11.98" fill="#fff"/><path d="M203.14 116a12.5 12.5 0 1112.5-12.5 12.51 12.51 0 01-12.5 12.5zm0-24a11.47 11.47 0 1011.47 11.46 11.47 11.47 0 00-11.47-11.41z" fill="#d1d3d4"/><circle cx="203.14" cy="103.51" r="7.39" fill="#fff"/><path d="M203.14 111.42a7.91 7.91 0 117.91-7.91 7.91 7.91 0 01-7.91 7.91zm0-14.78a6.88 6.88 0 106.88 6.87 6.88 6.88 0 00-6.88-6.87z" fill="#d1d3d4"/><path d="M209 103.33a.51.51 0 01-.5-.43 5.1 5.1 0 00-5.33-4.79.5.5 0 11-.07-1 6.17 6.17 0 016.39 5.65.5.5 0 01-.42.56zM200.54 98.82a.5.5 0 01-.4-.19.51.51 0 01.09-.7 3.32 3.32 0 011.46-.61.5.5 0 01.56.44.51.51 0 01-.43.56 2.3 2.3 0 00-1 .4.47.47 0 01-.28.1z" fill="#d1d3d4"/><path d="M214.06 143.14a.41.41 0 01-.16 0 .5.5 0 01-.32-.63 171 171 0 005-20 .49.49 0 01.58-.4.5.5 0 01.4.58 172.26 172.26 0 01-5 20.16.5.5 0 01-.5.29z" fill="#fff"/><path d="M204.27 161.75a.5.5 0 01-.5-.5v-9.49a.5.5 0 01.5-.5.5.5 0 01.5.5v9.49a.5.5 0 01-.5.5zM199.15 166.72a.51.51 0 01-.5-.5v-9.93a.51.51 0 01.5-.5.5.5 0 01.5.5v9.93a.5.5 0 01-.5.5zM168.61 191.18h-.09a.5.5 0 01-.4-.59c0-.2 1-5.11 5.35-7.38 3.15-1.65 7.18-1.43 12 .66a.5.5 0 11-.4.91c-4.51-2-8.25-2.19-11.12-.69-3.88 2-4.83 6.65-4.84 6.7a.49.49 0 01-.5.39zM225.41 185.23a.5.5 0 01-.37-.17c-7.11-7.86-12.49-4.66-12.54-4.63a.49.49 0 01-.69-.16.51.51 0 01.17-.69c.24-.15 6.14-3.66 13.8 4.81a.5.5 0 010 .71.55.55 0 01-.37.13zM259.8 84.69h-28.34a.5.5 0 110-1h28.34a.5.5 0 010 1zM259.8 91.12h-28.34a.5.5 0 01-.5-.5.51.51 0 01.5-.5h28.34a.5.5 0 01.5.5.5.5 0 01-.5.5zM259.8 97.56h-28.34a.51.51 0 01-.5-.5.5.5 0 01.5-.5h28.34a.5.5 0 01.5.5.5.5 0 01-.5.5zM249.75 104h-18.29a.5.5 0 010-1h18.29a.5.5 0 010 1zM207.19 165.44a.51.51 0 01-.5-.5v-4.13a.5.5 0 01.5-.5.5.5 0 01.5.5v4.13a.5.5 0 01-.5.5zM175.46 94.34h-40.39a.5.5 0 01-.5-.5V70.15a.51.51 0 01.5-.5.5.5 0 01.5.5v23.19h39.89a.5.5 0 010 1z" fill="#d1d3d4"/><path d="M139.46 90.69a.32.32 0 01-.14 0 .5.5 0 01-.34-.62c.11-.35 2.68-8.59 8.75-10.19 3.39-.9 4.3.79 5.18 2.41s1.59 2.94 4.34 3.06h.18c5.7 0 10.18-12.63 10.22-12.76a.5.5 0 01.95.33c-.2.56-4.77 13.43-11.18 13.43h-.21c-3.32-.15-4.35-2-5.18-3.58s-1.42-2.62-4-1.93c-5.54 1.46-8 9.44-8.05 9.52a.5.5 0 01-.52.33zM243.07 167.71a8.76 8.76 0 118.76-8.76 8.77 8.77 0 01-8.76 8.76zm0-16.52a7.76 7.76 0 107.76 7.76 7.77 7.77 0 00-7.76-7.76z" fill="#d1d3d4"/><path d="M249.88 164.12a.49.49 0 01-.28-.09l-6.81-4.67a.48.48 0 01-.22-.41v-8.26a.51.51 0 01.5-.5.5.5 0 01.5.5v8l6.6 4.52a.5.5 0 01-.29.91z" fill="#d1d3d4"/><path d="M235.33 161.21a.5.5 0 01-.49-.39.49.49 0 01.38-.59l7.74-1.77a.5.5 0 11.22 1l-7.74 1.76zM164.7 160.33h-11.82a.5.5 0 01-.5-.5.5.5 0 01.5-.5h11.82a.5.5 0 01.5.5.5.5 0 01-.5.5zM160.39 165.44h-7.51a.5.5 0 01-.5-.5.5.5 0 01.5-.5h7.51a.5.5 0 01.5.5.51.51 0 01-.5.5z" fill="#d1d3d4"/><path d="M280.28 93.9a4.4 4.4 0 01-1.77-4 3.63 3.63 0 01-4-1.88 7.32 7.32 0 01-.55-4.69 6.9 6.9 0 01.61-12.68 1.47 1.47 0 01-.84-1.07c-.9-3 .88-6.36 3.62-7.85a11 11 0 019.06-.27 2.13 2.13 0 01.82-2.14 5.33 5.33 0 012.22-.92 21.48 21.48 0 0112.06.87c1.83.69 3.84 2.08 3.69 4a6 6 0 015.72 9.63 6.95 6.95 0 01-3.2 11.78c.13-.45.82-.05 1 .38 1.19 3-1 6.51-3.79 8.19s-6.85 2-9.18-.34a3.44 3.44 0 01-2.6 3.39 9.29 9.29 0 01-4.59-.13c-1.5-.31-2.84-1.12-4.29-1.45s-2.68.12-3.99-.82z" fill="#fff"/><path d="M291.37 97a14.62 14.62 0 01-2.95-.38 14.34 14.34 0 01-2.32-.77 13.67 13.67 0 00-2-.68 7.63 7.63 0 00-1.35-.14 4.61 4.61 0 01-2.75-.73 4.91 4.91 0 01-2-3.82 4.22 4.22 0 01-3.93-2.25 7.39 7.39 0 01-.67-4.65 7.4 7.4 0 01.21-13.09 2.83 2.83 0 01-.37-.8c-.92-3 .77-6.74 3.86-8.43a11.2 11.2 0 018.75-.55 3 3 0 011.05-1.81 5.58 5.58 0 012.43-1 22 22 0 0112.34.88c2.37.89 3.82 2.34 4 3.95a6.52 6.52 0 015.88 10.13 7.44 7.44 0 01-2.47 11.88 1 1 0 01.07.15c1.32 3.37-1.07 7.05-4 8.79-2.64 1.58-6.41 2.08-9 .25a4.25 4.25 0 01-2.89 2.86 6.37 6.37 0 01-1.89.21zm-12.86-7.67a.45.45 0 01.31.11.5.5 0 01.18.44 3.94 3.94 0 001.57 3.57 3.7 3.7 0 002.24.58 7.8 7.8 0 011.54.17 13.92 13.92 0 012.12.72 12.93 12.93 0 002.15.72 8.9 8.9 0 004.34.14 2.94 2.94 0 002.25-2.78.51.51 0 01.28-.51.5.5 0 01.57.1c2.21 2.21 6 1.8 8.58.26s4.65-4.82 3.57-7.58a.48.48 0 00-.11-.15l-.29.08a.5.5 0 01-.48-.14.52.52 0 01-.12-.49.76.76 0 01.7-.56.84.84 0 01.27 0 6.68 6.68 0 004.13-4.41 6.61 6.61 0 00-1.77-6.35.52.52 0 01-.05-.67 5.52 5.52 0 00-5.24-8.82.51.51 0 01-.58-.53c.12-1.62-1.66-2.89-3.37-3.53a21 21 0 00-11.77-.85 4.82 4.82 0 00-2 .82 1.67 1.67 0 00-.65 1.61.49.49 0 01-.14.5.51.51 0 01-.51.11 10.5 10.5 0 00-8.65.23c-2.69 1.47-4.17 4.67-3.38 7.27.07.24.24.66.5.74a.5.5 0 01.36.46.52.52 0 01-.33.49 6.4 6.4 0 00-.56 11.76.48.48 0 01.27.53 6.72 6.72 0 00.5 4.37 3.13 3.13 0 003.43 1.64.41.41 0 01.14-.01z" fill="#231f20"/><path d="M274.21 105.66s-17.08 30.64-19.37 36 7.85 17.81 11.77 14.79 7.6-50.79 7.6-50.79z" fill="#01a479"/><path d="M306.94 265.46s.67 4.5-.34 6.23a18.88 18.88 0 00-2.36 8 8.68 8.68 0 006.4 3c4.05 0 8.09-3.12 8.54-4.62s-3.26-17.43-3.26-17.43z" fill="#fff"/><path d="M310.64 283.12a9.07 9.07 0 01-6.76-3.18.43.43 0 01-.09-.33 19 19 0 012.42-8.15c.76-1.3.46-4.73.28-5.93a.44.44 0 01.23-.47l9-4.85a.46.46 0 01.41 0 .5.5 0 01.26.31c.62 2.69 3.71 16.13 3.25 17.67s-4.74 4.93-9 4.93zm-5.92-3.61a8.23 8.23 0 005.92 2.69c3.87 0 7.73-3 8.1-4.29.26-.88-1.39-9.1-3.13-16.62l-8.18 4.42c.14 1.09.49 4.62-.44 6.21a18.14 18.14 0 00-2.27 7.59zM279.1 156.25l19.47 5.54 4.51-57.86s-16.12-3.93-20-2.08-3.98 54.4-3.98 54.4z" fill="#231f20"/><path d="M298.57 162.29h-.14L279 156.73a.5.5 0 01-.37-.48c0-8.83.28-53 4.25-54.85s19.68 1.88 20.35 2a.51.51 0 01.38.53l-4.51 57.86a.51.51 0 01-.21.37.52.52 0 01-.32.13zm-19-6.42l18.52 5.27 4.43-56.83c-4.74-1.12-16.3-3.42-19.27-2-2.25 1.1-3.6 28.34-3.65 53.56z" fill="#231f20"/><path d="M285.59 255.05v13.54l-6.29 1.85.15-2.77-2.84 2.93s-16.9 3.12-16.81.8 1.8-3.58 3.93-4.73c2.29-1.24 8.31-4.73 8.31-4.73l.9-9.93" fill="#fff"/><path d="M262.93 272.7a5.84 5.84 0 01-3.25-.58.9.9 0 01-.34-.73c.1-2.57 2.07-4 4.17-5.12s7-4 8.1-4.61l.87-9.7a.47.47 0 01.5-.41.45.45 0 01.41.5l-.89 9.95a.47.47 0 01-.23.35c-.06 0-6 3.51-8.32 4.74s-3.62 2.36-3.69 4.35c.48.84 7.85.27 16.12-1.25l2.74-2.82a.48.48 0 01.52-.1.46.46 0 01.27.44l-.12 2.13 5.35-1.57v-13.2a.45.45 0 01.45-.46.46.46 0 01.46.46v13.54a.45.45 0 01-.33.44l-6.29 1.85a.47.47 0 01-.41-.08.44.44 0 01-.17-.38l.08-1.56-2 2.05a.44.44 0 01-.25.13 95.1 95.1 0 01-13.75 1.64z" fill="#231f20"/><path d="M315.79 161.71L321 264.53s-.5 3.76-8.44 4.23-7.14-1.45-7.14-1.45L293 191.89l-5.09 67-17.1 1.11 3.4-105.6z" fill="#231f20"/><path d="M310.23 269.33c-2.86 0-4.55-.41-5.13-1.23a1.11 1.11 0 01-.21-.81l-11.68-71.2-4.77 62.83a.5.5 0 01-.47.46l-17.13 1.09a.49.49 0 01-.38-.14.48.48 0 01-.15-.37l3.4-105.6a.5.5 0 01.59-.48l41.58 7.34a.49.49 0 01.41.47l5.18 102.82c0 .26-.65 4.26-8.9 4.74-.85.05-1.63.08-2.34.08zm-4.35-1.84l.09.09c.31.3 1.57 1 6.54.68 7.35-.43 8-3.76 8-3.8l-5.17-102.33-40.65-7.13-3.37 104.47 16.15-1 5.06-66.56a.51.51 0 01.48-.46.49.49 0 01.51.41l12.38 75.42a.53.53 0 010 .28z" fill="#231f20"/><path d="M299.57 98.4s-6.67 69.83-3.68 73.83 21.44 7.17 22.82-.59c2.27-12.76 1-58.6-1.66-62.91-10.74-9.55-17.48-10.33-17.48-10.33zM274.21 105.66s-9.54 63.42-7.74 65.26 11.58 4.33 14.28 2.48 6.39-74.67 6.39-74.67a27 27 0 00-12.93 6.93z" fill="#01a479"/><path d="M287.66 97.47l-.82 6.77a5.59 5.59 0 006.67 3.66c5.16-1.09 5.22-4.08 5.22-4.08s.7-15.26.7-15.3a4.44 4.44 0 00-.5-1c-.77-1.74-1.87-4.13-1.54-6.06a7.34 7.34 0 012.26-4.14 4.35 4.35 0 01-6.07-3.32c0 .69-.61 1.2-1.19 1.58a4.75 4.75 0 01-3 1c-1.42-.16-2.48-1.37-3.81-1.89a2.08 2.08 0 01-.78 2.61 3.83 3.83 0 01-2.88.42c.65.13.1 7.36.09 8a52 52 0 00.16 6.72c.48 3.99 5.49 5.03 5.49 5.03z" fill="#fff"/><path d="M292 108.56c-4.29 0-5.65-4.12-5.66-4.17a.5.5 0 010-.21l.76-6.33c-1.31-.38-5-1.76-5.44-5.46a48.74 48.74 0 01-.17-6.27v-.52-.78c.29-4.85.2-6.37.06-6.77a.48.48 0 01-.18-.49.48.48 0 01.58-.39 3.47 3.47 0 002.51-.34 1.61 1.61 0 00.62-2 .5.5 0 01.62-.71 8.91 8.91 0 011.6.9 5.11 5.11 0 002.09 1 4.35 4.35 0 002.67-.89c.65-.42 1-.8 1-1.16a.51.51 0 01.47-.5.49.49 0 01.53.42 3.85 3.85 0 005.37 3 .49.49 0 01.62.18.5.5 0 01-.08.64 6.77 6.77 0 00-2.11 3.86c-.29 1.71.7 4 1.42 5.58l.09.19a2.36 2.36 0 00.14.26 2.14 2.14 0 01.4 1l-.7 15.33c0 .13-.13 3.4-5.62 4.54a7.66 7.66 0 01-1.59.09zm-4.68-4.38a5 5 0 006 3.23c4.66-1 4.82-3.5 4.83-3.61s.69-15.08.7-15.3l-.25-.44a2.52 2.52 0 01-.21-.37l-.08-.18c-.77-1.76-1.83-4.15-1.49-6.16a7.61 7.61 0 011.33-3.2 5.08 5.08 0 01-2.68-.58 5 5 0 01-2.07-2.25 4.66 4.66 0 01-.82.65 5.25 5.25 0 01-3.32 1 5.94 5.94 0 01-2.52-1.12l-.54-.35a2.78 2.78 0 01-1.2 2.1 3.89 3.89 0 01-2.42.6 43.54 43.54 0 01-.11 6.63v1.25a48.54 48.54 0 00.17 6.15c.43 3.69 5 4.69 5.09 4.7a.51.51 0 01.39.55zm-5.54-26z" fill="#231f20"/><path d="M286.72 85.05s-3 3.91-2.37 4.67 2.4.42 2.4.42" fill="#fff"/><path d="M285.87 90.71A2.37 2.37 0 01284 90c-.68-.88.92-3.35 2.37-5.27a.5.5 0 01.7-.1.49.49 0 01.1.7c-1.33 1.77-2.43 3.69-2.35 4.12.24.29 1.27.29 1.88.18a.5.5 0 01.59.39.5.5 0 01-.4.59 5.55 5.55 0 01-1.02.1zM287.66 97.47s4 0 5.83-1.08c0 0-1.56 4.67-5.88 5.82z" fill="#231f20"/><path d="M287.61 102.71a.5.5 0 01-.31-.1.48.48 0 01-.19-.4l.05-4.74a.5.5 0 01.5-.5c.21 0 3.89 0 5.57-1a.5.5 0 01.57 0 .52.52 0 01.16.55c-.07.2-1.7 4.93-6.23 6.15zm.54-4.74v3.56a8.79 8.79 0 004.41-4.18 18.14 18.14 0 01-4.41.65zM321.1 154.84h-.05c-.65-.08-15.85-1.84-20.68-4.55a.49.49 0 01-.19-.68.51.51 0 01.68-.19c4.65 2.61 20.15 4.4 20.3 4.42a.5.5 0 01-.06 1z" fill="#231f20"/><path d="M317.05 108.73s30.16 43 17.24 54.12c-11.84 10.17-38-6.72-38-6.72l1.58-14.28s20.71 11.53 21.05 6.16c.49-7.9-9.66-18.69-9.66-18.69a14.73 14.73 0 01-.92-11.45 13.42 13.42 0 018.71-9.14z" fill="#01a479"/><path d="M270 143.39a.5.5 0 01-.42-.57c.93-6.24 5.4-30.07 5.45-30.31a.51.51 0 01.58-.4.51.51 0 01.4.59c-.05.24-4.52 24-5.44 30.27a.51.51 0 01-.57.42z" fill="#231f20"/><path d="M265.79 162.24h30.07a3.78 3.78 0 003.62-4.6l-6.39-30.91a4 4 0 00-3.83-3.19h-29.63a4 4 0 00-3.84 4.87l6.38 30.81a3.72 3.72 0 003.62 3.02z" fill="#fff"/><path d="M295.86 162.69h-30.07a4.21 4.21 0 01-4.07-3.38l-6.37-30.81a4.54 4.54 0 01.92-3.81 4.33 4.33 0 013.36-1.61h29.63a4.43 4.43 0 014.28 3.56l6.39 30.9a4.32 4.32 0 01-.87 3.62 4.14 4.14 0 01-3.2 1.53zM259.63 124a3.4 3.4 0 00-2.65 1.27 3.65 3.65 0 00-.74 3l6.38 30.82a3.28 3.28 0 003.17 2.65h30.07a3.22 3.22 0 002.49-1.2 3.39 3.39 0 00.69-2.85l-6.4-30.91a3.5 3.5 0 00-3.38-2.82z" fill="#231f20"/><path d="M302.05 146.72a7 7 0 00-.24-3.23 6.49 6.49 0 00-1.33-1.88 32 32 0 00-3-2.81c-1-.78-2.13-1.54-3.33-1.28A7.48 7.48 0 00297 142a3.84 3.84 0 00-1.83-1.21c-.48-.15-1.13-.13-1.33.35a1.18 1.18 0 00.11.93 8.18 8.18 0 002.5 3.14l-1.16-.74a2.41 2.41 0 00-1-.43.84.84 0 00-.89.46 1.15 1.15 0 00.08.81 4.15 4.15 0 001.44 1.79 3.22 3.22 0 00-1.46-.71 1.15 1.15 0 00-1.27.8 1.49 1.49 0 00.18.87c.86 1.71 2.91 1.9 3.91 3.34.75 1.07.4 2.22 1.92 2.87 3.8 1.57 3.64-5.27 3.85-7.55z" fill="#fff"/><path d="M299.3 155a3.11 3.11 0 01-1.24-.28 2.81 2.81 0 01-1.69-2 3.87 3.87 0 00-.45-1 5 5 0 00-1.65-1.3 5.31 5.31 0 01-2.29-2.09 1.82 1.82 0 01-.23-1.2 1.61 1.61 0 011.5-1.2 3.39 3.39 0 01-.18-.39 1.59 1.59 0 01-.09-1.18 1.31 1.31 0 011.23-.79 8.07 8.07 0 01-.69-1.26 1.6 1.6 0 01-.12-1.33 1.3 1.3 0 011.29-.73 8.07 8.07 0 01-1-2.56.51.51 0 01.31-.69c1.43-.3 2.75.58 3.74 1.38a30.64 30.64 0 013.06 2.86 6.84 6.84 0 011.43 2 7.22 7.22 0 01.27 3.45c0 .29 0 .65-.07 1.06-.12 2.3-.32 5.77-2 6.84a2.12 2.12 0 01-1.13.41zm-5.92-8.13a.66.66 0 00-.65.4 1 1 0 00.14.56 4.45 4.45 0 001.9 1.68 5.66 5.66 0 012 1.59 4.6 4.6 0 01.58 1.28 1.82 1.82 0 001.13 1.42 1.49 1.49 0 001.45 0c1.28-.8 1.47-4.21 1.58-6 0-.43 0-.81.07-1.1a6.49 6.49 0 00-.21-3 5.79 5.79 0 00-1.23-1.73 30.89 30.89 0 00-3-2.76 4.75 4.75 0 00-2.37-1.22 7.09 7.09 0 001.64 2.82 4.2 4.2 0 011 .85.5.5 0 010 .67.49.49 0 01-.66.06 8 8 0 01-.94-.8 3.38 3.38 0 00-.75-.34c-.32-.09-.67-.06-.72.07a.77.77 0 00.11.53 7.52 7.52 0 002.34 2.95.48.48 0 01.11.68.5.5 0 01-.68.14l-1.16-.73a1.94 1.94 0 00-.76-.36.36.36 0 00-.37.14.72.72 0 00.08.44 3.5 3.5 0 001.15 1.48l.12.09a.49.49 0 01.12.69.5.5 0 01-.69.13l-.13-.09a2.55 2.55 0 00-1.1-.53zm8.67-.14z" fill="#231f20"/><path d="M256.26 144.57c.15-2.07.77-4.36 2.52-5.4a3.71 3.71 0 013.57-.07.73.73 0 01.43.46c.07.33-.23.6-.5.77a6.75 6.75 0 01-1.87.81 2.6 2.6 0 012.59 1.54 4.08 4.08 0 01-2.56 1.4 1.7 1.7 0 011.81.64c.65.94.13 1.2-.58 1.76a1.55 1.55 0 01.93.09.82.82 0 01.48.78c-.05.6-.78.79-1.29 1.09a2.07 2.07 0 00-.88 1.09 4 4 0 01-.25.76c-1 1.79-3.22.3-3.77-1a10.65 10.65 0 01-.63-4.72z" fill="#fff"/><path d="M259.36 151.62h-.12a3.64 3.64 0 01-2.8-2.08 11.39 11.39 0 01-.68-5c.14-2 .73-4.59 2.77-5.8a4.2 4.2 0 014.05-.08 1.21 1.21 0 01.69.8c.06.28 0 .81-.72 1.29l-.44.26a3.06 3.06 0 011.35 1.47.51.51 0 01-.08.52 4.5 4.5 0 01-1.15 1 1.91 1.91 0 01.43.46c.54.77.45 1.29.16 1.68a1.32 1.32 0 01.76 1.27c-.06.74-.72 1.07-1.19 1.3l-.34.18a1.49 1.49 0 00-.66.82 1.55 1.55 0 00-.07.23 2.38 2.38 0 01-.22.61 2 2 0 01-1.74 1.07zm-2.6-7a10.39 10.39 0 00.59 4.53 2.68 2.68 0 001.95 1.47 1 1 0 00.93-.57 2.09 2.09 0 00.13-.38c0-.1.05-.19.08-.29a2.51 2.51 0 011.1-1.36l.4-.22c.38-.18.63-.32.65-.49s-.09-.22-.21-.28a1.12 1.12 0 00-.63-.05.5.5 0 01-.39-.88l.19-.15c.61-.47.61-.47.29-.93s-.65-.52-1.33-.43a.49.49 0 01-.56-.44.5.5 0 01.43-.56 3.51 3.51 0 002-1 2 2 0 00-1.92-1 .5.5 0 01-.55-.4.5.5 0 01.36-.58 6.35 6.35 0 001.73-.75c.2-.12.27-.22.28-.26l-.18-.11a3.16 3.16 0 00-3.07.06c-1.67 1-2.16 3.27-2.28 5zM282.31 86.89a3.7 3.7 0 113.7-3.7 3.71 3.71 0 01-3.7 3.7zm0-6.4a2.7 2.7 0 102.7 2.7 2.71 2.71 0 00-2.7-2.7zM290.55 86.89a3.7 3.7 0 113.7-3.7 3.7 3.7 0 01-3.7 3.7zm0-6.4a2.7 2.7 0 102.7 2.7 2.7 2.7 0 00-2.7-2.7zM287.24 93a8.5 8.5 0 01-3.68-.92.51.51 0 01-.19-.68.5.5 0 01.68-.19c.19.1 4.64 2.54 7.36-1.58a.5.5 0 01.84.55 5.78 5.78 0 01-5.01 2.82z" fill="#231f20"/><path d="M287.35 83.69h-1.84a.5.5 0 01-.5-.5.5.5 0 01.5-.5h1.84a.5.5 0 01.5.5.51.51 0 01-.5.5zM301.13 85.69a.3.3 0 01-.13 0l-7.38-2a.5.5 0 01.26-1l7.38 2a.5.5 0 01.35.61.49.49 0 01-.48.39z" fill="#231f20"/><path d="M297 86.39a3.47 3.47 0 011.2-1.8 4.06 4.06 0 013.24-.91 2.75 2.75 0 011.64 3 4.64 4.64 0 01-2.82 3.82 4 4 0 01-3.12-.18" fill="#fff"/><path d="M298.93 91.23a4.52 4.52 0 01-2-.47.49.49 0 01-.22-.67.5.5 0 01.67-.23 3.55 3.55 0 002.73.17 4.2 4.2 0 002.5-3.41 2.27 2.27 0 00-1.29-2.46 3.65 3.65 0 00-2.8.83 2.94 2.94 0 00-1 1.53.5.5 0 11-1-.27 3.91 3.91 0 011.37-2 4.54 4.54 0 013.69-1 3.24 3.24 0 012 3.52 5.12 5.12 0 01-3.13 4.23 4.39 4.39 0 01-1.52.23zM315.83 149.61c-4.61 0-11.36-3.73-12.33-4.28a.5.5 0 01.5-.87c3.23 1.84 12.15 6 14.5 3.23s-4.69-16.48-7.61-21.52a.5.5 0 01.86-.5c1.11 1.92 10.79 18.81 7.52 22.66a4.33 4.33 0 01-3.44 1.28zM319.35 166.61h-.07c-7.39-1.11-17-7-17.42-7.22a.5.5 0 01-.16-.69.49.49 0 01.69-.16c.09.05 9.85 6 17 7.09a.48.48 0 01.42.56.5.5 0 01-.46.42z" fill="#231f20"/><path fill="#fff" d="M51.877 208.361l6.722-28.57 34.741 8.174-6.722 28.57z"/><path d="M86.63 217h-.11l-34.74-8.18a.45.45 0 01-.34-.55l6.72-28.57a.46.46 0 01.55-.34l34.74 8.18a.46.46 0 01.29.2.47.47 0 01.05.35l-6.72 28.57a.47.47 0 01-.2.28.44.44 0 01-.24.06zm-34.2-9l33.86 8 6.51-27.68-33.85-8z" fill="#231f20"/><path d="M79.72 174.28s-.58 14.75-2.11 13.87c-2-1.17-1.17-4.57-1.17-4.57l-6.78-1.43s2.88-9.79 3.07-10.12 6.99 2.25 6.99 2.25z" fill="#fff"/><path d="M77.74 188.64a.7.7 0 01-.36-.1c-1.84-1.06-1.65-3.56-1.48-4.6l-6.33-1.34a.48.48 0 01-.3-.22.5.5 0 010-.36c1.08-3.68 2.93-9.89 3.12-10.22s.38-.67 7.54 2.06a.44.44 0 01.3.44c-.16 4-.68 13.47-2.1 14.25a.67.67 0 01-.39.09zm-7.5-6.84l6.29 1.33a.5.5 0 01.3.21.48.48 0 010 .35s-.71 2.92.83 4c.66-1 1.3-7.36 1.54-13.08-2.57-1-5.34-1.93-6.2-2.11-.33 1.11-1.74 5.85-2.76 9.3z" fill="#231f20"/><path d="M90.19 257.17s-.56 9.24-.53 12.74 0 6.79 4.11 6c2.24-.41 14.54-3.52 13.41-5.81s-9.12-2.88-9.12-2.88l.72-10.56" fill="#fff"/><path d="M92.68 276.51a3.12 3.12 0 01-2.07-.66c-1.36-1.12-1.38-3.39-1.4-5.79v-.14c0-3.48.52-12.68.52-12.78a.45.45 0 01.48-.42.44.44 0 01.43.48c0 .09-.55 9.26-.52 12.71v.14c0 2.18 0 4.25 1.07 5.1a3 3 0 002.5.35c2.9-.54 12.17-3.12 13.06-4.89a.26.26 0 000-.27c-.74-1.49-5.75-2.4-8.74-2.62a.46.46 0 01-.42-.49l.72-10.56a.47.47 0 01.48-.43.47.47 0 01.43.49l-.69 10.11c1.85.17 8 .9 9 3.1a1.18 1.18 0 010 1.08c-1.37 2.72-13.6 5.35-13.72 5.37a6.28 6.28 0 01-1.13.12z" fill="#231f20"/><path d="M118.93 258.27s-.56 9.24-.53 12.74 0 6.79 4.11 6c2.24-.41 15.51-2.53 14.38-4.82s-10.09-3.87-10.09-3.87l.72-10.56" fill="#fff"/><path d="M121.42 277.61a3.12 3.12 0 01-2.07-.66c-1.36-1.12-1.38-3.39-1.4-5.79V271c0-3.48.52-12.68.52-12.77a.46.46 0 01.48-.43.44.44 0 01.43.48c0 .09-.55 9.27-.52 12.71v.14c0 2.18 0 4.25 1.07 5.1a3 3 0 002.5.35l.7-.13c10.33-1.81 13-3.1 13.34-3.87v-.17c-.75-1.51-6.38-3-9.76-3.62a.44.44 0 01-.37-.48l.72-10.56a.47.47 0 01.48-.43.47.47 0 01.43.49l-.68 10.19c1.92.36 8.92 1.82 10 4a1.06 1.06 0 010 1c-.73 1.45-5 2.79-14 4.36l-.69.13a7.18 7.18 0 01-1.18.12z" fill="#231f20"/><path d="M89 152.87s-2.84 98.44-1.34 106.86c0 0 5.77 6.51 13.25 3.26l9.47-79.84 5 79.77s4.79 4.76 14.83-3.15V149.39z" fill="#231f20"/><path d="M119.73 264.86a6.75 6.75 0 01-4.71-1.59.48.48 0 01-.15-.32l-4.63-74.25-8.81 74.35a.52.52 0 01-.3.4c-7.73 3.35-13.77-3.32-13.83-3.39a.53.53 0 01-.12-.25c-1.48-8.37 1.23-102.94 1.34-107a.51.51 0 01.46-.48l41.18-3.48a.5.5 0 01.54.5v110.42a.51.51 0 01-.19.4c-4.67 3.67-8.25 4.69-10.78 4.69zm-3.87-2.18c.81.66 5.23 3.54 13.84-3.15v-109.6l-40.19 3.4c-.2 7.18-2.73 97.32-1.36 106.17.77.82 5.81 5.78 12.32 3.14l9.43-79.55a.46.46 0 01.51-.44.5.5 0 01.49.46z" fill="#231f20"/><path d="M172.89 110.39s5.48-3.1 5.88-3.44 2.31-5.41 2.62-5.74 1.08-.93 1.34-.23-.3 4.59-.3 4.59 6.74-5.27 7.21-5 .82.88-.24 2.36a14.33 14.33 0 01-3.35 2.93s2.37 2.66 2 3.57-9.36 6.94-9.36 6.94" fill="#fff"/><path d="M178.73 116.85a.44.44 0 01-.38-.2.46.46 0 01.12-.64c4.26-2.85 8.86-6.15 9.2-6.74.11-.33-.82-1.81-2-3.09a.45.45 0 01-.11-.37.44.44 0 01.21-.32 13.84 13.84 0 003.22-2.8c.6-.85.64-1.26.6-1.43a.35.35 0 00-.11-.19 63 63 0 00-6.81 4.86.45.45 0 01-.51 0 .47.47 0 01-.23-.46 20 20 0 00.33-4.36c-.06 0-.33.12-.57.38s-.61 1.34-1 2.29c-1 2.46-1.39 3.26-1.66 3.49s-5 3-6 3.49a.46.46 0 01-.45-.8c2.1-1.18 5.53-3.15 5.82-3.4a31.43 31.43 0 001.4-3.13 14.24 14.24 0 011.18-2.56c.18-.19.82-.8 1.44-.69a.91.91 0 01.66.61 13 13 0 01-.13 3.7c6.15-4.74 6.56-4.49 6.85-4.32a1.29 1.29 0 01.64.87 2.88 2.88 0 01-.74 2.15 13.28 13.28 0 01-3 2.75c.84 1 2.11 2.72 1.78 3.63s-6.79 5.33-9.54 7.17a.49.49 0 01-.21.11z" fill="#231f20"/><path d="M125.47 104.84s-9.71-3.18-35.28 1.73c-4.44.85-6.48 42.25-3.13 67.15l44.79-.37s7.39-65.06-6.38-68.51z" fill="#01a479"/><path d="M88.5 100.58s-9.69 31-10.31 33.75S71 173.58 71 173.58L81.18 177S95.94 142.88 95 133.3s-6.5-32.72-6.5-32.72zM124.63 104.86c7.79.74 24 19.55 25.32 19s25.34-17 25.34-17l7.6 8.32s-23.27 27-28 29.86c-7.28 4.35-38.19-15.45-38.19-15.45s.14-25.48 7.93-24.73z" fill="#01a479"/><path d="M76.47 183.73s-3.15-1.71-1.76-4.61" fill="#fff"/><path d="M76.47 184.19a.46.46 0 01-.22-.06c-1.22-.66-3.2-2.6-2-5.21a.46.46 0 01.83.4c-1.19 2.48 1.45 4 1.56 4a.46.46 0 01-.22.86zM148.28 145.63h-.09c-4.89-1-14.46-6.66-27-16l-.57-.43a.46.46 0 01-.13-.63.45.45 0 01.61-.14 7.91 7.91 0 01.64.47c12.4 9.27 21.84 14.91 26.6 15.85a.46.46 0 01.36.54.47.47 0 01-.42.34zM122.18 85.71a3.29 3.29 0 113.29-3.29 3.29 3.29 0 01-3.29 3.29zm0-5.58a2.29 2.29 0 102.29 2.29 2.29 2.29 0 00-2.29-2.29z" fill="#231f20"/><path d="M120.84 84.59s3.25 5.36 2.5 6.41-3.1.25-3.1.25" fill="#fff"/><path d="M121.93 92a6.51 6.51 0 01-1.86-.32.5.5 0 01.33-1c.65.23 2.12.5 2.53-.06.26-.48-.91-3.22-2.51-5.86a.49.49 0 01.16-.68.5.5 0 01.69.16c1 1.7 3.33 5.77 2.47 7a2.11 2.11 0 01-1.81.76z" fill="#231f20"/><path d="M120.37 77.67c2.13 1.87 1.35 5.64 1.23 8.1q-.24 5.2-.72 10.39c-.2 2.19-5.89 2-6.87 1.32l1.2 5.49-12.43-1.82.77-7.16s-.8-10 1.6-14.36a7.75 7.75 0 017.12-4s6.02.2 8.1 2.04z" fill="#fff"/><path d="M115.21 103.47h-.07l-12.43-1.82a.5.5 0 01-.42-.55l.76-7.16c0-.32-.78-10.08 1.66-14.55a8.16 8.16 0 017.6-4.25c.23 0 6.21.22 8.39 2.15 2 1.73 1.7 4.75 1.5 7.18 0 .47-.08.92-.1 1.33-.16 3.46-.4 7-.72 10.4a2 2 0 01-1.38 1.67 9.77 9.77 0 01-5.31.38l1 4.62a.5.5 0 01-.12.44.49.49 0 01-.36.16zm-11.88-2.74l11.24 1.64-1-4.78a.49.49 0 01.21-.52.5.5 0 01.57 0 8.4 8.4 0 005.28-.11c.5-.23.77-.52.8-.86.32-3.43.56-6.91.72-10.36 0-.42.06-.88.1-1.36.19-2.21.42-5-1.16-6.35-1.92-1.69-7.73-1.9-7.78-1.9a7.18 7.18 0 00-6.67 3.73c-2.3 4.21-1.55 14-1.54 14.08z" fill="#231f20"/><path d="M100.34 102.84l1.17-3.79 15.26 1.47.87 3.48a20.32 20.32 0 01-17.3-1.16z" fill="#fff"/><path d="M110.38 105.91a21.77 21.77 0 01-10.27-2.63.5.5 0 01-.24-.59L101 98.9a.51.51 0 01.53-.35l15.29 1.45a.49.49 0 01.43.37l.88 3.48a.5.5 0 01-.27.57 18.51 18.51 0 01-7.48 1.49zm-9.38-3.32a20.19 20.19 0 0016.1 1.12l-.68-2.72-14.5-1.41z" fill="#231f20"/><path d="M107.81 94.89c0 5.89 5.92 17.8.84 22.48-4.77 4.4-13 5.55-19.16 4.87-9-1-13.73-7.23-10-16 1.81-4.28 5-7.81 7.65-11.63a56.26 56.26 0 005.84-10.76c1.32-3.21 2.3-7 4.08-10 3.94-6.64 10.9-9.24 18.22-7.1 3.14.92 9.18 4.7 7.7 8.79-.36 1-1.59 2.51-2.57 2.09-.28 1.94-1.53 2.87-3.05 4.11a54.19 54.19 0 01-4.97 3.26 10.36 10.36 0 00-3 2.7 10.65 10.65 0 00-1.5 4.89 19.78 19.78 0 00-.08 2.3z" fill="#fff"/><path d="M92.8 122.92a32.16 32.16 0 01-3.36-.18c-4.86-.52-8.55-2.56-10.42-5.72s-1.78-6.81 0-11a41.92 41.92 0 015.45-8.65c.76-1 1.52-2 2.25-3.07a56.34 56.34 0 005.79-10.67c.43-1.06.82-2.15 1.23-3.31a38.64 38.64 0 012.88-6.71 15.85 15.85 0 0118.79-7.32c2.34.68 6.29 2.93 7.73 5.77a4.49 4.49 0 01.3 3.67 4.4 4.4 0 01-2 2.34 1.92 1.92 0 01-.64.15c-.42 1.72-1.59 2.67-2.93 3.76l-.21.17a27 27 0 01-3.29 2.21c-.56.34-1.12.68-1.67 1a10.1 10.1 0 00-2.87 2.64 10.26 10.26 0 00-1.41 4.66 18.23 18.23 0 00-.11 2.25 34.16 34.16 0 001.28 7.08c1.43 5.81 3 12.4-.6 15.76-4.19 3.85-10.75 5.17-16.19 5.17zm17.54-56.36a14.77 14.77 0 00-12.89 7.58 38.43 38.43 0 00-2.8 6.54C94.26 81.8 93.84 83 93.4 84a56.36 56.36 0 01-5.89 10.86c-.73 1-1.5 2.08-2.28 3.1a41.5 41.5 0 00-5.32 8.44c-1.62 3.86-1.63 7.35 0 10.08 1.7 2.89 5.13 4.75 9.66 5.24 5.63.61 13.92-.27 18.77-4.75 3.21-3 1.67-9.25.31-14.79a34.37 34.37 0 01-1.31-7.32 17.94 17.94 0 01.12-2.35 11 11 0 011.54-5.09 10.61 10.61 0 013.11-2.83c.56-.37 1.13-.72 1.7-1.06a27.2 27.2 0 003.19-2.14l.21-.16c1.41-1.15 2.42-2 2.67-3.64a.5.5 0 01.69-.38.58.58 0 00.44 0 3.41 3.41 0 001.46-1.76 3.5 3.5 0 00-.25-2.88c-1.29-2.55-5-4.65-7.12-5.26a17 17 0 00-4.76-.75z" fill="#231f20"/><path d="M120.9 93.57s-2.75 1.55-4.08-1.29" fill="#fff"/><path d="M119.24 94.49a3 3 0 01-.93-.14 3.25 3.25 0 01-1.94-1.85.5.5 0 11.91-.43 2.3 2.3 0 001.32 1.33 2.94 2.94 0 002.05-.27.5.5 0 01.68.2.48.48 0 01-.19.67 4.15 4.15 0 01-1.9.49zM106.55 86.64a.3.3 0 01-.13 0 .5.5 0 01-.35-.61c.54-1.87.94-1.9 1.18-1.92s11.7-1.43 17.66-2.16a.5.5 0 01.56.43.51.51 0 01-.44.56c-1.68.21-15.8 2-17.54 2.15a6.16 6.16 0 00-.45 1.21.51.51 0 01-.49.34zm.79-1.55z" fill="#231f20"/><path d="M114.11 86.56a4.76 4.76 0 00-.88-2.42 6.88 6.88 0 00-1.2-1.62 2.28 2.28 0 00-1.84-.64 2.13 2.13 0 00-1.41 1 4.19 4.19 0 00-.5 1.7 7.47 7.47 0 003.18 6.74l-.18-.22" fill="#fff"/><path d="M111.46 91.84a.51.51 0 01-.28-.09 8 8 0 01-3.39-7.19 4.43 4.43 0 01.57-1.92 2.56 2.56 0 011.74-1.25 2.76 2.76 0 012.27.76 7.2 7.2 0 011.29 1.74 5.2 5.2 0 011 2.68.53.53 0 01-.51.49.5.5 0 01-.49-.51 4.27 4.27 0 00-.81-2.15 6.44 6.44 0 00-1.1-1.51 1.82 1.82 0 00-1.43-.52 1.63 1.63 0 00-1.06.79 3.5 3.5 0 00-.43 1.49 7 7 0 002.56 6 .46.46 0 01.32.17l.18.21a.5.5 0 010 .66.52.52 0 01-.43.15z" fill="#231f20"/><ellipse cx="119.93" cy="81.85" rx=".49" ry="1.24" transform="rotate(-.9 120.32 81.799)" fill="#231f20"/><path d="M86.35 167.75a.44.44 0 01-.45-.42c-.87-11.69.87-43 .89-43.31a.45.45 0 01.48-.43.47.47 0 01.43.49c0 .31-1.76 31.55-.89 43.18a.46.46 0 01-.42.49zM90.56 168.74a.46.46 0 010-.91l40-2a.45.45 0 01.48.44.47.47 0 01-.44.48l-40 2z" fill="#231f20"/></g></svg>