<svg xmlns="http://www.w3.org/2000/svg" width="512" height="512"><g fill="#01a479"><circle xmlns="http://www.w3.org/2000/svg" cx="65.079" cy="37.805" r="10.102" data-original="#000000"/><circle xmlns="http://www.w3.org/2000/svg" cx="106.496" cy="37.805" r="10.102" data-original="#000000"/><circle xmlns="http://www.w3.org/2000/svg" cx="147.913" cy="37.805" r="10.102" data-original="#000000"/><path xmlns="http://www.w3.org/2000/svg" d="M357.22 0H43.663c-15.164 0-27.5 12.336-27.5 27.5v345.125a7.5 7.5 0 0015 0V75.61H369.72v76.89a7.5 7.5 0 0015 0v-125c0-15.164-12.337-27.5-27.5-27.5zM31.163 60.61V27.5c0-6.893 5.607-12.5 12.5-12.5H357.22c6.893 0 12.5 5.607 12.5 12.5v33.11zM377.22 180.021a7.5 7.5 0 00-7.5 7.5V484.5c0 6.893-5.607 12.5-12.5 12.5H43.663c-6.893 0-12.5-5.607-12.5-12.5v-76.875a7.5 7.5 0 00-15 0V484.5c0 15.164 12.336 27.5 27.5 27.5H357.22c15.164 0 27.5-12.336 27.5-27.5V187.521a7.5 7.5 0 00-7.5-7.5z" data-original="#000000"/><path xmlns="http://www.w3.org/2000/svg" d="M296.407 117.026a7.5 7.5 0 000-15H104.476a7.5 7.5 0 000 15zM296.407 194.961H144.882a7.5 7.5 0 000 15h151.524a7.5 7.5 0 00.001-15zM144.882 250.368H254.99a7.5 7.5 0 000-15H144.882a7.5 7.5 0 000 15zM76.772 149.933a7.5 7.5 0 007.5 7.5H316.61a7.5 7.5 0 000-15H84.272a7.5 7.5 0 00-7.5 7.5zM55.559 202.461v40.406a7.5 7.5 0 007.5 7.5h40.406a7.5 7.5 0 007.5-7.5v-40.406a7.5 7.5 0 00-7.5-7.5H63.059a7.5 7.5 0 00-7.5 7.5zm15 7.5h25.406v25.406H70.559zM296.407 295.978H144.882a7.5 7.5 0 000 15h151.524a7.5 7.5 0 00.001-15zM144.882 351.384H254.99a7.5 7.5 0 000-15H144.882a7.5 7.5 0 000 15zM55.559 343.884a7.5 7.5 0 007.5 7.5h40.406a7.5 7.5 0 007.5-7.5v-40.407a7.5 7.5 0 00-7.5-7.5H63.059a7.5 7.5 0 00-7.5 7.5zm15-32.906h25.406v25.407H70.559zM303.907 404.494a7.5 7.5 0 00-7.5-7.5H144.882a7.5 7.5 0 000 15h151.524a7.5 7.5 0 007.501-7.5zM144.882 437.4a7.5 7.5 0 000 15H254.99a7.5 7.5 0 000-15zM55.559 444.9a7.5 7.5 0 007.5 7.5h40.406a7.5 7.5 0 007.5-7.5v-40.406a7.5 7.5 0 00-7.5-7.5H63.059a7.5 7.5 0 00-7.5 7.5zm15-32.906h25.406V437.4H70.559zM488.337 159.605h-1.591v-40.988c0-9.706-7.896-17.602-17.602-17.602H448.94c-9.706 0-17.602 7.896-17.602 17.602v40.988h-1.591a7.5 7.5 0 00-7.5 7.5v302.039a7.5 7.5 0 001.725 4.785l29.294 35.355a7.5 7.5 0 0011.55 0l29.295-35.355a7.498 7.498 0 001.725-4.785V367.542a7.5 7.5 0 00-15 0v98.899l-21.795 26.304-21.794-26.304V311.988h43.589V332.5a7.5 7.5 0 0015 0V167.105a7.499 7.499 0 00-7.499-7.5zm-51.089 15h14.294v61.191a7.5 7.5 0 0015 0v-61.191h14.295v92.078h-43.589zm9.091-55.987a2.605 2.605 0 012.602-2.602h20.204a2.605 2.605 0 012.602 2.602v40.988H446.34v-40.988zm-9.091 178.37v-15.305h43.589v15.305z" data-original="#000000"/></g></svg>