<svg data-name="Layer 1" xmlns="http://www.w3.org/2000/svg" width="699.247" height="386.754"><path d="M445 331.386H60a8.51 8.51 0 01-8.5-8.5V98.754a8.51 8.51 0 018.5-8.5h385a8.51 8.51 0 018.5 8.5v224.132a8.51 8.51 0 01-8.5 8.5z" fill="#e6e6e6"/><path d="M469 362.754H36v-286.5a9.51 9.51 0 019.5-9.5h414a9.51 9.51 0 019.5 9.5zm-431-2h429v-284.5a7.508 7.508 0 00-7.5-7.5h-414a7.508 7.508 0 00-7.5 7.5z" fill="#ccc"/><circle cx="252.5" cy="79.254" r="4" fill="#e6e6e6"/><path d="M349 283.82H156a8.51 8.51 0 01-8.5-8.5v-129a8.51 8.51 0 018.5-8.5h193a8.51 8.51 0 018.5 8.5v129a8.51 8.51 0 01-8.5 8.5z" fill="#fff"/><path d="M187.75 192.82a8 8 0 118-8 8.01 8.01 0 01-8 8z" fill="#ccc"/><path d="M187.75 218.82a8 8 0 118-8 8.01 8.01 0 01-8 8zM187.75 244.82a8 8 0 118-8 8.01 8.01 0 01-8 8z" fill="#01a479"/><path d="M225.75 178.32a6.5 6.5 0 000 13h93a6.5 6.5 0 000-13z" fill="#ccc"/><path d="M225.75 204.32a6.5 6.5 0 000 13h93a6.5 6.5 0 000-13zM225.75 230.32a6.5 6.5 0 000 13h93a6.5 6.5 0 000-13z" fill="#01a479"/><path fill="#ffb8b8" d="M663.288 375.328l-12.258-.206-5.039-47.379 18.092.304-.795 47.281z"/><path d="M642.333 371.472l23.64.398-.25 14.884-38.525-.647a14.887 14.887 0 0115.135-14.635z" fill="#2f2e41"/><path fill="#ffb8b8" d="M541.641 375.216l-11.364-4.6 12.335-46.022 16.772 6.79-17.743 43.832z"/><path d="M523.474 364.083l21.916 8.872-5.586 13.8-35.715-14.458a14.887 14.887 0 0119.385-8.214zM582.614 197.926l-36 95-15 66 16 8 73-142 27 142.5h16s7.316-169.015-3.342-182.258z" fill="#2f2e41"/><circle cx="537.984" cy="273.766" r="28.172" fill="#01a479"/><path fill="#fff" d="M535.636 286.223l-8.941-11.497 5.2-4.044 4.233 5.443 14.302-15.097 4.783 4.531-19.577 20.664z"/><circle cx="600.114" cy="33.426" r="33" fill="#2f2e41"/><path d="M554.06 257.984a10.743 10.743 0 003.842-16.018l25.033-138.54-23.36-.308-17.384 136.998a10.8 10.8 0 0011.87 17.868zM697.51 230.925a10.745 10.745 0 00-5.167-15.94l-44.7-108.58a19.782 19.782 0 00-28.736-9.27l59.206 124.76a10.8 10.8 0 0019.396 9.03z" fill="#ffb8b8"/><circle cx="600.768" cy="45.859" r="24.561" fill="#ffb8b8"/><path d="M570.902 84.693c14.166-5.898 38.624-11.726 65.781.977a24.872 24.872 0 0113.311 15.388l11.62 38.868-15 15 14 31s-53.5 32.5-77.5 12.5l-14.5-51.5-19-5 6.482-38.511a24.688 24.688 0 0114.806-18.722z" fill="#ccc"/><path d="M577.796 27.695a73.041 73.041 0 0031.6 10.412l-3.331-3.99a24.478 24.478 0 007.56 1.5 8.28 8.28 0 006.75-3.158 7.702 7.702 0 00.516-7.115 14.589 14.589 0 00-4.59-5.739 27.323 27.323 0 00-25.43-4.545 16.33 16.33 0 00-7.596 4.872 9.236 9.236 0 00-1.862 8.561M573.202 5.841c-.399-4.2-5.544-6.786-9.568-5.517s-6.665 5.32-7.464 9.463A13.575 13.575 0 00558 20.035a9.34 9.34 0 009.258 4.01c3.98-.847 6.737-4.733 7.525-8.725s.006-8.107-.776-12.1M641.202 7.841c-.399-4.2-5.544-6.786-9.568-5.517s-6.665 5.32-7.464 9.463A13.575 13.575 0 00626 22.035a9.34 9.34 0 009.258 4.01c3.98-.847 6.737-4.733 7.525-8.725s.006-8.107-.776-12.1" fill="#2f2e41"/><path d="M476.5 349.754H459v-3a4 4 0 00-4-4h-21a4 4 0 00-4 4v3h-3v-3a4 4 0 00-4-4h-21a4 4 0 00-4 4v3h-3v-3a4 4 0 00-4-4h-21a4 4 0 00-4 4v3h-3v-3a4 4 0 00-4-4h-21a4 4 0 00-4 4v3h-3v-3a4 4 0 00-4-4h-21a4 4 0 00-4 4v3h-3v-3a4 4 0 00-4-4h-21a4 4 0 00-4 4v3h-3v-3a4 4 0 00-4-4h-21a4 4 0 00-4 4v3h-3v-3a4 4 0 00-4-4h-21a4 4 0 00-4 4v3h-3v-3a4 4 0 00-4-4h-21a4 4 0 00-4 4v3h-3v-3a4 4 0 00-4-4h-21a4 4 0 00-4 4v3h-3v-3a4 4 0 00-4-4h-21a4 4 0 00-4 4v3h-3v-3a4 4 0 00-4-4H82a4 4 0 00-4 4v3h-3v-3a4 4 0 00-4-4H50a4 4 0 00-4 4v3H28.5a28.5 28.5 0 00-28.5 28.5 8.5 8.5 0 008.5 8.5h488a8.5 8.5 0 008.5-8.5 28.5 28.5 0 00-28.5-28.5z" fill="#3f3d56"/></svg>