<svg data-name="Layer 1" xmlns="http://www.w3.org/2000/svg" viewBox="0 0 400 300"><ellipse cx="202.86" cy="258.95" rx="170.5" ry="13.38" fill="#e6e6e6" opacity=".45"/><path d="M108.06 244s.06 3.94 3.13 5.3 2.84 4.74-.28 4.57-9.22-6.37-9.22-6.37l2.31-5.7z" fill="#01a479"/><path d="M96 202.62s18.35.81 16.35 13.26-10.1 25.92-10.1 25.92l7.06 2.95s14-16.08 15.37-35.92-26.76-15.41-28.68-6.21z" fill="#24285b"/><path d="M96 202.62s18.35.81 16.35 13.26-10.1 25.92-10.1 25.92l7.06 2.95s14-16.08 15.37-35.92-26.76-15.41-28.68-6.21z" opacity=".08"/><path d="M83.31 127.32c-6.66-5.15-16.68-2.51-19.47 5.44a12 12 0 00-.07 7.65c3.17 10.17 8.17 24 26.83 29s34.34 8.74 35.84 2.19-2.67-14.88-18-20c-10.91-3.7-16.66-17.74-25.13-24.28z" fill="#01a479"/><path d="M83.31 127.32c-6.66-5.15-16.68-2.51-19.47 5.44a12 12 0 00-.07 7.65c3.17 10.17 8.17 24 26.83 29s34.34 8.74 35.84 2.19-2.67-14.88-18-20c-10.91-3.7-16.66-17.74-25.13-24.28z" opacity=".08"/><path d="M122.81 244.86s0 3.94 3.13 5.3 2.84 4.74-.29 4.57-9.21-6.37-9.21-6.37l2.26-5.71z" fill="#01a479"/><path d="M315.75 177.77l-31.22-23.07s-9.81-7-11.4-1 9.7 7 9.7 7 19.1 30.55 28.68 26.91 4.24-9.84 4.24-9.84z" fill="#f4a28c"/><path d="M315.75 177.77l-31.22-23.07s-9.81-7-11.4-1 9.7 7 9.7 7 19.1 30.55 28.68 26.91 4.24-9.84 4.24-9.84z" opacity=".08"/><path fill="#f4a28c" d="M286.17 214.56l27.82 30.29 3.84-1.66-20.99-37.29-10.67 8.66z"/><path d="M313.48 244.08s0 3.77-2.5 5.48-.22 5.32 3.32 2a26.07 26.07 0 003-3.3 7.82 7.82 0 013.3-2.36 1.29 1.29 0 00.75-1.27c.11-2.1-4.8-3-4.8-3z" fill="#01a479"/><path d="M304.19 187.54s-38.85-.29-33.22 22.71A45.77 45.77 0 00295.36 241l14-25.67-7.7-22.33z" fill="#24285b"/><path d="M304.19 187.54s-38.85-.29-33.22 22.71A45.77 45.77 0 00295.36 241l14-25.67-7.7-22.33z" opacity=".08"/><path fill="#c9c9c9" d="M321.93 208.17h4.14v35.71h-4.14z"/><path d="M337.72 121.61s3.81-20.42 22.14-11.18c13.51 6.81.31 61.12-7.56 89.21a22.89 22.89 0 01-22.05 16.69H304.4c-7.91 0-9.32-11.27-1.66-13.22l.45-.11c4.46-1 9.69-1.84 14.45-2.47A17.67 17.67 0 00333 184.36z" fill="#e6e6e6"/><path d="M319.35 102.22a25.78 25.78 0 00.85 6.78 2.07 2.07 0 002.63 1.29 4.57 4.57 0 003.29-3.7l.95-3.67a3.69 3.69 0 00-1.92-3.81c-2.44-1.48-5.9.61-5.8 3.11z" fill="#f4a28c"/><path fill="#f4a28c" d="M327.68 105.09l1.16 13.42-7.44.12 2.09-9.57 4.19-3.97zM319.46 104.81l-1 1.67a.66.66 0 00.49 1l1.59.17z"/><path d="M323.43 109.33a5 5 0 002.4-1.19s.53 2.9-3 3.93z" fill="#ce8172" opacity=".31"/><path fill="#f4a28c" d="M279.64 208.17v41.12l3.96 1.37 9.76-41.66-13.72-.83z"/><path d="M279.79 248.38s-2.59 2.75-5.55 2.35-3.77 3.77 1.06 3.75a26.82 26.82 0 004.48-.38 7.81 7.81 0 014 .49 1.31 1.31 0 001.42-.42c1.49-1.48-1.53-5.45-1.53-5.45z" fill="#01a479"/><path d="M327.4 105.13s-.1-1.58 1.1-1.55 1.34 2.31-.26 2.65z" fill="#f4a28c"/><path d="M320.19 102a12.3 12.3 0 003.95 0s.84 4.56 4.46 5.71c0 0 3.43-6.82-.78-9.46-3.52-2.21-6.15-4.17-9.05-1.54a3.08 3.08 0 001.42 5.29z" fill="#24285b"/><circle cx="330.17" cy="96.27" r="4.09" fill="#24285b"/><path d="M324.07 104.36s.18-1.83 1.64-1.54 1.44 2.42-.4 3.26z" fill="#f4a28c"/><path d="M320.88 120.76l7.27-2.09s19.41 2.09 19.21 17.66c-.15 11.54-13.62 54.67-13.62 54.67h-29.55v-15.19a44.31 44.31 0 00-4.91-20.68c-4.57-8.66-6.96-23.73 21.6-34.37z" fill="#01a479"/><path d="M315.38 139.27c1.19-13.68 20.55-15.38 24.29-2.17 2 7 3 17.1.7 31.31-5.51 34.26-71.51 12-71.51 12v-8.12s39 7.34 48.37-2.66c5.51-5.86-2.81-19.29-1.85-30.36z" fill="#01a479"/><path d="M304.19 183.9l29.55 7.1s1.43 12.75-8.85 13.75-41.78-2.5-29.53 36.25H271s-14.81-41.64 21.39-50c4.39-1 11.75-1.84 11.82-6.35z" fill="#24285b"/><path d="M172 108.51a42.53 42.53 0 00-20.47 34.22c-1.26 22.7.8 47.05 29.57 44.32s-9.1-78.54-9.1-78.54z" fill="#01a479"/><path d="M172 108.51a42.53 42.53 0 00-20.47 34.22c-1.26 22.7.8 47.05 29.57 44.32s-9.1-78.54-9.1-78.54z" opacity=".08"/><path d="M189.45 84.77a30 30 0 000 8 2.41 2.41 0 002.86 1.86 5.32 5.32 0 004.33-3.81l1.62-4.13a4.3 4.3 0 00-1.65-4.69c-2.61-2.08-6.92-.14-7.16 2.77z" fill="#f4a28c"/><path fill="#f4a28c" d="M198.01 87.41l1.78 15.61-8.67.37 2.18-11.51 4.71-4.47zM189.21 87.79l-1.41 1.78a.77.77 0 00.43 1.23l1.81.42z"/><path d="M192.72 94.38a5.62 5.62 0 002.87-1.55s-.25 2.87-3.52 5.56z" fill="#ce8172" opacity=".31"/><path d="M181.49 104.76s37.19-8.33 50.51-.86-12.82 77.85-12.82 77.85l-41.07-1.3s-35.93-68.54 3.38-75.69zM189.8 247.84s-1.92 3.45-5.27 3.19-4.74 2.83-1.91 4.16 11.13-1.25 11.13-1.25l.71-6.1zM219.88 247.08s1.36 3.7 4.72 3.95 4.25 3.53 1.25 4.41S215 252.5 215 252.5l.23-6.13z" fill="#01a479"/><path d="M213.78 110.43S202 118 208 135.42s6.95 29.86-7.16 25.5-13.08-23.83-13.08-23.83l-14.39 2.23-1.37 27.62 6.11 13.51 35.67-2.24 14.54-3.71 5.42-18.22-9.87-30.87z" opacity=".08"/><path d="M178.11 180.45l10.51 67.39h6.86s-6.36-50.68 4.75-56.8 13.29 56.8 13.29 56.8l7.29-.58-.09-69.48z" fill="#24285b"/><path d="M221 101.69s23.14-3.9 23.14 32.51-5.56 68.81-59 36.34l4.06-6.2s28.8 12.66 34.95 1.54-24.03-58.02-3.15-64.19z" fill="#01a479"/><path d="M221 101.69s23.14-3.9 23.14 32.51-5.56 68.81-59 36.34l4.06-6.2s28.8 12.66 34.95 1.54-24.03-58.02-3.15-64.19z" fill="#fff" opacity=".46"/><path fill="#ffd200" d="M159.147 138.999l19.59-4.928 7.374 29.317-19.59 4.927z"/><path d="M189.27 164.34s-9.64-7.64-11.16-1.8 8.49 5.87 8.49 5.87z" fill="#f4a28c"/><ellipse cx="236.42" cy="50.53" rx="23.71" ry="19.73" fill="#24285b"/><path fill="#24285b" d="M219.88 59.54l-8.44 14.36 13.9-10.31-5.46-4.05z"/><circle cx="227.08" cy="50.53" r="2.93" fill="#fff"/><circle cx="236.47" cy="50.53" r="2.93" fill="#fff"/><circle cx="245.76" cy="50.53" r="2.93" fill="#fff"/><path d="M190.38 85a9.36 9.36 0 001.08.29 7.43 7.43 0 011.51.5l.39.17a1.53 1.53 0 01.92 1.42c0 1.53.48 4.34 4.18 4.66 0 0 3.76-5.64.75-10a9.94 9.94 0 00-7.58-4c-4.03-.14-5.08 5.67-1.25 6.96z" fill="#24285b"/><path fill="#c9c9c9" d="M85.88 243.87h-4.14v-35.71h4.14z"/><path d="M70.09 121.61S66.28 101.19 48 110.43c-13.51 6.81-.31 61.12 7.56 89.21a22.89 22.89 0 0022.05 16.69h25.85c7.91 0 9.32-11.27 1.66-13.22l-.45-.11c-4.46-1-9.69-1.84-14.45-2.47a17.67 17.67 0 01-15.33-16.17z" fill="#e6e6e6"/><path fill="#c9c9c9" d="M85.88 243.88l14.82 11.69h-33l14.03-11.69h4.15z"/><path d="M83.47 94.88a29.66 29.66 0 01.55 7.84 2.37 2.37 0 01-2.68 2 5.27 5.27 0 01-4.54-3.44l-1.89-3.93a4.24 4.24 0 011.33-4.73c2.42-2.17 6.76-.62 7.23 2.26z" fill="#f4a28c"/><path fill="#f4a28c" d="M75.25 98.1l-.61 15.48 8.55-.27-2.98-11.15-4.96-4.06z"/><path d="M82.33 95.22a19.06 19.06 0 01-4.33.18 3.93 3.93 0 01.51 4.29 3.21 3.21 0 01-3.7 1.73l-.63-6a4.8 4.8 0 011.91-4.55A17.59 17.59 0 0178 89.61c1.65-.91 4.34 0 5.75-1.41a1.15 1.15 0 011.89.53c.49 1.81.5 4.73-1.86 6a4.61 4.61 0 01-1.45.49z" fill="#24285b"/><path d="M79 99.49s-.25-1.8-1.59-1.5-1 2.91.88 2.93zM83.93 97.83l1.52 1.65a.76.76 0 01-.33 1.24l-1.75.55z" fill="#f4a28c"/><path d="M81 104.57a5.6 5.6 0 01-3-1.31s.46 2.8 3.88 5.21z" fill="#ce8172" opacity=".31"/><path d="M74.64 113.58l8.55-.27s18.77 4 23.37 27.83S98 186.28 98 186.28l-27 .24s-35.8-68.91 3.64-72.94z" fill="#01a479"/><path d="M71 186.52s.36 15.48 10.84 16.81 34.48-6.73 37.48 6.34-3 33.85-3 33.85l7.31 2s16.42-31.42 6.75-46.32-32.35-13-32.35-13z" fill="#24285b"/><path d="M68 130.76s-6.86 19.17 5 29.58S91.67 172 85.65 186.52l12.35-.24s6.49-11.8 7.8-20.16S68 130.76 68 130.76z" opacity=".08"/><path d="M88.14 121.33c-6.66-5.15-16.68-2.51-19.47 5.44a12 12 0 00-.07 7.65c3.17 10.17 8.17 24 26.84 29s34.33 8.74 35.83 2.2-2.67-14.88-18-20c-10.9-3.71-16.66-17.75-25.13-24.29z" fill="#01a479"/><path d="M88.14 121.33c-6.66-5.15-16.68-2.51-19.47 5.44a12 12 0 00-.07 7.65c3.17 10.17 8.17 24 26.84 29s34.33 8.74 35.83 2.2-2.67-14.88-18-20c-10.9-3.71-16.66-17.75-25.13-24.29z" fill="#fff" opacity=".46"/><path d="M110.13 144.18s5.17-3.82 9.17 0-3.92 9.31-9.17 0z" fill="#f4a28c"/><path d="M318.83 131.62s-14.41 5.21-9.47 22.71-5.18 20.17-5.18 20.17l13.05 12.76 16.51 3.74 5.17-17.41z" opacity=".08"/><path fill="#a5a5a5" d="M128.56 188.74h6.72V256h-6.72zM267.61 188.74h6.72V256h-6.72z"/><path fill="#e6e6e6" d="M121.78 178.2h158.76v17.71H121.78z"/><path d="M194.36 90a1.2 1.2 0 01-.17-1.18c.27-.65.8-1.5 1.67-1.37s1.06 1.56.45 2.51a1.2 1.2 0 01-1.95 0zM315.38 139.27c1.19-13.68 20.55-15.38 24.29-2.17 2 7 3 17.1.7 31.31-5.51 34.26-71.51 12-71.51 12v-8.12s39 7.34 48.37-2.66c5.51-5.86-2.81-19.29-1.85-30.36z" fill="#f4a28c"/><path fill="#ffd200" d="M233.78 178.2l-8.55-31.87 4.15-.89 8.06 27.89 23.33 2v2.87h-26.99z"/><path d="M268.86 172.33s-8.56-4.16-11.25-.83.42 8.33 11.25 8.95z" fill="#f4a28c"/><path fill="#01a479" d="M268.155 170.724l3.85.384-1.08 10.827-3.85-.385z"/><path fill="#c9c9c9" d="M321.93 243.88l-14.82 11.69h33l-14.03-11.69h-4.15z"/><path d="M317.23 122.21a4.76 4.76 0 012.77-5.38c3.69-1.83 12.44-4 13.74 3.14 0 .03-8.13 5.29-16.51 2.24z" fill="#01a479"/><path d="M317.23 122.21a4.76 4.76 0 012.77-5.38c3.69-1.83 12.44-4 13.74 3.14 0 .03-8.13 5.29-16.51 2.24z" fill="#fff" opacity=".46"/></svg>