<svg xmlns="http://www.w3.org/2000/svg" viewBox="0 0 500 500"><path d="M106.58 110.4a3 3 0 010-3.1c.16-.26.31-.52.45-.79s.29-.55.42-.82A2.91 2.91 0 01110 104l3.8-.12-.38-12.39-3.8.12A2.94 2.94 0 01107 90c-.3-.54-.62-1.06-1-1.57a2.91 2.91 0 01-.2-3.07l1.79-3.36-10.92-5.83-1.79 3.35a3 3 0 01-2.68 1.54 14.14 14.14 0 00-1.84.06 3 3 0 01-2.77-1.37l-2-3.23-10.54 6.53 2 3.25a2.94 2.94 0 010 3.08c-.16.26-.31.52-.45.79s-.28.54-.41.82a2.94 2.94 0 01-2.57 1.72l-3.8.12.38 12.38 3.79-.12a3 3 0 012.68 1.56 17 17 0 001 1.57 2.93 2.93 0 01.2 3.08L76 114.64l11 5.86 1.8-3.34a3 3 0 012.67-1.54 14.24 14.24 0 001.85-.06 3 3 0 012.77 1.37l2 3.23 10.53-6.54zM87 107.29a10.15 10.15 0 1113.74-4.15A10.16 10.16 0 0187 107.29zM84 185a2.08 2.08 0 01-1-1.92v-.63-.65a2.07 2.07 0 011-1.91l2.31-1.33L82 171l-2.31 1.33a2.07 2.07 0 01-2.16-.07 10.5 10.5 0 00-1.12-.65 2.08 2.08 0 01-1.14-1.84v-2.65h-8.73v2.65a2.08 2.08 0 01-1.14 1.84 9.6 9.6 0 00-1.12.65 2.09 2.09 0 01-2.17.07L59.8 171l-4.33 7.52 2.31 1.34a2.05 2.05 0 011 1.91v1.27a2.08 2.08 0 01-1 1.92l-2.31 1.33 4.33 7.52 2.3-1.33a2.09 2.09 0 012.17.07 10.5 10.5 0 001.12.65 2.08 2.08 0 011.15 1.84v2.66h8.68v-2.66a2.08 2.08 0 011.14-1.84 10.63 10.63 0 001.13-.65 2.07 2.07 0 012.16-.07l2.3 1.33 4.34-7.52zm-13.1 4.56a7.11 7.11 0 117.1-7.14 7.11 7.11 0 01-7.12 7.11zM442.23 231.47a2.07 2.07 0 01-1-1.92v-.64-.64a2.05 2.05 0 011-1.91l2.3-1.33-4.33-7.52-2.31 1.33a2.07 2.07 0 01-2.17-.08c-.36-.23-.73-.45-1.12-.65a2 2 0 01-1.13-1.83v-2.66h-8.69v2.66a2.06 2.06 0 01-1.14 1.83c-.38.2-.76.42-1.12.65a2.05 2.05 0 01-2.16.08l-2.31-1.33-4.34 7.49 2.32 1.34a2.06 2.06 0 011 1.9v1.28a2.07 2.07 0 01-1 1.92l-2.31 1.33 4.34 7.52 2.3-1.33a2.05 2.05 0 012.16.07 12.7 12.7 0 001.13.65 2.07 2.07 0 011.14 1.83v2.66h8.69v-2.66a2.05 2.05 0 011.14-1.83 12.53 12.53 0 001.12-.65 2.07 2.07 0 012.17-.07l2.3 1.33 4.33-7.52zm-13.1 4.53a7.12 7.12 0 117.1-7.12 7.12 7.12 0 01-7.1 7.12zM441.28 76.87H414.8V65.68h26.48zM456.05 62.76h-26.48V51.57h26.48zM426.5 62.76h-26.48V51.57h26.48zM85.2 62.76H58.72V51.57H85.2zM85.2 341.93H58.72v-11.19H85.2zM70.43 327.83H43.95v-11.19h26.48zM456.05 341.92h-26.48v-11.19h26.48zM385.75 171.45h26.48v11.19h-26.48zM370.98 185.56h26.48v11.19h-26.48z" fill="#ebebeb"/><path fill="#dbdbdb" d="M261.57 86.92h47.79v57.97h-47.79z"/><path fill="#fff" d="M267.03 92.21h36.87v47.39h-36.87z"/><path fill="#c7c7c7" d="M267.03 92.21h1.44v47.39h-1.44zM309.35 86.92h1.44v57.97h-1.44z"/><path fill="#dbdbdb" d="M294.98 129.06h-8.69v-25.9h8.69z"/><path d="M299.27 111.93h-24.18V98.24h24.18zm-23.18-1h22.18V99.24h-22.18z" fill="#ebebeb"/><path fill="#dbdbdb" d="M402.85 86.92h47.79v57.97h-47.79z"/><path fill="#fff" d="M408.31 92.21h36.87v47.39h-36.87z"/><path fill="#c7c7c7" d="M408.31 92.21h1.44v47.39h-1.44zM450.64 86.92h1.44v57.97h-1.44z"/><path fill="#dbdbdb" d="M420.66 103.17h8.69v25.9h-8.69z"/><path d="M440.55 111.93h-24.18V98.24h24.18zm-23.18-1h22.18V99.24h-22.18z" fill="#ebebeb"/><path fill="#dbdbdb" d="M332.21 86.92H380v57.97h-47.79z"/><path fill="#fff" d="M337.67 92.21h36.87v47.39h-36.87z"/><path fill="#c7c7c7" d="M337.67 92.21h1.44v47.39h-1.44zM380 86.92h1.44v57.97H380z"/><path fill="#ebebeb" d="M352.53 104.46h7.45v18.83h-7.45z"/><path d="M368.32 129.38h-21v-14h21zm-20-1h19v-12h-19z" fill="#dbdbdb"/><g><ellipse cx="250" cy="435.48" rx="198.33" ry="26.47" fill="#ebebeb"/></g><g><path fill="#263238" d="M39.97 382.9l52.51-.25 52.51-.08L250 382.4l105.01.16 52.51.09 52.51.25-52.51.24-52.51.09-105.01.17-105.01-.17-52.51-.09-52.51-.24z"/></g><g><path d="M404.29 290.37a74.38 74.38 0 011.71-12.25 27.25 27.25 0 014.37-10.32 13.12 13.12 0 018.58-5.35c3.35-.41 6.51 1.09 9 3.21 3.11 2.62 5.49 6.09 7.73 9.45a116.37 116.37 0 016.68 11.69c.07.13-.14.25-.2.11a73.44 73.44 0 00-6-9.78 62.39 62.39 0 00-6.88-8.33c-2.31-2.25-5.24-4.35-8.58-4.46a10.55 10.55 0 00-8.39 4.32c-2.23 2.87-3.37 6.44-4.22 9.93a73.75 73.75 0 00-1.73 11.65c-.65 8.07-.83 16.18-1 24.27-.11 4.57-.17 9.15-.21 13.73l-.06 6.95a42.9 42.9 0 01-.26 6.71c-.08.45-.82.41-.89 0a39.69 39.69 0 01-.31-6.36q0-3.28-.08-6.59-.06-6.4-.05-12.82c.1-8.6.2-17.21.79-25.76z" fill="#263238"/><path d="M415.81 284.28c.43-2.28 1.2-5.25 2.5-7 2.33-3.18 4.85-1.8 2.52 1.72a20.94 20.94 0 00-3.27 8.67s3.92 5.6 8.66 8.36c-.21-2.15-.81-5.47-.39-8.67.91-6.92 5.1-6.53 4.06-1a48.11 48.11 0 00-.95 11.13 24.44 24.44 0 005.06 2.48c-.27-.81-.56-1.77-.87-2.94-1.69-6.21 2.45-8.15 2.59-4.65a48.74 48.74 0 001.61 8.81c2.27.76 4.15 1.28 5.3 1.69a19.38 19.38 0 017.77 5.3 24.52 24.52 0 005.29-6.84c-1.45-1.25-3.73-3.1-6.91-5.34-5.95-4.2-3.88-9.51.84-6.21 3.41 2.38 6.05 6.79 7.25 9.06a37.09 37.09 0 002.7-12.4c-4.68-4.39-16.24-10.51-12.76-10.51 3.14 0 10.16 4.6 12.73 6.38a34.38 34.38 0 00-.39-3.61c-4.41-2.88-18.72-7.37-16.44-8.66 2.51-1.42 12.49 3.2 15.51 4.66a18.09 18.09 0 00-2.64-5.47c-6.09-8.15-17.06-11-21.85-9.41-3.39 1.1-2.4 9.7-3.13 9.41-13.6-5.52-19.79-1.65-14.79 15.04zm33.36-.94c1-1.16 5.43 2.27 4.14 4.14s-5.38-2.64-4.14-4.14zM425.83 276c1.18.75-.56 5.09-2.37 3.78-1.54-1.11 1.19-4.52 2.37-3.78z" fill="#01a479"/><path d="M427.62 277.34c.61-1.21 1.25-2.42 1.95-3.59a21.47 21.47 0 012.25-3.26c-.19-.24-.38-.48-.58-.71s.06-.23.14-.14c.23.26.45.53.67.79a.19.19 0 01.09.11c.84 1 1.64 2 2.39 3.11a35.69 35.69 0 014 1.14c1.34.45 2.66.91 4 1.46.13.06.07.28-.07.22-1.28-.57-2.59-1.12-3.92-1.57s-2.54-.75-3.82-1.11c.42.59.82 1.18 1.22 1.78a47 47 0 017 2.85c2.36 1.12 4.63 2.42 6.89 3.73a.12.12 0 01-.12.2 72.93 72.93 0 00-6.86-3.55c-2.19-1-4.45-1.87-6.66-2.84 5.56 8.67 8.89 18.68 13.35 27.94.06.14-.15.25-.21.11-1.36-3.25-2.92-6.41-4.4-9.61-1.33-2.87-2.63-5.75-4-8.62q-.58-1.26-1.2-2.52c.24 4.64.14 9.35.9 13.93a.12.12 0 11-.23 0c-.32-4.95-1.19-9.82-1.15-14.8v-.06a93.21 93.21 0 00-3-5.58c-1.84 4.33-3.78 8.74-4.64 13.39 0 .14-.26.08-.22-.07 1.26-4.66 2.42-9.33 4.66-13.65a52 52 0 00-3.91-5.64c-.62 1.15-1.41 2.24-2.11 3.34s-1.36 2.16-2 3.27a47.43 47.43 0 00-3.47 7.35c-.05.14-.28.06-.22-.07.99-2.45 2.06-4.93 3.28-7.33zM383.81 287.89c3.56-3.58 7.71-8.27 13.22-8.26 5.32 0 9.24 4.29 11.48 8.71 2.36 4.62 3.2 9.85 3.87 14.94.79 6.09 1.23 12.23 1.41 18.37.09 3.41.08 6.83 0 10.24a67.41 67.41 0 01-.79 10.33c-.1.55-1 .57-1 0-.16-2.87-.05-5.75 0-8.63s0-5.66-.13-8.49c-.21-5.72-.63-11.44-1.3-17.13-.59-5-1.06-10.07-2.54-14.87-1.34-4.33-3.86-9.28-8.25-11.18-6-2.6-11.83 2.14-15.75 6.14-.15.08-.33-.06-.22-.17z" fill="#263238"/><path d="M365.61 295.88q0 1.1.12 2.16a12.84 12.84 0 015.85-2.42c5.06-.54 4.74 3.31 1.35 3.47a19.18 19.18 0 00-6.94 1.39c.82 6.68 2.66 12.06 2.94 12.13a98.84 98.84 0 0013.37-1.69c-1.26-2.68-4.12-6.25-2.66-6.53s3.06 2.88 3.87 6.29a64.93 64.93 0 009.72-2.68c-2.22-1.93-5.66-4.33-4.35-5.35s4.05 2.36 5.68 4.81a19.58 19.58 0 004.21-2.34c-3-4.41-10.31-5.31-9.36-8.49s7.8 1.23 10.87 7.13c3.6-3.74 4.66-9 4.28-13.56-3.14-.36-9.19.3-8.75-2s4.81-1.82 8.38-.51a12.42 12.42 0 00-2.1-5c-3.31-4.25-13.41 1.16-13.41 1.16s1.08-10.16-2.77-11.91c-2.23-1-6.14-1-10.08 1.31 2.21.18 4.88.88 5.95 2.41 1.37 1.95-.8 3-2.17 2.11-1-.63-2.78-2.64-6-2.91a20.46 20.46 0 00-3.65 4 19.33 19.33 0 00-1.06 1.68 13.88 13.88 0 0111.83.21c4.38 2.18 1.93 6.73-1.84 5s-7.36-3.51-11.35-2.5a28.23 28.23 0 00-1.92 11.32 19.82 19.82 0 016.49-3.11c4.35-1.15 5.67 1.46.88 1.94a19.23 19.23 0 00-7.38 2.48zm5.3-7c-.3-1.41 2.79-1.82 3.3-.67.43.98-3 2.09-3.3.68zm26.43 7.81c.29-.77 2.35.11 2.17 1.07-.26 1.29-2.46-.29-2.17-1.06zm-14.59 4.95c1.5-.6 3.86 3.15 2.21 4s-3.44-3.49-2.21-3.99z" fill="#01a479"/><path d="M369.52 311.85c2.27-3.8 4.51-7.61 6.9-11.34q1.66-2.6 3.48-5.1l-.55-.13-.9-.17q-1.05-.18-2.1-.3c-.67-.06-1.33-.1-2-.11a9.53 9.53 0 00-2.13.12c-.08 0-.09-.12 0-.12.71 0 1.43-.06 2.14-.07s1.38 0 2.07.05a22.868 22.868 0 012.99.38 4.89 4.89 0 01.64.14q1.84-2.54 3.82-5a45.37 45.37 0 00-12.42-4c-.08 0-.05-.12 0-.11a42 42 0 0112.62 3.91c.72-.89 1.45-1.77 2.19-2.66s1.7-1.95 2.44-3c.05-.07.15 0 .09.07a43 43 0 00-2.88 3.53 43.37 43.37 0 014.62 3.71c1.51 1.34 3 2.72 4.42 4.14 0 .06 0 .14-.08.09-1.42-1.41-2.88-2.75-4.42-4s-3.15-2.44-4.69-3.7c-.35.47-.7.94-1.06 1.39l-.53.7a.1.1 0 010 .05l-1.76 2.31a18.79 18.79 0 011.75 3.17c.51 1.07.95 2.18 1.36 3.29a47.14 47.14 0 011.89 7.11.06.06 0 11-.11 0 41.57 41.57 0 00-2.06-7c-.44-1.16-1-2.29-1.46-3.42s-1.05-2-1.49-3.05l-1.51 2-.43.6c0 .05 0 .11-.05.11-1.56 2.17-3.05 4.4-4.49 6.66a1.94 1.94 0 01.2.49c.09.28.18.55.26.83.16.56.29 1.12.4 1.69s.17 1.07.22 1.61a14 14 0 00.14 1.84c0 .09-.13.1-.11 0a5.81 5.81 0 00-.13-1.71 17.39 17.39 0 00-.33-1.75c-.12-.52-.26-1-.41-1.55-.08-.26-.16-.51-.25-.77s-.12-.27-.16-.41c-.68 1.05-1.35 2.12-2 3.19-1.31 2.12-2.61 4.25-3.91 6.37-.12.12-.29.07-.22-.08zM404.52 341c.06-2.15.4-4.32.64-6.45s.47-4.3.7-6.45a97.91 97.91 0 011.66-12.43 18.15 18.15 0 015.06-9.31 8.29 8.29 0 015-2.36 8.5 8.5 0 015.26 1.62 18.23 18.23 0 014.43 4.67 44.27 44.27 0 013.46 5.61c0 .07-.08.12-.12.05a28.65 28.65 0 00-7.47-8.38 8.86 8.86 0 00-4.71-2 6.39 6.39 0 00-4.57 1.82A17.2 17.2 0 00409 316a87 87 0 00-1.86 11.49c-.31 2.27-.6 4.55-.9 6.83s-.49 4.58-1 6.81a.38.38 0 01-.72-.13z" fill="#263238"/><path d="M415.1 324.29a12.26 12.26 0 002.34 2.39c-.35-2.1-.78-5.83.28-7.81 1.65-3.09 3.59-1.55 2.61 1.13a21.67 21.67 0 00-1.58 7.6 33.07 33.07 0 007.14 3.37 12.25 12.25 0 01-.23-3.68c.33-3.29 2.85-3.23 2.19.2a21.82 21.82 0 00-.34 4 74.35 74.35 0 0011.13 2.51 32.33 32.33 0 004.61-8.21c-2.68-.67-8.11-.82-8-2.74.16-2.58 5.42-.59 8.5 1.28a20.82 20.82 0 00.93-6.94 34.07 34.07 0 00-7.4-1.23c-5.53-.48-5.26-3.61-1.25-3.54 3 .06 6.69 1.87 8.46 2.81-1.15-7.52-6.89-12.33-11.48-12.52-7.73-.31-4.95 9.31-4.95 9.31s-5.23-3.69-10.17-3.59-8.07 8.31-2.79 15.66zm20.64-13.9c-.17-1.08 3.28-1.34 3.46.05.2 1.56-3.28 1.05-3.46-.05zm5.55 11.28c-.07-.71 1.42-.83 1.75.06.23.58-1.69.64-1.75-.06zm-18.55.66c1.16.16 1.82 4.33-.18 4.24-1.56-.06-.81-4.38.18-4.24z" fill="#01a479"/><path d="M424.35 327c.19-.52.36-1 .52-1.57-.15.53-.28 1.07-.38 1.61a.07.07 0 11-.14-.04zM426.39 320.26c.36-1.07.76-2.12 1.18-3.17.22-.56.45-1.12.7-1.66A6.47 6.47 0 01429 314a11.71 11.71 0 01-.62-1.35s0-.07.07 0a15.5 15.5 0 011.5 2.34c.22.36.42.73.63 1.1a9.26 9.26 0 011.3.2c.47.08.93.18 1.39.28l1.38.32c.45.11.9.26 1.37.33.1 0 .06.19 0 .15a8.15 8.15 0 00-1.45-.38c-.44-.1-.89-.17-1.34-.24s-.9-.12-1.35-.16-.68-.06-1-.09c.19.33.38.65.56 1a1.09 1.09 0 00.08.15 4.67 4.67 0 011.11.13c.4.07.8.15 1.19.24.81.18 1.61.37 2.41.59 1.67.46 3.32 1 5 1.54.09 0 0 .17-.06.14a48.61 48.61 0 00-5-1.39c-.79-.18-1.58-.36-2.38-.52l-1.19-.26a7.18 7.18 0 01-.92-.2c.85 1.57 1.65 3.16 2.38 4.79 1.61 3.55 3 7.2 4.33 10.84 0 .09-.11.15-.14.06a97.49 97.49 0 00-4.6-10.6l-.94-1.88c0 .13-.06.26-.08.39-.08.43-.16.86-.23 1.29-.14.86-.29 1.72-.42 2.59a30.27 30.27 0 00-.62 5.37.08.08 0 11-.15 0 25 25 0 00.19-2.61c.06-.9.12-1.81.23-2.71s.21-1.73.35-2.59c.08-.44.15-.87.23-1.3a2.66 2.66 0 01.24-.93l-1.45-2.76c-.43-.85-.87-1.7-1.31-2.54-.19-.36-.39-.72-.59-1.08a10.93 10.93 0 01-.51 1.3L428 317c-.44 1.08-.85 2.17-1.26 3.26-.59 1.54-1.23 3.13-1.71 4.73.43-1.56.83-3.17 1.36-4.73zM424.87 325.38l.13-.38z" fill="#263238"/><path fill="#37474f" d="M391.61 336.81l.54 11.5 1.4 29.64h30.58l1.4-29.64.54-11.5h-34.46z"/><path fill="#263238" d="M391.61 336.81l.54 11.5h33.38l.54-11.5h-34.46z"/><path fill="#37474f" d="M428.25 341.46h-38.82v-9.3h38.82zM416.29 377.95h5.37v4.87h-5.37z"/><path fill="#263238" d="M416.29 377.95h5.37v2.43h-5.37z"/><path fill="#37474f" d="M396.02 377.95h5.36v4.87h-5.36z"/><path fill="#263238" d="M396.02 377.95h5.36v2.43h-5.36z"/></g><g><path d="M268.91 52.55H105.74a16.65 16.65 0 00-16.5 16.81v335.89a16.67 16.67 0 0016.5 16.81h163.17a16.69 16.69 0 0016.53-16.81V69.36a16.67 16.67 0 00-16.53-16.81zm6.2 342.31c0 8.84-6.62 16-14.79 16h-146c-8.18 0-14.8-7.16-14.8-16V82.09c0-18 6.62-18.89 14.8-18.89h29.28c1.69 0 3.08 1.93 3.08 4.32v1c0 5.61 3.07 5.62 6.84 5.62h67.62c3.8 0 6.85 0 6.85-5.62v-1c0-2.39 1.37-4.32 3.1-4.32h29.23c8.17 0 14.79 2.39 14.79 18.89z" fill="#263238"/><path d="M275.12 82.36v312.78c0 8.84-6.62 16-14.79 16h-146c-8.18 0-14.8-7.15-14.8-16V82.36c0-18 6.62-18.88 14.8-18.88h29.25c1.69 0 3.08 1.93 3.08 4.32v1c0 5.61 3.07 5.63 6.84 5.63h67.62c3.8 0 6.85 0 6.85-5.63v-1c0-2.39 1.37-4.32 3.1-4.32h29.23c8.2 0 14.82 2.39 14.82 18.88z" fill="#fff"/><path d="M196.56 67.18h-18.45A1.14 1.14 0 01177 66a1.14 1.14 0 011.14-1.14h18.45A1.14 1.14 0 01197.7 66a1.14 1.14 0 01-1.14 1.18z" fill="#fff"/><g fill="#a6a6a6"><path d="M138.55 70.23l-.29.28-.16.16a3.84 3.84 0 00-5.44 0s-.1-.11-.16-.16l-.27-.28c.12-.1.23-.21.36-.31a4 4 0 01.82-.53 4.2 4.2 0 011.1-.37l.54-.07h.86a4.41 4.41 0 011 .24 3.51 3.51 0 01.68.32 4.18 4.18 0 01.65.45l.3.27z"/><path d="M133.55 71.56l-.44-.45a3.21 3.21 0 014.55 0l-.45.44a2.56 2.56 0 00-1.83-.75 2.53 2.53 0 00-1.83.76z"/><path d="M136.76 72c-.15.15-.29.3-.44.44a1.31 1.31 0 00-.94-.38 1.29 1.29 0 00-.94.39L134 72a1.94 1.94 0 012.76 0zM135.78 72.85a.4.4 0 11-.4-.4.4.4 0 01.4.4z"/></g><path d="M111 71.08a1.16 1.16 0 111.16 1.16 1.16 1.16 0 01-1.16-1.16zM114.66 71.08a1.17 1.17 0 111.17 1.16 1.16 1.16 0 01-1.17-1.16zM118.33 71.08a1.16 1.16 0 111.16 1.16 1.16 1.16 0 01-1.16-1.16zM122 71.08a1.17 1.17 0 111.16 1.16 1.16 1.16 0 01-1.16-1.16zM125.66 71.08a1.16 1.16 0 111.16 1.16 1.16 1.16 0 01-1.16-1.16zM261.94 73.62h-9.47v-4.39h9.47zm-9-.48h8.51v-3.43H253z" fill="#a6a6a6"/><path fill="#a6a6a6" d="M253.26 69.98h6.11v2.9h-6.11zM261.95 70.25h.84v2.35h-.84z"/><g opacity=".5"><path d="M272.44 397.94a38.47 38.47 0 01-2.38 9.24 14.09 14.09 0 01-9.72 3.95h-146c-8.18 0-14.8-7.15-14.8-16v-84.2a56.82 56.82 0 0120.75-13.52c17.51-6.54 36.47-3.88 46.88 5.28 15.39 13.55 38.69 50.14 51.92 50.87.9.05 1.95.12 3.13.22 9.58.77 27.32 3.41 39 13.18 7.94 6.56 13.11 16.35 11.22 30.98z" fill="#01a479" opacity=".4"/><path d="M260.34 411.63h-146c-8.44 0-15.3-7.4-15.3-16.49v-78.92l.1-.14a110.35 110.35 0 019-10.07 57.12 57.12 0 0111.9-9c22.12-12.63 48-7.92 59.33 3.67 5.22 5.36 11.14 13.67 17.41 22.48 8.91 12.51 18.12 25.46 25.7 30.23a11.54 11.54 0 004.5 1.81c9.69 1.28 23.54 4.28 34.55 11.37 6.63 4.26 11.35 9.51 14 15.6v13a17 17 0 01-5.22 12.4 14.6 14.6 0 01-9.97 4.06zm-160.28-95.07v78.58c0 8.54 6.41 15.49 14.3 15.49h146a13.63 13.63 0 009.37-3.81 16.06 16.06 0 004.91-11.68v-12.69c-2.6-5.87-7.18-10.94-13.61-15.07-10.85-7-24.55-10-34.14-11.21a12.63 12.63 0 01-4.9-2c-7.75-4.87-17-17.9-26-30.49-6.25-8.77-12.15-17.06-17.31-22.36-11.05-11.33-36.42-15.89-58.13-3.51a56 56 0 00-11.68 8.89 105.51 105.51 0 00-8.81 9.86z" fill="#263238"/><path d="M148.22 96.28c4.45 7.21 2 15.78-2.63 18.42s-12.79 7.9-14 11.14-8.81 11.44-18.39 6.72-8.52-21.22-4.28-31.33c5.58-13.33 27.08-24.76 39.3-4.95z" fill="#01a479" opacity=".4"/><path d="M117.93 135.46a13.44 13.44 0 01-6.85-1.93c-9.76-5.72-7-22.54-2.08-32.1 4.14-8 13.83-14.12 22.54-14.14 5.33 0 12.76 2.12 18 12.19a15.73 15.73 0 011 12.24 10.9 10.9 0 01-5.3 6.55c-6.17 2.9-13.2 6.93-14.42 9.55-.92 2-4.41 5.59-9 7a13.57 13.57 0 01-3.89.64zm13.65-47.17c-8.36 0-17.67 5.86-21.66 13.6-4.94 9.59-7.1 25.62 1.7 30.78a12 12 0 0010.06 1.21c4.28-1.33 7.52-4.65 8.36-6.48 1.63-3.51 11-8.19 14.9-10a9.88 9.88 0 004.79-6 14.77 14.77 0 00-1-11.46c-5.04-9.62-12.1-11.65-17.15-11.65z" fill="#263238"/><path d="M223.47 81.89c-19.25 3.59-27.84 18.93-21.68 27.16s27.62 8.09 31.58 20 18.75 29.53 34.17 17.6-2.86-72.42-44.07-64.76z" fill="#dbdbdb"/><path d="M250.65 155.58a16.12 16.12 0 01-6.45-1.39c-8.54-3.75-14.84-14.56-16.66-23.31-1.39-6.73-8.75-10.43-15.86-14-5.56-2.78-10.8-5.42-13.1-9.39-2-3.36-1.82-7.62.35-11.7 3.16-5.92 11.33-12.57 24.77-13.46C252 80.46 262.5 106.86 265 115c5.14 16.41 3 33-4.89 37.7a18.38 18.38 0 01-9.46 2.88zm-26.88-72.26c-13 .87-20.92 7.25-24 12.94-2 3.82-2.16 7.63-.36 10.73 2.14 3.71 7.26 6.28 12.67 9 7.33 3.68 14.91 7.48 16.4 14.68 1.76 8.5 7.85 19 16.08 22.6 4.86 2.13 9.92 1.65 15-1.43 7.51-4.5 9.46-20.55 4.46-36.54-2.49-8-12.79-33.81-40.32-32z" fill="#263238"/><path d="M181.83 167.46c-34 6.75-63.62 44-59.74 61.78 6.34 29.09 38 20 54.11 39.83 14 17.18 43.84 53 73.88 18.82 28.19-32.1 4.59-134.89-68.25-120.43z" fill="#ebebeb"/><path d="M221.2 296.46c-19.22 0-37.61-18.3-47.69-28.33-7.54-7.5-17.32-9.7-26.78-11.82-13.27-3-25.81-5.79-31.28-22.41-2-6.18-.19-15.56 5.07-25.74 7.82-15.15 25.17-35.38 48.3-42.51 37.05-11.43 59.82 10.68 70.09 24.87a104.39 104.39 0 0118.21 47.15c2.05 16.82-.65 31.94-7.42 41.48-7.52 10.59-16.26 16.38-26 17.21-.82.07-1.7.1-2.5.1zm-32.5-133a66.48 66.48 0 00-19.59 3.11c-22.83 7.05-40 27-47.7 42-5.14 9.94-7 19-5 25 5.29 16.08 17.56 18.83 30.55 21.74 9.6 2.16 19.53 4.38 27.27 12.09 10.4 10.35 29.75 29.63 49.42 27.94 9.41-.8 17.91-6.45 25.24-16.79 13.85-19.51 8.81-60.38-10.78-87.46-8.17-11.26-24.33-27.6-49.41-27.6z" fill="#263238"/></g><path fill="#01a479" d="M113.69 100.41h72.62v72.62h-72.62z"/><circle cx="150" cy="136.72" r="26.64" transform="rotate(-76.87 150.006 136.724)" fill="#455a64"/><circle cx="151.22" cy="137.32" r="25.42" transform="rotate(-76.57 151.223 137.315)" fill="#263238"/><circle cx="151.22" cy="137.32" r="23.81" transform="rotate(-86.05 151.24 137.318)" fill="#fff"/><path fill="#c7c7c7" d="M150.99 115.23h.46v3.61h-.46zM139.985 118.303l.398-.23 1.805 3.126-.398.23zM131.979 126.461l.23-.398 3.126 1.805-.23.398zM129.14 137.09h3.61v.46h-3.61zM131.988 148.168l3.127-1.805.23.399-3.127 1.804zM139.983 156.327l1.802-3.128.399.23-1.802 3.128zM150.99 155.79h.46v3.61h-.46zM160.263 153.436l.398-.23 1.805 3.127-.398.23zM167.11 146.764l.23-.398 3.125 1.806-.23.398zM169.7 137.09h3.61v.46h-3.61zM167.11 127.888l3.126-1.804.23.398-3.127 1.805zM160.26 121.213l1.804-3.127.398.23-1.804 3.127z"/><path fill="#01a479" d="M151.57 116.87l.78 22.05-2.26-.02.87-22.04.61.01z"/><path fill="#a6a6a6" d="M165.31 129.63l-14.84 9.47-1.08-1.99 15.63-8.02.29.54z"/><path d="M152 137.32a.78.78 0 01-1.55 0 .78.78 0 011.55 0z" fill="#c7c7c7"/><path fill="#fff" d="M113.69 268.35h146.8v72.62h-146.8z"/><path d="M260.49 341.23h-2v-.5h2zm-4 0h-2v-.5h2zm-4 0h-2v-.5h2zm-4 0h-2v-.5h2zm-4 0h-2v-.5h2zm-4 0h-2v-.5h2zm-4 0h-2v-.5h2zm-4 0h-2v-.5h2zm-4 0h-2v-.5h2zm-4 0h-2v-.5h2zm-4 0h-2v-.5h2zm-4 0h-2v-.5h2zm-4 0h-2v-.5h2zm-4 0h-2v-.5h2zm-4 0h-2v-.5h2zm-4 0h-2v-.5h2zm-4 0h-2v-.5h2zm-4 0h-2v-.5h2zm-4 0h-2v-.5h2zm-4 0h-2v-.5h2zm-4 0h-2v-.5h2zm-4 0h-2v-.5h2zm-4 0h-2v-.5h2zm-4 0h-2v-.5h2zm-4 0h-2v-.5h2zm-4 0h-2v-.5h2zm-4 0h-2v-.5h2zm-4 0h-2v-.5h2zm-4 0h-2v-.5h2zm-4 0h-2v-.5h2zm-4 0h-2v-.5h2zm-4 0h-2v-.5h2zm-4 0h-2v-.5h2zm-4 0h-2v-.5h2zm-4 0h-2v-.5h2zm-4 0h-2v-.5h2zm-4 0h-2v-.5h2zm144.25-1.1h-.5v-2h.5zm-146.8-.35h-.5v-2h.5zm146.8-3.65h-.5v-2h.5zm-146.8-.35h-.5v-2h.5zm146.8-3.65h-.5v-2h.5zm-146.8-.35h-.5v-2h.5zm146.8-3.65h-.5v-2h.5zm-146.8-.35h-.5v-2h.5zm146.8-3.65h-.5v-2h.5zm-146.8-.35h-.5v-2h.5zm146.8-3.65h-.5v-2h.5zm-146.8-.35h-.5v-2h.5zm146.8-3.65h-.5v-2h.5zm-146.8-.35h-.5v-2h.5zm146.8-3.65h-.5v-2h.5zm-146.8-.35h-.5v-2h.5zm146.8-3.65h-.5v-2h.5zm-146.8-.35h-.5v-2h.5zm146.8-3.65h-.5v-2h.5zm-146.8-.35h-.5v-2h.5zm146.8-3.65h-.5v-2h.5zm-146.8-.35h-.5v-2h.5zm146.8-3.65h-.5v-2h.5zm-146.8-.35h-.5v-2h.5zm146.8-3.65h-.5v-2h.5zm-146.8-.35h-.5v-2h.5zm146.8-3.65h-.5v-2h.5zm-146.8-.35h-.5v-2h.5zm146.8-3.65h-.5v-2h.5zm-146.8-.35h-.5v-2h.5zm146.8-3.65h-.5v-2h.5zm-146.8-.35h-.5v-2h.5zm146.8-3.65h-.5v-2h.5zm-146.8-.35h-.5v-2h.5zm146.8-3.65h-.5v-2h.5zm-146.8-.35h-.5v-2h.5zm146.33-3.18h-2v-.5h2zm-4 0h-2v-.5h2zm-4 0h-2v-.5h2zm-4 0h-2v-.5h2zm-4 0h-2v-.5h2zm-4 0h-2v-.5h2zm-4 0h-2v-.5h2zm-4 0h-2v-.5h2zm-4 0h-2v-.5h2zm-4 0h-2v-.5h2zm-4 0h-2v-.5h2zm-4 0h-2v-.5h2zm-4 0h-2v-.5h2zm-4 0h-2v-.5h2zm-4 0h-2v-.5h2zm-4 0h-2v-.5h2zm-4 0h-2v-.5h2zm-4 0h-2v-.5h2zm-4 0h-2v-.5h2zm-4 0h-2v-.5h2zm-4 0h-2v-.5h2zm-4 0h-2v-.5h2zm-4 0h-2v-.5h2zm-4 0h-2v-.5h2zm-4 0h-2v-.5h2zm-4 0h-2v-.5h2zm-4 0h-2v-.5h2zm-4 0h-2v-.5h2zm-4 0h-2v-.5h2zm-4 0h-2v-.5h2zm-4 0h-2v-.5h2zm-4 0h-2v-.5h2zm-4 0h-2v-.5h2zm-4 0h-2v-.5h2zm-4 0h-2v-.5h2zm-4 0h-2v-.5h2zm-4 0h-2v-.5h2z" fill="#263238"/><path fill="#fff" d="M233.12 145.17h27.87v27.87h-27.87z"/><path fill="#263238" d="M261.23 173.29h-1.25v-.5h.75v-.75h.5v1.25zM258 173.29h-2v-.5h2zm-4 0h-2v-.5h2zm-4 0h-2v-.5h2zm-4 0h-2v-.5h2zm-4 0h-2v-.5h2zm-4 0h-2v-.5h2zM234.12 173.29h-1.25v-1.25h.5v.75h.75v.5zM233.37 170.05h-.5v-2h.5zm0-4h-.5v-2h.5zm0-4h-.5v-2h.5zm0-4h-.5v-2h.5zm0-4h-.5v-2h.5zm0-4h-.5v-2h.5zM233.37 146.17h-.5v-1.25h1.25v.5h-.75v.75zM258 145.42h-2v-.5h2zm-4 0h-2v-.5h2zm-4 0h-2v-.5h2zm-4 0h-2v-.5h2zm-4 0h-2v-.5h2zm-4 0h-2v-.5h2zM261.23 146.17h-.5v-.75h-.75v-.5h1.25v1.25zM261.23 170.05h-.5v-2h.5zm0-4h-.5v-2h.5zm0-4h-.5v-2h.5zm0-4h-.5v-2h.5zm0-4h-.5v-2h.5zm0-4h-.5v-2h.5z"/><path fill="#455a64" d="M196.32 145.17h27.87v27.87h-27.87z"/><path fill="#fff" d="M200.09 154.09h20.31v12.41h-20.31zM215.29 154.09H205.2l1-2.39h8.09l1 2.39z"/><circle cx="210.25" cy="160.29" r="4.71" fill="#455a64"/><path d="M213.91 160.29a3.66 3.66 0 11-3.66-3.65 3.66 3.66 0 013.66 3.65z" fill="#fff"/><path fill="#455a64" d="M217.26 155.14h1.95v1.12h-1.95z"/><path fill="#fff" d="M200.77 153.17h1.93v.56h-1.93z"/><path fill="#263238" d="M150.6 184.69h27.87v27.87H150.6z"/><path d="M174.56 193.09a4.21 4.21 0 00-4.42-4.52h-11.23a4.2 4.2 0 00-4.4 4.42v11.09a4.26 4.26 0 004.48 4.6h11.11a4.25 4.25 0 004.46-4.5q.03-5.55 0-11.09zm-1.79 11.12a2.44 2.44 0 01-2.68 2.69h-11.1a2.42 2.42 0 01-2.68-2.68v-11.2a2.45 2.45 0 012.67-2.71h11.1a2.46 2.46 0 012.69 2.7v5.6c0 1.87.02 3.73 0 5.6z" fill="#fff"/><path d="M164.55 193.37a5.24 5.24 0 105.2 5.31 5.23 5.23 0 00-5.2-5.31zm-.07 8.72a3.53 3.53 0 01-3.44-3.44 3.5 3.5 0 017 0 3.54 3.54 0 01-3.56 3.44zM171.34 193.24a1.09 1.09 0 01-1.25 1.09A1.11 1.11 0 01169 193a1.2 1.2 0 112.39.22z" fill="#fff"/><path fill="#455a64" d="M150.6 229.45h27.87v27.87H150.6z"/><path d="M155.76 249.09a8 8 0 005.12-1.58c-2.12-.64-3-1.29-3.27-2.49L159 245a3.92 3.92 0 01-2.78-3.6l1.46.38c-1.53-1.93-1.84-3.42-.93-4.82a10.58 10.58 0 007.51 3.76v-.6a3.46 3.46 0 012-3.48 3.51 3.51 0 014 .49.72.72 0 00.8.16l1.78-.65a3.7 3.7 0 01-1.4 1.79.42.42 0 010 .1l1.76-.45.07.07c-.45.46-.89.94-1.37 1.36a1 1 0 00-.38.78 10.27 10.27 0 01-9.35 10.3 10.37 10.37 0 01-6.1-1.24z" fill="#fff"/><path fill="#263238" d="M113.8 229.45h27.87v27.87H113.8z"/><path d="M118.47 252.58c.4-1.43.75-2.76 1.14-4.07a1.48 1.48 0 00-.11-1.18 9.19 9.19 0 1117.49-3.8 9.27 9.27 0 01-8.7 8.85 9.88 9.88 0 01-4.55-.86 1.55 1.55 0 00-.88-.07c-1.42.35-2.86.73-4.39 1.13zm2.23-2.16c.91-.24 1.67-.46 2.45-.62a1.25 1.25 0 01.81.1 8.29 8.29 0 003.71 1 7.65 7.65 0 007.64-8.92 7.18 7.18 0 00-5.75-6 7.65 7.65 0 00-8.37 11.29 1.4 1.4 0 01.12.9c-.15.7-.38 1.42-.61 2.25z" fill="#fff"/><path d="M123.74 239.61c.62-.84 1.46-.67 1.9.26.17.36.21.48.38.9a1.13 1.13 0 01-.26 1.45c-.33.29-.29.55-.07.89a6.44 6.44 0 002.79 2.35.61.61 0 00.84-.19c.81-1 .82-1 2-.41l.39.18a1.07 1.07 0 01.3 1.9 2.57 2.57 0 01-2.57.63 9.37 9.37 0 01-5.58-4.24 3.61 3.61 0 01-.7-2.08 3.11 3.11 0 01.58-1.64zM150.6 351.6h27.87v27.87H150.6z" fill="#fff"/><path d="M178.47 379.72h-2v-.5h2zm-4 0h-2v-.5h2zm-4 0h-2v-.5h2zm-4 0h-2v-.5h2zm-4 0h-2v-.5h2zm-4 0h-2v-.5h2zm-4 0h-2v-.5h2zm-3.62-.39h-.5v-2h.5zm27.87-1.33h-.5v-2h.5zm-27.87-2.67h-.5v-2h.5zm27.87-1.33h-.5v-2h.5zm-27.87-2.67h-.5v-2h.5zm27.87-1.33h-.5v-2h.5zm-27.87-2.67h-.5v-2h.5zm27.87-1.33h-.5v-2h.5zm-27.87-2.67h-.5v-2h.5zm27.87-1.33h-.5v-2h.5zm-27.87-2.67h-.5v-2h.5zm27.87-1.33h-.5v-2h.5zm-27.87-2.67h-.5v-2h.5zm27.87-1.33h-.5v-2h.5zm-1.85-2.15h-2v-.5h2zm-4 0h-2v-.5h2zm-4 0h-2v-.5h2zm-4 0h-2v-.5h2zm-4 0h-2v-.5h2zm-4 0h-2v-.5h2zm-4 0h-2v-.5h2z" fill="#263238"/><path fill="#fff" d="M113.8 351.6h27.87v27.87H113.8z"/><path d="M141.67 379.72h-2v-.5h2zm-4 0h-2v-.5h2zm-4 0h-2v-.5h2zm-4 0h-2v-.5h2zm-4 0h-2v-.5h2zm-4 0h-2v-.5h2zm-4 0h-2v-.5h2zm-3.62-.39h-.5v-2h.5zm27.87-1.33h-.5v-2h.5zm-27.87-2.67h-.5v-2h.5zm27.87-1.33h-.5v-2h.5zm-27.87-2.67h-.5v-2h.5zm27.87-1.33h-.5v-2h.5zm-27.87-2.67h-.5v-2h.5zm27.87-1.33h-.5v-2h.5zm-27.87-2.67h-.5v-2h.5zm27.87-1.33h-.5v-2h.5zm-27.87-2.67h-.5v-2h.5zm27.87-1.33h-.5v-2h.5zm-27.87-2.67h-.5v-2h.5zm27.87-1.33h-.5v-2h.5zm-1.85-2.15h-2v-.5h2zm-4 0h-2v-.5h2zm-4 0h-2v-.5h2zm-4 0h-2v-.5h2zm-4 0h-2v-.5h2zm-4 0h-2v-.5h2zm-4 0h-2v-.5h2z" fill="#263238"/><path fill="#fff" d="M232.63 351.6h27.87v27.87h-27.87z"/><path d="M260.49 379.72h-2v-.5h2zm-4 0h-2v-.5h2zm-4 0h-2v-.5h2zm-4 0h-2v-.5h2zm-4 0h-2v-.5h2zm-4 0h-2v-.5h2zm-4 0h-2v-.5h2zm-3.61-.39h-.5v-2h.5zm27.86-1.33h-.5v-2h.5zm-27.86-2.67h-.5v-2h.5zm27.86-1.33h-.5v-2h.5zm-27.86-2.67h-.5v-2h.5zm27.86-1.33h-.5v-2h.5zm-27.86-2.67h-.5v-2h.5zm27.86-1.33h-.5v-2h.5zm-27.86-2.67h-.5v-2h.5zm27.86-1.33h-.5v-2h.5zm-27.86-2.67h-.5v-2h.5zm27.86-1.33h-.5v-2h.5zm-27.86-2.67h-.5v-2h.5zm27.86-1.33h-.5v-2h.5zm-1.85-2.15h-2v-.5h2zm-4 0h-2v-.5h2zm-4 0h-2v-.5h2zm-4 0h-2v-.5h2zm-4 0h-2v-.5h2zm-4 0h-2v-.5h2zm-4 0h-2v-.5h2z" fill="#263238"/><path fill="#fff" d="M195.83 351.6h27.87v27.87h-27.87z"/><path d="M223.69 379.72h-2v-.5h2zm-4 0h-2v-.5h2zm-4 0h-2v-.5h2zm-4 0h-2v-.5h2zm-4 0h-2v-.5h2zm-4 0h-2v-.5h2zm-4 0h-2v-.5h2zm-3.61-.39h-.5v-2h.5zm27.86-1.33h-.5v-2h.5zm-27.86-2.67h-.5v-2h.5zm27.86-1.33h-.5v-2h.5zm-27.86-2.67h-.5v-2h.5zm27.86-1.33h-.5v-2h.5zm-27.86-2.67h-.5v-2h.5zm27.86-1.33h-.5v-2h.5zm-27.86-2.67h-.5v-2h.5zm27.86-1.33h-.5v-2h.5zm-27.86-2.67h-.5v-2h.5zm27.86-1.33h-.5v-2h.5zm-27.86-2.67h-.5v-2h.5zm27.86-1.33h-.5v-2h.5zm-1.85-2.15h-2v-.5h2zm-4 0h-2v-.5h2zm-4 0h-2v-.5h2zm-4 0h-2v-.5h2zm-4 0h-2v-.5h2zm-4 0h-2v-.5h2zm-4 0h-2v-.5h2z" fill="#263238"/><path fill="#01a479" d="M196.32 100.41h27.87v27.87h-27.87z"/><path fill="#fff" d="M200.32 108.05h19.85v12.59h-19.85z"/><path d="M220.18 108.05c-.81.77-1.62 1.5-2.43 2.26l-2.45 2.2c-.86.77-1.72 1.52-2.58 2.27l-.07.07-2.29 2-.11.09-.11-.09-2.29-2-.08-.07c-.86-.75-1.72-1.5-2.57-2.27l-2.45-2.2c-.81-.76-1.63-1.49-2.43-2.26.85.66 1.69 1.35 2.54 2s1.68 1.37 2.51 2.07 1.86 1.55 2.79 2.35l2.08 1.77 2.08-1.77c.92-.79 1.85-1.57 2.78-2.34l2.52-2.07c.86-.66 1.7-1.35 2.56-2.01z" fill="#01a479"/><path d="M208.19 114.77l-.32.27c-.5.42-1 .82-1.52 1.21s-1.28 1-1.93 1.41-1.31.89-2 1.32-1.35.85-2 1.24c.6-.53 1.23-1 1.86-1.5s1.28-.95 1.93-1.41 1.31-.9 2-1.33 1.08-.68 1.63-1l.39-.22zM220.13 120.24c-.7-.39-1.38-.81-2-1.24s-1.33-.87-2-1.32-1.3-.92-1.93-1.41-1-.79-1.52-1.21l-.32-.27c.13.07.26.14.38.22.56.31 1.1.65 1.64 1s1.32.88 2 1.33 1.29.92 1.92 1.41 1.23.96 1.83 1.49z" fill="#01a479"/><path fill="#455a64" d="M233.12 100.41h27.87v27.87h-27.87z"/><path fill="#fff" d="M238.38 109.69h17.35v11.9h-17.35zM244.53 107.11h-5.15l-1 2.18h7.15l-1-2.18z"/><path fill="#455a64" d="M113.8 184.69h27.87v27.87H113.8z"/><path d="M123.59 201.64h-3.72v-4.27h3.65v-.83c0-1.12 0-2.24.08-3.35a4.71 4.71 0 014.16-4.52 34.26 34.26 0 014.65 0v3.89h-1.68a7.47 7.47 0 00-1.5.1 1.38 1.38 0 00-1.18 1.35c-.05 1.09 0 2.18 0 3.36h4.23c-.18 1.4-.33 2.69-.53 4 0 .13-.34.29-.53.29h-3.15v10.94h-4.51z" fill="#fff"/><path fill="#263238" d="M187.87 184.8h72.62v72.62h-72.62z"/><circle cx="234.68" cy="215.16" r="11.93" fill="#01a479"/><ellipse cx="234.68" cy="198.69" rx=".9" ry="2.71" fill="#01a479"/><path d="M227.22 200.45c.75 1.3 1 2.55.58 2.8s-1.38-.6-2.13-1.9-1-2.55-.58-2.8 1.38.6 2.13 1.9zM220.87 206.15c1.29.75 2.15 1.71 1.9 2.13s-1.5.17-2.8-.58-2.15-1.7-1.9-2.13 1.5-.17 2.8.58zM218.21 214.26c1.5 0 2.72.4 2.72.9s-1.22.9-2.72.9-2.71-.4-2.71-.9 1.21-.9 2.71-.9zM220 222.62c1.3-.75 2.55-1 2.8-.58s-.61 1.38-1.9 2.13-2.56 1-2.8.58.57-1.38 1.9-2.13zM225.67 229c.75-1.3 1.7-2.15 2.13-1.9s.17 1.5-.58 2.8-1.7 2.15-2.13 1.9-.17-1.53.58-2.8z" fill="#01a479"/><ellipse cx="234.68" cy="231.63" rx=".9" ry="2.71" fill="#01a479"/><path d="M242.13 229.87c-.75-1.3-1-2.55-.58-2.8s1.39.6 2.14 1.9 1 2.55.58 2.8-1.39-.6-2.14-1.9zM248.49 224.17c-1.3-.75-2.15-1.7-1.9-2.13s1.5-.17 2.8.58 2.14 1.7 1.9 2.13-1.5.17-2.8-.58zM251.14 216.06c-1.5 0-2.71-.4-2.71-.9s1.21-.9 2.71-.9 2.72.4 2.72.9-1.22.9-2.72.9zM249.39 207.7c-1.3.75-2.56 1-2.8.58s.6-1.38 1.9-2.13 2.55-1 2.8-.58-.61 1.43-1.9 2.13zM243.69 201.35c-.75 1.3-1.71 2.15-2.14 1.9s-.17-1.5.58-2.8 1.71-2.15 2.14-1.9.17 1.5-.58 2.8z" fill="#01a479"/><path d="M250.24 239.06a7.19 7.19 0 01-6.64 7.16h-40.66a8.44 8.44 0 01-.78-16.84A14.21 14.21 0 01229.7 225a8.29 8.29 0 013.78-.9 8.44 8.44 0 018.42 7.9 6.26 6.26 0 011.16-.1 7.18 7.18 0 017.18 7.16z" fill="#fff"/><path d="M175.41 394.7a2.56 2.56 0 11-2.56-2.56 2.56 2.56 0 012.56 2.56zM191 394.7a3.87 3.87 0 11-3.87-3.87 3.86 3.86 0 013.87 3.87zM203.89 394.7a2.56 2.56 0 11-2.55-2.56 2.55 2.55 0 012.55 2.56z" fill="#263238"/></g><g><path d="M62.49 357.79s3.79 12.62 8.29 25.52 8.49 42.51 7.65 43.28-10.82-28-13.7-41.19-5-26.65-5-26.65z" fill="#455a64"/><path fill="#ebebeb" d="M62.56 357.47l3 8.58-4.78 1.16-1.43-8.84 3.21-.9z"/><path d="M62.56 357.47a7.13 7.13 0 00-1.14-6.47c-2.08-3-1.47-5.3-1.47-5.3s-5.38 6.88-.6 12.64z" fill="#263238"/><path d="M60 345.39c.27.43-.29 2.6.72 4.29s-3.93 4.22-3.53 1.68c.46-2.89 2.31-6.78 2.81-5.97z" fill="#01a479"/><path d="M82.21 363.29s-2 10.67-4.53 21.62-3.22 35.56-2.46 36.09 6.39-23.9 7.59-34.92 1.71-22.27 1.71-22.27z" fill="#a6a6a6"/><path fill="#ebebeb" d="M82.13 363.04l-1.7 7.28 4.01.53.4-7.36-2.71-.45z"/><path d="M82.13 363c-.5-5.69 3.23-11 3.23-11s2.88 6.32-.52 11.45z" fill="#263238"/><path d="M74.79 351.78s1.44 10.75 3.43 21.82 1.4 35.68.62 36.19-5.17-24.19-5.84-35.27-.57-22.32-.57-22.32z" fill="#37474f"/><path fill="#ebebeb" d="M74.88 351.53l1.34 7.36-4.04.33-.03-7.37 2.73-.32z"/><path d="M72.15 351.85s2.59-.26 2.73-.32a62 62 0 001.92-7.68c-.16-.21-8.7 1-8.65 1.8s4 6.2 4 6.2z" fill="#263238"/><path fill="#01a479" d="M57.89 392.52H88v37.91H57.89z"/><path fill="#01a479" d="M61.69 386.54H84.2v5.98H61.69z"/><path d="M63.07 392.39c5.23-.25 18-.27 19.77 0v.07a137.27 137.27 0 01-19.77 0c-.07.03-.07-.07 0-.07z" fill="#263238"/></g><g><path fill="#01a479" d="M107.39 404.44h27.87v27.87h-27.87z"/><path d="M130.58 418.52a9.27 9.27 0 01-8.7 8.85 10 10 0 01-4.56-.86 1.52 1.52 0 00-.87-.07c-1.43.34-2.85.73-4.39 1.13.39-1.43.75-2.76 1.14-4.07a1.48 1.48 0 00-.11-1.18 9.19 9.19 0 1117.49-3.8z" fill="#fff"/><path fill="#455a64" d="M129.4 407.38h27.87v27.87H129.4z"/><path fill="#ebebeb" d="M132.76 424.87l20.03-.01-.03-13.4-20.02.02.02 13.39z"/><path fill="#fff" d="M133.59 424.04l18.37-.02-.03-11.72-18.36.01.02 11.73z"/><path d="M135.46 415.72a1.62 1.62 0 101.62-1.61 1.63 1.63 0 00-1.62 1.61zM139.4 422.26l11.05-.01-5.53-6.92-5.52 6.93z" fill="#dbdbdb"/><path fill="#ebebeb" d="M135.07 422.27l9.12-.01-4.56-4.51-4.56 4.52z"/><path fill="#ebebeb" d="M134.75 430.95l20.03-.02-.02-13.39-20.03.01.02 13.4z"/><path fill="#fff" d="M135.59 430.12l18.36-.02-.02-11.73-18.37.02.03 11.73z"/><path d="M137.46 421.8a1.62 1.62 0 101.61-1.61 1.62 1.62 0 00-1.61 1.61zM141.4 428.34l11.05-.01-5.53-6.93-5.52 6.94z" fill="#dbdbdb"/><path fill="#ebebeb" d="M137.07 428.35l9.12-.01-4.56-4.51-4.56 4.52z"/><path fill="#455a64" d="M211.06 440.75h-27.87l-9.15-13.27 23.22-.02 13.8 13.29z"/><path d="M187.15 429.2c-4.66 0-3.52 2.52-2.59 3.7s3.93 3.64 11.06 6.11c2.86-2.47 1.63-4.93.51-6.11a12.78 12.78 0 00-8.98-3.7zm4.1 4.75c-1.9 0-4.09-.8-4.89-1.78s0-1.8 1.79-1.8a7.58 7.58 0 014.91 1.79c.94.99.09 1.84-1.81 1.84z" fill="#fff"/><path fill="#01a479" d="M179.45 436.73h-27.87l-3.77-24.2 26.3.02 5.34 24.18z"/><path fill="#fff" d="M172.44 433.01l-14.62-.01-2.91-16.92 14.04.01 3.49 16.92z"/><path fill="#c7c7c7" d="M155.97 417.75h-1.54l-.1-.57h1.54l.1.57zM156.24 419.33l-1.55-.01-.09-.57h1.55l.09.58zM156.52 420.9h-1.56l-.1-.58h1.56l.1.58zM156.79 422.47h-1.56l-.1-.57h1.56l.1.57zM157.06 424.04h-1.56l-.1-.57h1.56l.1.57zM157.34 425.62h-1.58l-.09-.58h1.57l.1.58zM157.61 427.19h-1.58l-.1-.58 1.58.01.1.57zM157.88 428.76h-1.58l-.1-.57h1.58l.1.57zM158.16 430.33h-1.6l-.09-.57h1.59l.1.57zM158.43 431.9h-1.6l-.09-.57h1.59l.1.57zM167.33 418.73l-9.8-.01-.06-.38 9.78.01.08.38zM166.14 420.7l-6.51-.01-.07-.37h6.51l.07.38zM166.38 421.89l-6.54-.01-.06-.37h6.52l.08.38zM166.61 423.07h-6.55l-.07-.38 6.55.01.07.37zM167.08 425.45h-6.59l-.07-.38H167l.08.38zM167.31 426.64h-6.6l-.07-.38h6.6l.07.38zM167.55 427.83l-6.63-.01-.07-.37h6.62l.08.38z"/></g><g><path d="M275 448.4c2.15.69 63.68-.1 66-1.62.89-.57 1.3-9.54 1.48-20.39v-.34c0-2.24.07-4.54.08-6.88v-1l-3-31.92-41.15.41 4.06 31.62v1.25l.25 6.55v.67s-23.42 10.84-25.8 12.78-4.06 8.18-1.92 8.87z" fill="#ad6359"/><path d="M275 448.4c2.15.69 63.68-.1 66-1.62.89-.57 1.3-9.54 1.48-20.39v-.34c0-2.24.07-4.54.08-6.88v-1l-40.08.11v1.25l.25 6.55v.67s-23.42 10.84-25.8 12.78-4.07 8.18-1.93 8.87z" fill="#ebebeb"/><path d="M275 448.39c1.11.36 17.83.32 34.17 0 3.28-.06 6.55-.14 9.66-.22 11.65-.32 21.28-.8 22.18-1.39s1.29-9.28 1.47-19.93v-.45-.35l-39.66.07v.68s-23.41 10.82-25.82 12.76-4.15 8.15-2 8.83z" fill="#01a479"/><path d="M275.68 446c10.37-.39 52.22-1 62.5-.58.09 0 .09.06 0 .07-10.26.61-52.12.86-62.5.68-.22 0-.22-.17 0-.17zM298.39 426.29c4.07-.82 9.07-.25 12.22 2.61.13.11 0 .29-.17.25a57.17 57.17 0 00-12-2.35.26.26 0 01-.05-.51zM295.46 428.1c4.07-.81 9.07-.25 12.23 2.62.12.11 0 .28-.17.24a57.15 57.15 0 00-12-2.34.26.26 0 01-.06-.52zM292.54 429.92c4.07-.82 9.07-.26 12.23 2.61.12.11 0 .28-.17.24a58 58 0 00-12-2.34.26.26 0 01-.06-.51z" fill="#263238"/><path d="M309.18 448.38c3.28-.06 6.55-.14 9.66-.22 11.65-.32 21.28-.8 22.18-1.39s1.29-9.28 1.47-19.93v-.45-.35c-5.49 3.81-24.61 16.55-33.31 22.34z" fill="#263238"/><path d="M300.1 426.26h44.31s-8.92-103.5-8.57-105.31c.44-2.31 3.06-12.79 6.54-26.47 1.09-4.29 2.27-8.88 3.49-13.64 3.31-12.88 6.95-26.95 10.12-39.19 4.76-18.35 8.48-32.6 8.48-32.6h-37.55S322.54 222.93 317 241c-9 29.34-21 69.71-22.19 79.53-1.89 15.83 5.29 105.73 5.29 105.73z" fill="#37474f"/><path d="M302.07 418.69c6.76-.14 4.82-.19 11.59-.26 3.31 0 25.08-.22 28.17.29.07 0 .07.13 0 .14-3.1.52-24.86.33-28.17.29-6.77-.06-4.83-.12-11.59-.26a.1.1 0 010-.2zM327.5 314.63c1.46-6.41 3.63-12.69 5.52-19q5.76-19.17 11.59-38.31 2.91-9.57 5.84-19.14 1.49-4.82 3-9.65c1-3.14 2.11-6.26 3-9.43.36-1.3.56-.59.1 1.05-.94 3.31-1.86 6.62-2.83 9.91q-2.85 9.79-5.76 19.58-5.76 19.47-11.62 38.92-2.93 9.75-5.87 19.5a80.36 80.36 0 00-2.39 9.43 42.6 42.6 0 00-.39 10.09c.42 6.78 1.21 13.55 1.83 20.31s1.26 13.56 1.88 20.34q1.88 20.24 3.72 40.47c.15 1.71.3 3.42.43 5.13 0 .57-.82.53-.88 0-1.46-13.34-2.58-26.72-3.83-40.08s-2.49-26.59-3.74-39.88c-.31-3.34-.66-6.68-.67-10a41.4 41.4 0 011.07-9.24z" fill="#263238"/><path d="M331.18 209.05c2.61 20.17 7.58 58 11.2 85.43 8.47-33.25 22.09-85.43 22.09-85.43z" fill="#263238"/><path d="M322 449c2.15.7 63.68.13 66-1.38.89-.56 1.33-9.53 1.55-20.38v-.34c.05-2.24.08-4.54.1-6.88v-1c.14-15.67-1-31.92-1-31.92l-40.21.26 1.12 31.64v1.26l.23 6.54v.68s-23.4 10.76-25.79 12.69-4.2 8.12-2 8.83z" fill="#ad6359"/><path d="M322 449c2.15.7 63.68.13 66-1.38.89-.56 1.33-9.53 1.55-20.38v-.34c.05-2.24.08-4.54.1-6.88v-1h-40.08v1.26l.23 6.54v.68s-23.41 10.74-25.8 12.67-4.2 8.12-2 8.83z" fill="#ebebeb"/><path d="M322 449c2.15.7 63.68.13 66-1.38.89-.56 1.33-9.53 1.55-20.38v-.34l-39.7-.08v.68s-23.46 10.74-25.85 12.67-4.2 8.12-2 8.83z" fill="#01a479"/><path d="M322.63 446.6c10.37-.35 52.23-.79 62.51-.35.08 0 .08.06 0 .06-10.27.58-52.13.68-62.51.46-.22-.01-.22-.17 0-.17zM345.41 427c4.07-.8 9.07-.22 12.22 2.66.12.11 0 .28-.18.24a57.66 57.66 0 00-12-2.39.26.26 0 01-.04-.51zM342.48 428.77c4.07-.8 9.07-.22 12.22 2.66.12.11 0 .28-.17.24a57.22 57.22 0 00-12-2.38.26.26 0 01-.05-.52zM339.55 430.57c4.07-.8 9.07-.22 12.22 2.66.12.11 0 .28-.17.24a57.22 57.22 0 00-12-2.38.26.26 0 01-.05-.52z" fill="#263238"/><path d="M328.13 209.05s.87 18 5 32.2c.33 1.18.69 2.34 1.07 3.45a66.38 66.38 0 0110.8 5.56s.43 14.46.86 30.58c.48 18 1 38.13.88 42.39-.38 15.95 2 103.67 2 103.67l44.31.18s-8-98-8-103.8c.09-9.4-2.14-50.91-3.86-81.19-1.06-18.65-1.92-33-1.92-33z" fill="#37474f"/><path d="M350.26 419c6.77-.11 4.83-.17 11.59-.21 3.32 0 25.08-.11 28.18.41.06 0 .06.13 0 .14-3.1.5-24.87.22-28.18.17-6.77-.09-4.82-.14-11.59-.31-.13.02-.12-.2 0-.2zM375.58 215.47c.82 24.72 1.68 49.44 2.79 74.15s2.6 49.57 4.68 74.3c1.15 13.81 2.25 33.25 3.74 47 0 .1-.13.13-.15 0-3.22-24.52-5-54.84-6.61-79.51s-2.66-49.39-3.5-74.09c-.47-14-.84-28-1.26-41.93 0-.13.31-.11.31.08zM332.34 243.63a82.1 82.1 0 0112.66 6.63.15.15 0 01-.14.26c-4.27-2.08-8.63-4.08-12.79-6.38a.29.29 0 01.27-.51z" fill="#263238"/><path d="M332.09 228.38c.3 1.58.68 3.14 1 4.7s.55 3 .94 4.42a7.52 7.52 0 002.06 3.7c.57.54 1.21 1 1.82 1.5.33.27.69.52 1 .79-.05-.21-.08-.42-.12-.64-.11-.59-.21-1.19-.31-1.79-.22-1.32-.43-2.65-.64-4-.4-2.61-.76-5.25-1.31-7.84 0-.11.14-.15.16 0 .66 2.56 1.37 5.1 1.94 7.68.28 1.27 1.27 7.53 1.31 8s.09.92.1 1.38a5.47 5.47 0 010 1.4.12.12 0 01-.22 0 5.32 5.32 0 01-.4-1.36c-.12-.45-.22-.9-.3-1.36 0-.16-.05-.33-.07-.5-.62-.37-1.19-.87-1.77-1.28s-1.25-.89-1.84-1.39a7 7 0 01-2.25-3.51 26.24 26.24 0 01-.74-4.5c-.2-1.78-.34-3.56-.59-5.34.06-.12.21-.17.23-.06z" fill="#263238"/><path d="M352.39 160.59c-4.73 10.91-27.72 36.15-36.77 37.88-6.54 1.25-33.83-13.13-41-18.47-4.16-3.11 13.57-24.4 17.75-21.53 5.9 4.05 20.37 14.81 23 14.91 1.83.07 12.15-6.55 27.94-18.56 8.69-6.64 11.9-.74 9.08 5.77z" fill="#ad6359"/><path d="M274.64 180c-1.63-.64-14.55-4.57-20.21-9.82-3-2.78-10.37-11.36-8.91-13.39 1.34-1.86 3.94 0 3.94 0s-3.23-3.87-1.35-6.43 6.11.8 6.11.8-3-4.22-1-6.64 5.75 1.66 5.75 1.66-2.95-3.72-.41-5c3-1.54 7.71 6 11.52 8.39.87.56 18.33 10 18.33 10z" fill="#ad6359"/><path d="M259.19 146.13c3.44 5.5 5.89 7.31 11.65 10.07.11.06.05.24-.07.19-5.88-2.2-9.29-4-11.86-10.11-.12-.28.09-.41.28-.15zM254.4 151.08c4.07 5.4 6.72 7.38 12.53 10.72.08 0 0 .19-.08.15-6-2.8-9.33-4.7-12.69-10.62-.16-.27.05-.5.24-.25zM249.74 156.94c4.32 4.94 7.13 7.24 13.19 9.76a.12.12 0 01-.08.23c-6.43-2-10-4.82-13.24-9.85-.23-.34-.14-.45.13-.14z" fill="#263238"/><path fill="#01a479" d="M251.348 140.254l27.766 2.405-2.405 27.766-27.766-2.405z"/><path fill="#fff" d="M255.85 149.22l17.286 1.497-1.06 12.234-17.285-1.497z"/><path fill="#fff" d="M257.3 148.111l.538.047-.198 2.281-.538-.046zM259.308 148.284l.538.047-.198 2.281-.538-.046zM261.326 148.447l.538.046-.198 2.282-.538-.047zM263.333 148.63l.538.046-.198 2.282-.538-.047zM265.34 148.802l.538.047-.197 2.282-.538-.047zM267.348 148.975l.538.047-.197 2.281-.538-.046zM269.355 149.147l.538.047-.197 2.281-.538-.046zM271.363 149.32l.538.047-.197 2.281-.538-.047z"/><path fill="#01a479" d="M257.134 151.039l1.385.12-.12 1.385-1.385-.12z"/><path fill="#ebebeb" d="M259.33 151.204l1.385.12-.12 1.384-1.385-.12zM261.506 151.39l1.385.12-.12 1.384-1.384-.12zM263.662 151.6l1.384.12-.12 1.385-1.384-.12zM265.837 151.797l1.385.12-.12 1.385-1.385-.12zM268.023 151.96l1.385.119-.12 1.385-1.385-.12zM270.199 152.146l1.384.12-.12 1.385-1.384-.12z"/><path fill="#01a479" d="M256.984 153.005l1.384.12-.12 1.384-1.384-.12z"/><path fill="#ebebeb" d="M259.15 153.214l1.384.12-.12 1.385-1.384-.12zM261.336 153.378l1.384.12-.12 1.384-1.384-.12zM263.501 153.564l1.385.12-.12 1.384-1.385-.12zM265.666 153.785l1.385.12-.12 1.385-1.385-.12zM267.831 153.971l1.385.12-.12 1.385-1.384-.12zM270.039 154.124l1.385.12-.12 1.385-1.385-.12z"/><path fill="#01a479" d="M256.814 154.993l1.385.12-.12 1.384-1.385-.12z"/><path fill="#ebebeb" d="M258.98 155.179l1.384.12-.12 1.384-1.384-.12zM261.144 155.389l1.385.12-.12 1.385-1.385-.12zM263.33 155.562l1.385.12-.12 1.384-1.384-.12zM265.516 155.749l1.385.12-.12 1.384-1.385-.12zM267.661 155.95l1.385.12-.12 1.384-1.385-.12zM269.837 156.146l1.385.12-.12 1.385-1.385-.12z"/><path fill="#01a479" d="M256.622 157.003l1.385.12-.12 1.385-1.385-.12z"/><path fill="#ebebeb" d="M258.809 157.167l1.384.12-.12 1.384-1.384-.12zM261.351 158.953l1.39.125-.125 1.39-1.39-.125zM263.148 157.573l1.385.12-.12 1.385-1.385-.12zM265.336 157.726l1.385.12-.12 1.385-1.385-.12zM267.512 157.913l1.384.12-.12 1.385-1.384-.12zM269.687 158.11l1.385.119-.12 1.385-1.384-.12z"/><path fill="#01a479" d="M256.45 158.99l1.386.12-.12 1.385-1.385-.12z"/><path fill="#ebebeb" d="M258.626 159.187l1.385.12-.12 1.385-1.385-.12zM260.814 159.34l1.385.12-.12 1.385-1.384-.12zM262.99 159.528l1.385.12-.12 1.384-1.385-.12zM265.144 159.748l1.384.12-.12 1.384-1.384-.12zM267.32 159.935l1.384.12-.12 1.385-1.385-.12zM269.517 160.097l1.384.12-.12 1.385-1.384-.12z"/><path d="M293.3 159.1s-5.07-9-7.83-11.36-16.31-7.58-17.6-4.71c-1.66 3.7 5.58 8.23 9.42 10 0 0-3.84 8.56.65 12.93s15.36-6.86 15.36-6.86z" fill="#ad6359"/><path d="M267.75 144.19c.92 4.47 6.11 6.45 9.7 8.43a.37.37 0 01.09.61c-1.37 3.69-2.23 9.3.14 12.71.07.1-.06.22-.14.13-3-3.32-2.65-8.9-.89-12.85-3.72-2-8.83-4.19-8.94-9-.01-.05.03-.05.04-.03z" fill="#263238"/><path d="M294 157.41l-12.67 32.29s26.89 11.39 34.84 9.53 28.9-24 36.42-37.72c4.59-8.33-.2-14.23-10.34-7.1-10.42 7.32-25.06 17.45-26.16 17.79S294 157.41 294 157.41z" fill="#01a479"/><path d="M294.91 177.07c.79-2.43 3.88-12.16 4.46-14.64 0 0-.06-.07-.07 0-1 2.26-4.35 11.78-5.14 14.21a141.27 141.27 0 00-4.32 14.69c0 .08.12.15.16.06 2-4.68 3.36-9.53 4.91-14.32z" fill="#263238"/><path d="M293.71 187.42a7.17 7.17 0 00-1.91 1 7.91 7.91 0 002.11-.49 7.52 7.52 0 001.92-1 7.53 7.53 0 00-2.12.49zm26.44-4.33a7.79 7.79 0 00-1.91 1 7.53 7.53 0 002.11-.48 7.85 7.85 0 001.92-1 7.52 7.52 0 00-2.12.48zm-17.07-17a7.85 7.85 0 00-1.92 1 7.37 7.37 0 002.11-.48 7.68 7.68 0 001.92-1 7.37 7.37 0 00-2.11.5zM338.15 177a8 8 0 00-1.92 1 8.32 8.32 0 004-1.49 7.52 7.52 0 00-2.08.49zm7.63-11.32a7.52 7.52 0 00-1-1.92 7.89 7.89 0 00.49 2.12 7.52 7.52 0 001 1.92 7.89 7.89 0 00-.49-2.17zM299.25 178a7.47 7.47 0 00-1-1.91 7.91 7.91 0 00.49 2.11 7.22 7.22 0 001 1.92 7.89 7.89 0 00-.49-2.12zm2.17 18a7.36 7.36 0 00-1-1.92 7.74 7.74 0 00.49 2.11c.09.23.18.46.28.68l.56.16c-.1-.32-.21-.66-.33-1.03zm24.09-22.86a7.85 7.85 0 00-1-1.92 8.32 8.32 0 001.49 4 7.52 7.52 0 00-.49-2.05zm-40.88 8.13l-.14.36a6.7 6.7 0 00.91.21 4.64 4.64 0 00-.77-.54zm23.75 8.08a7.33 7.33 0 00-2.07-.64 8 8 0 001.83 1.15 7.63 7.63 0 002.08.64 8 8 0 00-1.84-1.12zm26-25.07a7.45 7.45 0 00-.64 2.07 7.87 7.87 0 001.15-1.84 7.67 7.67 0 00.64-2.07 7.55 7.55 0 00-1.18 1.87zm-15.47 30.94a7.23 7.23 0 00-.64 2.07 7.87 7.87 0 001.15-1.84 7.56 7.56 0 00.64-2.07 7.55 7.55 0 00-1.18 1.87zM310.82 176a7.67 7.67 0 00-.64 2.07 7.39 7.39 0 001.15-1.83 7.64 7.64 0 00.65-2.08 7.59 7.59 0 00-1.16 1.84z" fill="#fff"/><path d="M352.59 161.51c-6.1 11.08-21 27.75-30.68 34.66l26.52-44.75c5.69-1.25 7.68 3.7 4.16 10.09z" fill="#263238"/><path d="M383.92 235.75c-.16.16-65.07-4.29-65.62-5-.76-1 19.79-67 24.94-76.66 2.19-4.13 12.69-4.72 16.84-.82 10.39 9.77 17.62 41.36 19.14 50.83 2.52 15.62 5.28 31.08 4.7 31.65z" fill="#01a479"/><path d="M353 172.14a7.67 7.67 0 01-.64 2.07 7.55 7.55 0 01-1.15 1.84 8.28 8.28 0 011.79-3.91zm-8.58 28.67a7.57 7.57 0 00-.65 2.07 7.59 7.59 0 001.13-1.88 7.92 7.92 0 00.64-2.07 7.55 7.55 0 00-1.15 1.88zM337 230a7.56 7.56 0 00-.64 2.07 8.4 8.4 0 001.79-3.91A7.87 7.87 0 00337 230zm30-35.61a7.47 7.47 0 00-.65 2.07 7.59 7.59 0 001.16-1.84 8 8 0 00.64-2.07 7.26 7.26 0 00-1.15 1.85zm9.45 19a7.67 7.67 0 00-.64 2.07 8.31 8.31 0 001.79-3.9 7.69 7.69 0 00-1.11 1.88zM350.92 224a7.67 7.67 0 00-.64 2.07 7.26 7.26 0 001.15-1.84 7.45 7.45 0 00.64-2.07 7.87 7.87 0 00-1.15 1.84zm-19.25-34.57a8 8 0 00-.64 2.07 7.39 7.39 0 001.15-1.83 7.68 7.68 0 00.65-2.07 7.73 7.73 0 00-1.16 1.87zm27.22-6.41a7.23 7.23 0 00-2.07-.64 7.87 7.87 0 001.84 1.15 7.56 7.56 0 002.07.64 7.55 7.55 0 00-1.84-1.11zm5.89 23.73a7.13 7.13 0 00-2.07-.64 7.87 7.87 0 001.84 1.15 7.67 7.67 0 002.07.64 7.55 7.55 0 00-1.84-1.11zm-2.64 26.87a7.33 7.33 0 00-2.07-.64 8.15 8.15 0 001.83 1.15l.44.19 1.15.07a8.67 8.67 0 00-1.35-.73zm-24.75-22.77a7.56 7.56 0 00-2.07-.64 7.26 7.26 0 001.84 1.15 7.68 7.68 0 002.07.65 7.59 7.59 0 00-1.84-1.12zm21.5-48.34a7.56 7.56 0 00-2.07-.64 8.4 8.4 0 003.91 1.79 7.55 7.55 0 00-1.84-1.11zm8.14 6.71a7.36 7.36 0 001 1.92 7.74 7.74 0 00-.49-2.11 7.52 7.52 0 00-1-1.92 7.74 7.74 0 00.46 2.15zm8.7 30.32a7.56 7.56 0 001 1.92 7.89 7.89 0 00-.49-2.12 8 8 0 00-1-1.92 7.88 7.88 0 00.49 2.16zm-.74 27.3a7.52 7.52 0 001 1.92 7.89 7.89 0 00-.49-2.12 7.69 7.69 0 00-1-1.92 7.89 7.89 0 00.5 2.16zm-30.89-40.08a7.4 7.4 0 001 1.92 7.74 7.74 0 00-.49-2.11 7.85 7.85 0 00-1-1.92 7.73 7.73 0 00.49 2.11zm9.47 24.53a7.52 7.52 0 001 1.92 7.89 7.89 0 00-.49-2.12 7.52 7.52 0 00-1-1.92 7.89 7.89 0 00.49 2.12zm-25.7 10a7.52 7.52 0 001 1.92 8.47 8.47 0 00-1.5-4 7.89 7.89 0 00.5 2.08zm17.43-55.51a7.68 7.68 0 001 1.92 7.45 7.45 0 00-.48-2.11 7.85 7.85 0 00-1-1.92 7.37 7.37 0 00.48 2.11zm-6.91 11.65a7.36 7.36 0 001.92-1 7.74 7.74 0 00-2.11.49 7.52 7.52 0 00-1.92 1 7.74 7.74 0 002.11-.49zm26.18 42.76a7.56 7.56 0 001.92-1 7.89 7.89 0 00-2.12.49 7.79 7.79 0 00-1.91 1 7.9 7.9 0 002.11-.49zm-34.47-18.34a7.07 7.07 0 001.92-1 7.74 7.74 0 00-2.11.49 7.85 7.85 0 00-1.92 1 7.39 7.39 0 002.11-.49zm43.27-21.78a8.47 8.47 0 00-1.75.44 7.91 7.91 0 00-1.93 1 7.44 7.44 0 002.12-.48 8.06 8.06 0 001.61-.8 1.09 1.09 0 00-.05-.16zm-29 40.12a7.56 7.56 0 001.92-1 8.49 8.49 0 00-4 1.5 7.81 7.81 0 002.12-.5zm9.78-26.62a7.85 7.85 0 001.92-1 7.52 7.52 0 00-2.07.43 8 8 0 00-1.92 1 7.52 7.52 0 002.11-.43z" fill="#fff"/><path fill="#c7c7c7" d="M321.04 145.545l110.557 96.58-47.777 54.69-110.556-96.58z"/><path d="M327.69 231.61l-36.31-31.73.33-.37 31.39-35.94 36.32 31.73-.33.37zm-34.9-31.82l34.81 30.41 30.4-34.81L323.2 165z" fill="#455a64"/><path fill="#455a64" d="M323.418 168.09l31.487 27.507-27.506 31.487-31.488-27.506z"/><path d="M313.34 206.07a4.54 4.54 0 11-.43-6.41 4.54 4.54 0 01.43 6.41z" fill="#fff"/><path fill="#fff" d="M325.815 186.533l2.613 2.283-15.033 17.208-2.613-2.283zM328.77 210.77a4.55 4.55 0 11-.43-6.41 4.53 4.53 0 01.43 6.41z"/><path fill="#fff" d="M341.243 191.234l2.613 2.283-15.033 17.208-2.613-2.283z"/><path fill="#fff" d="M343.81 193.56l-20.03-4.72 2.01-2.3 20.03 4.72-2.01 2.3zM340.02 197.9l-20.03-4.72 2.01-2.3 20.03 4.72-2.01 2.3z"/><path fill="#263238" d="M368.144 203.565l41.021 35.836-3.559 4.074-41.022-35.836z"/><path fill="#fff" d="M359.018 214.011l37.926 33.132-1.782 2.04-37.927-33.131zM355.084 218.513l35.177 30.731-1.783 2.04-35.177-30.73zM351.16 223.007l31.11 27.178-1.783 2.04-31.11-27.177zM347.23 227.502l41.02 35.835-1.782 2.041-41.022-35.836zM338.856 237.084l35.178 30.73-1.783 2.042-35.178-30.73z"/><path d="M366.36 159.79c9.72 13.54 30.64 44.47 24.47 51.61-10.15 11.75-34.92 22-42.68 24.36-3.36 1-15.35-23.34-12.19-25.34 3.79-2.4 28.06-11.94 28.18-13.11s-4.41-17.95-5.9-31.09c-1.86-16.31 4.06-12.08 8.12-6.43z" fill="#ad6359"/><path d="M303.44 225.41a4.35 4.35 0 003.17 3.82 6.49 6.49 0 00-.71 4.34c.6 2.59 4.93 2.77 4.93 2.77a8 8 0 000 4.69c.84 2.42 5.18 3.23 5.18 3.23a6.94 6.94 0 002.57 4.13c3.65 2.6 10 0 14-1.66s14-10 16-11.45l-10.25-26s-20.18 2.17-24.65 4.76c-3.78 2.19-10.39 7.96-10.24 11.37z" fill="#ad6359"/><path d="M306.61 229.11c3.45-3.28 7.68-5.37 11.79-7.69.09 0 .17.1.08.15-4.11 2.26-7.72 5.3-11.74 7.72-.11.07-.22-.09-.13-.18zM310.77 236.25a12.43 12.43 0 012.79-1.65c1-.52 2.07-1 3.11-1.49 2.1-1 4.21-1.88 6.35-2.74.1 0 .18.1.08.15-2.08 1-4.15 2-6.19 3-1 .52-2 1.06-3.06 1.6a15.16 15.16 0 01-2.93 1.4.17.17 0 01-.15-.27zM316.06 244.21a8.69 8.69 0 012.6-1.35l2.88-1.27c1.91-.86 3.83-1.72 5.71-2.65a.09.09 0 01.08.15c-1.91.95-3.81 1.92-5.72 2.85-.94.46-1.89.92-2.84 1.36a7.88 7.88 0 01-2.67 1 .06.06 0 01-.04-.09z" fill="#263238"/><path d="M335.55 209l14.29 30.48s39.83-21.2 42.29-29.45-19.7-44.53-26.42-51.93-8.92-4.37-8.73 4.08 6.83 34.76 6.67 35.25-28.1 11.57-28.1 11.57z" fill="#01a479"/><path d="M367 194.4a7.47 7.47 0 00-.65 2.07 7.59 7.59 0 001.16-1.84 8 8 0 00.64-2.07 7.26 7.26 0 00-1.15 1.84zm14.24-4.93a7.67 7.67 0 00-.64 2.07 8 8 0 001.15-1.83 7.67 7.67 0 00.64-2.07 7.69 7.69 0 00-1.11 1.83zm-4.79 24a7.67 7.67 0 00-.64 2.07 8.31 8.31 0 001.79-3.9 7.69 7.69 0 00-1.11 1.8zm-26.9 9.65a7.56 7.56 0 00-.64 2.07 8.4 8.4 0 001.79-3.91 7.55 7.55 0 00-1.11 1.81zm15.19-16.3a7.13 7.13 0 00-2.07-.64 7.87 7.87 0 001.84 1.15 7.67 7.67 0 002.07.64 7.55 7.55 0 00-1.8-1.18zm-20.55-1.29l-.61.24a6.86 6.86 0 001.51.41 5.14 5.14 0 00-.86-.68zm16.5 24.61a7.63 7.63 0 00-2.08-.64 7.55 7.55 0 001.84 1.15 7.67 7.67 0 002.07.64 8 8 0 00-1.79-1.18zm-1.84-67.56a7.61 7.61 0 00-1.91-.61h-.16l.16.13a7.86 7.86 0 001.68 1 7.56 7.56 0 002.07.64 7.55 7.55 0 00-1.8-1.19zm8.66 6.52a7.52 7.52 0 00-1-1.92 7.74 7.74 0 00.49 2.11 7.36 7.36 0 001 1.92 7.74 7.74 0 00-.45-2.14zm8.71 30.31a8 8 0 00-1-1.92 7.88 7.88 0 00.48 2.12 7.56 7.56 0 001 1.92 7.89 7.89 0 00-.44-2.15zm11 10.77a7.47 7.47 0 00-1-1.91 7.91 7.91 0 00.49 2.11 7.52 7.52 0 001 1.92 7.89 7.89 0 00-.44-2.15zm-32.43 1.7a7.79 7.79 0 00-1-1.91 7.9 7.9 0 00.48 2.11 7.56 7.56 0 001 1.92 7.89 7.89 0 00-.43-2.15zm19.93 12.82a7.4 7.4 0 00-1-1.92 7.74 7.74 0 00.49 2.11c0 .09.07.17.1.26l.48-.31zm-10.4-5a7.79 7.79 0 00-1.91 1 7.54 7.54 0 002.11-.49 7.22 7.22 0 001.92-1 7.89 7.89 0 00-2.07.45zm-15.52 17.11l-.22.09.23.49.18-.06a7.36 7.36 0 001.92-1 7.39 7.39 0 00-2.06.44zm7.71-36.26l-.5.2a7.2 7.2 0 00-1.42.81 7.89 7.89 0 002.12-.49 7.22 7.22 0 001.92-1 7.89 7.89 0 00-2.07.44zm-16.34 14.54a9.14 9.14 0 00-1.48.71l.11.24a8.57 8.57 0 001.56-.42 7.85 7.85 0 001.92-1 7.37 7.37 0 00-2.06.43zm33.15-35a8.47 8.47 0 00-1.75.44 7.91 7.91 0 00-1.93 1 7.44 7.44 0 002.12-.48 8.06 8.06 0 001.61-.8 1.09 1.09 0 000-.18zm16.2 20.7a8.47 8.47 0 00-1.75.44 7.91 7.91 0 00-1.93 1 7.8 7.8 0 002.12-.48 8.06 8.06 0 001.61-.8.84.84 0 000-.18z" fill="#fff"/><path d="M361.22 185q-.66-3-1.29-5.93c-.21-1-.43-2.06-.66-3.08-.1-.47-.21-.95-.31-1.42-.06-.23-.13-.47-.17-.7-.14-.87 0-.1-.24-.94h-.1c.06.55-.05.33.05.74a7.38 7.38 0 01.16.94c.07.48.15.95.23 1.43.15 1 .33 2 .52 2.93 0 .13 0 .25.07.38v-.1c-.36-1.06-.74-2.11-1.11-3.16 0-.05-.09 0-.07 0a32.65 32.65 0 00.89 3.22c.2.62.44 1.22.68 1.82.26 1.3.51 2.6.78 3.89.85 4 1.72 8.06 2.89 12-1.7.78-27.11 11.56-28 12-.09.05 0 .18.08.13.91-.42 26.5-10.91 28.18-11.72a.17.17 0 00.11-.13.23.23 0 00.09-.3c-.85-4-1.87-8-2.78-12zM349.9 221c-1-2.11-5.15-10.53-6.33-12.54h-.07c.76 2.14 4.59 10.56 5.6 12.68a127.94 127.94 0 006.45 12.48c.05.07.18 0 .14 0-1.64-4.36-3.79-8.47-5.79-12.62zM342.84 155.16h.05c-.39 2.93-1.08 9.74 3.56 9.64a9.9 9.9 0 005.15-2.12 26.37 26.37 0 004.19-3.71 38.59 38.59 0 004-4.85c0-.07.16 0 .1.09-1.21 1.72-2.26 3.53-3.64 5.14a22.69 22.69 0 01-4.53 4.11 9.89 9.89 0 01-5.46 2.05 3.74 3.74 0 01-3.6-3.07 16.62 16.62 0 01.18-7.28z" fill="#263238"/><path d="M346.42 161.66c3.3.56 9.24-5.24 11.18-9.41.13-.29-.48-3.17-1.06-6.7-.35-2.15-.68-4.55-.83-6.76l-13.64 4.28a35.36 35.36 0 011.9 8.4 5.47 5.47 0 010 .92v.15c-.22 1.74-.74 8.58 2.45 9.12z" fill="#ad6359"/><path d="M343.93 152.39v.14a8.58 8.58 0 001.43 0c8-.7 9.26-10.65 9.44-13.44l-3.41 1.07-9.31 2.92a35 35 0 011.89 8.41 4.54 4.54 0 01-.04.9z" fill="#263238"/><path d="M358.81 125c.85 5.19-3.72 19.25-7.7 22-5.77 4-14.25 3.28-17.37-3.43-3-6.51 3.25-24.72 7.61-27.11 6.41-3.53 16.21.87 17.46 8.54z" fill="#ad6359"/><path d="M357.6 134.25c-1.52 5.41-4.11 11.11-6.49 12.73-5.77 4-14.24 3.28-17.38-3.43-1.11-2.4-1-6.38-.11-10.58 0 .21.13 3.38 1.85 4a2.5 2.5 0 002.8-.86l1.22-.06a8.58 8.58 0 005.58 2.39 10.11 10.11 0 008-2.82c1.41-1.52 1.47-2.2 1.47-2.2z" fill="#263238" opacity=".2"/><path d="M344.14 132.07s.06.07.05.11c-.33.94-.56 2.07.2 2.66 0 0 0 .06 0 0-1.02-.44-.71-1.93-.25-2.77z" fill="#263238"/><path d="M345.31 131.35c1.56.37.7 3.47-.75 3.13s-.56-3.48.75-3.13zM338.64 130.54s-.09 0-.1.06c-.24 1-.67 2-1.63 2.11v.06c1.09.14 1.66-1.28 1.73-2.23z" fill="#263238"/><path d="M338.06 129.3c-1.51-.55-2.49 2.51-1.09 3s2.35-2.55 1.09-3zM346.92 130.27a13 13 0 01-1.08-.75 2.17 2.17 0 01-1-1 .67.67 0 01.33-.76 1.67 1.67 0 011.68.28 2.46 2.46 0 011.09 1.42.72.72 0 01-1.02.81zM337.29 127.41h1.32a2.16 2.16 0 001.35-.24.67.67 0 00.18-.81 1.69 1.69 0 00-1.53-.75 2.45 2.45 0 00-1.71.51.73.73 0 00.39 1.29zM342.17 141.14a1.45 1.45 0 01-1 .34 2.54 2.54 0 01-1-.52h-.05a1.31 1.31 0 001.07.86 1 1 0 001-.64c.09-.02.02-.06-.02-.04z" fill="#263238"/><path d="M342 138a3.39 3.39 0 01-2.59.85 4.55 4.55 0 01-1.19-.27.78.78 0 01-.21-.09l-.2-.09a.25.25 0 01-.14-.27.29.29 0 010-.1v-.08c.18-.74.57-1.85.57-1.85-.31.06-1.86.3-1.73-.08a51.32 51.32 0 014-9.53c.05-.1.21 0 .17.07-.92 3.06-2.36 5.94-3.33 9a5.57 5.57 0 011.67 0c.1.06-.78 2.12-.84 2.46a4.66 4.66 0 003.67-.11c.15-.06.15.02.15.09z" fill="#263238"/><path d="M338.64 138.54a3.91 3.91 0 001.3 1.52 1.85 1.85 0 001 .28c.8 0 1-.74.95-1.37a4.17 4.17 0 00-.15-1 5.11 5.11 0 01-3.1.57z" fill="#263238"/><path d="M339.94 140.06a1.85 1.85 0 001 .28c.8 0 1-.74.95-1.37a1.84 1.84 0 00-1.95 1.09z" fill="#ff98b9"/><path d="M356.59 139.16s6.09-8 6.12-13c0-2.26-2.87-4.09-2.87-4.09a5.08 5.08 0 00-1.06-5.25c-2.39-2.77-8.85-2.88-8.85-2.88s-3.52-6.44-9.65-4.68-3 8.83-3 8.83-2.48 2.83 2.53 5.77 15.61 1.68 15.61 1.68a36.85 36.85 0 00-1 10.88 3.32 3.32 0 002.17 2.74z" fill="#263238"/><path d="M348.91 113.9a10.3 10.3 0 014.21-.32 11.09 11.09 0 013.66 1 6.21 6.21 0 013.86 5.1 4.3 4.3 0 01-1.16 3.16s-.08 0-.05-.06c1.54-1.53 1.1-4.23-.16-5.78a9.35 9.35 0 00-6-2.94 17.83 17.83 0 00-4.38 0 .07.07 0 01.02-.16zM335.78 111.65a5 5 0 013.82-2.84 8.62 8.62 0 015.54.77 11 11 0 014.2 3.85s0 .08-.07 0a9.53 9.53 0 00-8.72-4.34 5.28 5.28 0 00-4 2.18 5.15 5.15 0 00-.32 4.37 9.74 9.74 0 003.38 4.19v.05a10 10 0 01-3.43-3.61 5.7 5.7 0 01-.4-4.62zM338.52 124a17.85 17.85 0 007.25 2.06 36.53 36.53 0 007.89-.25c1.52-.2 3-.46 4.55-.75v.07a39.13 39.13 0 01-8.21 1.62 19.91 19.91 0 01-7.67-.87 17.44 17.44 0 01-3.85-1.83s.01-.05.04-.05z" fill="#263238"/><path d="M354.15 136.33s4-4.14 5.9-2.66-1.56 7.85-4.18 8.38a2.55 2.55 0 01-3.16-1.87z" fill="#ad6359"/><path d="M359 135.47v.07c-1.85.43-3 1.9-3.91 3.47a1.41 1.41 0 012.14-.06.06.06 0 01-.06.09 1.58 1.58 0 00-1.79.27 7.86 7.86 0 00-1 1.26c-.1.14-.37 0-.28-.16.3-2.26 2.5-5.08 4.9-4.94z" fill="#263238"/></g></svg>