<svg xmlns="http://www.w3.org/2000/svg" width="512" height="512"><g xmlns="http://www.w3.org/2000/svg" fill="#01a479"><path d="M256 56a201.064 201.064 0 0146.161 5.352l3.678-15.572a217.421 217.421 0 00-116.3 4.639l4.918 15.226A199.876 199.876 0 01256 56zM50.419 189.541a217.168 217.168 0 000 132.918l15.226-4.918a201.157 201.157 0 010-123.082zM256 456a199.871 199.871 0 01-61.541-9.645l-4.918 15.226a217.3 217.3 0 00124.608 2.5l-4.3-15.413A200.428 200.428 0 01256 456zM463.692 315.524A216.338 216.338 0 00472 256a214.164 214.164 0 00-20.231-91.389l-14.494 6.778A198.266 198.266 0 01456 256a200.337 200.337 0 01-7.691 55.124zM78.927 205.823a184.907 184.907 0 005.619 117.087l14.9-5.82a168.909 168.909 0 01-5.127-106.913zM306.177 433.073l-4.354-15.4a168.909 168.909 0 01-106.913-5.123l-5.82 14.9a184.907 184.907 0 00117.087 5.619zM408.731 185.918A166.614 166.614 0 01424 256a168.345 168.345 0 01-6.323 45.823l15.4 4.354A184.361 184.361 0 00440 256a182.512 182.512 0 00-16.731-76.765zM205.823 78.927l4.354 15.4a169.2 169.2 0 0191.646 0l4.354-15.4a185.2 185.2 0 00-100.354 0zM352 228a28.048 28.048 0 00-18.1-26.172A18.049 18.049 0 00326 200h-30v-18a38.043 38.043 0 00-38-38h-18a8 8 0 00-8 8v51.719L213.578 216H168a8 8 0 00-8 8v96a8 8 0 008 8h48a8 8 0 007.452-5.083l14.018 4.672A8 8 0 00240 328h86a18.045 18.045 0 007.9-1.828A28.048 28.048 0 00352 300a27.731 27.731 0 00-5.017-16A27.982 27.982 0 00344 248.424v-.848A27.707 27.707 0 00352 228zm-176 84v-80h32v80zm155.19-53.581a11.947 11.947 0 010 19.162 8.1 8.1 0 00-3.19 6.446 8 8 0 003.19 6.392 11.963 11.963 0 01-3.175 20.871 8.078 8.078 0 00-1.082.477A1.953 1.953 0 01326 312h-84.7l-17.3-5.766v-77.953l20.438-13.625A8 8 0 00248 208v-48h10a22.025 22.025 0 0122 22v26a8 8 0 008 8h38a1.975 1.975 0 01.935.233 7.886 7.886 0 001.081.477 11.963 11.963 0 013.174 20.871 8 8 0 00-3.19 6.392v8.054a8 8 0 003.19 6.392z" data-original="#000000"/><path data-original="#000000" d="M184 280h16v16h-16zM104 192a88 88 0 10-88-88 88.1 88.1 0 0088 88zm0-160a72 72 0 11-72 72 72.081 72.081 0 0172-72zM496 40V24a8 8 0 00-8-8H328a8 8 0 00-8 8v120a8 8 0 008 8h32v32a8 8 0 008 8h16a8 8 0 006.247-3l29.6-37H472a8 8 0 005.657-2.343l16-16A8 8 0 00496 128V56h-16v68.686L468.686 136H416a8 8 0 00-6.247 3l-29.6 37H376v-32a8 8 0 00-8-8h-32V32h144v8z"/><path data-original="#000000" d="M384 64h16v40h-16zM416 64h16v40h-16zM88 152h16v-48h16V88h-16v-4a12.013 12.013 0 0112-12h12V56h-12a28.032 28.032 0 00-28 28v4h-8v16h8zM138 336H54a38.043 38.043 0 00-38 38v34h16v-34a22.025 22.025 0 0122-22h84a22.025 22.025 0 0122 22v84a22.025 22.025 0 01-22 22H54a22.025 22.025 0 01-22-22v-34H16v34a38.043 38.043 0 0038 38h84a38.043 38.043 0 0038-38v-84a38.043 38.043 0 00-38-38z"/><path d="M96 376a40 40 0 1040 40 40.045 40.045 0 00-40-40zm0 64a24 24 0 1124-24 24.028 24.028 0 01-24 24zM128 368h16v16h-16zM408 320a88 88 0 1088 88 88.1 88.1 0 00-88-88zm0 160a72 72 0 1172-72 72.081 72.081 0 01-72 72z" data-original="#000000"/><path d="M451.578 400.845l-64-32A8 8 0 00376 376v64a8 8 0 0011.578 7.155l64-32a8 8 0 000-14.31zM392 427.056v-38.112L430.111 408z" data-original="#000000"/></g></svg>