<svg xmlns="http://www.w3.org/2000/svg" viewBox="0 0 400 300"><g data-name="#489_world_wide_web_flatline"><circle cx="201.16" cy="165.14" r="83.08" fill="#fff"/><path d="M201.16 82.06a83.08 83.08 0 11-83.08 83.08 83.07 83.07 0 0183.08-83.08m0-.92a84 84 0 1084 84 84.09 84.09 0 00-84-84z" fill="#231f20"/><path d="M138.87 110.17a3.14 3.14 0 001.91.12l-1.11-1c1.5-1.65 3.08-3.24 4.71-4.77a3.72 3.72 0 01-1.88 3c1.76.1 3.13-.94 4.67-1.41a51.59 51.59 0 015.55-1L150 107a12.71 12.71 0 001.58.5c.51-1.11 1.18-.21 1.78-.24 1.35-.08 2.84 1.52 3.87-.13a7.77 7.77 0 011.43.31 14.48 14.48 0 013.62 1.69c1.26 1 1.65 1.12 2.61-.36l-1.27-.44v-.51l2.58-.56a9.12 9.12 0 01.12 1.85 3.69 3.69 0 01-.53 1.09 19.58 19.58 0 012.26.35 17.91 17.91 0 012.09.87l-.63 1.28 3.45-.55.13.31-1.32.87c2 .59 3.2-.44 3.21-2.46l1.69-.91a4.3 4.3 0 00-1.78.22c-1.86.41-3.75.88-5.58-.06-.94-.48-.89-1.15 0-1.61a19.57 19.57 0 013.47-1.48c2.1-.6 4.26-1 6.43-1.51l-.36-.55a21.37 21.37 0 013-.64 5.17 5.17 0 011.76.58l-.53-1.14c1 .47 1.82 1.21 2.43 1.07 1.33-.3 2.35.73 3.73.46.78-.15 1.83 1 2.43 1.39a9.42 9.42 0 011.86.41 11.16 11.16 0 011.59 1.22l-2.11-.51c.95 1.18 2 2.57 3.13 3.85.79.88 1.64 2 2.67 2.29a9.45 9.45 0 013.78 2.16 2.2 2.2 0 01.58 1.67 11.51 11.51 0 01-.73 2.57 1.91 1.91 0 01-2.39 1.07c-.83-.41-1.87-1.41-2.38-1.18-.74.35-1.1 1.54-1.62 2.38a5.36 5.36 0 00-.28.53c-.48 1-.42 3.29-2.25.91-1.49.32-1.5-.9-1.59-1.73a2.33 2.33 0 00-1.31-2 1.15 1.15 0 01-.14-2.12c1.15-.82 1.28-1.57.29-2.63-.52-.56-1.31-.86-1.89-1.39s-.89-1.23-1.46-1.69a6.83 6.83 0 00-2.24-1.26c-.47-.13-1.1.31-1.78.54 1.35 1.07 2.37 1.86 3.38 2.67.56.45 1.22 3.16.71 3.47a7.18 7.18 0 01-3.1 1 15.88 15.88 0 01-2.92-.62 4.47 4.47 0 00-1.43.3v.6l2.57.24a15.2 15.2 0 012 .24c.91.2 1 .81.39 1.4-.84.77-.57 1.31.12 1.92 1.73-1.41 2.11-1.27 2.52.93a8.59 8.59 0 010 1.52c.71.3 1.58 1 2 .8 1.82-.87 3 .74 4.63.86.48-1.26 1.39-.49 2.23-.47a2.54 2.54 0 001.5-.64c.23-.19.38-.88.24-1a2.53 2.53 0 01-.47-2.79c2.19 1.2 2.17 1.2 1.67 3.44a7.07 7.07 0 00-.1 1.38l3.25 1.3c1 1 1.78 1.78 2.53 2.51.27.25.67.42.83.73a2.38 2.38 0 003.23 1.25c-.05.45-.1.88-.16 1.36l2.88-.13a27.29 27.29 0 01-2.7 3c-1.15 1.32-.21 2.72 0 4.07 2.42.19 4.84-.93 7.18.48-1.33 2.71.89 5.51-.71 8.16l-1.59-.19-.94 1.25c-2.42-.57-4.76-.91-5.49-3 0-.81.18-1.4 0-1.7-.56-.78-1.31-1.4-1.94-2.12-.42-.49-1.12-1.05-1.09-1.54.08-1.56-.85-1.48-1.71-1.13a1.83 1.83 0 01-2.24-.4 12.9 12.9 0 00-1.71-1.17c-.41.52-.81 1.08-1.26 1.6a16.51 16.51 0 01-2.41 2.59c-1.57 1.14-3.44 2-2.76 4.53l-1.11-1.53c.19-.64.32-1.1.53-1.82l-1.81.77c.06-.29 0-.5.12-.56 1.06-.69 1.7-2 3.08-2.26a2.16 2.16 0 001-.87c.41-.54.67-1.19 1.1-1.71 1.06-1.28.87-2-.59-2.36a3.86 3.86 0 01-.49.93c-.16.18-.66.16-.7.31-.38 1.46-1.62 1.89-2.73 2.56-.69.42-1.61 1.23-1.61 1.87 0 2.93-2.1 4.72-3.12 7a12.8 12.8 0 01-1.18-2.06 2 2 0 01.14-1.38 15.74 15.74 0 011.17-1.9c-.65 0-1.27.26-1.5.06-1.13-1-1.1-1.06-2.08-.49.08 1.07.15 2 .21 2.77-.45.66-.77 1.65-1.41 1.95s-1.45 1.74-2.81.54c-.42-.38-1.85.38-2.82.61a.25.25 0 01-.14 0l-2.46-1.12c.51 2.25.91 4 1.32 5.83.26 1.15.7 2 2.15 2.05.56 0 1.1.62 1.38.79l-2.26 2.37 1.11.86-.15.43-2.17-.65c-.3.53-.71 1.18-1.06 1.88a96.1 96.1 0 00-1.66 3.57c-.42 1-.82 1.95-1.19 2.94a22.25 22.25 0 01-.72 2.18 18.82 18.82 0 01-1.44 2.23c-1.48 2.16-1.44 4.71-1.87 7.14-.15.86-.53 1.17-1.31.78a41.27 41.27 0 01-4.16-2.21c-1.41-.92-2.61-2.19-4.06-3.05a10.62 10.62 0 01-3.49-2.81c-.25-.36-.44-.75-.66-1.12a7.09 7.09 0 00-.71-1.12c-1.67-1.84-1.33-3.46.9-4.56a2.15 2.15 0 00.95-1.21 9 9 0 00.22-2 13.82 13.82 0 011.68 2.17c.64 1.27 1.67.5 2.51.66l.27-1.58c.07-.34.15-.68.33-1.45.33.79.48 1.14.58 1.39l2.56-5.47c-1.37-1.53-1.65-1.49-2.62.36a8.58 8.58 0 00-.35.83 3.78 3.78 0 01-5.32 2.14c-.71 1.76-.86 2-2.88 2.11s-4.14 0-6 0l-3.39 3.86 1 .4-2.24 1.93-1.21-1.46c-.52 2.79-1 6.06-1.76 9.22a49.21 49.21 0 01-3 9.37 11.46 11.46 0 01-2.69-8.18 3.75 3.75 0 00-.27-2.16c-.72-1.05-1.89-1.81-2.57-2.88-1.07-1.66-3.16-2.51-3.57-4.68 0-.28-.65-.55-1-.65-1.09-.28-2.19-.47-3.33-.7a8.23 8.23 0 01-.8 2.36 13.2 13.2 0 00-1.67 2.87 83.94 83.94 0 01-.54-9.43 82.8 82.8 0 0120.71-54.97zM254 229.24a5.13 5.13 0 01-.48-1.67 3 3 0 00-1.73-2.89c-1.37-.62-2.82-1-4.23-1.57a1.55 1.55 0 01-.84-.53 16.07 16.07 0 01-1.71-3.67 44.38 44.38 0 01-.62-5.44 1.23 1.23 0 00-.12-.58c-.72-.93-1.55-1.79-2.19-2.78s-1.71-2.29-1.77-3.48a2.55 2.55 0 012.41-2.86 1.08 1.08 0 00.59-.44c1.62-2.19 4-1.71 6.24-1.74-.2-.94.28-1.25 1.26-1.48 2.28-.52 4.11-1.59 4.77-4.18s2-3.48 4.88-3.64a5.26 5.26 0 002.32-1.12 10.49 10.49 0 001.49-1.49 5.43 5.43 0 01.73-.78c.79-.54 1.36-1.71 2.41-1.48a5.2 5.2 0 003.33 0c1-.45 2-.94 3.21-1.51l1.11 3c.76-1.18 0-2.35-.19-3.59 2.21 1.36 4.75 2.14 5.28 5.16l.14-.08A83.16 83.16 0 01254 229.24zM270.69 138.12c-2.79.63-4.87-.77-7.1-1.85a1.47 1.47 0 01-.76-1.07 2 2 0 01.8-1.36 6.8 6.8 0 011.95-.48l-.86-.56a19.69 19.69 0 003.21-2c.48-.44.32-1.51.69-2.16.63-1.09 1.46-2.08 2.24-3.17.75 1.06.95 2.95 2.77 2.49A2.18 2.18 0 00275 127a82.54 82.54 0 019 31.89 4.45 4.45 0 00-1-.78c-2.28-1.3-2.41-1.71-1.82-4.33a13.54 13.54 0 000-2.57l-.57 2.19c-.54-1-1.31-1.73-1.39-2.57-.14-1.49-.88-1.83-2.14-1.85a7.07 7.07 0 01-1.47-.33l.42-.19c-.08-.74.11-1.88-.29-2.14a44.72 44.72 0 00-4.91-2.55l1.07 2.3-.37.09-5.22-2.78.23-.4.65.37-.36-1.22a.66.66 0 01.56.33c1 1.4 1.45 1.51 2.85.5 1.05-.75 1.43-1.61.32-2.67-.1-.09.16-.86.3-.87a4.89 4.89 0 011.75.13 22.73 22.73 0 012.23.92c-1.17-1.14-2.36-2.76-4.15-2.35z" fill="#d1d3d4"/><path d="M198.85 194.6a3.12 3.12 0 00-.4 2.15c.66 2.21.67 4.05-1.13 5.9a8 8 0 00-2.13 6.08 1.34 1.34 0 01-.22.86c-.73 1-.29 1.7.2 2.7 1.08 2.2 2.1 4.46.59 7.05a10.52 10.52 0 00-1.95 5.07 7.75 7.75 0 01-1.91 5.26 5 5 0 00-1.49 3.34 2.53 2.53 0 01-1.41 2.72 7.6 7.6 0 00-1.43-.47 25 25 0 01-4.08-.43c-3.38-1-5-3.87-6.76-6.61-.32-.5-.12-1.33-.17-2.3-.2-.11-.66-.4-1.15-.63a2.22 2.22 0 01-1.36-3c.15-.52.4-1 .52-1.56.08-.3.12-.77 0-.92-1.13-1-2.36-2-3.47-3-.72-.68-1.67-1.44-1.85-2.31a11.09 11.09 0 01.2-4c.14-.89.73-1.71.89-2.6s-.47-2.1.57-3c.13-.11.06-.64-.09-.85-1.68-2.33-3-5.07-5.2-6.83-2.87-2.32-4.29-5.36-5.87-8.41a10.22 10.22 0 01-.56-2.87c2.18.56 4.11 1.1 6.07 1.52a1.3 1.3 0 001.09-.51c.32-.55.28-1.36.66-1.83.72-.88 1.67-1.55 2.46-2.37a4.2 4.2 0 001-1.52c.65-2 2.13-3.55 2.36-5.8.14-1.38 1.42-2.62 2-4a52 52 0 002.1-5.21c.44-1.31 1.17-1.2 2.21-.92a4.82 4.82 0 002.37.18 44.3 44.3 0 004.58-1.59c1.35-.51 2.42.08 2.54 1.44.09 1 .51 1.51 1.45.82s2.79-.32 3.13-2.08c0-.06.36 0 .52-.09 1.42-.61 3.36.17 4.15-1.34-.38-1.14-.7-2.1-1.06-3.15a12.09 12.09 0 012-.27c1.72.06 3.45.12 5.16.35a14.54 14.54 0 013.55.94c1.82.75 3.57 1.41 5.2.1a11.64 11.64 0 002.34 2.4 3.06 3.06 0 011.7 2.78c0 1.83 1 2.47 2.43 2.92a1.72 1.72 0 01.92.63c.85 1.39 1.71 2.8 2.44 4.25.52 1 1.46 1.91.51 3.4a4.73 4.73 0 00-.1 3.5 11.57 11.57 0 01.37 4.59c0 .33-.35.65-.59.94s-.54.42-.73.69a36 36 0 01-2.61 3.77 37.34 37.34 0 01-3.45 2.91 2.16 2.16 0 01-2.33.33 20.33 20.33 0 00-3.77-.36 7 7 0 01-1.44-.22 27.15 27.15 0 00-2.94-1.05c-1-.22-2.37-.85-2.83.66-.42 1.36-1.19 1.31-2.28 1.21a1.9 1.9 0 00-1.52.64zM261.71 108.26a3.59 3.59 0 01-.83-.38l-2.44 1.7 3.12-.45.07.47-3 1.11v1.48l3.57 1.82-1.64 1.3a3.46 3.46 0 010 1.3c-1.13 2.32-2.28 4.63-3.51 6.89a3.79 3.79 0 01-1.42 1.39 21.16 21.16 0 01-2.61 1.17c-.66.3-1.29.63-1.49-.53s-.49-2.2-.76-3.3c-.05-.2-.12-.48-.27-.55-1.23-.64-1.45-1.67-1.44-3 0-.42-.72-1.23-1.05-1.2-2.42.23-3.94-1-5.25-2.81-.36-.5-1-1.12-1.49-1.15-3.17-.2-5.84-1.62-8.66-3.24l3.79-.39-1-1.24-3 1.26a2.18 2.18 0 011.49-2.75c1.3-.5 1.43-1.2.76-2.1h-3.48l1-1.13-2.23-.32 1-1c-1.74-1.18.54-1.77.4-2.66l-2.16-.14c.4-.6.62-1.32 1.06-1.51a6.5 6.5 0 012.16-.17c-2-3-5.41-4-8.53-5.45a6.58 6.58 0 015.5-.35 35.58 35.58 0 004.92 1c-.15-.23-.45-.72-.76-1.22.64.07 1.28.16 1.92.21h1.07l.05-.61-3.91-.66c1.33-.36 2.6-.87 3.88-1.12a83.25 83.25 0 0125.17 18.33zM272.28 122.16l.47.81c-.31.1-.63.21-1 .34zM267.74 115.53h.05q.38.5.72 1zM270.83 121.72a3.39 3.39 0 01.09-1.71c.35.53.68 1.06 1 1.6zM166.31 221.28c.53 1.14.38 3.32-.53 4.1a1.68 1.68 0 01-2.71-.7c-.87-2.86-1.63-5.74-2.43-8.62-.06-.22 0-.5-.15-.67A2.59 2.59 0 01161 212c1.67 1.25 1.85 4 4.85 3.86 0 1-.06 1.88 0 2.78a7.93 7.93 0 00.46 2.64zM206.42 129.71c-.14-.37-.49-.9-.36-1.06a1.37 1.37 0 01.79-.36c1.16-1.61 2.18-3 3.26-4.49-.88-1.56-.85-2.14.33-2.91.72-.47 2.37.19 3.12 1.26.35.49-.15 1.41-1.45 2.64l.18.93c-.25 0-.44 0-.54.08-.46.35-1.15.65-1.29 1.12s.29 1 1 .71a1 1 0 01.38.55 17.3 17.3 0 010 1.79l-1.25.37 2.21 1.69-6-.95c-.15-.73-.27-1.08-.38-1.37zM155.63 99.74a35.65 35.65 0 003.6 3.4c-1.59 1.54-3.62 1.75-6.09 1.66.68-.48 1.24-.71 1.5-1.12s.46-1.22.24-1.5a12 12 0 00-4-3.14c.52-.4 1-.8 1.59-1.18a5.9 5.9 0 013.16 1.88zM230.68 121.73a3.74 3.74 0 01-1.79 0 7.63 7.63 0 01-2.57-1.22c-.58-.48-1.9-.87-1.27-2a10.44 10.44 0 012.16-2.08l.12.49 4.54 1.09 1.11-1.48-.18.49 2 1.15-.21.26h-2.13l1.93 1-2.14.62 1.08.8c-.91.35-1.77.69-2.65.88zM191.71 96.64c-1-.78-1.78-1.47-2.64-2.06a1.11 1.11 0 00-1 0c-.25.17-.3.62-.48 1h-2.9l-.06-.54 8.17-3.26-.5 1.11 4.86-.42.11.51a7.27 7.27 0 01-2.1 1.4 6.23 6.23 0 01-2.37-.31l-.05.37 1.85.67-.07.25-1.46.14 1 .51z" fill="#d1d3d4"/><path d="M213.31 127c-.7-.42-.81-1-.12-1.35s1.49-1 2.28 0c.43.49.94.9 1.53 1.45v2.35l.48.24c-.26.21-.58.65-.77.6a14.93 14.93 0 01-3.14-1.15c-.25-.14-.06-1.06-.1-1.61-.01-.24-.05-.53-.16-.53zM283.12 174.4a3 3 0 01.63-.23q0 .53-.12 1.05a12.81 12.81 0 00-1.74.74c-.6.3-1 1-1.57 1.76l-2.75-.32c2-1.08 3.74-2.1 5.55-3zM272.3 179.44c-.12-1.34 2.29-2.19 4.45-1.6l-1.15 1.32 2.27-.2c-1.78 1.24-3.71.33-5.57.48zM182.22 91.91h7.67A10.5 10.5 0 01186.7 93a37.52 37.52 0 01-4.48-.21zM131.14 192.25c-.43-.17-1-1-.91-1.3a16.53 16.53 0 011.52-2.72l.46.2v2.75c0 .91-.21 1.39-1.07 1.07zM198.62 144.11l1 .4v2.57c-1.7-.09-.92-1.46-1.26-2.2-.09-.17.16-.49.26-.77zM193.11 148.29h2.71l.08.31-2.48 1.51c-.11-.68-.22-1.29-.31-1.82z" fill="#d1d3d4"/><path fill="#231f20" d="M291.306 82.071l-2.457-1.235 11.52-22.917 2.458 1.235z"/><path d="M291.29 82.58a.59.59 0 01-.23 0l-2.45-1.24a.5.5 0 01-.23-.67l11.53-22.97a.48.48 0 01.66-.22l2.43 1.24a.49.49 0 01.22.67l-11.49 22.92a.51.51 0 01-.29.25zm-1.79-2l1.57.79 11.07-22-1.57-.79z" fill="#231f20"/><path d="M282.13 90.68c.29-.89 6.2-8.07 6.42-9.63s-1.1-8 .22-8.89 3.75 5.13 3.75 5.13 5.17-9.41 6.64-8.8 1 5.82.18 9-10.2 18.79-10.2 18.79z" fill="#fff"/><path d="M289.14 96.76a.5.5 0 01-.31-.1l-7-5.58a.52.52 0 01-.16-.55 22.28 22.28 0 012.29-3.32c1.59-2.15 4-5.4 4.12-6.23a18.29 18.29 0 00-.15-2.74c-.32-3.35-.46-5.78.57-6.49a1 1 0 01.9-.13c1.18.35 2.51 3 3.2 4.53 2.38-4.24 5.31-8.73 6.77-8.12 2.22.92.94 7.78.48 9.57-.85 3.19-9.85 18.28-10.28 18.92a.52.52 0 01-.34.24zm-6.38-6.21l6.24 5c1.59-2.67 9.15-15.43 9.86-18.18 1-3.7 1-8 .11-8.39-.79.06-3.76 4.48-6 8.58a.5.5 0 01-.47.26.52.52 0 01-.43-.32c-1.13-2.78-2.52-4.9-3-4.9-.64.44-.32 3.78-.16 5.58a16.52 16.52 0 01.15 3c-.14 1-1.88 3.4-4.31 6.68-.75.98-1.63 2.14-1.99 2.69z" fill="#231f20"/><path d="M307.82 221.14s7.38 13.06 6.87 13.12-12.32 3.54-12.32 3.54-6.95-10.6-6.85-10.87 12.3-5.79 12.3-5.79z" fill="#fff"/><path d="M302.37 238.3a.48.48 0 01-.41-.23c-7.1-10.81-7-11-6.91-11.31s.17-.46 12.57-6.07a.49.49 0 01.64.21c7.26 12.86 7 13.29 6.89 13.57a.56.56 0 01-.41.29c-.48.07-7.58 2.15-12.22 3.52zm-6.21-11.17c.78 1.4 4.15 6.61 6.43 10.08 2.73-.8 9.5-2.79 11.5-3.32-.7-1.68-4.14-7.95-6.48-12.1-4.03 1.82-9.98 4.56-11.45 5.34z" fill="#231f20"/><path d="M314.69 234.26s20-1.09 21 2.47-28.53 12.64-28.53 12.64l-4.8-11.57z" fill="#231f20"/><path d="M307.17 249.86a.5.5 0 01-.46-.3l-4.8-11.56a.49.49 0 010-.41.48.48 0 01.31-.26l12.31-3.54h.11c3.41-.18 20.46-.92 21.51 2.83s-21.82 11.09-28.85 13.25a.39.39 0 01-.13-.01zm-4.12-11.74l4.41 10.64c13.84-4.29 28.29-10 27.76-11.9-.62-2.18-12.31-2.55-20.45-2.11z" fill="#231f20"/><path fill="#fff" d="M265.91 223.55l-5.09 5.64-9.24-9.72 7.42-7.78 6.91 11.86z"/><path d="M260.82 229.69a.52.52 0 01-.37-.16l-9.23-9.72a.49.49 0 010-.69l7.42-7.77a.48.48 0 01.42-.15.52.52 0 01.38.24l6.9 11.85a.5.5 0 01-.06.59l-5.09 5.64a.58.58 0 01-.37.17zm-8.55-10.22l8.54 9 4.48-5-6.38-11z" fill="#231f20"/><path d="M260.82 229.19s6.67 20.13 3.17 19.86-20.1-21.24-20.1-21.24l7.69-8.34z" fill="#231f20"/><path d="M264.06 249.55H264c-3.6-.28-18.74-19.26-20.45-21.42a.51.51 0 010-.65l7.69-8.34a.52.52 0 01.37-.16.51.51 0 01.36.15l9.24 9.72a.72.72 0 01.11.19c1 2.91 5.68 17.55 3.72 20.05a1.18 1.18 0 01-.98.46zm-19.52-21.72c6.41 8.06 17.14 20.54 19.49 20.72a.19.19 0 00.2-.09c1.25-1.59-1.69-12.46-3.85-19l-8.79-9.25zM271.68 127.78s40.36 43.69 41 48c1.23 8.34-46 51.16-46 51.16l-10.82-14.77L284 179.38l-37-50.52z" fill="#231f20"/><path d="M266.66 227.43h-.06a.51.51 0 01-.35-.2l-10.81-14.78a.5.5 0 010-.62l27.86-32.47-36.71-50.21a.49.49 0 01-.05-.51.49.49 0 01.43-.28l24.67-1.08a.44.44 0 01.38.16c4.15 4.49 40.49 43.93 41.13 48.25.53 3.63-7.1 13.43-22.69 29.14C279 216.45 267.11 227.2 267 227.3a.46.46 0 01-.34.13zm-10.18-15.25l10.25 14c13.37-12.14 46.42-43.79 45.45-50.35-.44-3-24.53-30-40.71-47.55l-23.51 1 36.4 49.78a.48.48 0 010 .62z" fill="#231f20"/><path fill="#231f20" d="M238.42 137.47l59.07 96.45 16.58-9.54-48.89-95.91-26.76 9z"/><path d="M297.49 234.42a.5.5 0 01-.43-.24L238 137.73a.54.54 0 010-.43.51.51 0 01.31-.3l26.69-9a.49.49 0 01.6.24l48.9 95.91a.5.5 0 01-.2.66l-16.58 9.55a.57.57 0 01-.23.06zm-58.32-96.68l58.49 95.51 15.75-9.07-48.48-95.1z" fill="#231f20"/><path d="M298.63 193.25a.5.5 0 01-.45-.26l-27.75-53a.51.51 0 010-.48l2.93-5.25a.49.49 0 01.67-.2.5.5 0 01.2.68l-2.8 5 27.63 52.77a.51.51 0 01-.21.68.59.59 0 01-.22.06zM242 67.62c-2.58-.47-5.14-1.05-7.66-1.75-1.84-.51-3.81-1.19-4.81-2.81 1.65-.76 2.36-2.66 2.92-4.38l3.75-11.63a34.22 34.22 0 014-9.22c1.34-1.94 7.09-7.66 9.22-4.1 2.42-1.87 7.53-3.23 10.4-1.82a12.71 12.71 0 016.49 8.5 21.83 21.83 0 01-.43 9 5.75 5.75 0 01-.56 1.73 6.47 6.47 0 01-1.91 1.77 39.49 39.49 0 00-12.31 14.68 1.79 1.79 0 01-.76 1 1.72 1.72 0 01-.9.07c-2.44-.26-4.96-.6-7.44-1.04z" fill="#fff"/><path d="M249.81 69.15h-.42c-2.49-.23-5-.57-7.45-1-2.59-.46-5.19-1.06-7.72-1.76-2-.56-4-1.31-5.09-3a.49.49 0 01-.06-.41.52.52 0 01.27-.31c1.44-.66 2.1-2.38 2.65-4.08l3.76-11.62a34.29 34.29 0 014.09-9.36c1.12-1.62 4.92-5.45 7.7-5.45h.11a2.59 2.59 0 011.93.94c2.55-1.71 7.46-3.06 10.51-1.57a13.24 13.24 0 016.76 8.85 22.17 22.17 0 01-.43 9.22 6 6 0 01-.62 1.88 6.35 6.35 0 01-1.92 1.84l-.13.09a38.91 38.91 0 00-12.2 14.47 2.21 2.21 0 01-1 1.19 1.62 1.62 0 01-.74.08zm-19.53-5.93a8.31 8.31 0 004.21 2.17c2.5.69 5.07 1.28 7.62 1.74 2.43.44 4.91.77 7.37 1a1.39 1.39 0 00.65 0c.22-.1.38-.43.52-.72a39.86 39.86 0 0112.52-14.84l.12-.09a5.57 5.57 0 001.65-1.54 5.27 5.27 0 00.5-1.57 21.28 21.28 0 00.43-8.81 12.16 12.16 0 00-6.22-8.16c-2.58-1.26-7.51-.07-9.88 1.76a.47.47 0 01-.39.1.49.49 0 01-.38-.26 1.65 1.65 0 00-1.43-.9h-.07c-2.35 0-5.91 3.62-6.88 5a33.83 33.83 0 00-4 9.1l-3.76 11.62c-.45 1.65-1.13 3.45-2.58 4.4z" fill="#231f20"/><path d="M266 53.74s3.12 6.87 2.06 8-3.74-.15-3.74-.15" fill="#fff"/><path d="M266.76 62.74a6.87 6.87 0 01-2.65-.68.51.51 0 01-.23-.67.5.5 0 01.67-.23c.61.3 2.5 1 3.15.26.45-.48-.56-4-2.15-7.47a.5.5 0 01.25-.66.49.49 0 01.66.25c1 2.15 3.14 7.3 2 8.56a2.18 2.18 0 01-1.7.64z" fill="#231f20"/><path d="M266.44 45.4c2.27 2.55.8 6.93.31 9.86q-1 6.18-2.35 12.31c-.55 2.59-7.33 1.57-8.4.6l-.75 8.75s-2.35 4.52-7.41 1.12-5.78-7.04-5.78-7.04l2.34-11.9s4.47.74 8-4.17 4.69-13.11 4.69-13.11 7.13 1.09 9.35 3.58z" fill="#fff"/><path d="M251.38 79.81a6.93 6.93 0 01-3.82-1.35c-5.17-3.47-6-7.25-6-7.41a.34.34 0 010-.2L243.91 59a.52.52 0 01.57-.4c.17 0 4.22.61 7.48-4 3.38-4.75 4.58-12.81 4.59-12.89a.48.48 0 01.2-.33.5.5 0 01.37-.1c.3 0 7.38 1.15 9.69 3.74 2.06 2.31 1.32 5.86.74 8.71-.12.56-.23 1.09-.31 1.57-.68 4.11-1.47 8.25-2.35 12.33a2.39 2.39 0 01-1.82 1.73 11.66 11.66 0 01-6.64-.42l-.68 8a.7.7 0 01-.06.19 5.38 5.38 0 01-3.17 2.52 4.81 4.81 0 01-1.14.16zm-8.81-8.87c.15.56 1.17 3.75 5.55 6.69a5.2 5.2 0 004.15 1.07 4.37 4.37 0 002.49-1.94l.74-8.63a.5.5 0 01.83-.33c.59.53 4.31 1.33 6.43.65.67-.22 1.06-.55 1.15-1 .87-4.07 1.66-8.2 2.34-12.29.09-.5.2-1 .32-1.61.54-2.63 1.22-5.91-.51-7.84-1.75-2-7-3-8.6-3.33-.32 1.88-1.63 8.52-4.69 12.82s-6.65 4.47-8 4.41z" fill="#231f20"/><path d="M264.79 64.48s-3.51 1.46-4.69-2.12" fill="#fff"/><path d="M263.2 65.27a3.56 3.56 0 01-3.57-2.75.5.5 0 11.95-.31A2.91 2.91 0 00262 64a3.67 3.67 0 002.57 0 .5.5 0 01.38.92 5 5 0 01-1.75.35z" fill="#231f20"/><path d="M257.68 55.13a5.56 5.56 0 00-.71-3 7.82 7.82 0 00-1.19-2.13 2.78 2.78 0 00-2.12-1 2.55 2.55 0 00-1.82 1 4.77 4.77 0 00-.84 2 9 9 0 002.83 8.5l-.18-.28" fill="#fff"/><path d="M253.83 61a.49.49 0 01-.32-.12 9.51 9.51 0 01-3-9 5.18 5.18 0 01.94-2.16 3 3 0 012.19-1.21 3.2 3.2 0 012.51 1.2 8.39 8.39 0 011.28 2.23 6.06 6.06 0 01.74 3.29.5.5 0 01-.56.42.49.49 0 01-.43-.56 5.12 5.12 0 00-.66-2.74 7.92 7.92 0 00-1.12-2 2.36 2.36 0 00-1.71-.86 2.09 2.09 0 00-1.46.83 4.46 4.46 0 00-.74 1.77 8.48 8.48 0 002.25 7.62.46.46 0 01.32.21l.19.28a.5.5 0 01-.42.78zM256 68.17s-3.34-1.65-4.59-4.31c0 0-.77 6.31 4.32 9z" fill="#231f20"/><path d="M255.73 73.35a.49.49 0 01-.23-.06c-5.33-2.8-4.6-9.43-4.59-9.49a.52.52 0 01.42-.44.51.51 0 01.53.28c1.16 2.48 4.33 4.07 4.36 4.08a.51.51 0 01.28.48l-.27 4.68a.49.49 0 01-.25.4.45.45 0 01-.25.07zm-3.83-7.79a8.33 8.33 0 003.38 6.44l.2-3.54a12.86 12.86 0 01-3.58-2.9z" fill="#231f20"/><ellipse cx="264.11" cy="50.51" rx="1.49" ry=".59" transform="rotate(-71.37 264.094 50.525)" fill="#231f20"/><path d="M239.1 68.62s13.83 1.65 18.87 9.51 7.48 36.7 10.03 38.87 9.58 13.2 9.47 13.72S236.82 141 236.82 141s-1.67-9.32-5.19-21.49-4.15-50.88 7.47-50.89z" fill="#01a479"/><path d="M249.59 81.07c.29.42 14.17 26.58 14.17 26.58l18.33-21 9.62 8s-16.4 27.42-26.86 30.07-31.47-35.6-30.85-39.6 11.48-9.95 15.59-4.05z" fill="#01a479"/><path d="M263.76 108.15h-.05a.49.49 0 01-.39-.26l-12.57-23.62a.5.5 0 01.21-.68.5.5 0 01.67.21c.15.27 10.24 19.22 12.23 23l7.61-8.7a.5.5 0 01.71 0 .48.48 0 010 .7l-8.04 9.2a.51.51 0 01-.38.15z" fill="#231f20"/><path d="M265 124.85c-6.82 0-13.79-6.07-20.74-18.09a.5.5 0 01.86-.5c7.27 12.56 14.43 18.44 21.32 17.49s14.51-14 14.59-14.17a.5.5 0 11.86.51c-.32.55-8 13.64-15.31 14.65a10.49 10.49 0 01-1.58.11z" fill="#231f20"/><path d="M254.86 153.44a.5.5 0 01-.26-.08.49.49 0 01-.17-.68c4.64-7.74 1.32-11.09 1.18-11.23a.5.5 0 010-.71.49.49 0 01.7 0c.17.16 4.08 4-1 12.47a.51.51 0 01-.45.23z" fill="#fff"/><path d="M230.65 68c-4.2 0-9 .93-11.19 4.48a7.25 7.25 0 000 7.66 6.88 6.88 0 007 2.91c2-.44 3.69-1.79 5.59-2.6 2.71-1.16 5.75-1.18 8.63-1.82a5.13 5.13 0 002.51-1.12 3.91 3.91 0 001.1-2.67c.41-7.11-8.93-6.84-13.64-6.84z" fill="#01a479"/><path d="M230.79 81.55a.48.48 0 01-.46-.32.5.5 0 01.29-.65c.32-.11 7.94-2.9 13.2-2.46a.5.5 0 01.46.54.5.5 0 01-.54.46c-5-.43-12.7 2.37-12.77 2.4a.57.57 0 01-.18.03z" fill="#231f20"/><path d="M305.4 115.81h2.66c0-3.4.17-8.23.17-8.23l5.1 8.23h22.5a3.93 3.93 0 013.93 3.93v13.41a3.93 3.93 0 01-3.93 3.94H305.4a3.93 3.93 0 01-3.93-3.94v-13.41a3.93 3.93 0 013.93-3.93z" fill="#fff"/><path d="M335.83 137.59H305.4a4.44 4.44 0 01-4.43-4.44v-13.41a4.43 4.43 0 014.43-4.43h2.16c0-3.33.17-7.7.17-7.75a.49.49 0 01.37-.46.5.5 0 01.56.22l4.95 8h22.22a4.43 4.43 0 014.43 4.43v13.41a4.44 4.44 0 01-4.43 4.43zm-30.43-21.28a3.44 3.44 0 00-3.43 3.43v13.41a3.44 3.44 0 003.43 3.44h30.43a3.44 3.44 0 003.43-3.44v-13.41a3.44 3.44 0 00-3.43-3.43h-22.5a.49.49 0 01-.42-.24l-4.23-6.82c-.05 1.72-.11 4.43-.12 6.56a.51.51 0 01-.5.5z" fill="#d1d3d4"/><path d="M97.51 109.18h4.25c0 5.43.27 13.15.27 13.15l8.16-13.15h36a6.29 6.29 0 006.29-6.29V81.45a6.29 6.29 0 00-6.29-6.29H97.51a6.29 6.29 0 00-6.28 6.29v21.44a6.28 6.28 0 006.28 6.29z" fill="#fff"/><path d="M102 122.83h-.13a.51.51 0 01-.37-.47c0-.08-.24-7.33-.27-12.67h-3.72a6.79 6.79 0 01-6.78-6.79V81.45a6.79 6.79 0 016.78-6.79h48.64a6.8 6.8 0 016.79 6.79v21.44a6.8 6.8 0 01-6.79 6.79h-35.68l-8 12.92a.51.51 0 01-.47.23zm-4.49-47.17a5.79 5.79 0 00-5.78 5.79v21.44a5.79 5.79 0 005.78 5.79h4.25a.51.51 0 01.5.5c0 3.85.15 8.91.22 11.48l7.28-11.74a.52.52 0 01.43-.24h36a5.8 5.8 0 005.79-5.79V81.45a5.8 5.8 0 00-5.79-5.79z" fill="#d1d3d4"/><path d="M141.16 168a22.3 22.3 0 01-2.52.59c-11.09 2-23.5 1.55-32.37-5.41l1.3-4.87-3.78 3.32-5.1-4.54c8.7-6.91 9.83-17.82 15.54-26.62 4.65-7.17 15.14-7.7 22.41-4.63A21.79 21.79 0 01148 137.06c2.46 5.66 2.38 12.08 1.88 18.23-.57 6.91-2.68 10.85-8.72 12.71z" fill="#fff"/><path d="M127.63 170.1c-7.37 0-15.29-1.56-21.66-6.57a.5.5 0 01-.18-.52l.88-3.28-2.55 2.27a.49.49 0 01-.66 0l-5.1-4.53a.49.49 0 01-.17-.39.47.47 0 01.19-.38c5.37-4.27 7.76-10 10.3-16.06a65.12 65.12 0 015.13-10.44c3.59-5.54 12.88-9.12 23-4.82a22.24 22.24 0 0111.62 11.52c2.53 5.82 2.42 12.32 1.92 18.47-.62 7.65-3.16 11.33-9.06 13.11a24 24 0 01-2.58.6 62.16 62.16 0 01-11.08 1.02zm-20.79-7.1c9.49 7.25 22.46 6.79 31.71 5.11a23.72 23.72 0 002.47-.58c5.43-1.64 7.77-5.07 8.35-12.23.49-6 .61-12.37-1.83-18a21.26 21.26 0 00-11.1-11c-7.29-3.08-17.44-2.27-21.79 4.44A64.83 64.83 0 00109.6 141c-2.4 5.75-4.89 11.69-10.14 16.09l4.33 3.85 3.45-3a.5.5 0 01.82.51zm34.32 5z" fill="#231f20"/><path d="M96.06 240.11c-1.41 0-11.91 1.14-16.83 3.59s-6 2.63-5 5.93 9.65 4.11 16.24 2.86a44.27 44.27 0 0012.16-4.41z" fill="#fff"/><path d="M84.37 253.5c-4.92 0-9.75-1.05-10.56-3.74-1-3.4.16-4 4.11-5.92l1.11-.55c5-2.49 15.52-3.68 17-3.63a.46.46 0 01.35.16l6.58 8a.45.45 0 01.09.37.42.42 0 01-.22.31 44.62 44.62 0 01-12.29 4.47 33.74 33.74 0 01-6.17.53zm11.48-12.93c-2 .06-11.81 1.25-16.41 3.54l-1.12.55c-3.93 1.93-4.44 2.18-3.64 4.84.89 2.94 9.18 3.78 15.73 2.55a44.25 44.25 0 0011.53-4.11z" fill="#231f20"/><path d="M94.65 240.09a3.78 3.78 0 00-2.83 4.28c.46 3.5 7.86 3.65 8.29 3.66s-5.46-7.94-5.46-7.94z" fill="#fff"/><path d="M100.1 248.48c-1.38 0-8.25-.34-8.74-4a4.28 4.28 0 013.19-4.79.47.47 0 01.47.17c5.8 7.85 5.67 8.11 5.51 8.42a.49.49 0 01-.43.2zm-5.62-7.86a3.26 3.26 0 00-2.21 3.69c.33 2.54 5.2 3.1 7.1 3.23-.78-1.25-2.89-4.21-4.89-6.92z" fill="#231f20"/><path d="M149.52 248.1c.22.11 2.23 2.73 11 3.78s12 2.93 14-1.68.61-7.58-3.71-8.9-16.24-2.41-18.58-.21-2.71 7.01-2.71 7.01z" fill="#fff"/><path d="M170.21 253.62a32.89 32.89 0 01-4.8-.57c-1.43-.23-3.06-.5-4.94-.72-3.67-.44-8.57-1.45-11.13-3.78l-.08-.07a.39.39 0 01-.2-.41c0-.21.41-5 2.85-7.31 2.59-2.44 14.83-1.18 19 .1a6.69 6.69 0 014.43 3.32c.77 1.64.62 3.73-.43 6.2s-2.47 3.24-4.7 3.24zM150 247.91c2.39 2.14 7.07 3.09 10.58 3.51 1.9.23 3.53.5 5 .73 5.2.84 7.15 1.16 8.54-2.13.94-2.22 1.09-4.06.44-5.45a5.81 5.81 0 00-3.86-2.83c-4.39-1.34-16-2.28-18.13-.31-1.94 1.79-2.47 5.57-2.57 6.48z" fill="#231f20"/><path d="M146.72 246.22s4 3.32 6.63 2.93 6.33-1.83 4.85-4.71-11-4.58-11-4.58z" fill="#fff"/><path d="M152.91 249.64c-2.77 0-6.33-2.94-6.49-3.07a.47.47 0 01-.16-.39l.5-6.36a.44.44 0 01.17-.32.48.48 0 01.36-.09c1 .18 9.78 1.83 11.31 4.82a2.75 2.75 0 01.11 2.63c-1 2-4.3 2.6-5.29 2.74a2.92 2.92 0 01-.51.04zm-5.72-3.64c.79.62 4 3 6.1 2.69 1.72-.26 4-1 4.61-2.26a1.86 1.86 0 00-.11-1.79c-1.06-2.06-7.28-3.68-10.16-4.25zM98.9 218.3s4.19 16.38 19.51 19.51 23.24 2.29 28.67-8.05 1.83-16.66 1.83-16.66l-48.34-1z" fill="#231f20"/><path d="M131.06 239.91a65.63 65.63 0 01-12.75-1.62c-15.45-3.15-19.86-19.7-19.9-19.86a.57.57 0 010-.26l1.68-6.16a.49.49 0 01.49-.37l48.34 1a.5.5 0 01.43.25c.15.27 3.66 6.69-1.83 17.15-3.84 7.27-8.98 9.87-16.46 9.87zM99.41 218.3c.43 1.5 5 16.13 19.1 19 14.71 3 22.67 2.61 28.13-7.78 4.63-8.83 2.51-14.69 2-15.94l-47.64-.93z" fill="#231f20"/><path d="M152.56 218.45s7.92-25.59 6.88-41.64-11.51-17.22-15.14-17.52-22.85-3.25-30.06 5.23-19.89 48.19-19.89 48.19z" fill="#01a479"/><path d="M124 159.33l1.25 8.57a6.34 6.34 0 008.09 2.19c5.4-2.25 5.5-6.38 5.5-6.38l-2.56-15.82a31.13 31.13 0 01-8.14-14.89s-4.77 8.32-11.68 10.19a67.09 67.09 0 001.7 11.19c1.2 4.17 5.7 4.9 5.84 4.95z" fill="#fff"/><path d="M130.36 171.22a6.93 6.93 0 01-5.59-3.06.44.44 0 01-.07-.19l-1.2-8.23a7.77 7.77 0 01-5.82-5.2 66.76 66.76 0 01-1.72-11.3.5.5 0 01.37-.51c6.63-1.79 11.33-9.87 11.38-10a.5.5 0 01.92.13 30.89 30.89 0 007.93 14.61.55.55 0 01.16.3l2.56 15.82c0 .28-.16 4.58-5.8 6.92a8.06 8.06 0 01-3.12.71zm-4.69-3.5a5.82 5.82 0 007.43 1.9c5-2.09 5.19-5.88 5.19-5.92l-2.53-15.57a31.3 31.3 0 01-7.76-13.86c-1.48 2.25-5.51 7.63-11 9.31a64.32 64.32 0 001.65 10.69c.89 3.07 3.72 4.17 5.32 4.55a1 1 0 01.24.08.5.5 0 01.24.36z" fill="#231f20"/><path d="M132.89 148.13a3.69 3.69 0 01.94-2.16 6.73 6.73 0 011.81-1.3 2.83 2.83 0 011.15-.4 2.21 2.21 0 01.84.17 2.86 2.86 0 011.58 1.2 3.48 3.48 0 01.32 1.6 6.22 6.22 0 01-.16 1.77 4.5 4.5 0 01-5.52 3.25" fill="#fff"/><path d="M135 152.91a5.06 5.06 0 01-1.28-.17.5.5 0 01-.35-.61.48.48 0 01.61-.35 4.14 4.14 0 003.06-.42 4.09 4.09 0 001.85-2.47 6.49 6.49 0 00.15-1.64 2.91 2.91 0 00-.27-1.36 2.39 2.39 0 00-1.31-1 1.73 1.73 0 00-.65-.14 2.3 2.3 0 00-.93.34 6.25 6.25 0 00-1.68 1.2 3.21 3.21 0 00-.81 1.86.52.52 0 01-.54.46.51.51 0 01-.46-.54 4.2 4.2 0 011.07-2.45 7 7 0 011.94-1.41 3.18 3.18 0 011.37-.46 2.65 2.65 0 011 .2 3.33 3.33 0 011.85 1.43 4.06 4.06 0 01.39 1.83 7.56 7.56 0 01-.18 1.9 5 5 0 01-4.86 3.78z" fill="#231f20"/><path d="M125.16 145.68s-2.42 4.78-1.63 5.46 2.7-.07 2.7-.07" fill="#fff"/><path d="M124.53 151.92a2 2 0 01-1.32-.4c-.91-.78.32-3.72 1.5-6.06a.5.5 0 01.67-.22.49.49 0 01.22.67c-1.1 2.18-1.9 4.46-1.71 4.89.36.29 1.48.07 2.16-.19a.5.5 0 01.37.93 6.05 6.05 0 01-1.89.38z" fill="#231f20"/><ellipse cx="128.89" cy="144.55" rx=".74" ry="1.04" transform="rotate(-4.66 128.899 144.58)" fill="#231f20"/><ellipse cx="121.27" cy="145.61" rx=".74" ry="1.04" transform="rotate(-4.26 121.393 145.732)" fill="#231f20"/><path d="M125.79 155.74a11.27 11.27 0 01-4.17-.91.5.5 0 01-.24-.67.49.49 0 01.66-.24s3.59 1.61 6.09.3a4.91 4.91 0 002.37-3.79.5.5 0 111 .18 5.88 5.88 0 01-2.9 4.5 6 6 0 01-2.81.63zM124 159.33s5.51.46 8.39-1.79c0 0-2.43 7.69-7.54 7.67z" fill="#231f20"/><path d="M124.82 165.71a.52.52 0 01-.51-.43l-.86-5.87a.49.49 0 01.54-.57c.05 0 5.35.41 8-1.7a.49.49 0 01.59 0 .51.51 0 01.2.56c-.07.3-2.56 8.01-7.96 8.01zm-.29-5.84l.7 4.82c3.17-.29 5.21-3.93 6.11-6a16.38 16.38 0 01-6.81 1.18z" fill="#231f20"/><path d="M154.48 163.41c4.39.87 17.92 44.14 11.72 48.73-9.67 7.16-39.2-2.62-39.2-2.62l3-12.73s21.31 1 21.7-3.36-11.91-24.88-10.19-27.87 12.97-2.15 12.97-2.15z" fill="#01a479"/><path d="M132.16 201.12a48.77 48.77 0 01-10.59-.72 32.63 32.63 0 00-7.9-1.07 29.86 29.86 0 00-10.26 2.13.75.75 0 00-.35.22c-.32.44.41.87 1 .9a14.34 14.34 0 004.18-.44 40.09 40.09 0 00-9.58 4.86c-.33.23-.71.6-.55 1s.83.33 1.27.14l7.69-3.34a19.33 19.33 0 00-5.48 3.19c-.23.19-.49.46-.43.76.1.51.87.43 1.34.2a43.66 43.66 0 006.71-3.91l-4.79 3.51c-.06.39.34.72.73.74a2.11 2.11 0 001.09-.36l5.31-2.93-3.32 2.23c-.52.35-1.12.92-.88 1.5s1.29.5 2 .21a39.62 39.62 0 018.47-2.43 14.21 14.21 0 013.14-.57 27.68 27.68 0 014.74 1.06l7.08 1.77" fill="#fff"/><path d="M108.2 210.59a1.67 1.67 0 01-.63-.11 1.18 1.18 0 01-.64-.64 1.17 1.17 0 010-.82l-.44.24a2.53 2.53 0 01-1.34.42 1.31 1.31 0 01-.93-.48 1.08 1.08 0 01-.22-.53c-.42.22-.85.42-1.27.62a1.81 1.81 0 01-1.51.1.87.87 0 01-.47-.63 1 1 0 01.27-.89l-1.43.62a2 2 0 01-1.36.12.87.87 0 01-.51-.5c-.22-.51 0-1.07.71-1.53a40.64 40.64 0 016.27-3.53h-.7a1.69 1.69 0 01-1.38-.79.8.8 0 01.08-.84 1.21 1.21 0 01.55-.37 29.9 29.9 0 0110.42-2.17 29.17 29.17 0 017 .87l1 .21a49.49 49.49 0 0010.5.72.45.45 0 01.45.44.46.46 0 01-.45.47 49.48 49.48 0 01-10.69-.74l-1-.2a28.31 28.31 0 00-6.82-.86 29.26 29.26 0 00-10.1 2.1h-.09a1 1 0 00.55.2 13.43 13.43 0 004-.43.46.46 0 01.55.31.46.46 0 01-.29.57 39.19 39.19 0 00-9.42 4.77c-.31.21-.39.38-.39.41s.32.05.67-.1l5.94-2.58c.58-.28 1.17-.54 1.77-.77a.47.47 0 01.59.26.46.46 0 01-.25.59l-1.72.75a18.86 18.86 0 00-3.65 2.37c-.26.22-.27.32-.27.32a1.17 1.17 0 00.7-.12 44 44 0 006.63-3.87.46.46 0 01.64.1.47.47 0 01-.1.64l-4.42 3.35a.41.41 0 00.22.11 1.67 1.67 0 00.85-.31l5.31-2.93a.46.46 0 01.61.16.45.45 0 01-.14.62l-3.32 2.23c-.41.28-.82.68-.71 1a.23.23 0 00.15.14 1.9 1.9 0 001.23-.18 39.32 39.32 0 018.57-2.46c.34-.06.68-.15 1-.24a7.17 7.17 0 012.23-.33 14.29 14.29 0 013.4.74c.5.14 1 .29 1.45.4l7.08 1.78a.45.45 0 01.33.55.44.44 0 01-.55.33l-7.08-1.77c-.48-.12-1-.27-1.49-.42a14.21 14.21 0 00-3.19-.7 6.45 6.45 0 00-2 .31c-.36.09-.71.18-1.08.25a38.77 38.77 0 00-8.37 2.4 3.78 3.78 0 01-1.3.25z" fill="#231f20"/><path d="M116.46 168.18c-1.2 1.17-4.54 19.86-5.79 28.69" fill="#fff"/><path d="M110.67 197.33h-.07a.45.45 0 01-.39-.51c.93-6.49 4.46-27.53 5.93-29a.46.46 0 11.64.65c-1 1.09-4.25 18.49-5.66 28.43a.46.46 0 01-.45.43zM143.06 214.18H143l-10.32-2a.49.49 0 01-.41-.48l-.09-12.41a.5.5 0 01.46-.5l18.64-1.55-7.62-28.38a.51.51 0 01.36-.62.5.5 0 01.61.36l7.78 29a.52.52 0 01-.45.63l-18.77 1.56.08 11.53 9.92 1.91a.5.5 0 01-.1 1z" fill="#231f20"/><path fill="#fff" d="M85.65 217.4l-8.98-24.03 36.66.72 8.23 27.41-35.91-4.1z"/><path d="M121.56 222h-.06l-35.91-4.1a.48.48 0 01-.41-.32l-9-24a.47.47 0 01.06-.46.41.41 0 01.42-.21l36.66.72a.5.5 0 01.47.36l8.22 27.4a.5.5 0 01-.09.47.53.53 0 01-.36.14zM86 216.93l34.85 4-7.85-26.35-35.57-.7z" fill="#231f20"/><path d="M87.6 217.62s-9.95 8.08-6.43 15.49 67 15.87 67 15.87l2.87-9.68s-49.83-25.46-63.44-21.68z" fill="#231f20"/><path d="M148.2 249.48h-.06c-2.61-.35-63.82-8.59-67.42-16.16s6.15-15.75 6.57-16.09a.51.51 0 01.18-.09c13.64-3.8 61.78 20.67 63.82 21.71a.5.5 0 01.26.59l-2.87 9.68a.49.49 0 01-.48.36zm-60.36-31.41c-.92.78-9.37 8.2-6.22 14.82 2.78 5.83 48.38 13.11 66.22 15.54l2.63-8.87c-4.58-2.31-49.83-24.85-62.63-21.49z" fill="#231f20"/><path d="M154.37 213.9s-49.37 20-61.61 25.23l7.12 11s45.59-.89 58.66-12.35 12.2-30.51-4.17-23.88z" fill="#231f20"/><path d="M99.88 250.64a.5.5 0 01-.42-.23l-7.12-11a.46.46 0 01-.06-.41.47.47 0 01.28-.32c12.1-5.2 61.1-25 61.62-25.23 5.82-2.36 10.41-1.68 12.59 1.85 3.82 6.2-1 16.83-7.9 22.88-5.5 4.82-17.11 8.38-34.5 10.59-12.91 1.64-24.37 1.88-24.48 1.88zm-6.38-11.28l6.64 10.27c3.84-.1 45.81-1.47 58.07-12.21 8.16-7.16 10.58-16.95 7.71-21.6-1.93-3.13-6-3.64-11.36-1.45-.49.19-48.11 19.45-61.06 24.99zm60.87-25.46z" fill="#231f20"/><path d="M85.47 207.8a1.78 1.78 0 01-.35.78l-1 1.43a1 1 0 011.42-.71 1.66 1.66 0 01.88 1.52 4.56 4.56 0 01-.43 1.79c-.68 1.77-2.22 4.36-4.46 3-1.51-.91-1.93-4.13-2.15-5.72-.42-3.16.54-7.2 4.59-6.58a7.81 7.81 0 01-1.66 4.25c.69-.63 3.35-1.62 3.16.24z" fill="#fff"/><path d="M82.79 216.46a2.81 2.81 0 01-1.45-.44c-1.69-1-2.13-4.25-2.36-6-.28-2 0-4.68 1.46-6.15a4 4 0 013.64-1 .46.46 0 01.39.49 8.12 8.12 0 01-.84 3 2.42 2.42 0 011.62 0 1.29 1.29 0 01.68 1.43 2.12 2.12 0 01-.41 1l.24.08a2.11 2.11 0 011.16 1.93 5.14 5.14 0 01-.46 2c-.43 1.11-1.37 3-2.89 3.56a2.36 2.36 0 01-.78.1zm.43-12.74a2.92 2.92 0 00-2.14.82c-1.25 1.23-1.44 3.55-1.2 5.31.2 1.53.62 4.6 1.93 5.39a1.67 1.67 0 001.46.22c.85-.29 1.72-1.42 2.34-3a4.25 4.25 0 00.39-1.61 1.22 1.22 0 00-.6-1.11.65.65 0 00-.51 0l-.35.53a.47.47 0 01-.54.17.46.46 0 01-.3-.48 1.27 1.27 0 01.55-.9l.49-.73a1.58 1.58 0 00.28-.57c0-.42-.11-.49-.16-.51a2.84 2.84 0 00-2.19.65.45.45 0 01-.62 0 .47.47 0 01-.06-.63 7.29 7.29 0 001.52-3.56z" fill="#231f20"/><path d="M99.32 237.06a.52.52 0 01-.48-.33.52.52 0 01.29-.67c.27-.1 26.46-10.24 32.13-13.72a.52.52 0 11.54.88c-5.75 3.53-31.21 13.39-32.29 13.81a.63.63 0 01-.19.03z" fill="#fff"/><path d="M145.53 84.17h-44.32a.5.5 0 010-1h44.32a.5.5 0 010 1zM145.53 92.42h-44.32a.5.5 0 010-1h44.32a.5.5 0 010 1zM135.18 100.67h-34a.5.5 0 010-1h34a.5.5 0 010 1zM318.36 133.18a.59.59 0 01-.22-.05.51.51 0 01-.28-.45v-12a.48.48 0 01.26-.43.49.49 0 01.51 0l8.68 5.47a.48.48 0 01.23.4.49.49 0 01-.2.42l-8.68 6.49a.47.47 0 01-.3.15zm.5-11.55v10.05l7.3-5.45z" fill="#d1d3d4"/></g></svg>